 <svg hidden aria-hidden="true">
  <defs>
    <linearGradient id="logo-atlassian-g" x1="99.684716%" x2="39.84444%" y1="15.813813%" y2="97.438839%">
      <stop offset="0%" stop-color="#0052CC"/>
      <stop offset="92.3%" stop-color="#2684FF"/>
    </linearGradient>
    <symbol id="logo-k8s" viewBox="-2.5 -2.5 505.7 89.6">
      <path fill="#326de6" d="M79.8 18.8a6.5 6.5 0 0 0-3.2-3.7L46.1.5c-.8-.4-1.7-.5-2.5-.5s-1.7 0-2.5.2L10.6 14.9c-1.5.7-2.6 2-3 3.7L.1 51.5c-.3 1.7.1 3.4 1.1 4.8l21.1 26.1c1.2 1.2 2.9 2 4.6 2.1h33.6a5 5 0 0 0 4.6-2.1l21.1-26.1c1-1.4 1.4-3.1 1.2-4.8l-7.6-32.7z"/>
      <path fill="#fff" d="M75.1 50.2l-.2-.1-.4-.1-1.2-.1-.6-.1h-.1c-1.1-.1-2.3-.3-3.4-.6-.3-.1-.6-.4-.7-.7.1 0 0 0 0 0l-.8-.2a26 26 0 0 0-.4-8.8 27 27 0 0 0-3.5-8.2l.6-.6v-.1c0-.3.1-.7.3-.9a18 18 0 0 1 2.8-2l.6-.3 1.1-.6.3-.2c.1-.1 0-.1 0-.2.9-.7 1.1-1.9.4-2.8a2 2 0 0 0-1.4-.7c-.5 0-1 .2-1.4.5l-.1.1-.3.2-.8.9-.4.4c-.7.8-1.6 1.6-2.5 2.2l-.6.2-.4-.1h-.1l-.8.5-2.5-2.4a25.6 25.6 0 0 0-13-5.2l-.1-.8v.1c-.3-.2-.4-.5-.5-.8 0-1.1 0-2.2.2-3.4v-.1l.1-.6.2-1.2v-.6c.1-1-.7-2-1.7-2.1-.6-.1-1.2.2-1.7.7a2 2 0 0 0-.6 1.4v.5l.2 1.2.1.6v.1c.2 1.1.2 2.2.2 3.4-.1.3-.2.6-.5.8v.2l-.1.8-3.4.5c-4.7 1-9 3.5-12.3 7l-.6-.4H25l-.4.1-.6-.2c-.9-.7-1.8-1.5-2.5-2.3l-.4-.4-.8-.9-.3-.2-.1-.1c-.4-.3-.9-.5-1.4-.5-.6 0-1.1.2-1.4.7-.6.9-.4 2.1.4 2.8l.1.1.3.2 1.1.6.6.3c1 .6 2 1.2 2.8 2 .2.2.4.6.3.9v-.1l.6.6-.3.5A23.7 23.7 0 0 0 19.5 48l-.8.2-.1.1c-.1.3-.4.5-.7.7-1.1.3-2.2.5-3.4.6l-.6.1-1.2.1-.4.1-.2.1a2 2 0 0 0-1.6 2.3c.2.9 1.1 1.5 2 1.4l.5-.1.1-.1c0-.1.3 0 .4 0l1.1-.4.6-.2h.1c1.1-.4 2.1-.7 3.3-.9h.1c.3 0 .6.1.8.3l.1.1.9-.1a24.1 24.1 0 0 0 10.9 13.5l-.5.7.1.1c.2.3.2.7.1 1-.4 1-1 2-1.6 2.9v.1l-.4.5-.7 1-.2.3-.1.1a2 2 0 0 0 .8 2.7l.7.2c.8 0 1.5-.5 1.9-1.2l.1-.1.2-.3.4-1.1.2-.6c.3-1.1.8-2.1 1.3-3.1.2-.3.5-.5.8-.6l.1-.1.4-.8a23.5 23.5 0 0 0 14.1.9c1.1-.2 2.2-.6 3.2-.9l.4.7.1.1c.3.1.6.3.8.6.5 1 1 2 1.3 3.1v.1l.2.6.4 1.1.2.3.1.1c.4.7 1.1 1.2 1.9 1.2l.8-.2c.4-.2.8-.6.9-1.1.1-.5.1-1-.1-1.5l-.1-.1-.2-.3-.7-1-.4-.5v-.2c-.7-.9-1.2-1.9-1.6-2.9-.1-.3-.1-.7.1-1l.1-.1-.3-.8c5.1-3.1 9-7.9 10.8-13.6l.8.1.1-.1c.2-.2.5-.3.8-.3h.1c1.1.2 2.2.5 3.2.9h.1l.6.2 1.1.5.4.1.2.1.5.1c.9 0 1.7-.6 2-1.4a2.4 2.4 0 0 0-1.8-2.1zm-28.9-3.1l-2.7 1.3-2.7-1.3-.7-2.9 1.9-2.4h3l1.9 2.4-.7 2.9zm16.3-6.5c.5 2.1.6 4.2.4 6.3l-9.5-2.7c-.9-.2-1.4-1.1-1.2-2l.4-.7 7.5-6.8c1.1 1.8 1.9 3.8 2.4 5.9zM57.1 31l-8.2 5.8c-.7.4-1.7.3-2.2-.4a1 1 0 0 1-.3-.7l-.6-10.1c4.4.5 8.3 2.4 11.3 5.4zM39 25.9l2-.4-.5 10c0 .9-.8 1.6-1.7 1.6l-.8-.2-8.3-5.9c2.6-2.5 5.8-4.3 9.3-5.1zm-12.2 8.8l7.4 6.6c.7.6.8 1.6.2 2.3-.2.3-.4.4-.8.5l-9.7 2.8a21 21 0 0 1 2.9-12.2zm-1.7 16.9l9.9-1.7c.8 0 1.6.5 1.7 1.3.1.3.1.7-.1 1l-3.8 9.2a19.7 19.7 0 0 1-7.7-9.8zM47.8 64a20.2 20.2 0 0 1-10.6-.5l4.9-8.9c.5-.6 1.3-.8 2-.4l.8.7 4.8 8.7-1.9.4zM60 55.3a19 19 0 0 1-6 6l-3.9-9.4c-.2-.8.2-1.6.9-1.9l.9-.2 10 1.7a15 15 0 0 1-1.9 3.8z"/>
      <path d="M484.5 62.5a10 10 0 0 0 4.2-.6c.8-.4 1.3-1.3 1.2-2.2-.1-1-.7-1.9-1.6-2.2-1.5-.9-3.2-1.7-4.9-2.2-1.7-.6-3.2-1.3-4.6-2-1.3-.6-2.4-1.4-3.5-2.4-1-1-1.7-2.1-2.2-3.4-.6-1.5-.8-3.1-.8-4.7-.1-3.3 1.4-6.5 4-8.5 2.7-2.1 6.3-3.1 10.9-3.1 2.2 0 4.5.2 6.7.7 1.7.3 3.4.7 5.1 1.3l-1.9 8.5-4.1-1.2c-1.6-.4-3.3-.5-4.9-.5-3.4 0-5.1.9-5.1 2.8l.2 1.2c.2.4.5.7.9 1l1.7 1c.7.4 1.7.8 2.9 1.2 2 .7 4 1.6 5.8 2.6a11 11 0 0 1 3.6 2.8c.9.9 1.5 2 1.9 3.3.4 1.4.6 2.8.6 4.2a9.6 9.6 0 0 1-4.3 8.6 21.3 21.3 0 0 1-12 2.9c-2.9.1-5.7-.2-8.5-.9l-4.6-1.4 1.8-8.8c1.8.7 3.7 1.3 5.6 1.7 2 .1 3.9.3 5.9.3m-55.1-11c-.1-3 .5-6 1.5-8.8a19 19 0 0 1 4.1-6.4 17.9 17.9 0 0 1 12.6-5.1c5.4 0 9.7 1.7 12.8 5 3.1 3.3 4.7 8.2 4.7 14.6l-.1 2.1-.1 2h-24.4a7.2 7.2 0 0 0 3.1 5.3 13 13 0 0 0 7.4 2c1.9 0 3.9-.2 5.8-.5 1.6-.3 3.2-.8 4.7-1.5L463 69c-.7.4-1.5.6-2.3.9-1.1.3-2.2.6-3.3.7l-3.8.6-4.1.2a23 23 0 0 1-9-1.5c-2.4-.9-4.5-2.3-6.3-4.1-1.7-1.8-2.9-4-3.7-6.3a32 32 0 0 1-1.1-8m25.3-4.1c0-.9-.2-1.8-.5-2.7-.2-.9-.7-1.6-1.2-2.3a6.8 6.8 0 0 0-2.1-1.7c-1-.5-2-.7-3.1-.7s-2.1.2-3.1.7a7 7 0 0 0-2.2 1.6c-.6.7-1.1 1.5-1.4 2.4l-.6 2.7h14.2m-54.6-24.8l10.8-1.7v11.2h13v9h-13v13.4a10 10 0 0 0 1.2 5.4c.8 1.3 2.4 2 4.9 2a19.8 19.8 0 0 0 6.9-1.2l1.5 8.4a28.8 28.8 0 0 1-10.3 2c-2.5.1-5-.3-7.3-1.2-1.8-.7-3.4-1.9-4.6-3.3a14 14 0 0 1-2.5-5.2c-.5-2.2-.7-4.5-.6-6.7V22.6m-43.7 28.9c-.1-3 .5-6 1.5-8.8a19 19 0 0 1 4.1-6.4 17.9 17.9 0 0 1 12.6-5.1c5.4 0 9.7 1.7 12.8 5 3.1 3.3 4.7 8.2 4.7 14.6l-.1 2.1-.1 2h-24.5a7.2 7.2 0 0 0 3.1 5.3 13 13 0 0 0 7.4 2c1.9 0 3.9-.2 5.8-.5 1.6-.3 3.2-.8 4.8-1.5L390 69c-.7.4-1.5.6-2.3.9-1.1.3-2.2.6-3.3.7l-3.8.6-4.1.2a23 23 0 0 1-9-1.5c-2.4-.9-4.5-2.3-6.3-4.1-1.7-1.8-2.9-4-3.7-6.3a25 25 0 0 1-1.1-8m25.3-4.1c0-.9-.2-1.8-.5-2.7-.2-.9-.7-1.6-1.2-2.3a6.8 6.8 0 0 0-2.1-1.7c-1-.5-2-.7-3.1-.7a6.7 6.7 0 0 0-5.2 2.3c-.6.7-1.1 1.5-1.4 2.4l-.6 2.7h14.1m-66.3-14a55.8 55.8 0 0 1 16.2-2.2 22 22 0 0 1 8 1.3c2 .7 3.8 1.9 5.1 3.5 1.3 1.6 2.2 3.5 2.7 5.5.6 2.3.8 4.7.8 7.1v21.5h-10.7V50c0-3.5-.5-5.9-1.4-7.4-.9-1.4-2.6-2.2-5.1-2.2l-2.5.1-2.3.2v29.4h-10.8V33.4m-7.6 8.3l-3.4-.7a20 20 0 0 0-4.2-.4l-2.5.2-2.1.4v29.1h-10.8V34.1a52.7 52.7 0 0 1 15.6-2.8l2.1.1 2.5.3a25.7 25.7 0 0 1 4.6 1l-1.8 9m-67.1 9.8c-.1-3 .5-6 1.5-8.8a19 19 0 0 1 4.1-6.4 17.9 17.9 0 0 1 12.6-5.1c5.4 0 9.7 1.7 12.8 5 3.1 3.3 4.7 8.2 4.7 14.5l-.1 2.1-.1 2h-24.5a7.2 7.2 0 0 0 3.1 5.3 13 13 0 0 0 7.4 2 25.4 25.4 0 0 0 10.5-1.9l1.5 8.8c-.7.4-1.5.6-2.3.9-1.1.3-2.2.6-3.3.7l-3.8.6-4.1.2a23 23 0 0 1-9-1.5c-2.4-.9-4.5-2.3-6.3-4.1-1.7-1.8-2.9-4-3.7-6.3-.6-2.7-1-5.3-1-8m25.4-4.1c0-.9-.2-1.8-.5-2.7-.2-.9-.7-1.6-1.2-2.3a6.8 6.8 0 0 0-2.1-1.7c-1-.5-2-.7-3.1-.7s-2.1.2-3.1.7a7 7 0 0 0-2.2 1.6c-.6.7-1.1 1.5-1.4 2.4l-.6 2.7h14.2m-42.9 3.5c0-7-2.6-10.4-7.7-10.4-1.1 0-2.2.1-3.3.4-.9.2-1.8.6-2.6 1.1v19.6a30.3 30.3 0 0 0 4.7.4c2.6.2 5.1-.9 6.7-3 1.5-2.4 2.3-5.2 2.2-8.1m11 .4c0 2.8-.4 5.6-1.4 8.3a16.9 16.9 0 0 1-10 10.4 24 24 0 0 1-8.4 1.4l-4.1-.2-4.2-.4-3.9-.7a13 13 0 0 1-3.3-.9V15.7l10.8-1.7v19a20 20 0 0 1 15.2-.1c2 .9 3.8 2.3 5.2 4 1.5 1.9 2.6 4 3.2 6.3.6 2.5.9 5.3.9 8.1m-45.6 17.6a55.8 55.8 0 0 1-16.2 2.1c-2.8.1-5.5-.4-8.1-1.3-2-.8-3.7-2-5.1-3.6a15 15 0 0 1-2.7-5.7 29 29 0 0 1-.8-7.2V32.1h10.8V52c0 3.5.5 6 1.4 7.5.9 1.5 2.6 2.3 5.1 2.3l2.5-.1c.9-.1 1.6-.1 2.3-.3V32.1h10.8v36.8m-63-23l3.3-3.6 3.3-3.7 3-3.5 2.5-2.9h12.8l-7.5 8.5c-2.5 2.7-5.1 5.5-8 8.3a137.3 137.3 0 0 1 13 16.1c1.2 1.9 2.2 3.7 3 5.3h-12.4l-2.7-4.1-3.1-4.6a49.4 49.4 0 0 0-7.2-7.9v16.7h-10.8V15.7l10.8-1.7v31.9"/>
    </symbol>
    <symbol id="logo-atlassian" viewBox="0 0 205 26">
      <path fill="url(#logo-atlassian-g)" d="M7.8 11.9a.7.7 0 0 0-1.2.1L.5 24.3a.7.7 0 0 0 .6 1h8.6c.2 0 .5-.1.6-.4 1.9-3.8.8-9.6-2.5-13z"/>
      <path fill="#2684FF" d="M12.3.8a16 16 0 0 0-1 15.9l4.2 8.2c.1.3.4.4.7.4h8.5a.7.7 0 0 0 .7-1L13.6.8a.7.7 0 0 0-1.3 0z"/>
      <path fill="#0052CC" d="M112.6 10.6c0 3 1.4 5.4 7 6.5 3.2.7 4 1.2 4 2.3 0 1-.8 1.7-3.1 1.7a17 17 0 0 1-8-2.1v5c1.7.7 3.9 1.6 8 1.6 5.7 0 8-2.5 8-6.3m0 0c0-3.6-2-5.3-7.3-6.5-3-.6-3.7-1.3-3.7-2.2 0-1.2 1-1.7 3-1.7 2.4 0 4.8.7 7 1.7V6c-2.1-1-4.5-1.5-6.8-1.4-5.3 0-8.1 2.3-8.1 6m74.1-5.7v20.5h4.4V9.7l1.8 4.1 6.2 11.5h5.6V4.8h-4.4V18l-1.7-3.8-5-9.4zm-32.7 0h4.8v20.5H154zm-5.5 14.5c0-3.6-2-5.3-7.3-6.5-3-.6-3.7-1.3-3.7-2.2 0-1.2 1-1.7 3-1.7 2.4 0 4.7.7 7 1.7V6c-2.2-1-4.5-1.5-6.8-1.4-5.4 0-8.1 2.3-8.1 6 0 3.1 1.4 5.5 6.9 6.6 3.3.7 4 1.2 4 2.3 0 1-.7 1.7-3 1.7a17 17 0 0 1-8-2.1v5c1.6.7 3.8 1.6 7.9 1.6 5.8 0 8-2.5 8-6.3m-73-14.5v20.5h9.8l1.6-4.4h-6.6V4.8zm-19.5 0v4.4h5.3v16.1H66v-16h5.7V4.7zm-7 0h-6.4l-7.1 20.5h5.4l1-3.4c2.6.7 5.2.7 7.7 0l1 3.4H56L49 4.8zm-3.2 13.4c-.9 0-1.8-.2-2.6-.4l2.6-9 2.6 9c-.8.2-1.7.4-2.6.4zm56.5-13.4h-6.3l-7.2 20.5h5.5l1-3.4c2.5.7 5.2.7 7.7 0l1 3.4h5.5l-7.2-20.5zM99 18.2c-.9 0-1.7-.2-2.6-.4l2.6-9 2.7 9c-.9.2-1.8.4-2.7.4zm77-13.4h-6.3l-7.1 20.5h5.4l1-3.4c2.6.7 5.2.7 7.7 0l1 3.4h5.6L176 4.8zm-3 13.4c-1 0-1.9-.2-2.7-.4l2.6-9 2.6 9c-.8.2-1.7.4-2.6.4z"/>
    </symbol>
    <symbol id="logo-hugo" viewBox="0 0 512 133">
      <path fill="#FF4088" stroke="#C9177E" stroke-width="9" d="M113.9 85.4v-42c0-5.4-2.9-10.4-7.6-13.2-10-6-28-16.4-38.8-22.8a18 18 0 0 0-18.6.2L14.4 28.8c-5.9 3.6-9.4 10-9.4 17v42.9c0 6.8 3.6 13.1 9.5 16.6l35.9 21a15.6 15.6 0 0 0 15.5.1l39.8-22.1a16 16 0 0 0 8.2-14v-5z"/>
      <path fill="#FFF" d="M32.2 101.9V30.8h14.9v25.9h24.6V30.8h14.9v71.1H71.7V70.8H47.1v31.1z"/>
      <path fill="#0594CB" stroke="#0083C0" stroke-width="9" d="M244 85.5v-42c0-5.4-3-10.4-7.7-13.2-10-6-27.9-16.4-38.8-22.8a18 18 0 0 0-18.6.2l-34.5 21.2c-5.8 3.7-9.4 10-9.4 17v42.9c0 6.8 3.6 13.1 9.5 16.6l36 21a15.6 15.6 0 0 0 15.4.1l39.8-22.1a16 16 0 0 0 8.2-14v-5z"/>
      <path fill="#FFF" d="M162.7 34h14.5v38.5c0 6.2.1 10.1.5 12 .5 2.8 1.6 4.8 3.8 6.6 2.2 1.8 4.7 2.3 8.5 2.3 3.9 0 5.1-.6 7.1-2.3a9 9 0 0 0 3.5-5.7c.4-2.4 1-6.4 1-12V34h14.6v37.3c0 8.5-.4 14.5-1.1 18-.8 3.6-2.1 6.5-4 9-2 2.4-4.7 4.3-8 5.8a32.7 32.7 0 0 1-12.9 2.1c-6.4 0-11.3-.8-14.6-2.3A21 21 0 0 1 164 90c-.9-4-1.4-10-1.4-18V34z"/>
      <path fill="#33BA91" stroke="#00A88A" stroke-width="9" d="M376 85.5v-42c0-5.4-3-10.4-7.7-13.2-10-6-27.9-16.4-38.8-22.8a18 18 0 0 0-18.6.2l-34.5 21.2c-5.8 3.7-9.4 10-9.4 17v42.9c0 6.8 3.6 13.1 9.5 16.6l36 21a15.6 15.6 0 0 0 15.4.1l39.8-22.1a16 16 0 0 0 8.2-14v-5z"/>
      <path fill="#FFF" d="M355.6 65.5c0 16.2-3 21-9.2 27.7-6.1 6.7-14.3 9.4-24.4 9.4a36.6 36.6 0 0 1-35.6-36c0-10.8 4-20.1 11.2-27 6.2-6 15.5-10 25.1-10 11.6 0 23.6 5.5 31 16.3L343 55c-4.6-8.6-11.3-11.5-20.9-11.8a22 22 0 0 0-21.3 23.3c.4 7.5 4 20.4 20.9 22.8 8.9 1.2 19-8.3 19-13.4h-16.7V63.1h31.7v2.4z"/>
      <g transform="translate(398 5)">
        <path fill="#EBB951" stroke="#FCD804" stroke-width="9" d="M109 80.5v-42c0-5.4-3-10.4-7.7-13.2-10-6-27.9-16.4-38.8-22.8a18 18 0 0 0-18.6.2L9.4 23.9C3.6 27.6 0 34 0 41v42.9c0 6.8 3.6 13.1 9.5 16.6l36 21a15.6 15.6 0 0 0 15.4.1l39.8-22.1a16 16 0 0 0 8.2-14v-5z"/>
        <circle fill="none" cx="55" cy="61" r="30" stroke="#FFF" stroke-width="13.5"/>
      </g>
    </symbol>
    <symbol id="logo-gatsby" viewBox="0 0 106 28">
      <path d="M62.9 12h2.8v10h-2.8v-1.3a3.4 3.4 0 0 1-3.1 1.6c-3.1 0-5.1-2.4-5.1-5.3 0-3 2-5.3 4.9-5.3.8 0 2.3.1 3.2 1.6V12zm-5.2 5c0 1.6 1.1 2.8 2.8 2.8 1.6 0 2.8-1.2 2.8-2.8 0-1.6-1.1-2.8-2.8-2.8a2.7 2.7 0 0 0-2.8 2.8zm13.5-2.6V22h-2.8v-7.6h-1.1V12h1.1V8.6h2.8V12h1.9v2.4h-1.9zm8.5 0c-.7-.6-1.3-.7-1.6-.7-.7 0-1.1.3-1.1.8 0 .3.1.6.9.9l.7.2c.8.3 2 .6 2.5 1.4.3.4.5 1 .5 1.7 0 .9-.3 1.8-1.1 2.5s-1.8 1.1-3 1.1c-2.1 0-3.2-1-3.9-1.7l1.5-1.7c.6.6 1.4 1.2 2.2 1.2.8 0 1.4-.4 1.4-1.1 0-.6-.5-.9-.9-1l-.6-.2c-.7-.3-1.5-.6-2.1-1.2-.5-.5-.8-1.1-.8-1.9 0-1 .5-1.8 1-2.3.8-.6 1.8-.7 2.6-.7a5 5 0 0 1 3.2 1.1l-1.4 1.6zm6.1-1.1c1-1.4 2.4-1.6 3.2-1.6 2.9 0 4.9 2.3 4.9 5.3s-2 5.3-5 5.3c-.6 0-2.1-.1-3.2-1.6V22H83V5.2h2.8v8.1zm-.3 3.7c0 1.6 1.1 2.8 2.8 2.8 1.6 0 2.8-1.2 2.8-2.8 0-1.6-1.1-2.8-2.8-2.8a2.7 2.7 0 0 0-2.8 2.8zm13 3.5L93.7 12H97l3.1 5.7 2.8-5.7h3.2l-8 15.3h-3.2l3.6-6.8zM54 13.7h-7v2.8h3.7c-.6 1.9-2 3.2-4.6 3.2-2.9 0-5-2.4-5-5.3S43.1 9 46 9c1.6 0 3.2.8 4.2 2.1l2.3-1.5A8 8 0 0 0 38 14.4c0 4.5 3.4 8.1 8 8.1s8-3.6 8-8.1v-.7z"/>
      <path fill="#fff" d="M25 14h-7v2h4.8a9 9 0 0 1-5.8 6.5L5.5 11A9 9 0 0 1 14 5c3 0 5.7 1.5 7.4 3.8l1.5-1.3a11 11 0 0 0-19.6 4.1l13.2 13.2C21.3 23.6 25 19.2 25 14zm-22 .1a10.9 10.9 0 0 0 10.8 10.8L3 14.1z"/>
      <path fill="#639" d="M14 0C6.3 0 0 6.3 0 14s6.3 14 14 14 14-6.3 14-14S21.7 0 14 0zM6.2 21.8A10.9 10.9 0 0 1 3 14.2L13.9 25c-2.8-.1-5.6-1.1-7.7-3.2zm10.2 2.9L3.3 11.6a11 11 0 0 1 19.6-4.1l-1.5 1.3A9.2 9.2 0 0 0 14 5a9.1 9.1 0 0 0-8.5 6L17 22.5a9 9 0 0 0 5.8-6.5H18v-2h7a11 11 0 0 1-8.6 10.7z"/>
    </symbol>
    <symbol id="logo-vuejs" viewBox="0 0 100 31">
      <path fill="#41B883" d="M29 0h7.1L18.5 30.7.8 0h13.5l4.2 7.1 4-7.1z"/>
      <path fill="#41B883" d="M.8 0l17.7 30.7L36 0h-7L18.5 18.4 7.8 0z"/>
      <path fill="#35495E" d="M7.8 0l10.7 18.5L29 0h-6.6l-4 7.1L14.3 0z"/>
      <path fill="#2C3E50" d="M38 11.3c0-.2.1-.4.4-.6s.6-.3 1-.3c.3 0 .6.1.7.4l3.3 8.8 3.2-8.7c.1-.3.4-.5.7-.5.3 0 .6 0 1 .3.2.2.4.4.4.6v.4l-4.4 10.8c0 .3-.4.5-1 .5-.5 0-.8-.2-1-.5l-4.2-10.8-.1-.4zM50.5 18v-6.8c0-.2 0-.4.3-.5.2-.2.5-.3.7-.3.3 0 .6.1.8.3.2.2.3.3.3.5V18c0 .8.3 1.5.9 2 .6.7 1.3 1 2.1 1s1.5-.3 2-.9a3 3 0 0 0 1-2.1v-6.8c0-.2 0-.4.3-.5.2-.2.5-.3.8-.3.3 0 .5.1.7.3.2.1.3.3.3.5V18c0 1.3-.5 2.5-1.5 3.5a5 5 0 0 1-3.6 1.5 5 5 0 0 1-3.6-1.5c-1-1-1.5-2.2-1.5-3.5zm12.7 0v-2.8c0-1.3.5-2.5 1.5-3.5a5 5 0 0 1 3.7-1.4 5 5 0 0 1 3.5 1.4c1 .9 1.5 2 1.5 3.4 0 .5 0 .9-.2 1.2s-.3.5-.6.6c-.2.2-.4.2-.7.3h-6.5v.8c0 1 .3 1.7 1 2.3a4 4 0 0 0 2.7.9l1.5-.3 1-.5.6-.3c.3 0 .5.2.6.4l.3.6c0 .4-.4.8-1.2 1.3s-1.7.6-3 .6c-1.6 0-3-.5-4-1.4s-1.7-2.2-1.7-3.7zm2.2-2.2h4.8c.4 0 .7 0 .9-.2.2-.1.2-.3.2-.7 0-.7-.3-1.4-.8-2a3 3 0 0 0-4.2 0c-.6.5-1 1.1-1 2v.9zm9.8 5.8c0-.4.1-.7.4-1 .3-.3.6-.4 1-.4.3 0 .6.1.9.4.3.3.4.6.4 1 0 .3-.1.7-.4 1-.3.2-.6.3-1 .3-.3 0-.6-.1-.9-.4-.3-.2-.4-.6-.4-1zm2.7 6.2c0-.3 0-.5.2-.7l.6-.3c.7 0 1.2-.2 1.4-.7.2-.5.3-1.3.3-2.3V11.2c0-.2 0-.4.3-.5.2-.2.4-.3.7-.3.4 0 .6.1.8.3.2 0 .3.3.3.5v12.6c0 1.5-.3 2.7-.8 3.6-.6.9-1.5 1.3-2.7 1.3-.8 0-1.1-.3-1.1-1zm2.2-22c0-.3.1-.6.4-.8.2-.3.6-.4 1-.4.3 0 .6.1.9.4.2.2.4.5.4.8 0 .3-.2.6-.4.9-.3.2-.6.4-1 .4-.3 0-.6-.2-.9-.4-.3-.3-.4-.6-.4-.9zM84.9 21c0-.2 0-.4.2-.7.1-.2.3-.3.5-.3l.6.3 1.1.6c.5.2 1.1.3 1.8.3.8 0 1.5-.1 1.9-.4.3-.3.5-.7.5-1.2 0-.6-.2-1-.6-1.4-.4-.3-1-.6-1.6-.7l-1.9-.6c-.6-.2-1.1-.6-1.6-1-.4-.5-.6-1.2-.6-2 0-1 .3-1.8 1-2.5.7-.8 1.8-1.1 3.3-1.1.9 0 1.7.1 2.5.4.7.3 1.1.6 1.1 1 0 .2 0 .4-.2.7-.2.3-.4.4-.6.4l-1-.4c-.6-.2-1.2-.4-1.8-.4-.8 0-1.4.2-1.8.6-.4.4-.6.8-.6 1.3 0 .4.2.8.7 1 .4.4 1 .6 1.6.7l1.8.6c.7.2 1.2.6 1.6 1.2.5.5.7 1.2.7 2 0 1.2-.4 2-1.2 2.6a5 5 0 0 1-3.2 1c-1.1 0-2.1-.2-3-.7S85 21.5 85 21z"/>
    </symbol>
    <symbol id="logo-reactjs" viewBox="0 0 60 20">
      <g fill="none" fill-rule="evenodd" transform="translate(0 -2)">
        <circle cx="11" cy="12" r="2.05" fill="#000" fill-rule="nonzero"/>
        <g stroke="#000">
          <ellipse cx="11" cy="12" rx="11" ry="4.2"/>
          <ellipse cx="11" cy="12" rx="11" ry="4.2" transform="rotate(60 11 12)"/>
          <ellipse cx="11" cy="12" rx="11" ry="4.2" transform="rotate(120 11 12)"/>
        </g>
        <text fill="#000" font-family="-apple-system,BlinkMacSystemFont,Segoe UI,Roboto,Oxygen,Ubuntu,Cantarell,Fira Sans,Droid Sans,Helvetica Neue,sans-serif" font-size="14">
          <tspan x="27" y="17.3">React</tspan>
        </text>
      </g>
    </symbol>
    <symbol id="logo-docker" viewBox="0 0 98 27">
      <g fill="#2E6FB1">
        <path d="M47.9 6.5h.2c.6.1.8.4.8.8v7.8c0 .9-.4 1.9-1.1 2.9a4.7 4.7 0 0 1-3.6 1.7h-.3c-1.3 0-2.5-.6-3.7-1.8a4.9 4.9 0 0 1 1.1-7c.9-.6 1.8-.9 2.8-.9 1.2 0 2.2.3 3 1V7.3c.2-.5.5-.8.8-.8zm-6.8 8.3v.2c0 1.3.7 2.2 2 2.8l.9.2h.2c1.2 0 2.1-.7 2.8-2l.2-.9v-.2c0-1.3-.7-2.2-2-2.8l-1-.2H44c-1.2 0-2.1.6-2.8 1.9l-.1 1zm13.5-4.6c1.2 0 2.4.5 3.4 1.4 1 1 1.4 2.1 1.4 3.4 0 1.8-.8 3.2-2.5 4.2-.7.4-1.5.6-2.2.6h-.3c-1.3 0-2.5-.6-3.6-1.8-.7-1-1-2-1-3 0-1.6.7-2.9 2.1-3.9.9-.6 1.8-.9 2.7-.9zm-2.9 4.7v.2c0 1.1.5 2 1.6 2.6l1.2.3h.2c1.1 0 2-.6 2.6-1.8l.2-1.1v-.2c0-.9-.4-1.7-1.3-2.3-.5-.3-1.1-.5-1.7-.5-1.3 0-2.2.7-2.8 2v.8zm13-4.8c1.2 0 2.4.5 3.4 1.4l.2.5v.1c-.1.6-.4.9-.9.9-.2 0-.6-.2-1.2-.7a3 3 0 0 0-1.3-.3h-.2c-1.2 0-2.1.6-2.7 1.9l-.2 1.1c0 1.2.6 2.1 1.9 2.7l1.2.2c.7 0 1.4-.3 2.1-.9l.4-.1h.1c.5 0 .8.3.9.9v.1c0 .6-.8 1.2-2.3 1.8l-1.1.1h-.3c-1.3 0-2.5-.6-3.6-1.8-.7-1-1-2-1-3 0-1.6.7-2.9 2.1-3.9.7-.7 1.6-1 2.5-1zm8 4.8l-1.1.7v3.3c0 .5-.3.8-.9.9h-.1c-.5 0-.8-.3-.9-.8V7.4c.1-.6.4-.9.8-.9h.2c.6.1.9.4.9.8v6.1l5.2-3.4h.2c.5 0 .8.3.9 1 0 .4-.4.8-1.2 1.2l-2.5 1.7 3.6 4.6.1.3v.1c-.1.6-.4.9-.9.9-.4 0-.8-.4-1.4-1.2l-2.9-3.7zm10.7-4.7c1.9 0 3.3.9 4.3 2.6.4.7.5 1.4.5 2.2v.2c-.1.6-.4.9-.9.9h-6.7a2.9 2.9 0 0 0 2.7 1.8c.5 0 1-.2 1.7-.5h.3c.6.1.8.4.8.9v.1c0 .7-.9 1.2-2.6 1.4h-.2c-1.7 0-3.1-.8-4.2-2.4-.4-.8-.6-1.6-.6-2.4 0-1.8.8-3.2 2.5-4.2a6 6 0 0 1 2.4-.6zm-2.8 4.1h5.8c0-.2-.2-.7-.7-1.3-.7-.6-1.3-.9-2-.9h-.4c-1 0-1.8.5-2.4 1.4l-.3.8zm10.2-4.2c.6.1.9.4.9.8v.1c.7-.7 1.7-1 2.9-1 .6 0 1.3.2 2.1.5.3.3.4.5.4.8v.1c-.1.6-.4.9-.9.9H96l-1.3-.3h-.2c-1.2 0-2.1.6-2.6 1.9l-.2 1.1v3.9c0 .5-.3.8-.9.9h-.1c-.5 0-.8-.3-.9-.9v-7.8c.1-.7.4-1 1-1z"/>
        <path stroke-width=".7" d="M32.2 10a5.4 5.4 0 0 0-2.3-3.9l-.5-.4-.4.5c-.7 1.1-1 2.5-.9 3.7.1.8.4 1.7.9 2.3-.4.3-1.7.9-3.4.9H.4C-.1 15.8.7 26 12.4 26c8.7 0 15.8-3.9 19.1-12.1 1.1 0 3.9.2 5.3-2.5l.4-.7-.5-.4c-.9-.5-3-.7-4.5-.3z"/>
        <path d="M16.6 0h3.9v3.6h-3.9zm0 4.3h3.9v3.6h-3.9zm-4.6 0h3.9v3.6H12zm-4.6 0h3.9v3.6H7.4zM2.8 8.5h3.9v3.6H2.8zm4.6 0h3.9v3.6H7.4zm4.6 0h3.9v3.6H12zm4.6 0h3.9v3.6h-3.9zm4.6 0h3.9v3.6h-3.9z"/>
      </g>
    </symbol>
    <symbol id="logo-smashing" viewBox="0 0 43 44">
      <ellipse cx="20.259701" cy="40.348779" opacity=".05" rx="20.210467" ry="2.816"/>
      <path fill="#d33a2c" d="M26.7 25.3a22.5 22.5 0 0 0-5.8-3.2c-1.5-.6-3-1.4-4.4-2.4-3.2-2.3-4.9-5.2-4.9-8.6a9 9 0 0 1 2.6-6.5l-7 1.6c-1 .3-1.9.9-2.4 1.7-.6.9-.8 2-.5 3L10 36.2c.5 2 2.5 3.3 4.5 2.9l2.9-.7h-.3c-1.9-.6-3.8-1.5-5.5-2.5l3-6.8c2.4 2 5.4 3 8.5 3 3.3 0 5-1.1 5-3.5 0-1.3-.6-2.6-1.5-3.4zm15.8 3.4L36.7 3.2c-.4-2-2.5-3.3-4.5-2.9l-4.2 1a24.6 24.6 0 0 1 6.9 2.3l-2.5 6.7a11.3 11.3 0 0 0-7.7-2.4c-3 0-4.4 1.1-4.4 3.5 0 1 .6 2 1.5 2.5 1.9 1.3 4 2.3 6.2 3 1.8.8 3.6 1.8 5.2 3a10.4 10.4 0 0 1 3.7 8.2 10 10 0 0 1-2 6.3l4.8-1c1-.3 1.8-1 2.4-1.8.5-.9.7-1.9.4-2.9z"/>
    </symbol>
    <symbol id="logo-cisco" viewBox="0 0 65 34">
      <path d="M63.2 32.3h.3l.5 1.2.4-1.2h.3v1.4h-.2v-1.2l-.4 1.2h-.2l-.5-1.2v1.2h-.2v-1.4zm-.1 0v.1h-.5v1.3h-.2v-1.3h-.5v-.1H63zm1.6-21.7c0-.8-.6-1.4-1.4-1.4s-1.4.6-1.4 1.4v2.9c0 .8.6 1.4 1.4 1.4s1.4-.6 1.4-1.4v-3zM57 6.7c0-.7-.6-1.4-1.4-1.4-.8 0-1.4.7-1.4 1.4v6.8c0 .8.6 1.4 1.4 1.4.8 0 1.4-.6 1.4-1.4V6.7zm-7.7-5.2c0-.8-.7-1.4-1.4-1.4-.8 0-1.4.6-1.4 1.4v14.8a1.4 1.4 0 0 0 2.8 0V1.5zm-7.8 5.2c0-.7-.6-1.4-1.4-1.4-.7 0-1.4.7-1.4 1.4v6.8a1.4 1.4 0 0 0 2.8 0V6.7zm-7.7 3.9c0-.8-.6-1.4-1.4-1.4-.8 0-1.4.6-1.4 1.4v2.9a1.4 1.4 0 0 0 2.8 0v-3zm-7.7-3.9c0-.7-.7-1.4-1.4-1.4-.8 0-1.4.7-1.4 1.4v6.8a1.4 1.4 0 0 0 2.8 0V6.7zm-7.7-5.2c0-.8-.7-1.4-1.5-1.4-.7 0-1.4.6-1.4 1.4v14.8c0 .8.7 1.4 1.4 1.4.8 0 1.5-.6 1.5-1.4V1.5zm-7.8 5.2c0-.7-.6-1.4-1.4-1.4-.8 0-1.4.7-1.4 1.4v6.8c0 .8.6 1.4 1.4 1.4.8 0 1.4-.6 1.4-1.4V6.7zM3 10.6c0-.8-.6-1.4-1.4-1.4-.8 0-1.4.6-1.4 1.4v2.9a1.4 1.4 0 0 0 2.8 0v-3zm29 14.5s-1.2-.3-2.2-.3c-1.1 0-1.7.3-1.7.9 0 .6.8.9 1.3 1l.8.3c1.8.6 2.6 1.8 2.6 3.2 0 2.8-2.4 3.7-4.6 3.7-1.5 0-3-.3-3-.3V31c.2.1 1.4.5 2.6.5 1.4 0 2-.4 2-1s-.5-1-1.2-1.2l-.6-.2c-1.6-.5-2.9-1.4-2.9-3.3 0-2 1.6-3.4 4.2-3.4 1.4 0 2.7.3 2.7.3v2.4zm21 .1c-1.6 0-2.9 1.3-2.9 3 0 1.6 1.3 2.9 3 2.9s2.9-1.3 2.9-3c0-1.6-1.3-2.9-3-2.9zm6 3c0 3.1-2.5 5.7-6 5.7-3.4 0-5.9-2.6-5.9-5.8s2.5-5.7 6-5.7c3.4 0 5.9 2.6 5.9 5.7zm-44.4-2.4c-.2-.1-1-.6-2.4-.6-1.9 0-3.1 1.2-3.1 3 0 1.6 1.2 3 3 3a5 5 0 0 0 2.5-.7v3c-.4.1-1.4.4-2.6.4-3.2 0-6-2.2-6-5.8 0-3.3 2.5-5.7 6-5.7 1.3 0 2.3.3 2.6.4v3zm29.5 0c0-.1-1-.6-2.3-.6-1.9 0-3.1 1.2-3.1 3 0 1.6 1.2 3 3 3a5 5 0 0 0 2.4-.7v3c-.3.1-1.3.4-2.5.4-3.2 0-6-2.2-6-5.8 0-3.3 2.5-5.7 6-5.7 1.3 0 2.3.3 2.5.4v3zm-22.8 8h-2.8V22.5h2.8v11.1z"/>
    </symbol>
    <symbol id="logo-nbc" viewBox="0 0 58 35">
      <path fill="#FFF" d="M53.2 33.6c-1 .4-2 .6-3 .6h-44c-2.5-.2-5-2.4-5.6-4.8-.8-2.5 0-5.1 1.6-7a6.7 6.7 0 0 1 5.8-2A6.9 6.9 0 0 1 9.3 8.6c2.3-1 5.3-.4 7.1 1.3a6.9 6.9 0 0 1 4.7-9c2.8-.6 5.4.5 7 2.9l.7 1.4A7 7 0 0 1 34.2.7c2.4-.3 4.7.7 6.2 2.8a7.3 7.3 0 0 1 .8 6.3h.1A6.5 6.5 0 0 1 48 8.5c2.2.7 4 3 4.3 5.4a7 7 0 0 1-2.5 6.4 6.8 6.8 0 0 1 6.8 4c1 2.5.7 5.6-1 7.5a5 5 0 0 1-2.3 1.8z"/>
      <path fill="#08C" d="M48.6 20.4l-16.3 11 5.5-13.2 2.6-6c1-2.1 3-3.3 5.2-3.4 2 0 3.8 1 5 2.8a6.4 6.4 0 0 1-2 8.8z"/>
      <path fill="#6360A6" d="M40.5 10l-8 19.3-.3-2.1-2.5-15.9c-.1-1 .3-1.7 1-2.3l1.2-.7c0-.2-.3-.3-.4-.4h-2.3A6 6 0 0 1 32 2.3c1.4-1 3.7-1.2 5.4-.4C39.5 2.8 41 5 41 7.4a9 9 0 0 1-.5 2.6z"/>
      <path fill="#B44549" d="M25 29.4L17.3 10c-.9-2-.5-4.7 1-6.5a5.9 5.9 0 0 1 6-1.8c2 .4 3.7 2.3 4.2 4.3.2.7.2 1.6.2 2.4l-3.5 21z"/>
      <path fill="#D76F2C" d="M8.1 19.7a6.2 6.2 0 0 1-2-5.5c.2-2.3 2-4.5 4-5.1 2.1-.7 4.5-.1 6 1.5a7 7 0 0 1 1.4 2.1L25 31.5l-17-11.8z"/>
      <path fill="#ECB731" d="M6.4 33.5A6 6 0 0 1 1.7 30c-1-2-.8-4.8.6-6.5A5.8 5.8 0 0 1 8 21.3c.9.1 1.6.6 2.3 1l16.5 11.2H6.4z"/>
      <path fill="#64B054" d="M51 33.5a6 6 0 0 0 4.8-3.4c1-2 .8-4.8-.6-6.5a5.8 5.8 0 0 0-5.7-2.3c-.9.1-1.6.6-2.3 1L30.8 33.5H51z"/>
    </symbol>
    <symbol id="logo-verizon" viewBox="0 0 115 26">
      <path fill="red" d="M111.7 0h2.7l-7.8 16.6h-2.1l-3.8-8.2a44.3 44.3 0 0 1 2.6 0c.7 1.7 1.6 3.3 2.2 5L111.7.2z"/>
      <path d="M45.6 2.4h5V7h-5V2.3zM20 9C23.5 7 28.5 7.6 31 11c1.4 2 1.8 4.6 1.8 7h-12c.3 1.2.8 2.5 2 3.2 1.5 1 4 .7 4.9-1.2h4.9a7 7 0 0 1-3.6 4.3c-1.9 1-4 1.2-6.1.9a8 8 0 0 1-5.4-3.4A9.7 9.7 0 0 1 16 15c.3-2.5 1.8-5 4-6.2zm2.7 3c-1.1.4-1.7 1.7-2 2.9h6.9c-.2-1-.5-1.9-1.2-2.5-1-1-2.5-1-3.7-.5zM73.3 8c2.7-.4 5.7.1 7.8 2a9.2 9.2 0 0 1 .5 12.8A9.3 9.3 0 0 1 71 24.6a8.3 8.3 0 0 1-4.6-6.7c-.2-1.7 0-3.4.6-4.9 1-2.6 3.5-4.5 6.2-5zm.6 3.8c-1.5.5-2.1 2-2.3 3.5-.2 1.7-.2 3.7 1 5.2 1.2 1.6 3.9 1.5 5.1 0 1-1.3 1.2-3 1-4.6 0-1.4-.5-2.9-1.6-3.7-1-.7-2.2-.8-3.2-.4zM91.4 9c1.7-1.3 4.1-1.5 6-.7 1.4.6 2.5 1.8 3 3.3.5 1.4.4 3 .4 4.5v8.7h-5.1v-10c0-.8-.3-1.7-1-2.2-1.1-.8-2.7-.6-3.6.3-.8.7-1 1.8-1 2.8v9.2h-5V8.2h4.8v2.3L91.4 9zM0 8.4h5.3L8.5 19c1.2-3.5 2.1-7 3.3-10.6h5l-5.7 16.5H5.8L0 8.4zm33.8 0h4.9V11l1.1-1.5c1-1.2 2.9-1.7 4.4-1.2v4.3c-1.2-.1-2.6 0-3.7.7-1 .8-1.6 2.2-1.6 3.6v7.9h-5V8.3zm11.8 0h5.1v16.5h-5.1V8.4zm6.5 0h13.7v3.8l-.6.8-7.1 7.9h8.1v4a1344 1344 0 0 0-14.1 0V21l7.4-8.3c0-.2.3-.3.2-.5H52v-4z"/>
    </symbol>
  </defs>
</svg>
