<?xml version="1.0" encoding="utf-8"?>
<!-- Generator: Adobe Illustrator 16.0.0, SVG Export Plug-In . SVG Version: 6.00 Build 0)  -->
<!DOCTYPE svg PUBLIC "-//W3C//DTD SVG 1.1//EN" "http://www.w3.org/Graphics/SVG/1.1/DTD/svg11.dtd">
<svg version="1.1" id="Layer_1" xmlns="http://www.w3.org/2000/svg" xmlns:xlink="http://www.w3.org/1999/xlink" x="0px" y="0px"
	 width="360px" height="360px" viewBox="0 0 360 360" enable-background="new 0 0 360 360" xml:space="preserve">
<g>
	<path fill="#EEEB6E" d="M307.285,52.728C274.71,20.15,229.708,0,180,0C80.59,0,0,80.589,0,180
		c0,49.709,20.15,94.712,52.728,127.285C85.3,339.855,130.297,360,180,360c99.412,0,180-80.589,180-180
		C360,130.298,339.855,85.3,307.285,52.728z"/>
	<path fill="#9069AD" d="M308.509,207.743H82.317c-8.776,0-15.891-7.113-15.891-15.89V50.697c0-8.776,7.114-15.891,15.891-15.891
		h226.192c8.775,0,15.891,7.114,15.891,15.891v141.156C324.4,200.63,317.285,207.743,308.509,207.743z"/>
	<path opacity="0.2" fill="#2E373A" d="M285.419,303.22H59.227c-8.775,0-15.89-7.113-15.89-15.89V146.173
		c0-8.775,7.114-15.89,15.89-15.89h226.193c8.775,0,15.891,7.114,15.891,15.89V287.33C301.31,296.106,294.195,303.22,285.419,303.22
		z"/>
	<rect x="66.427" y="76.629" opacity="0.2" fill="#2E373A" width="257.973" height="32.942"/>
	<path fill="#9D7CB8" d="M276.419,318.401H50.227c-8.775,0-15.89-7.114-15.89-15.89V161.354c0-8.775,7.114-15.89,15.89-15.89
		h226.193c8.775,0,15.891,7.114,15.891,15.89v141.157C292.31,311.287,285.195,318.401,276.419,318.401z"/>
	<path opacity="0.2" fill="#5E6062" d="M34.337,205.458v97.054c0,8.775,7.114,15.89,15.89,15.89h226.193
		c3.617,0,6.949-1.21,9.619-3.245L34.337,205.458z"/>
	<path fill="#FEDD2F" d="M101.889,220.694h-33.32c-5.619,0-10.176-4.556-10.176-10.176v-20.523c0-5.62,4.557-10.177,10.176-10.177
		h33.32c5.621,0,10.177,4.557,10.177,10.177v20.523C112.065,216.139,107.51,220.694,101.889,220.694z"/>
	<path fill="#FFE684" d="M93.901,210.896H76.557c-2.926,0-5.297-2.372-5.297-5.297v-10.684c0-2.926,2.371-5.297,5.297-5.297h17.345
		c2.925,0,5.296,2.371,5.296,5.297v10.684C99.197,208.523,96.826,210.896,93.901,210.896z"/>
	<path fill="#9069AD" d="M257.769,273.093H68.671c-5.677,0-10.278-4.602-10.278-10.278l0,0c0-5.677,4.602-10.278,10.278-10.278
		h189.098c5.676,0,10.277,4.602,10.277,10.278l0,0C268.046,268.491,263.445,273.093,257.769,273.093z"/>
</g>
</svg>
