<?xml version="1.0" encoding="utf-8"?>
<!-- Generator: Adobe Illustrator 16.0.0, SVG Export Plug-In . SVG Version: 6.00 Build 0)  -->
<!DOCTYPE svg PUBLIC "-//W3C//DTD SVG 1.1//EN" "http://www.w3.org/Graphics/SVG/1.1/DTD/svg11.dtd">
<svg version="1.1" id="Layer_1" xmlns="http://www.w3.org/2000/svg" xmlns:xlink="http://www.w3.org/1999/xlink" x="0px" y="0px"
	 width="359.999px" height="360px" viewBox="0 0 359.999 360" enable-background="new 0 0 359.999 360" xml:space="preserve">
<g>
	<path fill="#CCEBEF" d="M307.286,52.728C274.711,20.15,229.708,0,180,0C80.589,0,0,80.589,0,180
		c0,49.709,20.149,94.712,52.727,127.285C85.3,339.855,130.297,360,180,360c99.411,0,179.999-80.589,179.999-180
		C359.999,130.298,339.854,85.3,307.286,52.728z"/>
	<path opacity="0.2" fill="#5E6062" d="M309.934,284.073v-155.16V81.418c0-11.018-8.932-19.948-19.949-19.948h-43.254V43.585
		c0-7.966-6.459-14.424-14.424-14.424s-14.424,6.458-14.424,14.424V61.47H112.115V43.585c0-7.966-6.458-14.424-14.423-14.424
		c-7.966,0-14.424,6.458-14.424,14.424V61.47H44.545c-9.53,10.881-17.769,22.918-24.479,35.877v31.566v133.74
		c7.859,15.178,17.812,29.097,29.482,41.368h240.437C301.002,304.021,309.934,295.091,309.934,284.073z"/>
	<g>
		<path fill="#F3F3F4" d="M304.985,321.74H55.014c-11.018,0-19.948-8.931-19.948-19.948V99.136c0-11.017,8.931-19.947,19.948-19.947
			h249.971c11.018,0,19.949,8.931,19.949,19.947v202.656C324.934,312.81,316.002,321.74,304.985,321.74z"/>
		<path fill="#F05051" d="M324.934,146.632H35.065V99.136c0-11.017,8.931-19.947,19.948-19.947h249.971
			c11.018,0,19.949,8.931,19.949,19.947V146.632z"/>
		<circle opacity="0.2" fill="#5C5E61" cx="112.692" cy="100.356" r="19.916"/>
		<circle opacity="0.2" fill="#5C5E61" cx="247.307" cy="100.356" r="19.916"/>
		<g>
			<path fill="#9A9A9C" d="M112.692,115.144L112.692,115.144c-7.966,0-14.424-6.457-14.424-14.423V61.303
				c0-7.966,6.458-14.423,14.424-14.423l0,0c7.965,0,14.423,6.457,14.423,14.423v39.418
				C127.115,108.687,120.657,115.144,112.692,115.144z"/>
			<path fill="#9A9A9C" d="M247.307,115.144L247.307,115.144c-7.965,0-14.424-6.457-14.424-14.423V61.303
				c0-7.966,6.459-14.423,14.424-14.423l0,0c7.965,0,14.422,6.457,14.422,14.423v39.418
				C261.729,108.687,255.272,115.144,247.307,115.144z"/>
		</g>
		<path fill="#7ECCBA" d="M128.059,247.73H93.157c-5.852,0-10.594,4.743-10.594,10.595v29.768c0,0.885,0.717,1.603,1.602,1.603
			h52.885c0.885,0,1.603-0.718,1.603-1.603v-29.768C138.652,252.474,133.909,247.73,128.059,247.73z"/>
		<path fill="#F4878B" d="M271.053,241.728h-29.875c-7.238,0-13.107,5.868-13.107,13.107v33.258c0,0.885,0.717,1.603,1.604,1.603
			h52.885c0.885,0,1.602-0.718,1.602-1.603v-33.258C284.161,247.596,278.292,241.728,271.053,241.728z"/>
		<path fill="#FEDD2F" d="M199.733,221.988h-32.742c-6.447,0-11.674,5.227-11.674,11.674v54.431c0,0.885,0.717,1.603,1.603,1.603
			h52.883c0.885,0,1.604-0.718,1.604-1.603v-54.431C211.407,227.215,206.18,221.988,199.733,221.988z"/>
		<g>
			<path fill="#F26650" d="M96.303,219.687h28.609l-0.538-2.517c-0.838-3.922-1.146-7.938-0.916-11.942l0.615-10.708l-26.931-0.418
				l0.628,11.133c0.226,3.999-0.086,8.011-0.926,11.927L96.303,219.687z"/>
			<path fill="#7ECCBA" d="M129.538,237.009c2.69-0.895,4.332-3.668,3.722-6.436c-2.293-10.399-11.563-18.18-22.652-18.18
				c-11.088,0-20.358,7.78-22.651,18.18c-0.611,2.768,1.031,5.541,3.721,6.436l0,0C103.966,241.097,117.249,241.097,129.538,237.009
				L129.538,237.009z"/>
			<path opacity="0.2" fill="#9F9EA0" d="M110.607,221.809c-4.762,0-8.88-2.722-10.909-6.688c3.252-1.737,6.965-2.727,10.909-2.727
				c3.945,0,7.657,0.989,10.909,2.727C119.488,219.087,115.37,221.809,110.607,221.809z"/>
			<path fill="#FAC1B4" d="M122.864,204.958c0,6.966-5.811,12.574-12.85,12.243c-6.592-0.311-11.663-5.989-11.663-12.589v-4.768
				c0-1.823,1.478-3.302,3.302-3.302h17.908c1.824,0,3.303,1.479,3.303,3.302V204.958z"/>
			<path fill="#B8E1D6" d="M100.146,235.649l1.918,0.834l1.917-0.834c0.969-0.421,1.596-1.377,1.596-2.434v-5.793h-7.025v5.793
				C98.552,234.272,99.178,235.229,100.146,235.649z"/>
			<rect x="98.552" y="227.423" fill="#D3ECE4" width="7.025" height="2.17"/>
			<circle fill="#FAC1B4" cx="122.864" cy="206.243" r="2.01"/>
			<circle fill="#FAC1B4" cx="98.352" cy="206.243" r="2.01"/>
			<path opacity="0.2" fill="#494D50" d="M97.143,196.243c0-2.317,1.102-4.438,2.853-5.495l0,0
				c6.346-3.827,14.579-3.87,20.971-0.107l0.208,0.122c1.776,1.046,2.899,3.184,2.899,3.913v11.019l-18.596-5.808l-8.335,5.808
				V196.243z"/>
			<path fill="#F26650" d="M97.143,194.478c0-2.316,1.102-4.438,2.853-5.494l0,0c6.346-3.828,14.579-3.87,20.971-0.108l0.208,0.122
				c1.776,1.046,2.899,3.184,2.899,5.522v11.019l-18.596-7.417l-8.335,7.417V194.478z"/>
		</g>
		<path fill="#FABA9E" d="M273.172,179.138h-34.111c-3.885,0-7.033,3.149-7.033,7.033v38.726c0,3.884,3.148,7.033,7.033,7.033
			h34.111c3.883,0,7.033-3.149,7.033-7.033v-38.726C280.206,182.287,277.055,179.138,273.172,179.138z"/>
		<path opacity="0.2" fill="#9F9EA0" d="M84.7,251.963c-1.336,1.772-2.138,3.972-2.138,6.362v29.768
			c0,0.885,0.718,1.603,1.603,1.603h52.885c0.268,0,0.516-0.071,0.737-0.188L84.7,251.963z"/>
		<path opacity="0.2" fill="#9F9EA0" d="M155.317,251.281v36.812c0,0.885,0.717,1.603,1.603,1.603h52.713L155.317,251.281z"/>
		<path opacity="0.2" fill="#808082" d="M228.438,251.804c-0.232,0.975-0.367,1.986-0.367,3.031v33.258
			c0,0.885,0.717,1.603,1.604,1.603h52.342L228.438,251.804z"/>
		<g>
			<path fill="#F4878B" d="M266.155,197.497h-20.078c-1.758,0-3.182-1.424-3.182-3.182l0,0c0-1.756,1.424-3.181,3.182-3.181h20.078
				c1.758,0,3.182,1.425,3.182,3.181l0,0C269.336,196.073,267.913,197.497,266.155,197.497z"/>
			<path fill="#F4878B" d="M266.155,208.715h-20.078c-1.758,0-3.182-1.424-3.182-3.181l0,0c0-1.758,1.424-3.182,3.182-3.182h20.078
				c1.758,0,3.182,1.424,3.182,3.182l0,0C269.336,207.291,267.913,208.715,266.155,208.715z"/>
			<path fill="#F4878B" d="M266.155,219.933h-20.078c-1.758,0-3.182-1.424-3.182-3.181l0,0c0-1.757,1.424-3.182,3.182-3.182h20.078
				c1.758,0,3.182,1.425,3.182,3.182l0,0C269.336,218.509,267.913,219.933,266.155,219.933z"/>
		</g>
		<g>
			<path fill="#9EDAE0" d="M201.45,183.114h-37.949c-2.824,0-5.115,2.29-5.115,5.115v17.693c0,2.825,2.291,5.115,5.115,5.115h37.949
				c2.824,0,5.115-2.29,5.115-5.115v-17.693C206.565,185.404,204.274,183.114,201.45,183.114z"/>
			<path fill="#9EDAE0" d="M187.764,175.583h-10.578c-0.972,0-1.759,0.787-1.759,1.758v7.76c0,0.971,0.787,1.758,1.759,1.758h10.578
				c0.971,0,1.758-0.787,1.758-1.758v-7.76C189.522,176.37,188.735,175.583,187.764,175.583z"/>
			<circle fill="#CCEBEF" cx="182.475" cy="197.076" r="6.49"/>
		</g>
	</g>
</g>
</svg>
