<?xml version="1.0" encoding="utf-8"?>
<!-- Generator: Adobe Illustrator 16.0.0, SVG Export Plug-In . SVG Version: 6.00 Build 0)  -->
<!DOCTYPE svg PUBLIC "-//W3C//DTD SVG 1.1//EN" "http://www.w3.org/Graphics/SVG/1.1/DTD/svg11.dtd">
<svg version="1.1" id="Layer_1" xmlns="http://www.w3.org/2000/svg" xmlns:xlink="http://www.w3.org/1999/xlink" x="0px" y="0px"
	 width="360.372px" height="360.152px" viewBox="0 0 360.372 360.152" enable-background="new 0 0 360.372 360.152"
	 xml:space="preserve">
<g>
	<path fill="#FDDCCB" d="M357.377,147.592c-8.981-48.884-36.926-89.5-74.848-115.651L78.167,328.312
		c37.922,26.146,85.819,37.828,134.704,28.846C310.646,339.192,375.343,245.366,357.377,147.592z"/>
	<path opacity="0.2" fill="#808082" d="M337.098,100.228h-68.932c-7.85,0-14.213,6.363-14.213,14.213v92.777
		c0,7.85,6.363,14.213,14.213,14.213h68.932c7.85,0,14.212-6.363,14.212-14.213V114.44
		C351.31,106.591,344.947,100.228,337.098,100.228z"/>
	<path fill="#FABA9E" d="M147.812,3.085C50.038,21.051-14.66,114.876,3.305,212.65c8.983,48.891,36.935,89.511,74.862,115.661
		L282.529,31.94C244.605,5.787,196.701-5.898,147.812,3.085z"/>
	<path opacity="0.2" fill="#808082" d="M115.177,9.183c-5.165,4.626-7.644,11.131-7.337,17.558c-0.194,3.732,0.829,7.525,3.1,11.106
		c-1.228,1.021-2.01,2.559-2.01,4.279c0,3.071,2.49,5.562,5.562,5.562c0.203,0,0.403-0.013,0.601-0.033
		c1.392,7.479,5.14,14.214,10.472,19.248c-0.045,0.017-0.091,0.034-0.136,0.052c-0.134,0.052-0.269,0.104-0.401,0.155
		c-19.7,7.711-34.666,24.863-39.306,45.902c-1.688,7.661,2.854,15.336,10.298,17.812c34.011,11.314,70.771,11.314,104.781,0h0.001
		c7.443-2.476,11.986-10.15,10.298-17.812c-4.64-21.038-19.605-38.19-39.306-45.902c-0.106-0.042-0.213-0.083-0.32-0.124
		c5.392-5.006,9.154-11.737,10.4-19.32c0.151,0.012,0.302,0.022,0.456,0.022c3.071,0,5.562-2.49,5.562-5.562
		c0-1.995-1.054-3.739-2.632-4.721c0.224-0.395,0.422-0.805,0.564-1.252c0.005-0.013,0.008-0.025,0.012-0.038
		c0.548-0.638,0.972-1.362,1.236-2.19c4.164-13.025-1.494-26.831-12.843-33.437C169.847,0.169,165.422,0,160.957,0
		c-5.368,0-10.678,0.249-15.928,0.71c-2.187,1.317-4.205,2.922-5.982,4.793C131.306,2.017,121.909,3.153,115.177,9.183z"/>
	<g>
		<path fill="#F26650" d="M194.869,139.066c7.443-2.476,11.986-10.151,10.297-17.812c-6.346-28.779-32.002-50.31-62.688-50.31
			c-30.687,0-56.344,21.53-62.689,50.31c-1.689,7.66,2.855,15.336,10.297,17.812l0,0
			C124.098,150.381,160.857,150.381,194.869,139.066L194.869,139.066z"/>
		<path opacity="0.2" fill="#494D50" d="M142.479,97c-13.18,0-24.576-7.531-30.191-18.511c9-4.808,19.273-7.544,30.191-7.544
			c10.916,0,21.189,2.736,30.191,7.544C167.054,89.469,155.657,97,142.479,97z"/>
		<path fill="#FDDDCD" d="M176.396,50.368c0,19.276-16.08,34.798-35.559,33.881c-18.243-0.859-32.279-16.574-32.279-34.839V36.216
			c0-5.047,4.092-9.138,9.139-9.138h49.562c5.046,0,9.138,4.091,9.138,9.138V50.368z"/>
		<path fill="#F47960" d="M113.527,135.304l5.307,2.309l5.308-2.309c2.681-1.165,4.415-3.811,4.415-6.733v-16.031h-19.443v16.031
			C109.113,131.493,110.847,134.139,113.527,135.304z"/>
		<rect x="109.113" y="112.539" fill="#F79980" width="19.443" height="6.003"/>
		<circle fill="#FDDDCD" cx="176.396" cy="50.368" r="5.562"/>
		<circle fill="#FDDDCD" cx="108.559" cy="50.368" r="5.562"/>
		<path opacity="0.2" fill="#88888A" d="M109.245,20.901c6.741-6.036,16.155-7.17,23.901-3.666
			c7.325-7.698,18.644-11.021,29.445-7.568c15.057,4.812,22.113,19.673,17.301,34.729c-3.483,10.898-31.748,6.023-45.969-3.896
			c-8.563,9.207-21.665,14.201-26.402,8.911C99.365,40.302,100.137,29.059,109.245,20.901z"/>
		<path fill="#FEDD2F" d="M126.615,24.739c-4.812,15.057,49.713,32.484,54.524,17.428c4.813-15.057-3.491-31.164-18.548-35.977
			S131.428,9.683,126.615,24.739z"/>
		<path fill="#FEDD2F" d="M107.521,48.688c8.158,9.108,41.143-20.431,32.986-29.54c-8.158-9.108-22.154-9.88-31.263-1.723
			S99.365,39.579,107.521,48.688z"/>
	</g>
	<g>
		<path fill="#FEDD2F" d="M326.816,109.105h-68.932c-7.85,0-14.212,6.362-14.212,14.212v92.778c0,7.849,6.362,14.212,14.212,14.212
			h68.932c7.85,0,14.213-6.363,14.213-14.212v-92.778C341.029,115.468,334.666,109.105,326.816,109.105z"/>
		<g opacity="0.2">
			<path fill="#2E373A" d="M312.639,153.466h-40.576c-3.551,0-6.428-2.878-6.428-6.428l0,0c0-3.551,2.877-6.429,6.428-6.429h40.576
				c3.551,0,6.429,2.878,6.429,6.429l0,0C319.067,150.588,316.189,153.466,312.639,153.466z"/>
			<path fill="#2E373A" d="M312.639,176.135h-40.576c-3.551,0-6.428-2.878-6.428-6.429l0,0c0-3.55,2.877-6.428,6.428-6.428h40.576
				c3.551,0,6.429,2.878,6.429,6.428l0,0C319.067,173.257,316.189,176.135,312.639,176.135z"/>
			<path fill="#2E373A" d="M312.639,198.804h-40.576c-3.551,0-6.428-2.878-6.428-6.429l0,0c0-3.55,2.877-6.429,6.428-6.429h40.576
				c3.551,0,6.429,2.879,6.429,6.429l0,0C319.067,195.926,316.189,198.804,312.639,198.804z"/>
		</g>
	</g>
	<path opacity="0.2" fill="#808082" d="M317.707,302.11v-53.703c0-9.397-7.618-17.016-17.016-17.016h-39.674v-19.203
		c0-3.23-2.617-5.849-5.848-5.849H219.98c-3.229,0-5.848,2.618-5.848,5.849v19.203h-39.674c-9.397,0-17.015,7.618-17.015,17.016
		v58.858c0,9.397,7.617,17.016,17.015,17.016h117.582C301.336,317.769,309.936,310.337,317.707,302.11z"/>
	<g>
		<path fill="#F48FA4" d="M135.297,225.112c8.725-2.902,14.049-11.898,12.07-20.877c-7.438-33.731-37.511-58.968-73.478-58.968
			S7.851,170.504,0.412,204.235c-1.979,8.979,3.346,17.975,12.07,20.877l0,0C52.347,238.374,95.433,238.374,135.297,225.112
			L135.297,225.112z"/>
		<path opacity="0.2" fill="#494D50" d="M73.89,175.807c-15.447,0-28.806-8.827-35.387-21.696
			c10.55-5.635,22.591-8.843,35.387-8.843s24.837,3.208,35.387,8.843C102.695,166.979,89.337,175.807,73.89,175.807z"/>
		<path fill="#FFECA6" d="M113.646,121.149c0,22.594-18.848,40.786-41.679,39.711c-21.384-1.007-37.835-19.426-37.835-40.833
			l0.001-15.465c0-5.915,4.795-10.711,10.71-10.711h58.091c5.916,0,10.712,4.796,10.712,10.711V121.149z"/>
		<path opacity="0.1" fill="#494D50" d="M71.968,156.767c22.831,1.075,41.679-19.203,41.679-41.797v6.18
			c0,22.594-18.848,40.786-41.679,39.711c-21.384-1.007-37.835-19.426-37.835-40.833v-6.18
			C34.133,135.254,50.584,155.76,71.968,156.767z"/>
		<path fill="#F6A5B4" d="M39.957,220.702l6.221,2.705l6.221-2.705c3.142-1.366,5.175-4.466,5.175-7.893v-18.79H34.781v18.79
			C34.781,216.236,36.814,219.336,39.957,220.702z"/>
		<rect x="34.782" y="194.02" fill="#F9C0C9" width="22.791" height="7.036"/>
		<path fill="#FFECA6" d="M105.788,121.149c0,3.601,2.919,6.52,6.52,6.52s6.519-2.919,6.519-6.52c0-1.021,0-4.17,0-4.17
			s-3.94-2.349-6.519-2.349C108.707,114.631,105.788,117.55,105.788,121.149z"/>
		<path fill="#FFECA6" d="M41.99,121.149c0,3.601-2.918,6.52-6.519,6.52s-6.52-2.919-6.52-6.52c0-1.021,0-4.17,0-4.17
			s3.94-2.349,6.52-2.349C39.072,114.631,41.99,117.55,41.99,121.149z"/>
		<path opacity="0.2" fill="#494D50" d="M45.533,74.114L45.533,74.114c17.545-10.138,39.168-10.138,56.713,0l0,0
			c10.261,5.929,16.58,16.88,16.58,28.73v16.721H80.43l-6.54-6.902l-6.498,6.902H28.952v-16.721
			C28.952,90.994,35.272,80.043,45.533,74.114z"/>
		<path fill="#2E373A" d="M45.533,71.529L45.533,71.529c17.545-10.138,39.168-10.138,56.713,0l0,0
			c10.261,5.929,16.58,16.88,16.58,28.73v16.72H80.43l-6.54-7.089l-6.498,7.089H28.952v-16.72
			C28.952,88.409,35.272,77.458,45.533,71.529z"/>
	</g>
	<g>
		<path fill="#848486" d="M290.77,242.671H164.537c-9.396,0-17.015,7.618-17.015,17.016v58.858c0,9.397,7.618,17.016,17.015,17.016
			H290.77c9.398,0,17.016-7.618,17.016-17.016v-58.858C307.785,250.289,300.168,242.671,290.77,242.671z"/>
		<path fill="#848486" d="M245.249,217.619H210.06c-3.229,0-5.848,2.618-5.848,5.849v25.809c0,3.23,2.618,5.849,5.848,5.849h35.189
			c3.229,0,5.848-2.618,5.848-5.849v-25.809C251.097,220.237,248.479,217.619,245.249,217.619z"/>
		<circle fill="#D4EDE7" cx="227.654" cy="289.116" r="21.586"/>
	</g>
</g>
</svg>
