<?xml version="1.0" encoding="UTF-8"?>
<svg width="11px" height="18px" viewBox="0 0 11 18" version="1.1" xmlns="http://www.w3.org/2000/svg" xmlns:xlink="http://www.w3.org/1999/xlink">
    <!-- Generator: Sketch 48.2 (47327) - http://www.bohemiancoding.com/sketch -->
    <title>arrow-right</title>
    <desc>Created with Sketch.</desc>
    <defs></defs>
    <g id="Homepage" stroke="none" stroke-width="1" fill="none" fill-rule="evenodd" transform="translate(-740.000000, -3538.000000)">
        <g id="Testimonial" transform="translate(-32.000000, 3097.000000)" fill="#FFFFFF">
            <g id="arrows" transform="translate(722.000000, 441.000000)">
                <path d="M47.8079149,3.58310551 L47.4190401,3.97198031 C47.0432599,4.34776046 47.0270408,4.95182744 47.3821147,5.34723095 L55.0324006,13.8664418 C55.2907046,14.1540841 55.7332815,14.1778676 56.0209238,13.9195636 C56.0395692,13.90282 56.057302,13.8850872 56.0740456,13.8664418 L63.7243315,5.34723095 C64.0794054,4.95182744 64.0631863,4.34776046 63.6874061,3.97198031 L63.2985313,3.58310551 C62.908007,3.19258122 62.274842,3.19258122 61.8843178,3.58310551 C61.8686039,3.59881933 61.8534183,3.61505259 61.8387861,3.63177824 L55.8542785,10.4725096 C55.7088212,10.6387779 55.4561178,10.6556486 55.2898495,10.5101914 C55.2764652,10.4984824 55.2638767,10.4858939 55.2521677,10.4725096 L49.2676601,3.63177824 C48.904017,3.21610752 48.2722583,3.17393078 47.8565876,3.53757386 C47.8398619,3.55220604 47.8236287,3.56739169 47.8079149,3.58310551 Z" id="Path-Copy-4" transform="translate(55.553223, 8.694473) rotate(-90.000000) translate(-55.553223, -8.694473) "></path>
            </g>
        </g>
    </g>
</svg>