<?xml version="1.0" encoding="UTF-8"?>
<svg width="7px" height="4px" viewBox="0 0 7 4" version="1.1" xmlns="http://www.w3.org/2000/svg" xmlns:xlink="http://www.w3.org/1999/xlink">
    <!-- Generator: Sketch 48.2 (47327) - http://www.bohemiancoding.com/sketch -->
    <title>Path</title>
    <desc>Created with Sketch.</desc>
    <defs></defs>
    <g id="Homepage" stroke="none" stroke-width="1" fill="none" fill-rule="evenodd" transform="translate(-402.000000, -683.000000)">
        <g id="Hero" transform="translate(-211.000000, 143.000000)" fill="#30343F">
            <g id="Slogan" transform="translate(337.000000, 140.000000)">
                <path d="M276.149024,400.143851 L276.149005,400.14387 L276.143888,400.149061 C275.951044,400.344727 275.952186,400.659331 276.146447,400.853591 L278.866162,403.573307 C279.022372,403.729516 279.275638,403.729516 279.431848,403.573307 L282.149985,400.855169 C282.344864,400.66029 282.345302,400.344464 282.150965,400.149045 L282.149005,400.147074 L282.149002,400.147071 C281.953582,399.952739 281.637761,399.95318 281.442884,400.148057 L279.290426,402.300514 C279.212321,402.378619 279.085688,402.378619 279.007584,402.300514 L276.853516,400.146447 C276.65927,399.952201 276.344696,399.951042 276.149024,400.143851 Z" id="Path"></path>
            </g>
        </g>
    </g>
</svg>