<?xml version="1.0" encoding="UTF-8"?>
<svg width="11px" height="18px" viewBox="0 0 11 18" version="1.1" xmlns="http://www.w3.org/2000/svg" xmlns:xlink="http://www.w3.org/1999/xlink">
    <!-- Generator: Sketch 48.2 (47327) - http://www.bohemiancoding.com/sketch -->
    <title>arrow-left</title>
    <desc>Created with Sketch.</desc>
    <defs></defs>
    <g id="Homepage" stroke="none" stroke-width="1" fill="none" fill-rule="evenodd" transform="translate(-690.000000, -3538.000000)">
        <g id="Testimonial" transform="translate(-32.000000, 3097.000000)" fill="#FFFFFF">
            <g id="arrows" transform="translate(722.000000, 441.000000)">
                <path d="M-2.19208514,3.58310551 L-2.58095994,3.97198031 C-2.9567401,4.34776046 -2.97295923,4.95182744 -2.61788528,5.34723095 L5.03240061,13.8664418 C5.29070457,14.1540841 5.73328147,14.1778676 6.02092379,13.9195636 C6.03956916,13.90282 6.05730195,13.8850872 6.07404557,13.8664418 L13.7243315,5.34723095 C14.0794054,4.95182744 14.0631863,4.34776046 13.6874061,3.97198031 L13.2985313,3.58310551 C12.908007,3.19258122 12.274842,3.19258122 11.8843178,3.58310551 C11.8686039,3.59881933 11.8534183,3.61505259 11.8387861,3.63177824 L5.85427846,10.4725096 C5.70882123,10.6387779 5.45611776,10.6556486 5.28984947,10.5101914 C5.27646523,10.4984824 5.26387671,10.4858939 5.25216772,10.4725096 L-0.732339931,3.63177824 C-1.09598301,3.21610752 -1.72774168,3.17393078 -2.14341241,3.53757386 C-2.16013806,3.55220604 -2.17637132,3.56739169 -2.19208514,3.58310551 Z" id="Path-Copy-3" transform="translate(5.553223, 8.694473) scale(-1, 1) rotate(-90.000000) translate(-5.553223, -8.694473) "></path>
            </g>
        </g>
    </g>
</svg>