<?xml version="1.0" encoding="UTF-8"?>
<svg width="17px" height="10px" viewBox="0 0 17 10" version="1.1" xmlns="http://www.w3.org/2000/svg" xmlns:xlink="http://www.w3.org/1999/xlink">
    <!-- Generator: Sketch 48.2 (47327) - http://www.bohemiancoding.com/sketch -->
    <title>Path Copy 4</title>
    <desc>Created with Sketch.</desc>
    <defs></defs>
    <g id="Homepage" stroke="none" stroke-width="1" fill="none" fill-rule="evenodd" transform="translate(-133.000000, -4496.000000)">
        <path d="M133.779638,4497.14992 L133.507409,4497.35084 C133.116945,4497.63902 133.034027,4498.18917 133.322207,4498.57963 C133.365232,4498.63793 133.415303,4498.69068 133.471278,4498.73668 L140.959813,4504.89131 C141.218101,4505.10359 141.590448,4505.10359 141.848735,4504.89131 L149.337271,4498.73668 C149.712188,4498.42855 149.766326,4497.87483 149.458192,4497.49991 C149.412188,4497.44393 149.359437,4497.39386 149.30114,4497.35084 L149.028911,4497.14992 C148.656473,4496.87505 148.144065,4496.8917 147.790263,4497.19018 L141.662203,4502.36006 C141.513219,4502.48575 141.29533,4502.48575 141.146346,4502.36006 L135.018285,4497.19018 C134.664484,4496.8917 134.152076,4496.87505 133.779638,4497.14992 Z" id="Path-Copy-4" fill="#FFFFFF"></path>
    </g>
</svg>