<?xml version="1.0" encoding="UTF-8"?>
<svg width="4152px" height="968px" viewBox="0 0 4152 968" version="1.1" xmlns="http://www.w3.org/2000/svg" xmlns:xlink="http://www.w3.org/1999/xlink">
    <!-- Generator: Sketch 53.2 (72643) - https://sketchapp.com -->
    <title>pattern-news</title>
    <desc>Created with Sketch.</desc>
    <defs>
        <radialGradient cx="33.8443121%" cy="69.3627648%" fx="33.8443121%" fy="69.3627648%" r="100%" gradientTransform="translate(0.338443,0.693628),scale(0.472488,1.000000),rotate(90.000000),translate(-0.338443,-0.693628)" id="radialGradient-1">
            <stop stop-color="#C8E9ED" offset="0%"></stop>
            <stop stop-color="#FFFFFF" offset="100%"></stop>
        </radialGradient>
        <radialGradient cx="91.2850591%" cy="23.9927421%" fx="91.2850591%" fy="23.9927421%" r="53.9714522%" gradientTransform="translate(0.912851,0.239927),scale(0.472488,1.000000),rotate(84.811748),translate(-0.912851,-0.239927)" id="radialGradient-2">
            <stop stop-color="#C8E9ED" offset="0%"></stop>
            <stop stop-color="#FFFFFF" offset="100%"></stop>
        </radialGradient>
        <radialGradient cx="82.8127644%" cy="78.7573921%" fx="82.8127644%" fy="78.7573921%" r="53.9714522%" gradientTransform="translate(0.828128,0.787574),scale(0.472488,1.000000),rotate(84.811748),translate(-0.828128,-0.787574)" id="radialGradient-3">
            <stop stop-color="#FEDAD2" offset="0%"></stop>
            <stop stop-color="#FFFFFF" offset="100%"></stop>
        </radialGradient>
        <radialGradient cx="63.4825723%" cy="21.7591516%" fx="63.4825723%" fy="21.7591516%" r="34.2351221%" gradientTransform="translate(0.634826,0.217592),scale(0.472488,1.000000),rotate(77.158112),translate(-0.634826,-0.217592)" id="radialGradient-4">
            <stop stop-color="#FFFFFF" offset="0%"></stop>
            <stop stop-color="#FFFFFF" stop-opacity="0" offset="100%"></stop>
        </radialGradient>
        <radialGradient cx="24.0285901%" cy="10.8840225%" fx="24.0285901%" fy="10.8840225%" r="42.9766284%" gradientTransform="translate(0.240286,0.108840),scale(0.478722,1.000000),rotate(90.000000),translate(-0.240286,-0.108840)" id="radialGradient-5">
            <stop stop-color="#FFF0EC" offset="0%"></stop>
            <stop stop-color="#F2FAFB" offset="100%"></stop>
        </radialGradient>
        <radialGradient cx="85.1801771%" cy="78.0450006%" fx="85.1801771%" fy="78.0450006%" r="43.5927459%" gradientTransform="translate(0.851802,0.780450),scale(0.478722,1.000000),rotate(90.000000),translate(-0.851802,-0.780450)" id="radialGradient-6">
            <stop stop-color="#FFFFFF" offset="0%"></stop>
            <stop stop-color="#FFFFFF" stop-opacity="0" offset="100%"></stop>
        </radialGradient>
        <radialGradient cx="53.990622%" cy="45.9285383%" fx="53.990622%" fy="45.9285383%" r="90.0446938%" gradientTransform="translate(0.539906,0.459285),scale(0.419907,1.000000),rotate(88.584697),scale(1.000000,1.636780),translate(-0.539906,-0.459285)" id="radialGradient-7">
            <stop stop-color="#FBDDEA" offset="0%"></stop>
            <stop stop-color="#F5DBE6" offset="100%"></stop>
        </radialGradient>
        <radialGradient cx="16.8934096%" cy="78.8372361%" fx="16.8934096%" fy="78.8372361%" r="52.3763733%" gradientTransform="translate(0.168934,0.788372),scale(0.419907,1.000000),rotate(90.000000),translate(-0.168934,-0.788372)" id="radialGradient-8">
            <stop stop-color="#02F9FF" offset="0%"></stop>
            <stop stop-color="#F5DBE6" offset="100%"></stop>
        </radialGradient>
        <radialGradient cx="31.7566758%" cy="79.3404182%" fx="31.7566758%" fy="79.3404182%" r="57.6962882%" gradientTransform="translate(0.317567,0.793404),scale(0.419907,1.000000),rotate(82.633902),translate(-0.317567,-0.793404)" id="radialGradient-9">
            <stop stop-color="#5B69B5" offset="0%"></stop>
            <stop stop-color="#FFFFFF" stop-opacity="0" offset="100%"></stop>
        </radialGradient>
        <radialGradient cx="87.3956265%" cy="21.0748319%" fx="87.3956265%" fy="21.0748319%" r="90.5922451%" gradientTransform="translate(0.873956,0.210748),scale(0.419907,1.000000),rotate(88.584697),translate(-0.873956,-0.210748)" id="radialGradient-10">
            <stop stop-color="#3FDFE8" offset="0%"></stop>
            <stop stop-color="#FFFFFF" stop-opacity="0" offset="100%"></stop>
        </radialGradient>
        <radialGradient cx="43.974321%" cy="71.8170509%" fx="43.974321%" fy="71.8170509%" r="77.0955307%" gradientTransform="translate(0.439743,0.718171),scale(0.419907,1.000000),rotate(-84.632935),scale(1.000000,1.067461),translate(-0.439743,-0.718171)" id="radialGradient-11">
            <stop stop-color="#FF47CF" offset="0%"></stop>
            <stop stop-color="#FF0053" stop-opacity="0" offset="100%"></stop>
        </radialGradient>
        <radialGradient cx="47.7874054%" cy="18.8511941%" fx="47.7874054%" fy="18.8511941%" r="39.0641282%" gradientTransform="translate(0.477874,0.188512),scale(0.419907,1.000000),rotate(98.001624),translate(-0.477874,-0.188512)" id="radialGradient-12">
            <stop stop-color="#FFFFFF" offset="0%"></stop>
            <stop stop-color="#FFFFFF" stop-opacity="0" offset="100%"></stop>
        </radialGradient>
        <radialGradient cx="74.3135961%" cy="84.4792308%" fx="74.3135961%" fy="84.4792308%" r="53.6193377%" gradientTransform="translate(0.743136,0.844792),scale(0.419907,1.000000),rotate(-92.844392),translate(-0.743136,-0.844792)" id="radialGradient-13">
            <stop stop-color="#FF6535" offset="0%"></stop>
            <stop stop-color="#F48957" stop-opacity="0" offset="100%"></stop>
        </radialGradient>
    </defs>
    <g id="Page-1" stroke="none" stroke-width="1" fill="none" fill-rule="evenodd" opacity="0.651181176">
        <g id="pattern-2-copy" transform="translate(2076.000000, -26.500000) scale(1, -1) translate(-2076.000000, 26.500000) translate(0.000000, -1021.000000)">
            <g id="bottom" transform="translate(9.000000, 0.000000)">
                <path d="M2583.59919,195.879 C2507.52319,221.246 2426.24319,244.587 2342.65519,260.677 L2342.65519,260.677 C2229.24119,282.508 2111.58219,290.992 1996.91719,273.082 L1996.91719,273.082 C1792.77919,241.195 1595.69219,185.241 1386.89219,165.517 L1386.89219,165.517 C971.202194,126.251 533.968194,259.06 271.028194,504.459 L271.028194,504.459 C8.08919437,749.856 -71.6258056,1099.509 67.5871944,1396.807 L67.5871944,1396.807 C139.146194,1549.621 260.119194,1698.57 430.580194,1791.489 L430.580194,1791.489 C941.701194,2070.103 1390.78919,1600.1 1610.70219,1488.103 L1610.70219,1488.103 C1736.11219,1424.233 1970.04719,1408.837 2113.33719,1441.544 L2113.33719,1441.544 C2275.67419,1478.6 2408.72819,1557.975 2560.20819,1610.317 L2560.20819,1610.317 C2718.76619,1665.107 2868.48819,1724.259 3046.08619,1734.953 L3046.08619,1734.953 C3387.95419,1755.537 3763.38119,1588.278 3778.82619,1329.452 L3778.82619,1329.452 C3794.22119,1071.453 3594.80719,876.475 3819.18119,722.114 L3819.18119,722.114 C4026.54919,579.452 4061.10319,254.845 3717.24719,78.454 L3717.24719,78.454 C3607.14919,21.975 3491.13019,0.005 3373.40719,1.13686838e-13 L3373.40719,1.13686838e-13 C3102.65819,-0.014 2822.69819,116.152 2583.59919,195.879" id="blue-bottom" fill="url(#radialGradient-1)" style="mix-blend-mode: multiply;"></path>
                <path d="M2583.59919,195.879 C2507.52319,221.246 2426.24319,244.587 2342.65519,260.677 L2342.65519,260.677 C2229.24119,282.508 2111.58219,290.992 1996.91719,273.082 L1996.91719,273.082 C1792.77919,241.195 1595.69219,185.241 1386.89219,165.517 L1386.89219,165.517 C971.202194,126.251 533.968194,259.06 271.028194,504.459 L271.028194,504.459 C8.08919437,749.856 -71.6258056,1099.509 67.5871944,1396.807 L67.5871944,1396.807 C139.146194,1549.621 260.119194,1698.57 430.580194,1791.489 L430.580194,1791.489 C941.701194,2070.103 1390.78919,1600.1 1610.70219,1488.103 L1610.70219,1488.103 C1736.11219,1424.233 1970.04719,1408.837 2113.33719,1441.544 L2113.33719,1441.544 C2275.67419,1478.6 2408.72819,1557.975 2560.20819,1610.317 L2560.20819,1610.317 C2718.76619,1665.107 2868.48819,1724.259 3046.08619,1734.953 L3046.08619,1734.953 C3387.95419,1755.537 3763.38119,1588.278 3778.82619,1329.452 L3778.82619,1329.452 C3794.22119,1071.453 3594.80719,876.475 3819.18119,722.114 L3819.18119,722.114 C4026.54919,579.452 4061.10319,254.845 3717.24719,78.454 L3717.24719,78.454 C3607.14919,21.975 3491.13019,0.005 3373.40719,2.27373675e-13 L3373.40719,2.27373675e-13 C3102.65819,-0.014 2822.69819,116.152 2583.59919,195.879" id="blue-right" fill="url(#radialGradient-2)" style="mix-blend-mode: multiply;"></path>
                <path d="M2583.59919,195.879 C2507.52319,221.246 2426.24319,244.587 2342.65519,260.677 L2342.65519,260.677 C2229.24119,282.508 2111.58219,290.992 1996.91719,273.082 L1996.91719,273.082 C1792.77919,241.195 1595.69219,185.241 1386.89219,165.517 L1386.89219,165.517 C971.202194,126.251 533.968194,259.06 271.028194,504.459 L271.028194,504.459 C8.08919437,749.856 -71.6258056,1099.509 67.5871944,1396.807 L67.5871944,1396.807 C139.146194,1549.621 260.119194,1698.57 430.580194,1791.489 L430.580194,1791.489 C941.701194,2070.103 1390.78919,1600.1 1610.70219,1488.103 L1610.70219,1488.103 C1736.11219,1424.233 1970.04719,1408.837 2113.33719,1441.544 L2113.33719,1441.544 C2275.67419,1478.6 2408.72819,1557.975 2560.20819,1610.317 L2560.20819,1610.317 C2718.76619,1665.107 2868.48819,1724.259 3046.08619,1734.953 L3046.08619,1734.953 C3387.95419,1755.537 3763.38119,1588.278 3778.82619,1329.452 L3778.82619,1329.452 C3794.22119,1071.453 3594.80719,876.475 3819.18119,722.114 L3819.18119,722.114 C4026.54919,579.452 4061.10319,254.845 3717.24719,78.454 L3717.24719,78.454 C3607.14919,21.975 3491.13019,0.005 3373.40719,2.27373675e-13 L3373.40719,2.27373675e-13 C3102.65819,-0.014 2822.69819,116.152 2583.59919,195.879" id="blue-right" fill="url(#radialGradient-3)" style="mix-blend-mode: multiply;"></path>
                <path d="M2583.59919,195.879 C2507.52319,221.246 2426.24319,244.587 2342.65519,260.677 L2342.65519,260.677 C2229.24119,282.508 2111.58219,290.992 1996.91719,273.082 L1996.91719,273.082 C1792.77919,241.195 1595.69219,185.241 1386.89219,165.517 L1386.89219,165.517 C971.202194,126.251 533.968194,259.06 271.028194,504.459 L271.028194,504.459 C8.08919437,749.856 -71.6258056,1099.509 67.5871944,1396.807 L67.5871944,1396.807 C139.146194,1549.621 260.119194,1698.57 430.580194,1791.489 L430.580194,1791.489 C941.701194,2070.103 1390.78919,1600.1 1610.70219,1488.103 L1610.70219,1488.103 C1736.11219,1424.233 1970.04719,1408.837 2113.33719,1441.544 L2113.33719,1441.544 C2275.67419,1478.6 2408.72819,1557.975 2560.20819,1610.317 L2560.20819,1610.317 C2718.76619,1665.107 2868.48819,1724.259 3046.08619,1734.953 L3046.08619,1734.953 C3387.95419,1755.537 3763.38119,1588.278 3778.82619,1329.452 L3778.82619,1329.452 C3794.22119,1071.453 3594.80719,876.475 3819.18119,722.114 L3819.18119,722.114 C4026.54919,579.452 4061.10319,254.845 3717.24719,78.454 L3717.24719,78.454 C3607.14919,21.975 3491.13019,0.005 3373.40719,2.27373675e-13 L3373.40719,2.27373675e-13 C3102.65819,-0.014 2822.69819,116.152 2583.59919,195.879" id="white" fill="url(#radialGradient-4)"></path>
            </g>
            <g id="middle" style="mix-blend-mode: multiply;" transform="translate(0.000000, 81.000000)">
                <path d="M516.560352,283.214 C438.667352,529.657 608.455352,763.429 358.230352,870.939 L358.230352,870.939 C126.969352,970.299 -175.387648,1230.884 127.338352,1471.106 L127.338352,1471.106 C447.197352,1724.922 903.261352,1622.719 1262.06435,1577.613 L1262.06435,1577.613 C1341.63335,1567.61 1425.90935,1560.613 1511.02835,1561.179 L1511.02835,1561.179 C1626.52235,1561.945 1743.56935,1576.631 1852.51735,1616.617 L1852.51735,1616.617 C2046.48135,1687.802 2228.82235,1781.216 2429.73535,1841.386 L2429.73535,1841.386 C2829.72335,1961.175 3284.48535,1916.424 3590.33335,1727.176 L3590.33335,1727.176 C3896.18035,1537.928 4042.72635,1210.612 3964.33135,891.831 L3964.33135,891.831 C3924.03535,727.975 3824.81135,569.025 3685.51835,433.791 L3685.51835,433.791 C3513.18035,266.471 3216.92035,36.637 2942.97335,145.93 L2942.97335,145.93 C2834.49735,189.208 2758.45135,265.485 2680.87335,337.13 L2680.87335,337.13 C2603.29535,408.776 2516.54435,480.023 2398.14835,507.881 L2398.14835,507.881 C2261.15035,540.114 2100.94635,508.041 1966.81935,447.946 L1966.81935,447.946 C1814.86235,379.863 1689.95535,290.989 1561.57635,195.051 L1561.57635,195.051 C1376.53635,56.772 1183.10635,0.006 1013.01535,0 L1013.01535,0 C766.050352,-0.008 568.259352,119.649 516.560352,283.214" id="orange" fill="url(#radialGradient-5)" style="mix-blend-mode: multiply;"></path>
                <path d="M516.560352,283.214 C438.667352,529.657 608.455352,763.429 358.230352,870.939 L358.230352,870.939 C126.969352,970.299 -175.387648,1230.884 127.338352,1471.106 L127.338352,1471.106 C447.197352,1724.922 903.261352,1622.719 1262.06435,1577.613 L1262.06435,1577.613 C1341.63335,1567.61 1425.90935,1560.613 1511.02835,1561.179 L1511.02835,1561.179 C1626.52235,1561.945 1743.56935,1576.631 1852.51735,1616.617 L1852.51735,1616.617 C2046.48135,1687.802 2228.82235,1781.216 2429.73535,1841.386 L2429.73535,1841.386 C2829.72335,1961.175 3284.48535,1916.424 3590.33335,1727.176 L3590.33335,1727.176 C3896.18035,1537.928 4042.72635,1210.612 3964.33135,891.831 L3964.33135,891.831 C3924.03535,727.975 3824.81135,569.025 3685.51835,433.791 L3685.51835,433.791 C3513.18035,266.471 3216.92035,36.637 2942.97335,145.93 L2942.97335,145.93 C2834.49735,189.208 2758.45135,265.485 2680.87335,337.13 L2680.87335,337.13 C2603.29535,408.776 2516.54435,480.023 2398.14835,507.881 L2398.14835,507.881 C2261.15035,540.114 2100.94635,508.041 1966.81935,447.946 L1966.81935,447.946 C1814.86235,379.863 1689.95535,290.989 1561.57635,195.051 L1561.57635,195.051 C1376.53635,56.772 1183.10635,0.006 1013.01535,0 L1013.01535,0 C766.050352,-0.008 568.259352,119.649 516.560352,283.214" id="orange" fill="url(#radialGradient-6)"></path>
            </g>
            <g id="top" style="mix-blend-mode: multiply;" transform="translate(33.000000, 89.000000)">
                <path d="M465.983721,-2.27373675e-13 C383.557721,0.005 300.261721,18.845 212.377721,64.975 L212.377721,64.975 C-220.088279,291.975 95.4937211,1201.925 385.352721,1496.798 L385.352721,1496.798 C879.969721,1999.976 1311.98972,1535.612 1610.54272,1501.976 L1610.54272,1501.976 C1936.37272,1465.266 2228.84172,1530.831 2487.49972,1596.396 L2487.49972,1596.396 C2785.46572,1671.927 3038.56372,1747.457 3246.10172,1666.632 L3246.10172,1666.632 C3484.92272,1573.625 3389.41372,1208.277 3608.92372,1103.626 L3608.92372,1103.626 C4567.38072,646.684 3925.21772,180.614 3683.29972,83.976 L3683.29972,83.976 C3197.65072,-110.024 2691.04572,269.752 2139.57772,351.975 L2139.57772,351.975 C1657.63672,423.832 1321.64472,305.373 1046.30372,186.915 L1046.30372,186.915 C829.087721,93.462 649.619721,0.011 466.017721,-2.27373675e-13 L466.017721,-2.27373675e-13 C465.994721,-2.27373675e-13 466.005721,-2.27373675e-13 465.983721,-2.27373675e-13" id="blue-left" fill="url(#radialGradient-7)" style="mix-blend-mode: multiply;"></path>
                <path d="M465.983721,-2.27373675e-13 C383.557721,0.005 300.261721,18.845 212.377721,64.975 L212.377721,64.975 C-220.088279,291.975 95.4937211,1201.925 385.352721,1496.798 L385.352721,1496.798 C879.969721,1999.976 1311.98972,1535.612 1610.54272,1501.976 L1610.54272,1501.976 C1936.37272,1465.266 2228.84172,1530.831 2487.49972,1596.396 L2487.49972,1596.396 C2785.46572,1671.927 3038.56372,1747.457 3246.10172,1666.632 L3246.10172,1666.632 C3484.92272,1573.625 3389.41372,1208.277 3608.92372,1103.626 L3608.92372,1103.626 C4567.38072,646.684 3925.21772,180.614 3683.29972,83.976 L3683.29972,83.976 C3197.65072,-110.024 2691.04572,269.752 2139.57772,351.975 L2139.57772,351.975 C1657.63672,423.832 1321.64472,305.373 1046.30372,186.915 L1046.30372,186.915 C829.087721,93.462 649.619721,0.011 466.017721,-2.27373675e-13 L466.017721,-2.27373675e-13 C465.994721,-2.27373675e-13 466.005721,-2.27373675e-13 465.983721,-2.27373675e-13" id="blue-left" fill="url(#radialGradient-8)"></path>
                <path d="M465.983721,-2.27373675e-13 C383.557721,0.005 300.261721,18.845 212.377721,64.975 L212.377721,64.975 C-220.088279,291.975 95.4937211,1201.925 385.352721,1496.798 L385.352721,1496.798 C879.969721,1999.976 1311.98972,1535.612 1610.54272,1501.976 L1610.54272,1501.976 C1936.37272,1465.266 2228.84172,1530.831 2487.49972,1596.396 L2487.49972,1596.396 C2785.46572,1671.927 3038.56372,1747.457 3246.10172,1666.632 L3246.10172,1666.632 C3484.92272,1573.625 3389.41372,1208.277 3608.92372,1103.626 L3608.92372,1103.626 C4567.38072,646.684 3925.21772,180.614 3683.29972,83.976 L3683.29972,83.976 C3197.65072,-110.024 2691.04572,269.752 2139.57772,351.975 L2139.57772,351.975 C1657.63672,423.832 1321.64472,305.373 1046.30372,186.915 L1046.30372,186.915 C829.087721,93.462 649.619721,0.011 466.017721,-2.27373675e-13 L466.017721,-2.27373675e-13 C465.994721,-2.27373675e-13 466.005721,-2.27373675e-13 465.983721,-2.27373675e-13" id="blue-left" fill="url(#radialGradient-9)" style="mix-blend-mode: overlay;"></path>
                <path d="M465.983721,-2.27373675e-13 C383.557721,0.005 300.261721,18.845 212.377721,64.975 L212.377721,64.975 C-220.088279,291.975 95.4937211,1201.925 385.352721,1496.798 L385.352721,1496.798 C879.969721,1999.976 1311.98972,1535.612 1610.54272,1501.976 L1610.54272,1501.976 C1936.37272,1465.266 2228.84172,1530.831 2487.49972,1596.396 L2487.49972,1596.396 C2785.46572,1671.927 3038.56372,1747.457 3246.10172,1666.632 L3246.10172,1666.632 C3484.92272,1573.625 3389.41372,1208.277 3608.92372,1103.626 L3608.92372,1103.626 C4567.38072,646.684 3925.21772,180.614 3683.29972,83.976 L3683.29972,83.976 C3197.65072,-110.024 2691.04572,269.752 2139.57772,351.975 L2139.57772,351.975 C1657.63672,423.832 1321.64472,305.373 1046.30372,186.915 L1046.30372,186.915 C829.087721,93.462 649.619721,0.011 466.017721,-2.27373675e-13 L466.017721,-2.27373675e-13 C465.994721,-2.27373675e-13 466.005721,-2.27373675e-13 465.983721,-2.27373675e-13" id="blue-right" fill="url(#radialGradient-10)"></path>
                <path d="M465.983721,0 C383.557721,0.005 300.261721,18.845 212.377721,64.975 L212.377721,64.975 C-220.088279,291.975 95.4937211,1201.925 385.352721,1496.798 L385.352721,1496.798 C879.969721,1999.976 1311.98972,1535.612 1610.54272,1501.976 L1610.54272,1501.976 C1936.37272,1465.266 2228.84172,1530.831 2487.49972,1596.396 L2487.49972,1596.396 C2785.46572,1671.927 3038.56372,1747.457 3246.10172,1666.632 L3246.10172,1666.632 C3484.92272,1573.625 3389.41372,1208.277 3608.92372,1103.626 L3608.92372,1103.626 C4567.38072,646.684 3925.21772,180.614 3683.29972,83.976 L3683.29972,83.976 C3197.65072,-110.024 2691.04572,269.752 2139.57772,351.975 L2139.57772,351.975 C1657.63672,423.832 1321.64472,305.373 1046.30372,186.915 L1046.30372,186.915 C829.087721,93.462 649.619721,0.011 466.017721,0 L466.017721,0 C465.994721,0 466.005721,0 465.983721,0" id="pink-bottom" fill="url(#radialGradient-11)"></path>
                <path d="M465.983721,-2.27373675e-13 C383.557721,0.005 300.261721,18.845 212.377721,64.975 L212.377721,64.975 C-220.088279,291.975 95.4937211,1201.925 385.352721,1496.798 L385.352721,1496.798 C879.969721,1999.976 1311.98972,1535.612 1610.54272,1501.976 L1610.54272,1501.976 C1936.37272,1465.266 2228.84172,1530.831 2487.49972,1596.396 L2487.49972,1596.396 C2785.46572,1671.927 3038.56372,1747.457 3246.10172,1666.632 L3246.10172,1666.632 C3484.92272,1573.625 3389.41372,1208.277 3608.92372,1103.626 L3608.92372,1103.626 C4567.38072,646.684 3925.21772,180.614 3683.29972,83.976 L3683.29972,83.976 C3197.65072,-110.024 2691.04572,269.752 2139.57772,351.975 L2139.57772,351.975 C1657.63672,423.832 1321.64472,305.373 1046.30372,186.915 L1046.30372,186.915 C829.087721,93.462 649.619721,0.011 466.017721,-2.27373675e-13 L466.017721,-2.27373675e-13 C465.994721,-2.27373675e-13 466.005721,-2.27373675e-13 465.983721,-2.27373675e-13" id="white" fill="url(#radialGradient-12)" style="mix-blend-mode: lighten;"></path>
                <path d="M465.983721,-2.27373675e-13 C383.557721,0.005 300.261721,18.845 212.377721,64.975 L212.377721,64.975 C-220.088279,291.975 95.4937211,1201.925 385.352721,1496.798 L385.352721,1496.798 C879.969721,1999.976 1311.98972,1535.612 1610.54272,1501.976 L1610.54272,1501.976 C1936.37272,1465.266 2228.84172,1530.831 2487.49972,1596.396 L2487.49972,1596.396 C2785.46572,1671.927 3038.56372,1747.457 3246.10172,1666.632 L3246.10172,1666.632 C3484.92272,1573.625 3389.41372,1208.277 3608.92372,1103.626 L3608.92372,1103.626 C4567.38072,646.684 3925.21772,180.614 3683.29972,83.976 L3683.29972,83.976 C3197.65072,-110.024 2691.04572,269.752 2139.57772,351.975 L2139.57772,351.975 C1657.63672,423.832 1321.64472,305.373 1046.30372,186.915 L1046.30372,186.915 C829.087721,93.462 649.619721,0.011 466.017721,-2.27373675e-13 L466.017721,-2.27373675e-13 C465.994721,-2.27373675e-13 466.005721,-2.27373675e-13 465.983721,-2.27373675e-13" id="orange-bottom" fill="url(#radialGradient-13)"></path>
            </g>
        </g>
    </g>
</svg>