<?xml version="1.0" encoding="UTF-8"?>
<svg width="512px" height="513px" viewBox="0 0 512 513" version="1.1" xmlns="http://www.w3.org/2000/svg" xmlns:xlink="http://www.w3.org/1999/xlink">
    <!-- Generator: Sketch 43.1 (39012) - http://www.bohemiancoding.com/sketch -->
    <title>Untitled 3</title>
    <desc>Created with Sketch.</desc>
    <defs></defs>
    <g id="Page-1" stroke="none" stroke-width="1" fill="none" fill-rule="evenodd">
        <g id="comment" fill-rule="nonzero" fill="#FFFFFF">
            <path d="M256,447.504 C245.616,447.504 230.416,435.824 220.336,434.752 C191.584,458.864 161.632,487.888 120.912,502.976 C103.136,510.512 87.872,514.88 83.904,510.128 C78.576,503.936 70.528,495.344 69.104,493.04 C69.184,489.616 73.328,492.32 77.84,487.456 C102.416,477.12 118.288,450.448 128.96,417.84 C51.984,379.264 0,306.896 0,223.792 C0,100.256 114.624,0.096 256,0.096 C397.376,0.096 512,100.24 512,223.792 C512,347.344 397.376,447.504 256,447.504 Z" id="Shape" transform="translate(256.000000, 256.101283) scale(-1, 1) translate(-256.000000, -256.101283) "></path>
        </g>
    </g>
</svg>