<svg xmlns="http://www.w3.org/2000/svg" width="1752" height="895" viewBox="0 0 1752 895">
<style>
  .a{
    opacity:0.2;
  }
  .b{
    opacity:0.4;
  }
  .c{
    opacity:0.6;
  }
  .d{
    opacity:0.3;
  }
  .e{
    opacity:0.5;
  }
</style>
  <title>
    Group
  </title>
  <desc>
    Created with Sketch.
  </desc>
  <g style="fill:none;opacity:0.2">
    <g fill="#FFF">
        <polygon points="70.7 732 141.4 772.8 70.7 813.7 0 772.8" class="a"/>
        <polygon points="70.4 813.2 141.1 772.4 141.1 854.1 70.4 894.9" class="b"/>
        <polygon points="210.7 732 281.4 772.8 210.7 813.7 140 772.8" class="b"/>
        <polygon points="210.4 813.2 281.1 772.4 281.1 854.1 210.4 894.9" class="a"/>
        <path d="M211.1 813.2L211.1 894.9 140.4 854.1 140.4 772.4 211.1 813.2ZM350.7 732L421.4 772.8 350.7 813.7 280 772.8 350.7 732Z" class="a"/>
        <polygon points="350.4 813.2 421.1 772.4 421.1 854.1 350.4 894.9" class="c"/>
        <path d="M351.1 813.2L351.1 894.9 280.4 854.1 280.4 772.4 351.1 813.2ZM490.7 732L561.4 772.8 490.7 813.7 420 772.8 490.7 732Z" class="a"/>
        <polygon points="490.4 813.2 561.1 772.4 561.1 854.1 490.4 894.9" class="a"/>
        <polygon points="491.1 813.2 491.1 894.9 420.4 854.1 420.4 772.4" class="b"/>
        <polygon points="630.7 732 701.4 772.8 630.7 813.7 560 772.8" class="a"/>
        <polygon points="630.4 813.2 701.1 772.4 701.1 854.1 630.4 894.9" class="a"/>
        <path d="M631.1 813.2L631.1 894.9 560.4 854.1 560.4 772.4 631.1 813.2ZM770.7 732L841.4 772.8 770.7 813.7 700 772.8 770.7 732Z" class="b"/>
        <polygon points="770.4 813.2 841.1 772.4 841.1 854.1 770.4 894.9" class="a"/>
        <polygon points="771.1 813.2 771.1 894.9 700.4 854.1 700.4 772.4" class="b"/>
        <polygon points="910.7 732 981.4 772.8 910.7 813.7 840 772.8" class="a"/>
        <polygon points="910.4 813.2 981.1 772.4 981.1 854.1 910.4 894.9" class="a"/>
        <polygon points="911.1 813.2 911.1 894.9 840.4 854.1 840.4 772.4" class="a"/>
        <polygon points="1050.7 732 1121.4 772.8 1050.7 813.7 980 772.8" class="b"/>
        <polygon points="1050.4 813.2 1121.1 772.4 1121.1 854.1 1050.4 894.9" class="b"/>
        <polygon points="1051.1 813.2 1051.1 894.9 980.4 854.1 980.4 772.4" class="a"/>
        <polygon points="1190.7 732 1261.4 772.8 1190.7 813.7 1120 772.8" class="b"/>
        <polygon points="1190.4 813.2 1261.1 772.4 1261.1 854.1 1190.4 894.9" class="a"/>
        <path d="M1191.1 813.2L1191.1 894.9 1120.4 854.1 1120.4 772.4 1191.1 813.2ZM1330.7 732L1401.4 772.8 1330.7 813.7 1260 772.8 1330.7 732Z" class="d"/>
        <polygon points="1330.4 813.2 1401.1 772.4 1401.1 854.1 1330.4 894.9" class="a"/>
        <path d="M1331.1 813.2L1331.1 894.9 1260.4 854.1 1260.4 772.4 1331.1 813.2ZM1470.7 732L1541.4 772.8 1470.7 813.7 1400 772.8 1470.7 732Z" class="a"/>
        <polygon points="1470.4 813.2 1541.1 772.4 1541.1 854.1 1470.4 894.9" class="a"/>
        <path d="M1471.1 813.2L1471.1 894.9 1400.4 854.1 1400.4 772.4 1471.1 813.2ZM1610.7 732L1681.4 772.8 1610.7 813.7 1540 772.8 1610.7 732Z" class="a"/>
        <polygon points="1610.4 813.2 1681.1 772.4 1681.1 854.1 1610.4 894.9" class="a"/>
        <path d="M1611.1 813.2L1611.1 894.9 1540.4 854.1 1540.4 772.4 1611.1 813.2ZM1751.1 813.2L1751.1 894.9 1680.4 854.1 1680.4 772.4 1751.1 813.2Z" class="c"/>
        <polygon points="140.7 610 211.4 650.8 140.7 691.7 70 650.8" class="a"/>
        <polygon points="140.4 691.2 211.1 650.4 211.1 732.1 140.4 772.9" class="d"/>
        <path d="M141.1 691.2L141.1 772.9 70.4 732.1 70.4 650.4 141.1 691.2ZM280.7 610L351.4 650.8 280.7 691.7 210 650.8 280.7 610Z" class="a"/>
        <polygon points="280.4 691.2 351.1 650.4 351.1 732.1 280.4 772.9" class="b"/>
        <path d="M281.1 691.2L281.1 772.9 210.4 732.1 210.4 650.4 281.1 691.2ZM420.7 610L491.4 650.8 420.7 691.7 350 650.8 420.7 610Z" class="a"/>
        <polygon points="420.4 691.2 491.1 650.4 491.1 732.1 420.4 772.9" class="a"/>
        <polygon points="421.1 691.2 421.1 772.9 350.4 732.1 350.4 650.4" class="d"/>
        <polygon points="560.7 610 631.4 650.8 560.7 691.7 490 650.8" class="c"/>
        <polygon points="560.4 691.2 631.1 650.4 631.1 732.1 560.4 772.9" class="a"/>
        <polygon points="561.1 691.2 561.1 772.9 490.4 732.1 490.4 650.4" class="b"/>
        <polygon points="700.7 610 771.4 650.8 700.7 691.7 630 650.8" class="a"/>
        <polygon points="700.4 691.2 771.1 650.4 771.1 732.1 700.4 772.9" class="a"/>
        <polygon points="701.1 691.2 701.1 772.9 630.4 732.1 630.4 650.4" class="b"/>
        <polygon points="840.7 610 911.4 650.8 840.7 691.7 770 650.8" class="a"/>
        <polygon points="840.4 691.2 911.1 650.4 911.1 732.1 840.4 772.9" class="d"/>
        <path d="M841.1 691.2L841.1 772.9 770.4 732.1 770.4 650.4 841.1 691.2ZM980.7 610L1051.4 650.8 980.7 691.7 910 650.8 980.7 610Z" class="a"/>
        <polygon points="980.4 691.2 1051.1 650.4 1051.1 732.1 980.4 772.9" class="d"/>
        <polygon points="981.1 691.2 981.1 772.9 910.4 732.1 910.4 650.4" class="a"/>
        <polygon points="1120.7 610 1191.4 650.8 1120.7 691.7 1050 650.8" class="c"/>
        <polygon points="1120.4 691.2 1191.1 650.4 1191.1 732.1 1120.4 772.9" class="a"/>
        <polygon points="1121.1 691.2 1121.1 772.9 1050.4 732.1 1050.4 650.4" class="a"/>
        <polygon points="1260.7 610 1331.4 650.8 1260.7 691.7 1190 650.8" class="c"/>
        <polygon points="1260.4 691.2 1331.1 650.4 1331.1 732.1 1260.4 772.9" class="a"/>
        <path d="M1261.1 691.2L1261.1 772.9 1190.4 732.1 1190.4 650.4 1261.1 691.2ZM1400.7 610L1471.4 650.8 1400.7 691.7 1330 650.8 1400.7 610Z" class="a"/>
        <polygon points="1400.4 691.2 1471.1 650.4 1471.1 732.1 1400.4 772.9" class="b"/>
        <path d="M1401.1 691.2L1401.1 772.9 1330.4 732.1 1330.4 650.4 1401.1 691.2ZM1540.7 610L1611.4 650.8 1540.7 691.7 1470 650.8 1540.7 610Z" class="a"/>
        <polygon points="1540.4 691.2 1611.1 650.4 1611.1 732.1 1540.4 772.9" class="b"/>
        <polygon points="1541.1 691.2 1541.1 772.9 1470.4 732.1 1470.4 650.4" class="b"/>
        <polygon points="1680.7 610 1751.4 650.8 1680.7 691.7 1610 650.8" class="a"/>
        <polygon points="1680.4 691.2 1751.1 650.4 1751.1 732.1 1680.4 772.9" class="b"/>
        <polygon points="1681.1 691.2 1681.1 772.9 1610.4 732.1 1610.4 650.4" class="a"/>
        <polygon points="70.7 488 141.4 528.8 70.7 569.7 0 528.8" class="c"/>
        <polygon points="70.4 569.2 141.1 528.4 141.1 610.1 70.4 650.9" class="b"/>
        <polygon points="210.7 488 281.4 528.8 210.7 569.7 140 528.8" class="a"/>
        <polygon points="210.4 569.2 281.1 528.4 281.1 610.1 210.4 650.9" class="b"/>
        <path d="M211.1 569.2L211.1 650.9 140.4 610.1 140.4 528.4 211.1 569.2ZM350.7 488L421.4 528.8 350.7 569.7 280 528.8 350.7 488Z" class="a"/>
        <polygon points="350.4 569.2 421.1 528.4 421.1 610.1 350.4 650.9" class="c"/>
        <path d="M351.1 569.2L351.1 650.9 280.4 610.1 280.4 528.4 351.1 569.2ZM490.7 488L561.4 528.8 490.7 569.7 420 528.8 490.7 488Z" class="a"/>
        <polygon points="490.4 569.2 561.1 528.4 561.1 610.1 490.4 650.9" class="d"/>
        <path d="M491.1 569.2L491.1 650.9 420.4 610.1 420.4 528.4 491.1 569.2ZM630.7 488L701.4 528.8 630.7 569.7 560 528.8 630.7 488Z" class="a"/>
        <polygon points="630.4 569.2 701.1 528.4 701.1 610.1 630.4 650.9" class="b"/>
        <path d="M631.1 569.2L631.1 650.9 560.4 610.1 560.4 528.4 631.1 569.2ZM770.7 488L841.4 528.8 770.7 569.7 700 528.8 770.7 488Z" class="a"/>
        <polygon points="770.4 569.2 841.1 528.4 841.1 610.1 770.4 650.9" class="a"/>
        <polygon points="771.1 569.2 771.1 650.9 700.4 610.1 700.4 528.4" class="c"/>
        <polygon points="910.7 488 981.4 528.8 910.7 569.7 840 528.8" class="d"/>
        <polygon points="910.4 569.2 981.1 528.4 981.1 610.1 910.4 650.9" class="b"/>
        <polygon points="911.1 569.2 911.1 650.9 840.4 610.1 840.4 528.4" class="a"/>
        <polygon points="1050.7 488 1121.4 528.8 1050.7 569.7 980 528.8" class="c"/>
        <polygon points="1050.4 569.2 1121.1 528.4 1121.1 610.1 1050.4 650.9" class="a"/>
        <polygon points="1051.1 569.2 1051.1 650.9 980.4 610.1 980.4 528.4" class="a"/>
        <polygon points="1190.7 488 1261.4 528.8 1190.7 569.7 1120 528.8" class="d"/>
        <polygon points="1190.4 569.2 1261.1 528.4 1261.1 610.1 1190.4 650.9" class="a"/>
        <polygon points="1191.1 569.2 1191.1 650.9 1120.4 610.1 1120.4 528.4" class="a"/>
        <polygon points="1330.7 488 1401.4 528.8 1330.7 569.7 1260 528.8" class="b"/>
        <polygon points="1330.4 569.2 1401.1 528.4 1401.1 610.1 1330.4 650.9" class="c"/>
        <path d="M1331.1 569.2L1331.1 650.9 1260.4 610.1 1260.4 528.4 1331.1 569.2ZM1470.7 488L1541.4 528.8 1470.7 569.7 1400 528.8 1470.7 488Z" class="a"/>
        <polygon points="1470.4 569.2 1541.1 528.4 1541.1 610.1 1470.4 650.9" class="c"/>
        <path d="M1471.1 569.2L1471.1 650.9 1400.4 610.1 1400.4 528.4 1471.1 569.2ZM1610.7 488L1681.4 528.8 1610.7 569.7 1540 528.8 1610.7 488Z" class="a"/>
        <polygon points="1610.4 569.2 1681.1 528.4 1681.1 610.1 1610.4 650.9" class="e"/>
        <path d="M1611.1 569.2L1611.1 650.9 1540.4 610.1 1540.4 528.4 1611.1 569.2ZM1751.1 569.2L1751.1 650.9 1680.4 610.1 1680.4 528.4 1751.1 569.2Z" class="a"/>
        <polygon points="140.7 366 211.4 406.8 140.7 447.7 70 406.8" class="c"/>
        <polygon points="140.4 447.2 211.1 406.4 211.1 488.1 140.4 528.9" class="a"/>
        <polygon points="141.1 447.2 141.1 528.9 70.4 488.1 70.4 406.4" class="d"/>
        <polygon points="280.7 366 351.4 406.8 280.7 447.7 210 406.8" class="a"/>
        <polygon points="280.4 447.2 351.1 406.4 351.1 488.1 280.4 528.9" class="a"/>
        <polygon points="281.1 447.2 281.1 528.9 210.4 488.1 210.4 406.4" class="b"/>
        <polygon points="420.7 366 491.4 406.8 420.7 447.7 350 406.8" class="a"/>
        <polygon points="420.4 447.2 491.1 406.4 491.1 488.1 420.4 528.9" class="d"/>
        <polygon points="421.1 447.2 421.1 528.9 350.4 488.1 350.4 406.4" class="b"/>
        <polygon points="560.7 366 631.4 406.8 560.7 447.7 490 406.8" class="d"/>
        <polygon points="560.4 447.2 631.1 406.4 631.1 488.1 560.4 528.9" class="d"/>
        <polygon points="561.1 447.2 561.1 528.9 490.4 488.1 490.4 406.4" class="a"/>
        <polygon points="700.7 366 771.4 406.8 700.7 447.7 630 406.8" class="c"/>
        <polygon points="700.4 447.2 771.1 406.4 771.1 488.1 700.4 528.9" class="a"/>
        <path d="M701.1 447.2L701.1 528.9 630.4 488.1 630.4 406.4 701.1 447.2ZM840.7 366L911.4 406.8 840.7 447.7 770 406.8 840.7 366Z" class="a"/>
        <polygon points="840.4 447.2 911.1 406.4 911.1 488.1 840.4 528.9" class="a"/>
        <polygon points="841.1 447.2 841.1 528.9 770.4 488.1 770.4 406.4" class="d"/>
        <polygon points="980.7 366 1051.4 406.8 980.7 447.7 910 406.8" class="c"/>
        <polygon points="980.4 447.2 1051.1 406.4 1051.1 488.1 980.4 528.9" class="a"/>
        <path d="M981.1 447.2L981.1 528.9 910.4 488.1 910.4 406.4 981.1 447.2ZM1120.7 366L1191.4 406.8 1120.7 447.7 1050 406.8 1120.7 366Z" class="a"/>
        <polygon points="1120.4 447.2 1191.1 406.4 1191.1 488.1 1120.4 528.9" class="c"/>
        <polygon points="1121.1 447.2 1121.1 528.9 1050.4 488.1 1050.4 406.4" class="a"/>
        <polygon points="1260.7 366 1331.4 406.8 1260.7 447.7 1190 406.8" class="b"/>
        <polygon points="1260.4 447.2 1331.1 406.4 1331.1 488.1 1260.4 528.9" class="a"/>
        <polygon points="1261.1 447.2 1261.1 528.9 1190.4 488.1 1190.4 406.4" class="a"/>
        <polygon points="1400.7 366 1471.4 406.8 1400.7 447.7 1330 406.8" class="c"/>
        <polygon points="1400.4 447.2 1471.1 406.4 1471.1 488.1 1400.4 528.9" class="a"/>
        <polygon points="1401.1 447.2 1401.1 528.9 1330.4 488.1 1330.4 406.4" class="b"/>
        <polygon points="1540.7 366 1611.4 406.8 1540.7 447.7 1470 406.8" class="a"/>
        <polygon points="1540.4 447.2 1611.1 406.4 1611.1 488.1 1540.4 528.9" class="c"/>
        <polygon points="1541.1 447.2 1541.1 528.9 1470.4 488.1 1470.4 406.4" class="a"/>
        <polygon points="1680.7 366 1751.4 406.8 1680.7 447.7 1610 406.8" class="d"/>
        <polygon points="1680.4 447.2 1751.1 406.4 1751.1 488.1 1680.4 528.9" class="b"/>
        <polygon points="1681.1 447.2 1681.1 528.9 1610.4 488.1 1610.4 406.4" class="a"/>
        <polygon points="70.7 244 141.4 284.8 70.7 325.7 0 284.8" class="c"/>
        <polygon points="70.4 325.2 141.1 284.4 141.1 366.1 70.4 406.9" class="a"/>
        <polygon points="210.7 244 281.4 284.8 210.7 325.7 140 284.8" class="a"/>
        <polygon points="210.4 325.2 281.1 284.4 281.1 366.1 210.4 406.9" class="c"/>
        <polygon points="211.1 325.2 211.1 406.9 140.4 366.1 140.4 284.4" class="d"/>
        <polygon points="350.7 244 421.4 284.8 350.7 325.7 280 284.8" class="b"/>
        <polygon points="350.4 325.2 421.1 284.4 421.1 366.1 350.4 406.9" class="c"/>
        <path d="M351.1 325.2L351.1 406.9 280.4 366.1 280.4 284.4 351.1 325.2ZM490.7 244L561.4 284.8 490.7 325.7 420 284.8 490.7 244Z" class="a"/>
        <polygon points="490.4 325.2 561.1 284.4 561.1 366.1 490.4 406.9" class="a"/>
        <polygon points="491.1 325.2 491.1 406.9 420.4 366.1 420.4 284.4" class="c"/>
        <polygon points="630.7 244 701.4 284.8 630.7 325.7 560 284.8" class="b"/>
        <polygon points="630.4 325.2 701.1 284.4 701.1 366.1 630.4 406.9" class="a"/>
        <polygon points="631.1 325.2 631.1 406.9 560.4 366.1 560.4 284.4" class="b"/>
        <polygon points="770.7 244 841.4 284.8 770.7 325.7 700 284.8" class="a"/>
        <polygon points="770.4 325.2 841.1 284.4 841.1 366.1 770.4 406.9" class="c"/>
        <polygon points="771.1 325.2 771.1 406.9 700.4 366.1 700.4 284.4" class="a"/>
        <polygon points="910.7 244 981.4 284.8 910.7 325.7 840 284.8" class="d"/>
        <polygon points="910.4 325.2 981.1 284.4 981.1 366.1 910.4 406.9" class="a"/>
        <path d="M911.1 325.2L911.1 406.9 840.4 366.1 840.4 284.4 911.1 325.2ZM1050.7 244L1121.4 284.8 1050.7 325.7 980 284.8 1050.7 244Z" class="a"/>
        <polygon points="1050.4 325.2 1121.1 284.4 1121.1 366.1 1050.4 406.9" class="c"/>
        <polygon points="1051.1 325.2 1051.1 406.9 980.4 366.1 980.4 284.4" class="a"/>
        <polygon points="1190.7 244 1261.4 284.8 1190.7 325.7 1120 284.8" class="d"/>
        <polygon points="1190.4 325.2 1261.1 284.4 1261.1 366.1 1190.4 406.9" class="a"/>
        <polygon points="1191.1 325.2 1191.1 406.9 1120.4 366.1 1120.4 284.4" class="a"/>
        <polygon points="1330.7 244 1401.4 284.8 1330.7 325.7 1260 284.8" class="c"/>
        <polygon points="1330.4 325.2 1401.1 284.4 1401.1 366.1 1330.4 406.9" class="a"/>
        <polygon points="1331.1 325.2 1331.1 406.9 1260.4 366.1 1260.4 284.4" class="a"/>
        <polygon points="1470.7 244 1541.4 284.8 1470.7 325.7 1400 284.8" class="c"/>
        <polygon points="1470.4 325.2 1541.1 284.4 1541.1 366.1 1470.4 406.9" class="d"/>
        <polygon points="1471.1 325.2 1471.1 406.9 1400.4 366.1 1400.4 284.4" class="d"/>
        <polygon points="1610.7 244 1681.4 284.8 1610.7 325.7 1540 284.8" class="a"/>
        <polygon points="1610.4 325.2 1681.1 284.4 1681.1 366.1 1610.4 406.9" class="e"/>
        <path d="M1611.1 325.2L1611.1 406.9 1540.4 366.1 1540.4 284.4 1611.1 325.2ZM1751.1 325.2L1751.1 406.9 1680.4 366.1 1680.4 284.4 1751.1 325.2ZM140.7 122L211.4 162.8 140.7 203.7 70 162.8 140.7 122Z" class="a"/>
        <polygon points="140.4 203.2 211.1 162.4 211.1 244.1 140.4 284.9" class="b"/>
        <polygon points="141.1 203.2 141.1 284.9 70.4 244.1 70.4 162.4" class="a"/>
        <polygon points="280.7 122 351.4 162.8 280.7 203.7 210 162.8" class="d"/>
        <polygon points="280.4 203.2 351.1 162.4 351.1 244.1 280.4 284.9" class="a"/>
        <path d="M281.1 203.2L281.1 284.9 210.4 244.1 210.4 162.4 281.1 203.2ZM420.7 122L491.4 162.8 420.7 203.7 350 162.8 420.7 122Z" class="b"/>
        <polygon points="420.4 203.2 491.1 162.4 491.1 244.1 420.4 284.9" class="c"/>
        <path d="M421.1 203.2L421.1 284.9 350.4 244.1 350.4 162.4 421.1 203.2ZM560.7 122L631.4 162.8 560.7 203.7 490 162.8 560.7 122Z" class="a"/>
        <polygon points="560.4 203.2 631.1 162.4 631.1 244.1 560.4 284.9" class="b"/>
        <polygon points="561.1 203.2 561.1 284.9 490.4 244.1 490.4 162.4" class="a"/>
        <polygon points="700.7 122 771.4 162.8 700.7 203.7 630 162.8" class="c"/>
        <polygon points="700.4 203.2 771.1 162.4 771.1 244.1 700.4 284.9" class="a"/>
        <path d="M701.1 203.2L701.1 284.9 630.4 244.1 630.4 162.4 701.1 203.2ZM840.7 122L911.4 162.8 840.7 203.7 770 162.8 840.7 122Z" class="a"/>
        <polygon points="840.4 203.2 911.1 162.4 911.1 244.1 840.4 284.9" class="c"/>
        <polygon points="841.1 203.2 841.1 284.9 770.4 244.1 770.4 162.4" class="b"/>
        <polygon points="980.7 122 1051.4 162.8 980.7 203.7 910 162.8" class="a"/>
        <polygon points="980.4 203.2 1051.1 162.4 1051.1 244.1 980.4 284.9" class="c"/>
        <path d="M981.1 203.2L981.1 284.9 910.4 244.1 910.4 162.4 981.1 203.2ZM1120.7 122L1191.4 162.8 1120.7 203.7 1050 162.8 1120.7 122Z" class="a"/>
        <polygon points="1120.4 203.2 1191.1 162.4 1191.1 244.1 1120.4 284.9" class="a"/>
        <polygon points="1121.1 203.2 1121.1 284.9 1050.4 244.1 1050.4 162.4" class="b"/>
        <polygon points="1260.7 122 1331.4 162.8 1260.7 203.7 1190 162.8" class="a"/>
        <polygon points="1260.4 203.2 1331.1 162.4 1331.1 244.1 1260.4 284.9" class="a"/>
        <polygon points="1261.1 203.2 1261.1 284.9 1190.4 244.1 1190.4 162.4" class="c"/>
        <polygon points="1400.7 122 1471.4 162.8 1400.7 203.7 1330 162.8" class="b"/>
        <polygon points="1400.4 203.2 1471.1 162.4 1471.1 244.1 1400.4 284.9" class="a"/>
        <path d="M1401.1 203.2L1401.1 284.9 1330.4 244.1 1330.4 162.4 1401.1 203.2ZM1540.7 122L1611.4 162.8 1540.7 203.7 1470 162.8 1540.7 122Z" class="a"/>
        <polygon points="1540.4 203.2 1611.1 162.4 1611.1 244.1 1540.4 284.9" class="c"/>
        <polygon points="1541.1 203.2 1541.1 284.9 1470.4 244.1 1470.4 162.4" class="b"/>
        <polygon points="1680.7 122 1751.4 162.8 1680.7 203.7 1610 162.8" class="d"/>
        <polygon points="1680.4 203.2 1751.1 162.4 1751.1 244.1 1680.4 284.9" class="b"/>
        <path d="M1681.1 203.2L1681.1 284.9 1610.4 244.1 1610.4 162.4 1681.1 203.2ZM70.7 0L141.4 40.8 70.7 81.7 0 40.8 70.7 0Z" class="a"/>
        <polygon points="70.4 81.2 141.1 40.4 141.1 122.1 70.4 162.9" class="c"/>
        <polygon points="210.7 0 281.4 40.8 210.7 81.7 140 40.8" class="a"/>
        <polygon points="210.4 81.2 281.1 40.4 281.1 122.1 210.4 162.9" class="a"/>
        <polygon points="211.1 81.2 211.1 162.9 140.4 122.1 140.4 40.4" class="d"/>
        <polygon points="350.7 0 421.4 40.8 350.7 81.7 280 40.8" class="a"/>
        <polygon points="350.4 81.2 421.1 40.4 421.1 122.1 350.4 162.9" class="c"/>
        <polygon points="351.1 81.2 351.1 162.9 280.4 122.1 280.4 40.4" class="a"/>
        <polygon points="490.7 0 561.4 40.8 490.7 81.7 420 40.8" class="d"/>
        <polygon points="490.4 81.2 561.1 40.4 561.1 122.1 490.4 162.9" class="d"/>
        <path d="M491.1 81.2L491.1 162.9 420.4 122.1 420.4 40.4 491.1 81.2ZM630.7 0L701.4 40.8 630.7 81.7 560 40.8 630.7 0Z" class="a"/>
        <polygon points="630.4 81.2 701.1 40.4 701.1 122.1 630.4 162.9" class="a"/>
        <path d="M631.1 81.2L631.1 162.9 560.4 122.1 560.4 40.4 631.1 81.2ZM770.7 0L841.4 40.8 770.7 81.7 700 40.8 770.7 0Z" class="a"/>
        <polygon points="770.4 81.2 841.1 40.4 841.1 122.1 770.4 162.9" class="c"/>
        <polygon points="771.1 81.2 771.1 162.9 700.4 122.1 700.4 40.4" class="a"/>
        <polygon points="910.7 0 981.4 40.8 910.7 81.7 840 40.8" class="c"/>
        <polygon points="910.4 81.2 981.1 40.4 981.1 122.1 910.4 162.9" class="d"/>
        <path d="M911.1 81.2L911.1 162.9 840.4 122.1 840.4 40.4 911.1 81.2ZM1050.7 0L1121.4 40.8 1050.7 81.7 980 40.8 1050.7 0Z" class="a"/>
        <polygon points="1050.4 81.2 1121.1 40.4 1121.1 122.1 1050.4 162.9" class="a"/>
        <polygon points="1051.1 81.2 1051.1 162.9 980.4 122.1 980.4 40.4" class="b"/>
        <polygon points="1190.7 0 1261.4 40.8 1190.7 81.7 1120 40.8" class="a"/>
        <polygon points="1190.4 81.2 1261.1 40.4 1261.1 122.1 1190.4 162.9" class="c"/>
        <path d="M1191.1 81.2L1191.1 162.9 1120.4 122.1 1120.4 40.4 1191.1 81.2ZM1330.7 0L1401.4 40.8 1330.7 81.7 1260 40.8 1330.7 0Z" class="a"/>
        <polygon points="1330.4 81.2 1401.1 40.4 1401.1 122.1 1330.4 162.9" class="b"/>
        <polygon points="1331.1 81.2 1331.1 162.9 1260.4 122.1 1260.4 40.4" class="a"/>
        <polygon points="1470.7 0 1541.4 40.8 1470.7 81.7 1400 40.8" class="c"/>
        <polygon points="1470.4 81.2 1541.1 40.4 1541.1 122.1 1470.4 162.9" class="a"/>
        <path d="M1471.1 81.2L1471.1 162.9 1400.4 122.1 1400.4 40.4 1471.1 81.2ZM1610.7 0L1681.4 40.8 1610.7 81.7 1540 40.8 1610.7 0Z" class="a"/>
        <polygon points="1610.4 81.2 1681.1 40.4 1681.1 122.1 1610.4 162.9" class="a"/>
        <polygon points="1611.1 81.2 1611.1 162.9 1540.4 122.1 1540.4 40.4" class="c"/>
        <polygon points="1751.1 81.2 1751.1 162.9 1680.4 122.1 1680.4 40.4" class="b"/>
    </g>
  </g>
</svg>
 
