<?xml version="1.0" encoding="UTF-8"?>
<svg width="1679px" height="741px" viewBox="0 0 1679 741" preserveAspectRatio="none" version="1.1" xmlns="http://www.w3.org/2000/svg" xmlns:xlink="http://www.w3.org/1999/xlink">
    <!-- Generator: Sketch 48.2 (47327) - http://www.bohemiancoding.com/sketch -->
    <title>Path 3 Copy 3</title>
    <desc>Created with Sketch.</desc>
    <defs>
        <linearGradient x1="39.9581906%" y1="26.1387529%" x2="37.5852434%" y2="91.1488661%" id="linearGradient-1">
            <stop stop-color="#FFFFFF" offset="0%"></stop>
            <stop stop-color="#FFEEB3" offset="100%"></stop>
        </linearGradient>
    </defs>
    <g id="Homepage-Dropdown" stroke="none" stroke-width="1" fill="none" fill-rule="evenodd" transform="translate(0.000000, -276.000000)">
        <g id="Hero" transform="translate(-211.000000, 143.000000)" fill="url(#linearGradient-1)" fill-rule="nonzero">
            <path d="M396.283535,768.155919 C453.522,767.002222 505.570762,771.180492 556.754992,780.177586 C596.727325,787.203869 631.283781,795.8972 683.726952,811.103152 C689.029535,812.640641 709.457938,818.603117 714.378726,820.030236 C726.192126,823.456341 735.57948,826.125308 744.641801,828.615285 C812.605346,847.289046 863.544286,855.442897 922.398057,854.201063 C971.568317,853.163555 1016.81114,843.595267 1071.10036,824.692828 C1086.30401,819.399219 1101.88113,813.532552 1122.55349,805.419404 C1123.96695,804.864671 1163.90167,789.058745 1175.94335,784.394219 C1219.96943,767.340046 1251.57821,749.944983 1289.45966,739.703131 C1336.31912,727.033929 1383.34538,709.070618 1435.10278,704.261901 C1528.59498,695.575654 1677.09297,701.032785 1876.71598,750.928608 L1932.43469,228.797949 C1799.21808,195.500422 1190.27903,146.575044 105.617548,82.0218161 C63.3179609,565.50831 38.9517633,837.9111 32.5189552,899.230187 C109.626851,816.756251 230.367,772.602772 396.283535,768.155919 Z" id="Path-3-Copy-3" transform="translate(982.476825, 490.626002) rotate(-5.000000) translate(-982.476825, -490.626002) "></path>
        </g>
    </g>
</svg>
