<?xml version="1.0" encoding="UTF-8"?>
<svg width="2342px" height="1424px" viewBox="0 0 2342 1424" version="1.1" xmlns="http://www.w3.org/2000/svg" xmlns:xlink="http://www.w3.org/1999/xlink">
    <!-- Generator: Sketch 53.2 (72643) - https://sketchapp.com -->
    <title>gradientone</title>
    <desc>Created with Sketch.</desc>
    <defs>
        <radialGradient cx="4.90940528%" cy="101.737004%" fx="4.90940528%" fy="101.737004%" r="76.3499779%" gradientTransform="translate(0.049094,1.017370),scale(0.703453,1.000000),translate(-0.049094,-1.017370)" id="radialGradient-1">
            <stop stop-color="#8CD5DC" offset="0%"></stop>
            <stop stop-color="#8ED6DD" stop-opacity="0.983" offset="21.5%"></stop>
            <stop stop-color="#94D8DE" stop-opacity="0.932" offset="33.9%"></stop>
            <stop stop-color="#9EDBE1" stop-opacity="0.845" offset="46.1%"></stop>
            <stop stop-color="#ACE1E6" stop-opacity="0.724" offset="58%"></stop>
            <stop stop-color="#BEE7EB" stop-opacity="0.568" offset="69.8%"></stop>
            <stop stop-color="#D4EFF2" stop-opacity="0.376" offset="81.5%"></stop>
            <stop stop-color="#EDF9FA" stop-opacity="0.154" offset="92.8%"></stop>
            <stop stop-color="#FFFFFF" stop-opacity="0" offset="100%"></stop>
        </radialGradient>
        <radialGradient cx="49.5489399%" cy="97.6947792%" fx="49.5489399%" fy="97.6947792%" r="54.2266492%" gradientTransform="translate(0.495489,0.976948),scale(0.703453,1.000000),translate(-0.495489,-0.976948)" id="radialGradient-2">
            <stop stop-color="#19ACBA" offset="0%"></stop>
            <stop stop-color="#20AFBC" stop-opacity="0.968" offset="17.6%"></stop>
            <stop stop-color="#35B6C3" stop-opacity="0.876" offset="30.5%"></stop>
            <stop stop-color="#58C3CD" stop-opacity="0.726" offset="45.3%"></stop>
            <stop stop-color="#88D4DB" stop-opacity="0.516" offset="61.4%"></stop>
            <stop stop-color="#C5EAEE" stop-opacity="0.25" offset="78.5%"></stop>
            <stop stop-color="#FFFFFF" stop-opacity="0" offset="100%"></stop>
        </radialGradient>
        <radialGradient cx="53.2999322%" cy="51.5151291%" fx="53.2999322%" fy="51.5151291%" r="44.9330939%" gradientTransform="translate(0.532999,0.515151),scale(0.703453,1.000000),translate(-0.532999,-0.515151)" id="radialGradient-3">
            <stop stop-color="#60285C" offset="0%"></stop>
            <stop stop-color="#6A3666" stop-opacity="0.937" offset="16%"></stop>
            <stop stop-color="#875C83" stop-opacity="0.758" offset="37.6%"></stop>
            <stop stop-color="#B59BB3" stop-opacity="0.464" offset="62.3%"></stop>
            <stop stop-color="#F6F3F6" stop-opacity="0.057" offset="89.3%"></stop>
            <stop stop-color="#FFFFFF" stop-opacity="0" offset="100%"></stop>
        </radialGradient>
        <radialGradient cx="86.2879476%" cy="66.0675425%" fx="86.2879476%" fy="66.0675425%" r="57.905006%" gradientTransform="translate(0.862879,0.660675),scale(0.703453,1.000000),rotate(4.442266),translate(-0.862879,-0.660675)" id="radialGradient-4">
            <stop stop-color="#47BDC8" offset="0%"></stop>
            <stop stop-color="#4BBEC9" stop-opacity="0.981" offset="24.5%"></stop>
            <stop stop-color="#55C2CC" stop-opacity="0.923" offset="36.6%"></stop>
            <stop stop-color="#67C8D2" stop-opacity="0.827" offset="48.5%"></stop>
            <stop stop-color="#80D1D9" stop-opacity="0.691" offset="60.3%"></stop>
            <stop stop-color="#A0DDE3" stop-opacity="0.516" offset="71.9%"></stop>
            <stop stop-color="#C7EBEE" stop-opacity="0.302" offset="83.5%"></stop>
            <stop stop-color="#F5FCFC" stop-opacity="0.053" offset="94.9%"></stop>
            <stop stop-color="#FFFFFF" stop-opacity="0" offset="100%"></stop>
        </radialGradient>
        <radialGradient cx="12.8795752%" cy="30.8656424%" fx="12.8795752%" fy="30.8656424%" r="69.285634%" gradientTransform="translate(0.128796,0.308656),scale(0.703453,1.000000),scale(1.000000,0.468208),translate(-0.128796,-0.308656)" id="radialGradient-5">
            <stop stop-color="#FF4D2F" offset="0%"></stop>
            <stop stop-color="#FC7542" stop-opacity="0.985" offset="34.5499466%"></stop>
            <stop stop-color="#FC7542" stop-opacity="0" offset="100%"></stop>
        </radialGradient>
        <radialGradient cx="12.0271187%" cy="30.4976009%" fx="12.0271187%" fy="30.4976009%" r="49.8455781%" gradientTransform="translate(0.120271,0.304976),scale(0.703453,1.000000),rotate(28.017609),scale(1.000000,0.710828),translate(-0.120271,-0.304976)" id="radialGradient-6">
            <stop stop-color="#FF4D2F" offset="0%"></stop>
            <stop stop-color="#FC6447" stop-opacity="0.96" offset="46.8487094%"></stop>
            <stop stop-color="#FC765B" stop-opacity="0.853" offset="58.5724176%"></stop>
            <stop stop-color="#FD927D" stop-opacity="0.679" offset="68.9804263%"></stop>
            <stop stop-color="#FEB9AB" stop-opacity="0.438" offset="78.4%"></stop>
            <stop stop-color="#FFE9E5" stop-opacity="0.134" offset="93.7%"></stop>
            <stop stop-color="#FFFFFF" stop-opacity="0" offset="100%"></stop>
        </radialGradient>
        <linearGradient x1="-1.5493658e-06%" y1="49.9999988%" x2="100.000025%" y2="49.9999988%" id="linearGradient-7">
            <stop stop-color="#19ACBA" offset="0%"></stop>
            <stop stop-color="#22A9B5" offset="3.1%"></stop>
            <stop stop-color="#3AA1A8" offset="8%"></stop>
            <stop stop-color="#619393" offset="14.2%"></stop>
            <stop stop-color="#978176" offset="21.4%"></stop>
            <stop stop-color="#DB6951" offset="29.4%"></stop>
            <stop stop-color="#FC5E3F" offset="33%"></stop>
            <stop stop-color="#ED5942" offset="37.7%"></stop>
            <stop stop-color="#C44B49" offset="46.9%"></stop>
            <stop stop-color="#843455" offset="59.5%"></stop>
            <stop stop-color="#60285C" stop-opacity="0.413637908" offset="66.667331%"></stop>
            <stop stop-color="#9C558D" stop-opacity="0.452134284" offset="84.9269704%"></stop>
            <stop stop-color="#BE6FA8" stop-opacity="0.305310236" offset="100%"></stop>
        </linearGradient>
        <radialGradient cx="83.6399862%" cy="8.45443755%" fx="83.6399862%" fy="8.45443755%" r="90.6115566%" gradientTransform="translate(0.836400,0.084544),scale(0.622797,1.000000),rotate(105.466271),translate(-0.836400,-0.084544)" id="radialGradient-8">
            <stop stop-color="#6B2967" offset="0%"></stop>
            <stop stop-color="#52204E" stop-opacity="0.669" offset="49.3342628%"></stop>
            <stop stop-color="#521F4E" stop-opacity="0" offset="100%"></stop>
        </radialGradient>
        <radialGradient cx="27.1544229%" cy="27.3787684%" fx="27.1544229%" fy="27.3787684%" r="80.0835559%" gradientTransform="translate(0.271544,0.273788),scale(0.622797,1.000000),rotate(27.827414),translate(-0.271544,-0.273788)" id="radialGradient-9">
            <stop stop-color="#FF663D" offset="0%"></stop>
            <stop stop-color="#FF663D" stop-opacity="0.980577363" offset="29.5392953%"></stop>
            <stop stop-color="#FF663D" stop-opacity="0" offset="100%"></stop>
        </radialGradient>
        <radialGradient cx="15.4139505%" cy="82.6998061%" fx="15.4139505%" fy="82.6998061%" r="75.9401099%" gradientTransform="translate(0.154140,0.826998),scale(0.622797,1.000000),rotate(-33.736543),translate(-0.154140,-0.826998)" id="radialGradient-10">
            <stop stop-color="#00EEE2" offset="0%"></stop>
            <stop stop-color="#00EEE2" stop-opacity="0.587154665" offset="57.14935%"></stop>
            <stop stop-color="#FFFFFF" stop-opacity="0" offset="100%"></stop>
        </radialGradient>
        <radialGradient cx="27.1544229%" cy="27.3787684%" fx="27.1544229%" fy="27.3787684%" r="39.5745153%" gradientTransform="translate(0.271544,0.273788),scale(0.622797,1.000000),rotate(43.812279),translate(-0.271544,-0.273788)" id="radialGradient-11">
            <stop stop-color="#FF663D" offset="0%"></stop>
            <stop stop-color="#FF663D" stop-opacity="0.98161234" offset="34.1389083%"></stop>
            <stop stop-color="#FF663D" stop-opacity="0.980577363" offset="53.7172797%"></stop>
            <stop stop-color="#FF663D" stop-opacity="0" offset="100%"></stop>
        </radialGradient>
        <radialGradient cx="79.7223514%" cy="42.3586378%" fx="79.7223514%" fy="42.3586378%" r="50.0481518%" gradientTransform="translate(0.797224,0.423586),scale(0.622797,1.000000),rotate(-30.317389),scale(1.000000,1.296939),translate(-0.797224,-0.423586)" id="radialGradient-12">
            <stop stop-color="#3FEEFF" offset="0%"></stop>
            <stop stop-color="#2CEBFD" stop-opacity="0.587154665" offset="41.142205%"></stop>
            <stop stop-color="#FFFFFF" stop-opacity="0" offset="100%"></stop>
        </radialGradient>
        <radialGradient cx="19.875993%" cy="52.6216015%" fx="19.875993%" fy="52.6216015%" r="20.9625852%" gradientTransform="translate(0.198760,0.526216),scale(0.622797,1.000000),rotate(-76.510622),scale(1.000000,1.029402),translate(-0.198760,-0.526216)" id="radialGradient-13">
            <stop stop-color="#44FFF6" offset="0%"></stop>
            <stop stop-color="#10F5E9" stop-opacity="0" offset="100%"></stop>
        </radialGradient>
        <radialGradient cx="13.6227235%" cy="79.1703058%" fx="13.6227235%" fy="79.1703058%" r="49.7685027%" gradientTransform="translate(0.136227,0.791703),scale(0.622797,1.000000),rotate(-112.125453),scale(1.000000,1.131701),translate(-0.136227,-0.791703)" id="radialGradient-14">
            <stop stop-color="#00EEE2" offset="0%"></stop>
            <stop stop-color="#C8FFFF" stop-opacity="0" offset="100%"></stop>
        </radialGradient>
        <radialGradient cx="33.3780176%" cy="79.7613282%" fx="33.3780176%" fy="79.7613282%" r="32.7484327%" gradientTransform="translate(0.333780,0.797613),scale(0.622797,1.000000),rotate(-35.414827),scale(1.000000,1.120314),translate(-0.333780,-0.797613)" id="radialGradient-15">
            <stop stop-color="#00EEE2" offset="0%"></stop>
            <stop stop-color="#FFFFFF" stop-opacity="0" offset="100%"></stop>
        </radialGradient>
        <radialGradient cx="54.6689841%" cy="63.1872109%" fx="54.6689841%" fy="63.1872109%" r="40.6770489%" gradientTransform="translate(0.546690,0.631872),scale(0.622797,1.000000),rotate(156.774625),scale(1.000000,0.988479),translate(-0.546690,-0.631872)" id="radialGradient-16">
            <stop stop-color="#F3A3F3" offset="0%"></stop>
            <stop stop-color="#F39DF3" stop-opacity="0" offset="100%"></stop>
        </radialGradient>
        <radialGradient cx="54.6615715%" cy="68.1776295%" fx="54.6615715%" fy="68.1776295%" r="48.8504458%" gradientTransform="translate(0.546616,0.681776),scale(0.622797,1.000000),rotate(-71.166394),scale(1.000000,1.334543),translate(-0.546616,-0.681776)" id="radialGradient-17">
            <stop stop-color="#E89FF0" offset="0%"></stop>
            <stop stop-color="#FFFFFF" stop-opacity="0" offset="100%"></stop>
        </radialGradient>
        <radialGradient cx="39.8895129%" cy="58.0110042%" fx="39.8895129%" fy="58.0110042%" r="29.153525%" gradientTransform="translate(0.398895,0.580110),scale(0.622797,1.000000),rotate(-24.349917),scale(1.000000,0.900296),translate(-0.398895,-0.580110)" id="radialGradient-18">
            <stop stop-color="#4B9EBA" offset="0%"></stop>
            <stop stop-color="#64BBF1" stop-opacity="0" offset="100%"></stop>
        </radialGradient>
        <radialGradient cx="23.9790017%" cy="43.3684434%" fx="23.9790017%" fy="43.3684434%" r="50.4324312%" gradientTransform="translate(0.239790,0.433684),scale(0.622797,1.000000),rotate(-99.864297),scale(1.000000,1.061589),translate(-0.239790,-0.433684)" id="radialGradient-19">
            <stop stop-color="#FFFFFF" offset="0%"></stop>
            <stop stop-color="#FFFFFF" stop-opacity="0" offset="100%"></stop>
        </radialGradient>
    </defs>
    <g id="Page-1" stroke="none" stroke-width="1" fill="none" fill-rule="evenodd">
        <g id="home" transform="translate(-314.000000, -603.000000)" fill-rule="nonzero">
            <g id="Group" opacity="0.7" style="mix-blend-mode: multiply;">
                <path d="M1164.306,1733.768 C1475.739,1649.868 1770.849,1878.137 2090.814,1823.868 C2366.645,1777.081 2608.538,1596.323 2733.838,1346.739 C2861.904,1091.648 2874.716,777.539 2758.038,515.997 C2660.575,297.532 2410.138,8.218 2149.238,0.156 C1837.838,-9.466 1843.68,441.527 1598.129,548.865 C1307.939,675.71 1020.112,343.75 753.546,275.773 C514.388,214.786 212.877,333.42 148.9,590.188 C117.422,716.515 154.672,846.538 173.911,971.45 C195.841,1113.839 174.62,1181.698 89.895,1292.882 C-69.565,1502.138 -11.491,1810.272 221.421,1941.182 C540.446,2120.5 866.588,1813.975 1164.306,1733.768 Z" id="Shape" fill="url(#radialGradient-1)" opacity="0.333842844" style="mix-blend-mode: multiply;"></path>
                <path d="M1164.306,1733.768 C1475.739,1649.868 1770.849,1878.137 2090.814,1823.868 C2366.645,1777.081 2608.538,1596.323 2733.838,1346.739 C2861.904,1091.648 2874.716,777.539 2758.038,515.997 C2660.575,297.532 2410.138,8.218 2149.238,0.156 C1837.838,-9.466 1843.68,441.527 1598.129,548.865 C1307.939,675.71 1020.112,343.75 753.546,275.773 C514.388,214.786 212.877,333.42 148.9,590.188 C117.422,716.515 154.672,846.538 173.911,971.45 C195.841,1113.839 174.62,1181.698 89.895,1292.882 C-69.565,1502.138 -11.491,1810.272 221.421,1941.182 C540.446,2120.5 866.588,1813.975 1164.306,1733.768 Z" id="Shape" fill="url(#radialGradient-2)" opacity="0.257324219" style="mix-blend-mode: multiply;"></path>
                <path d="M1164.306,1733.768 C1475.739,1649.868 1770.849,1878.137 2090.814,1823.868 C2366.645,1777.081 2608.538,1596.323 2733.838,1346.739 C2861.904,1091.648 2874.716,777.539 2758.038,515.997 C2660.575,297.532 2410.138,8.218 2149.238,0.156 C1837.838,-9.466 1843.68,441.527 1598.129,548.865 C1307.939,675.71 1020.112,343.75 753.546,275.773 C514.388,214.786 212.877,333.42 148.9,590.188 C117.422,716.515 154.672,846.538 173.911,971.45 C195.841,1113.839 174.62,1181.698 89.895,1292.882 C-69.565,1502.138 -11.491,1810.272 221.421,1941.182 C540.446,2120.5 866.588,1813.975 1164.306,1733.768 Z" id="Shape" fill="url(#radialGradient-3)" opacity="0.55" style="mix-blend-mode: multiply;"></path>
                <path d="M1164.306,1733.768 C1475.739,1649.868 1770.849,1878.137 2090.814,1823.868 C2366.645,1777.081 2608.538,1596.323 2733.838,1346.739 C2861.904,1091.648 2874.716,777.539 2758.038,515.997 C2660.575,297.532 2410.138,8.218 2149.238,0.156 C1837.838,-9.466 1843.68,441.527 1598.129,548.865 C1307.939,675.71 1020.112,343.75 753.546,275.773 C514.388,214.786 212.877,333.42 148.9,590.188 C117.422,716.515 154.672,846.538 173.911,971.45 C195.841,1113.839 174.62,1181.698 89.895,1292.882 C-69.565,1502.138 -11.491,1810.272 221.421,1941.182 C540.446,2120.5 866.588,1813.975 1164.306,1733.768 Z" id="Shape" fill="url(#radialGradient-4)" opacity="0.55" style="mix-blend-mode: multiply;"></path>
                <path d="M1164.306,1733.768 C1475.739,1649.868 1770.849,1878.137 2090.814,1823.868 C2366.645,1777.081 2608.538,1596.323 2733.838,1346.739 C2861.904,1091.648 2874.716,777.539 2758.038,515.997 C2660.575,297.532 2410.138,8.218 2149.238,0.156 C1837.838,-9.466 1843.68,441.527 1598.129,548.865 C1307.939,675.71 1020.112,343.75 753.546,275.773 C514.388,214.786 212.877,333.42 148.9,590.188 C117.422,716.515 154.672,846.538 173.911,971.45 C195.841,1113.839 174.62,1181.698 89.895,1292.882 C-69.565,1502.138 -11.491,1810.272 221.421,1941.182 C540.446,2120.5 866.588,1813.975 1164.306,1733.768 Z" id="Rosso2" fill="url(#radialGradient-5)" style="mix-blend-mode: overlay;"></path>
                <path d="M1164.306,1733.768 C1475.739,1649.868 1770.849,1878.137 2090.814,1823.868 C2366.645,1777.081 2608.538,1596.323 2733.838,1346.739 C2861.904,1091.648 2874.716,777.539 2758.038,515.997 C2660.575,297.532 2410.138,8.218 2149.238,0.156 C1837.838,-9.466 1843.68,441.527 1598.129,548.865 C1307.939,675.71 1020.112,343.75 753.546,275.773 C514.388,214.786 212.877,333.42 148.9,590.188 C117.422,716.515 154.672,846.538 173.911,971.45 C195.841,1113.839 174.62,1181.698 89.895,1292.882 C-69.565,1502.138 -11.491,1810.272 221.421,1941.182 C540.446,2120.5 866.588,1813.975 1164.306,1733.768 Z" id="Rosso" fill="url(#radialGradient-6)" style="mix-blend-mode: overlay;"></path>
            </g>
            <g id="Group" opacity="0.8" style="mix-blend-mode: multiply;" transform="translate(92.000000, 189.000000)">
                <path d="M183.774,1670.023 C10.922,1573.385 -235.574,1108.366 493.774,816.023 C977.774,622.023 330.788,311.351 496.155,87.366 C709.774,-201.977 1163.774,331.023 1664.774,252.023 C1878.093,218.386 2186.774,-245.977 2540.183,257.2 C2747.288,552.073 2972.774,1462.023 2663.774,1689.023 C2283.792,1968.169 2024.774,1248.023 1286.774,1402.023 C892.747,1484.246 530.774,1864.023 183.774,1670.023 Z" id="Dietro" fill="url(#linearGradient-7)" opacity="0.3"></path>
                <path d="M183.774,1670.023 C10.922,1573.385 -235.574,1108.366 493.774,816.023 C977.774,622.023 330.788,311.351 496.155,87.366 C709.774,-201.977 1163.774,331.023 1664.774,252.023 C1878.093,218.386 2186.774,-245.977 2540.183,257.2 C2747.288,552.073 2972.774,1462.023 2663.774,1689.023 C2283.792,1968.169 2024.774,1248.023 1286.774,1402.023 C892.747,1484.246 530.774,1864.023 183.774,1670.023 Z" id="Viola" fill="url(#radialGradient-8)" style="mix-blend-mode: overlay;"></path>
                <path d="M183.774,1670.023 C10.922,1573.385 -235.574,1108.366 493.774,816.023 C977.774,622.023 330.788,311.351 496.155,87.366 C709.774,-201.977 1163.774,331.023 1664.774,252.023 C1878.093,218.386 2186.774,-245.977 2540.183,257.2 C2747.288,552.073 2972.774,1462.023 2663.774,1689.023 C2283.792,1968.169 2024.774,1248.023 1286.774,1402.023 C892.747,1484.246 530.774,1864.023 183.774,1670.023 Z" id="Rosso" fill="url(#radialGradient-9)" opacity="0.939855072" style="mix-blend-mode: multiply;"></path>
                <path d="M183.774,1670.023 C10.922,1573.385 -235.574,1108.366 493.774,816.023 C977.774,622.023 330.788,311.351 496.155,87.366 C709.774,-201.977 1163.774,331.023 1664.774,252.023 C1878.093,218.386 2186.774,-245.977 2540.183,257.2 C2747.288,552.073 2972.774,1462.023 2663.774,1689.023 C2283.792,1968.169 2024.774,1248.023 1286.774,1402.023 C892.747,1484.246 530.774,1864.023 183.774,1670.023 Z" id="Azzurro" fill="url(#radialGradient-10)" opacity="0.957246377" style="mix-blend-mode: multiply;"></path>
                <path d="M183.774,1670.023 C10.922,1573.385 -235.574,1108.366 493.774,816.023 C977.774,622.023 330.788,311.351 496.155,87.366 C709.774,-201.977 1163.774,331.023 1664.774,252.023 C1878.093,218.386 2186.774,-245.977 2540.183,257.2 C2747.288,552.073 2972.774,1462.023 2663.774,1689.023 C2283.792,1968.169 2024.774,1248.023 1286.774,1402.023 C892.747,1484.246 530.774,1864.023 183.774,1670.023 Z" id="Rosso-Copy" fill="url(#radialGradient-11)" opacity="0.939855072" style="mix-blend-mode: hard-light;"></path>
                <path d="M183.774,1670.023 C10.922,1573.385 -235.574,1108.366 493.774,816.023 C977.774,622.023 330.788,311.351 496.155,87.366 C709.774,-201.977 1163.774,331.023 1664.774,252.023 C1878.093,218.386 2186.774,-245.977 2540.183,257.2 C2747.288,552.073 2972.774,1462.023 2663.774,1689.023 C2283.792,1968.169 2024.774,1248.023 1286.774,1402.023 C892.747,1484.246 530.774,1864.023 183.774,1670.023 Z" id="Azzurro-dx" fill="url(#radialGradient-12)" opacity="0.957246377" style="mix-blend-mode: soft-light;"></path>
                <path d="M183.774,1670.023 C10.922,1573.385 -235.574,1108.366 493.774,816.023 C977.774,622.023 330.788,311.351 496.155,87.366 C709.774,-201.977 1163.774,331.023 1664.774,252.023 C1878.093,218.386 2186.774,-245.977 2540.183,257.2 C2747.288,552.073 2972.774,1462.023 2663.774,1689.023 C2283.792,1968.169 2024.774,1248.023 1286.774,1402.023 C892.747,1484.246 530.774,1864.023 183.774,1670.023 Z" id="Azzurro-luce" fill="url(#radialGradient-13)"></path>
                <path d="M183.774,1670.023 C10.922,1573.385 -235.574,1108.366 493.774,816.023 C977.774,622.023 330.788,311.351 496.155,87.366 C709.774,-201.977 1163.774,331.023 1664.774,252.023 C1878.093,218.386 2186.774,-245.977 2540.183,257.2 C2747.288,552.073 2972.774,1462.023 2663.774,1689.023 C2283.792,1968.169 2024.774,1248.023 1286.774,1402.023 C892.747,1484.246 530.774,1864.023 183.774,1670.023 Z" id="Azzurro-luce-Copy" fill="url(#radialGradient-14)"></path>
                <path d="M183.774,1670.023 C10.922,1573.385 -235.574,1108.366 493.774,816.023 C977.774,622.023 330.788,311.351 496.155,87.366 C709.774,-201.977 1163.774,331.023 1664.774,252.023 C1878.093,218.386 2186.774,-245.977 2540.183,257.2 C2747.288,552.073 2972.774,1462.023 2663.774,1689.023 C2283.792,1968.169 2024.774,1248.023 1286.774,1402.023 C892.747,1484.246 530.774,1864.023 183.774,1670.023 Z" id="Azzurro-Copy-2" fill="url(#radialGradient-15)" opacity="0.957246377" style="mix-blend-mode: overlay;"></path>
                <path d="M183.769953,1670.023 C10.917953,1573.385 -235.578047,1108.366 493.769953,816.023 C977.769953,622.023 330.783953,311.351 496.150953,87.366 C709.769953,-201.977 1163.76995,331.023 1664.76995,252.023 C1878.08895,218.386 2186.76995,-245.977 2540.17895,257.2 C2747.28395,552.073 2972.76995,1462.023 2663.76995,1689.023 C2283.78795,1968.169 2024.76995,1248.023 1286.76995,1402.023 C892.742953,1484.246 530.769953,1864.023 183.769953,1670.023 Z" id="Shape" fill="url(#radialGradient-16)" style="mix-blend-mode: overlay;"></path>
                <path d="M183.774,1672.023 C10.922,1575.385 -235.574,1110.366 493.774,818.023 C977.774,624.023 330.788,313.351 496.155,89.366 C709.774,-199.977 1163.774,333.023 1664.774,254.023 C1878.093,220.386 2186.774,-243.977 2540.183,259.2 C2747.288,554.073 2972.774,1464.023 2663.774,1691.023 C2283.792,1970.169 2024.774,1250.023 1286.774,1404.023 C892.747,1486.246 530.774,1866.023 183.774,1672.023 Z" id="Viola" fill="url(#radialGradient-17)" style="mix-blend-mode: overlay;" opacity="0.957246377"></path>
                <path d="M183.774,1670.023 C10.922,1573.385 -235.574,1108.366 493.774,816.023 C977.774,622.023 330.788,311.351 496.155,87.366 C709.774,-201.977 1163.774,331.023 1664.774,252.023 C1878.093,218.386 2186.774,-245.977 2540.183,257.2 C2747.288,552.073 2972.774,1462.023 2663.774,1689.023 C2283.792,1968.169 2024.774,1248.023 1286.774,1402.023 C892.747,1484.246 530.774,1864.023 183.774,1670.023 Z" id="Azzurro-scuro" fill="url(#radialGradient-18)" style="mix-blend-mode: multiply;"></path>
                <path d="M183.774,1670.023 C10.922,1573.385 -235.574,1108.366 493.774,816.023 C977.774,622.023 330.788,311.351 496.155,87.366 C709.774,-201.977 1163.774,331.023 1664.774,252.023 C1878.093,218.386 2186.774,-245.977 2540.183,257.2 C2747.288,552.073 2972.774,1462.023 2663.774,1689.023 C2283.792,1968.169 2024.774,1248.023 1286.774,1402.023 C892.747,1484.246 530.774,1864.023 183.774,1670.023 Z" id="Azzurro-scuro" fill="url(#radialGradient-19)" opacity="0.51078869" style="mix-blend-mode: lighten;"></path>
            </g>
        </g>
    </g>
</svg>