<?xml version="1.0" encoding="UTF-8"?>
<svg width="13px" height="13px" viewBox="0 0 13 13" version="1.1" xmlns="http://www.w3.org/2000/svg" xmlns:xlink="http://www.w3.org/1999/xlink">
    <!-- Generator: Sketch 48.2 (47327) - http://www.bohemiancoding.com/sketch -->
    <title>info_outline - material</title>
    <desc>Created with Sketch.</desc>
    <defs></defs>
    <g id="Pricing" stroke="none" stroke-width="1" fill="none" fill-rule="evenodd" transform="translate(-774.000000, -562.000000)">
        <g id="Price-Tables-#3" transform="translate(-55.000000, 265.000000)" fill="#BFBFBF">
            <g id="#1-copy-4" transform="translate(648.000000, 67.000000)">
                <path d="M186.885,234.875 L186.885,233.615 L188.115,233.615 L188.115,234.875 L186.885,234.875 Z M187.5,241.76 C188.400004,241.76 189.239996,241.530002 190.02,241.07 C190.780004,240.629998 191.379998,240.030004 191.82,239.27 C192.280002,238.489996 192.51,237.650004 192.51,236.75 C192.51,235.849996 192.280002,235.010004 191.82,234.23 C191.379998,233.469996 190.780004,232.870002 190.02,232.43 C189.239996,231.969998 188.400004,231.74 187.5,231.74 C186.599996,231.74 185.760004,231.969998 184.98,232.43 C184.219996,232.870002 183.620002,233.469996 183.18,234.23 C182.719998,235.010004 182.49,235.849996 182.49,236.75 C182.49,237.650004 182.719998,238.489996 183.18,239.27 C183.620002,240.030004 184.219996,240.629998 184.98,241.07 C185.760004,241.530002 186.599996,241.76 187.5,241.76 Z M187.5,230.51 C188.640006,230.51 189.694995,230.794997 190.665,231.365 C191.605005,231.905003 192.344997,232.644995 192.885,233.585 C193.455003,234.555005 193.74,235.609994 193.74,236.75 C193.74,237.890006 193.455003,238.944995 192.885,239.915 C192.344997,240.855005 191.605005,241.594997 190.665,242.135 C189.694995,242.705003 188.640006,242.99 187.5,242.99 C186.359994,242.99 185.305005,242.705003 184.335,242.135 C183.394995,241.584997 182.655003,240.840005 182.115,239.9 C181.544997,238.929995 181.26,237.880006 181.26,236.75 C181.26,235.619994 181.544997,234.570005 182.115,233.6 C182.665003,232.659995 183.409995,231.915003 184.35,231.365 C185.320005,230.794997 186.369994,230.51 187.5,230.51 Z M186.885,239.885 L186.885,236.135 L188.115,236.135 L188.115,239.885 L186.885,239.885 Z" id="info_outline---material"></path>
            </g>
        </g>
    </g>
</svg>