<?xml version="1.0" encoding="UTF-8"?>
<svg width="15px" height="15px" viewBox="0 0 15 15" version="1.1" xmlns="http://www.w3.org/2000/svg" xmlns:xlink="http://www.w3.org/1999/xlink">
    <!-- Generator: Sketch 48.2 (47327) - http://www.bohemiancoding.com/sketch -->
    <title>info_outline - material</title>
    <desc>Created with Sketch.</desc>
    <defs></defs>
    <g id="Pricing" stroke="none" stroke-width="1" fill="none" fill-rule="evenodd" transform="translate(-252.000000, -607.000000)">
        <g id="Price-Tables-#3" transform="translate(-55.000000, 265.000000)" fill="#533451">
            <g id="#1-copy-2" transform="translate(125.000000, 67.000000)">
                <path d="M188.803,279.925 L188.803,278.497 L190.197,278.497 L190.197,279.925 L188.803,279.925 Z M189.5,287.728 C190.520005,287.728 191.471996,287.467336 192.356,286.946 C193.217338,286.447331 193.897331,285.767338 194.396,284.906 C194.917336,284.021996 195.178,283.070005 195.178,282.05 C195.178,281.029995 194.917336,280.078004 194.396,279.194 C193.897331,278.332662 193.217338,277.652669 192.356,277.154 C191.471996,276.632664 190.520005,276.372 189.5,276.372 C188.479995,276.372 187.528004,276.632664 186.644,277.154 C185.782662,277.652669 185.102669,278.332662 184.604,279.194 C184.082664,280.078004 183.822,281.029995 183.822,282.05 C183.822,283.070005 184.082664,284.021996 184.604,284.906 C185.102669,285.767338 185.782662,286.447331 186.644,286.946 C187.528004,287.467336 188.479995,287.728 189.5,287.728 Z M189.5,274.978 C190.792006,274.978 191.987661,275.300997 193.087,275.947 C194.152339,276.559003 194.990997,277.397661 195.603,278.463 C196.249003,279.562339 196.572,280.757994 196.572,282.05 C196.572,283.342006 196.249003,284.537661 195.603,285.637 C194.990997,286.702339 194.152339,287.540997 193.087,288.153 C191.987661,288.799003 190.792006,289.122 189.5,289.122 C188.207994,289.122 187.012339,288.799003 185.913,288.153 C184.847661,287.529664 184.009003,286.685339 183.397,285.62 C182.750997,284.520661 182.428,283.330673 182.428,282.05 C182.428,280.769327 182.750997,279.579339 183.397,278.48 C184.020336,277.414661 184.864661,276.570336 185.93,275.947 C187.029339,275.300997 188.219327,274.978 189.5,274.978 Z M188.803,285.603 L188.803,281.353 L190.197,281.353 L190.197,285.603 L188.803,285.603 Z" id="info_outline---material"></path>
            </g>
        </g>
    </g>
</svg>