<svg width="100" height="80" xmlns="http://www.w3.org/2000/svg" xmlns:svg="http://www.w3.org/2000/svg">
 <style type="text/css">.st0{fill:#43a3b2;}
	.st1{fill-rule:evenodd;clip-rule:evenodd;fill:#43a3b2;}
	.st2{fill-rule:evenodd;clip-rule:evenodd;}</style>
 <g>
  <title>Layer 1</title>
  <g id="Layer_3"/>
  <g stroke="null" id="Layer_1">
   <path fill="#ff0000" stroke="null" id="medium" d="m96.500003,14.594644l-3.653572,0c-1.328571,0 -3.321429,1.992857 -3.321429,3.155357l0,45.669644c0,1.328571 1.992857,2.989286 3.321429,2.989286l3.653572,0l0,10.794643l-33.380358,0l0,-10.794643l6.975,0l0,-47.994644l-0.332143,0l-16.275,58.955359l-12.621429,0l-16.108929,-58.955359l-0.332143,0l0,47.994644l6.975,0l0,10.794643l-27.900001,0l0,-10.794643l3.653572,0c1.494643,0 3.321429,-1.660714 3.321429,-2.989286l0,-45.669644c0,-1.328571 -1.992857,-3.155357 -3.321429,-3.155357l-3.653572,0l0,-10.794643l34.875001,0l11.458929,42.680358l0.332143,0l11.625,-42.680358l34.70893,0l0,10.794643z" class="st0"/>
  </g>
 </g>
</svg>
