<?xml version="1.0" encoding="UTF-8"?>
<svg width="1440px" height="728px" viewBox="0 0 1440 728" preserveAspectRatio="none" version="1.1" xmlns="http://www.w3.org/2000/svg" xmlns:xlink="http://www.w3.org/1999/xlink">
    <!-- Generator: Sketch 48.2 (47327) - http://www.bohemiancoding.com/sketch -->
    <title>Path 3 Copy 3</title>
    <desc>Created with Sketch.</desc>
    <defs>
        <linearGradient x1="39.9581906%" y1="26.1387529%" x2="37.6189371%" y2="90.2257807%" id="linearGradient-1">
            <stop stop-color="#FFFFFF" offset="0%"></stop>
            <stop stop-color="#FFEEB3" offset="99.0134726%"></stop>
        </linearGradient>
    </defs>
    <g id="Homepage" stroke="none" stroke-width="1" fill="none" fill-rule="evenodd" transform="translate(0.000000, -1549.000000)">
        <g id="Editors-/-Devs" transform="translate(-279.000000, 1271.000000)">
            <path d="M395.761904,926.373525 C453.000369,925.219827 505.049132,929.398097 556.233361,938.395192 C596.205695,945.421474 630.762151,954.114806 683.205322,969.320757 C688.507904,970.858247 708.936308,976.820722 713.857096,978.247842 C725.670496,981.673946 735.05785,984.342914 744.120171,986.83289 C812.083716,1005.50665 863.022655,1013.6605 921.876427,1012.41867 C971.046687,1011.38116 1016.28951,1001.81287 1070.57873,982.910434 C1085.78238,977.616824 1101.3595,971.750157 1122.03186,963.637009 C1123.44532,963.082277 1163.38004,947.27635 1175.42172,942.611825 C1219.4478,925.557651 1258.33435,911.278353 1296.2158,901.036501 C1343.07526,888.367298 1393.21473,880.714558 1444.97214,875.90584 C1538.46434,867.219594 1670.27629,891.293282 1869.89931,941.189106 L1931.91306,387.015554 C1798.69645,353.718027 1189.7574,304.79265 105.095918,240.239421 C62.7963305,723.725915 38.4301329,996.128705 31.9973248,1057.44779 C109.10522,974.973857 229.84537,930.820377 395.761904,926.373525 Z" id="Path-3-Copy-3" fill="url(#linearGradient-1)" fill-rule="nonzero" transform="translate(981.955195, 648.843607) scale(1, -1) rotate(-5.000000) translate(-981.955195, -648.843607) "></path>
            <rect id="Rectangle-6" x="251" y="0" width="1496" height="670"></rect>
        </g>
    </g>
</svg>
