<?xml version="1.0" encoding="UTF-8"?>
<svg width="21px" height="18px" viewBox="0 0 21 18" version="1.1" xmlns="http://www.w3.org/2000/svg" xmlns:xlink="http://www.w3.org/1999/xlink">
    <!-- Generator: Sketch 48.2 (47327) - http://www.bohemiancoding.com/sketch -->
    <title>Twitter</title>
    <desc>Created with Sketch.</desc>
    <defs></defs>
    <g id="Footer" stroke="none" stroke-width="1" fill="none" fill-rule="evenodd" transform="translate(-1008.000000, -80.000000)">
        <g id="Footer-#17" fill="#0FA3B1">
            <g id="col-social" transform="translate(965.000000, 40.000000)">
                <g id="Social" transform="translate(0.000000, 39.000000)">
                    <path d="M63.4207941,1.33276729 C62.5875898,1.8529685 61.6669159,2.23129666 60.6828825,2.43372529 C59.8990201,1.55134408 58.778736,1 57.5384615,1 C55.1610819,1 53.2317037,3.03466726 53.2317037,5.54397488 C53.2317037,5.90038768 53.2687101,6.24584281 53.3427229,6.57861011 C49.7620751,6.38886931 46.5879369,4.58200634 44.4617521,1.829323 C44.0905668,2.50293166 43.8786212,3.28438691 43.8786212,4.11659351 C43.8786212,5.69219186 44.6389341,7.08323988 45.7956639,7.89814488 C45.0902998,7.87622953 44.4247457,7.66976387 43.8427362,7.33180609 L43.8427362,7.38717119 C43.8427362,9.5896639 45.3280378,11.427093 47.3005901,11.8429079 C46.9394975,11.9496011 46.5582196,12.003236 46.165167,12.003236 C45.8876191,12.003236 45.6167997,11.9755535 45.3543908,11.9224953 C45.9027581,13.7270514 47.4929111,15.0413957 49.3785545,15.0765756 C47.9044669,16.2957611 46.0457373,17.022428 44.0277681,17.022428 C43.6801324,17.022428 43.3364216,17.0016661 43,16.9601423 C44.9063893,18.2473807 47.1721891,19 49.6045177,19 C57.530051,19 61.8626011,12.0770562 61.8626011,6.07167345 C61.8626011,5.87385858 61.8592369,5.67662042 61.8519478,5.48284259 C62.6935626,4.84210695 63.424719,4.04219666 64,3.13097946 C63.228473,3.49200602 62.3975115,3.7365352 61.5261795,3.84611195 C62.4160147,3.28438691 63.0989507,2.39393163 63.4207941,1.33276729" id="Twitter"></path>
                </g>
            </g>
        </g>
    </g>
</svg>