<?xml version="1.0" encoding="utf-8"?>
<!-- Generator: Adobe Illustrator 23.0.4, SVG Export Plug-In . SVG Version: 6.00 Build 0)  -->
<svg version="1.1" xmlns="http://www.w3.org/2000/svg" xmlns:xlink="http://www.w3.org/1999/xlink" x="0px" y="0px"
	 viewBox="0 0 2397.9641 1887.0712" style="enable-background:new 0 0 2397.9641 1887.0712;" xml:space="preserve">
<filter  color-interpolation-filters="sRGB" filterUnits="objectBoundingBox" height="100%" id="SAND_light-soft" width="100%" x="0%" y="0%">
	<feTurbulence  baseFrequency="0.6" numOctaves="1" result="f1" seed="0" stitchTiles="noStitch" type="fractalNoise">
		</feTurbulence>
	<feColorMatrix  in="f1" result="f2" type="matrix" values="-18 0 0 0 8      -18 0 0 0 8     -18 0 0 0 8      0 0 0 0 1">
		</feColorMatrix>
	<feColorMatrix  in="f2" result="f3" type="luminanceToAlpha"></feColorMatrix>
	<feComposite  in="SourceGraphic" in2="f3" operator="in" result="f4"></feComposite>
	<feColorMatrix  in="f4" result="f5" type="matrix" values="1 0 0 0 0.12      0 1 0 0 0.12     0 0 1 0 0.12     0 0 0 1 0">
		</feColorMatrix>
	<feMerge>
		<feMergeNode  in="SourceGraphic"></feMergeNode>
		<feMergeNode  in="f5"></feMergeNode>
	</feMerge>
</filter>
<filter  color-interpolation-filters="sRGB" filterUnits="objectBoundingBox" height="100%" id="SAND_light-medium" width="100%" x="0%" y="0%">
	<feTurbulence  baseFrequency="0.6" numOctaves="1" result="f1" seed="0" stitchTiles="noStitch" type="fractalNoise">
		</feTurbulence>
	<feColorMatrix  in="f1" result="f2" type="matrix" values="-18 0 0 0 8     -18 0 0 0 8     -18 0 0 0 8     0 0 0 0 1">
		</feColorMatrix>
	<feColorMatrix  in="f2" result="f3" type="luminanceToAlpha"></feColorMatrix>
	<feComposite  in="SourceGraphic" in2="f3" operator="in" result="f4"></feComposite>
	<feColorMatrix  in="f4" result="f5" type="matrix" values="1 0 0 0 0.22      0 1 0 0 0.22      0 0 1 0 0.22      0 0 0 1 0">
		</feColorMatrix>
	<feMerge>
		<feMergeNode  in="SourceGraphic"></feMergeNode>
		<feMergeNode  in="f5"></feMergeNode>
	</feMerge>
</filter>
<filter  color-interpolation-filters="sRGB" filterUnits="objectBoundingBox" height="100%" id="SAND_light-hard" width="100%" x="0%" y="0%">
	<feTurbulence  baseFrequency="0.6" numOctaves="1" result="f1" seed="0" stitchTiles="noStitch" type="fractalNoise">
		</feTurbulence>
	<feColorMatrix  in="f1" result="f2" type="matrix" values="-18 0 0 0 8     -18 0 0 0 8     -18 0 0 0 8     0 0 0 0 1">
		</feColorMatrix>
	<feColorMatrix  in="f2" result="f3" type="luminanceToAlpha"></feColorMatrix>
	<feComposite  in="SourceGraphic" in2="f3" operator="in" result="f4"></feComposite>
	<feColorMatrix  in="f4" result="f5" type="matrix" values="1 0 0 0 0.32     0 1 0 0 0.32     0 0 1 0 0.32     0 0 0 1 0">
		</feColorMatrix>
	<feMerge>
		<feMergeNode  in="SourceGraphic"></feMergeNode>
		<feMergeNode  in="f5"></feMergeNode>
	</feMerge>
</filter>
<filter  color-interpolation-filters="sRGB" filterUnits="objectBoundingBox" height="100%" id="SAND_dark-soft" width="100%" x="0%" y="0%">
	<feTurbulence  baseFrequency="0.6" numOctaves="1" result="f1" seed="0" stitchTiles="noStitch" type="fractalNoise">
		</feTurbulence>
	<feColorMatrix  in="f1" result="f2" type="matrix" values="-17 0 0 0 8      -17 0 0 0 8     -17 0 0 0 8      0 0 0 0 1">
		</feColorMatrix>
	<feColorMatrix  in="f2" result="f3" type="luminanceToAlpha"></feColorMatrix>
	<feComposite  in="SourceGraphic" in2="f3" operator="in" result="f4"></feComposite>
	<feColorMatrix  in="f4" result="f5" type="matrix" values="1 0 0 0 -0.1     0 1 0 0 -0.1     0 0 1 0 -0.1     0 0 0 1 0">
		</feColorMatrix>
	<feMerge>
		<feMergeNode  in="SourceGraphic"></feMergeNode>
		<feMergeNode  in="f5"></feMergeNode>
	</feMerge>
</filter>
<g id="mano_copy">
	<path style="fill-rule:evenodd;clip-rule:evenodd;fill:#EDCEC9;" d="M1114.1859,176.6644
		c-65.6101,5.0544-173.8527,12.5559-195.9702,15.3814c-2.756,0.3521-4.8603,2.6364-4.9778,5.4123
		c-0.2233,5.2757-0.4432,21.7367-0.4432,21.7367c-1.9593,11.9231,21.973,28.3876,60.2231,24.2731
		c38.2501-4.1145,72.1981,9.7864,72.1981,9.7864l83.2825-54.3877L1114.1859,176.6644z"/>
	<path style="fill-rule:evenodd;clip-rule:evenodd;fill:#F3DEDB;" d="M913.238,197.4581l-0.2085,7.7065
		c69.9951,4.8673,69.7603-18.6768,69.7603-18.6768s-54.5723,4.2803-64.574,5.5581
		C915.4597,192.3979,913.3555,194.6822,913.238,197.4581z"/>
	<path style="opacity:0.35;fill-rule:evenodd;clip-rule:evenodd;fill:#DE928A;" d="M1114.1859,176.6644
		c-15.2404,1.1741-27.4598,2.0862-45.687,3.435c-14.825,16.946-32.5439,42.26-41.3545,67.5857
		c11.1262,2.7318,18.0715,5.5692,18.0715,5.5692l83.2826-54.3876L1114.1859,176.6644z"/>
	
		<rect x="1488.4054" y="37.4556" transform="matrix(0.8698 -0.4935 0.4935 0.8698 111.9547 795.1202)" style="fill:#0FA3B1;" width="147.9454" height="296"/>
	<linearGradient id="SVGID_1_" gradientUnits="userSpaceOnUse" x1="1425.0071" y1="185.4556" x2="1699.7491" y2="185.4556">
		<stop  offset="0.2174" style="stop-color:#57BFC8"/>
		<stop  offset="0.815" style="stop-color:#0FA3B1"/>
	</linearGradient>
	<polygon style="fill:url(#SVGID_1_);" points="1699.7491,277.679 1571.0707,350.6839 1425.0071,93.2321 1553.6855,20.2272 	"/>
	<g>
		<defs>
			
				<rect id="SVGID_2_" x="1502.5784" y="51.6289" transform="matrix(0.8698 -0.4935 0.4935 0.8698 111.9547 795.1202)" width="119.5996" height="267.6533"/>
		</defs>
		<clipPath id="SVGID_3_">
			<use xlink:href="#SVGID_2_"  style="overflow:visible;"/>
		</clipPath>
		<g style="clip-path:url(#SVGID_3_);">
			
				<line style="fill:none;stroke:#FFFFFF;stroke-width:4;stroke-miterlimit:10;" x1="1411.2102" y1="87.2629" x2="1653.9073" y2="180.666"/>
			
				<line style="fill:none;stroke:#FFFFFF;stroke-width:4;stroke-miterlimit:10;" x1="1494.4335" y1="42.0107" x2="1606.8193" y2="85.5097"/>
			
				<line style="fill:none;stroke:#FFFFFF;stroke-width:4;stroke-miterlimit:10;" x1="1466.9711" y1="185.5469" x2="1722.0543" y2="284.5698"/>
			
				<line style="fill:none;stroke:#FFFFFF;stroke-width:4;stroke-miterlimit:10;" x1="1511.3325" y1="279.9506" x2="1631.1296" y2="326.9574"/>
			
				<line style="fill:none;stroke:#FFFFFF;stroke-width:4;stroke-miterlimit:10;" x1="1553.7572" y1="0.6411" x2="1508.3049" y2="265.9553"/>
			
				<line style="fill:none;stroke:#FFFFFF;stroke-width:4;stroke-miterlimit:10;" x1="1471.9291" y1="53.0699" x2="1451.8832" y2="171.1122"/>
			
				<line style="fill:none;stroke:#FFFFFF;stroke-width:4;stroke-miterlimit:10;" x1="1609.7743" y1="99.9294" x2="1564.4673" y2="364.3946"/>
			
				<line style="fill:none;stroke:#FFFFFF;stroke-width:4;stroke-miterlimit:10;" x1="1666.2687" y1="194.348" x2="1643.775" y2="328.981"/>
		</g>
	</g>
	<circle style="fill:#F9D36D;" cx="1530.5139" cy="133.4" r="29"/>
	
		<line style="fill:none;stroke:#30343F;stroke-width:4;stroke-miterlimit:10;" x1="1541.0653" y1="137.4607" x2="1519.9625" y2="129.3392"/>
	
		<line style="fill:none;stroke:#30343F;stroke-width:4;stroke-miterlimit:10;" x1="1528.5868" y1="144.5404" x2="1532.441" y2="122.2596"/>
	<linearGradient id="SVGID_4_" gradientUnits="userSpaceOnUse" x1="986.7838" y1="425.1436" x2="1455.2992" y2="265.2177">
		<stop  offset="0.1776" style="stop-color:#F2DED0"/>
		<stop  offset="0.8962" style="stop-color:#EBC8C3"/>
	</linearGradient>
	<path style="fill:url(#SVGID_4_);" d="M1275.2238,423.1032c-6.9883-12.3175-10.7632-25.7582-12.8024-36.7161
		c-2.28-12.2522-13.6451-20.6642-26.0184-19.175c-47.8567,5.7595-60.361,0.6375-60.361,0.6375
		c-0.2167,30.0159-9.7914,77.988-9.7914,77.988c-13.9733,66.5638-77.399,120.9437-105.441,124.2062
		c-28.0421,3.2625-58.9516-87.2758-68.913-114.9664c-9.9615-27.6906-11.9395-51.8624-4.999-90.292s74.346-136.4576,92.2846-161.5814
		s31.2195-28.0597,46.9675-26.6467c15.7482,1.413,185.7328,23.3955,185.7328,23.3955l112.2002-63.6561l114.4823,201.7865
		c-34.7233,38.0958-74.431,83.6183-202.2871,156.1566s-178.7217,76.1025-204.765,74.7818s-63.5782-16.8169,0.2239-72.56
		c63.8021-55.7431,142.3831-77.3309,219.5831-133.7769"/>
	<g style="opacity:0.4;filter:url(#SAND_light-medium);">
		<linearGradient id="SVGID_5_" gradientUnits="userSpaceOnUse" x1="986.7838" y1="425.1436" x2="1455.2992" y2="265.2177">
			<stop  offset="0.1776" style="stop-color:#F2DED0"/>
			<stop  offset="0.8962" style="stop-color:#EBC8C3;stop-opacity:0"/>
		</linearGradient>
		<path style="fill:url(#SVGID_5_);" d="M1275.2238,423.1032c-6.9883-12.3175-10.7632-25.7582-12.8024-36.7161
			c-2.28-12.2522-13.6451-20.6642-26.0184-19.175c-47.8567,5.7595-60.361,0.6375-60.361,0.6375
			c-0.2167,30.0159-9.7914,77.988-9.7914,77.988c-13.9733,66.5638-77.399,120.9437-105.441,124.2062
			c-28.0421,3.2625-58.9516-87.2758-68.913-114.9664c-9.9615-27.6906-11.9395-51.8624-4.999-90.292
			s74.346-136.4576,92.2846-161.5814s31.2195-28.0597,46.9675-26.6467c15.7482,1.413,185.7328,23.3955,185.7328,23.3955
			l112.2002-63.6561l114.4823,201.7865c-34.7233,38.0958-74.431,83.6183-202.2871,156.1566s-178.7217,76.1025-204.765,74.7818
			s-63.5782-16.8169,0.2239-72.56c63.8021-55.7431,142.3831-77.3309,219.5831-133.7769"/>
	</g>
	<path style="fill:#E19D95;" d="M1191.3345,473.3853l4.2218-21.3783c-13.6646,7.8604-26.9714,16.1845-39.8129,25.4434
		c4.5823-10.0958,8.214-20.6885,10.5072-31.6128c0,0,9.5747-47.9721,9.7914-77.988c0,0-30.345-6.0436-52.8344-27.9039
		l-15.5281,52.7641l-9.2347,56.1708l7.1489,64.8265l-1.5048,40.9802l46.967-13.0742L1191.3345,473.3853z"/>
	
		<line style="fill:none;stroke:#DE928A;stroke-width:4;stroke-miterlimit:10;" x1="1274.7915" y1="195.1729" x2="1330.8655" y2="202.1474"/>
	<path style="opacity:0.2;fill-rule:evenodd;clip-rule:evenodd;fill:#DE928A;" d="M1114.4604,369.6684
		c16.8231,10.897,37.3837,18.6679,60.0571,22.1016c0.8749-8.4012,1.472-16.683,1.5243-23.9204c0,0-30.3448-6.0436-52.8342-27.9039
		L1114.4604,369.6684z"/>
	<path style="fill:#EBBEB9;" d="M1097.2966,551.342c0.285,0.9729,0.646,1.9016,1.0874,2.7805l29.3789-16.6679l-13.8962-99.0499
		c9.8938-37.3374,13.7992-94.847,13.7992-94.847c-14.3451-10.027-37.9841-38.39-37.9841-38.39
		c-5.0024,74.8219-41.438,122.5576-41.438,122.5576s24.1932,69.382,33.2413,107.9824l3.7679,11.3938
		c0.9214,2.7859,1.0933,5.7653,0.4987,8.6388l-0.8982,4.3404C1088.8702,557.5821,1093.0461,554.6562,1097.2966,551.342z"/>
	<path style="opacity:0.2;fill-rule:evenodd;clip-rule:evenodd;fill:#DE928A;" d="M1089.6816,305.1676
		c-0.8724,13.049-2.7029,25.271-5.1273,36.5627c9.6804,13.4872,23.4484,25.0974,40.077,33.9031
		c2.1033-18.3706,3.0344-32.0758,3.0344-32.0758C1113.3208,333.5305,1089.6816,305.1676,1089.6816,305.1676z"/>
	<path style="fill:none;stroke:#DE928A;stroke-width:4;stroke-miterlimit:10;" d="M1073.5977,284.5539
		c15.8156,19.7704,61.2965,88.0634,125.9658,85.3814"/>
	<g id="Layer_4_copy">
		<path style="opacity:0.3;fill-rule:evenodd;clip-rule:evenodd;fill:#DE928A;" d="M1157.1748,521.9777
			c-18.3851-32.4057-59.5592-43.7715-91.9648-25.3863c-17.2476,9.7853-30.1362,30.6187-34.1772,48.6347
			c9.582,15.3841,19.8584,25.9716,29.7769,24.8176c9.3011-1.0821,22.4961-7.7928,36.4871-18.7018
			c3.6185,12.3561,20.506,16.9843,34.2162,17.6795c8.1658,0.4141,18.7736,0.3468,33.4277-2.175
			C1167.548,551.9714,1165.2095,536.1397,1157.1748,521.9777z"/>
		<linearGradient id="SVGID_6_" gradientUnits="userSpaceOnUse" x1="1032.7589" y1="834.0049" x2="1113.848" y2="531.0467">
			<stop  offset="0.2174" style="stop-color:#57BFC8"/>
			<stop  offset="0.815" style="stop-color:#0FA3B1"/>
		</linearGradient>
		<path style="fill:url(#SVGID_6_);" d="M1126.0245,586.4603c23.1849-14.1304,31.2213-44.0231,17.8605-67.5729
			c-13.6265-24.018-44.3381-32.3315-68.5963-18.5688s-32.877,44.3901-19.2505,68.4081c4.788,8.4391,11.6897,14.9296,19.675,19.2146
			l-101.3587,2.9838l10.3907,129.773l114.6418-5.0086l-69.7086,54.8234l-29.2953,47.6632l77.6614-4.9699l-28.9294-30.726
			l138.5635-70.6481l1.2563-0.0549l-0.0859-0.5419l0.274-0.1398l-0.2976-0.0091l-19.9658-125.8872L1126.0245,586.4603z
			 M1084.9111,517.2791c14.7975-8.3953,33.5316-3.324,41.8438,11.327s3.0547,33.3337-11.7428,41.7289s-33.5316,3.324-41.8438-11.327
			C1064.8562,544.357,1070.1136,525.6744,1084.9111,517.2791z"/>
		<linearGradient id="SVGID_7_" gradientUnits="userSpaceOnUse" x1="1061.5592" y1="716.6464" x2="1119.842" y2="633.0232">
			<stop  offset="0.0604" style="stop-color:#F2E29D"/>
			<stop  offset="0.912" style="stop-color:#F5CD67"/>
		</linearGradient>
		<polyline style="fill:url(#SVGID_7_);stroke:#FFFFFF;stroke-width:4;stroke-miterlimit:10;" points="1056.3912,717.5679 
			1051.5837,635.5993 1120.8011,628.2693 1129.6093,714.3691 		"/>
		<g style="filter:url(#SAND_light-medium);">
			<linearGradient id="SVGID_8_" gradientUnits="userSpaceOnUse" x1="1061.5592" y1="716.6464" x2="1119.842" y2="633.0232">
				<stop  offset="0.0604" style="stop-color:#F2E29D"/>
				<stop  offset="0.912" style="stop-color:#F5CD67;stop-opacity:0"/>
			</linearGradient>
			<polyline style="fill:url(#SVGID_8_);" points="1056.3912,717.5679 1051.5837,635.5993 1120.8011,628.2693 1129.6093,714.3691 
							"/>
		</g>
		<polyline style="fill:none;stroke:#FFFFFF;stroke-width:4;stroke-miterlimit:10;" points="1056.3912,717.5679 1051.5837,635.5993 
			1120.8011,628.2693 1129.6093,714.3691 		"/>
		
			<line style="fill:none;stroke:#30343F;stroke-width:4;stroke-miterlimit:10;" x1="1145.6726" y1="713.6674" x2="1040.9565" y2="718.2423"/>
		<g>
			<path style="fill-rule:evenodd;clip-rule:evenodd;fill:#0FA3B1;" d="M1129.6667,586.353
				c4.9911,0.0831,10.3167-0.0778,15.9757-0.4703L1129.6667,586.353z"/>
			<path style="fill-rule:evenodd;clip-rule:evenodd;fill:#0FA3B1;" d="M1143.885,518.8874
				c-9.3859-16.5434-26.8776-25.6338-44.783-25.1935c-7.4318,9.6214-12.0261,17.2253-14.7856,23.9425
				c0.1987-0.1187,0.3923-0.2426,0.5947-0.3574c14.7975-8.3953,33.5316-3.324,41.8438,11.327s3.0547,33.3337-11.7428,41.7289
				c-8.626,4.8939-18.5868,5.2042-27.0438,1.7159c7.2822,9.1932,20.4214,13.4736,38.3691,14.208
				C1149.2772,572.0497,1157.1844,542.329,1143.885,518.8874z"/>
		</g>
		<g>
			<defs>
				<path id="SVGID_9_" d="M1126.0245,586.4603c23.1849-14.1304,31.2213-44.0231,17.8605-67.5729
					c-13.6265-24.018-44.3381-32.3315-68.5963-18.5688s-32.877,44.3901-19.2505,68.4081
					c4.788,8.4391,11.6897,14.9296,19.675,19.2146l-101.3587,2.9838l10.3907,129.773l114.6418-5.0086l-69.7086,54.8234
					l-29.2953,47.6632l77.6614-4.9699l-28.9294-30.726l138.5635-70.6481l1.2563-0.0549l-0.0859-0.5419l0.274-0.1398l-0.2976-0.0091
					l-19.9658-125.8872L1126.0245,586.4603z M1084.9111,517.2791c14.7975-8.3953,33.5316-3.324,41.8438,11.327
					s3.0547,33.3337-11.7428,41.7289s-33.5316,3.324-41.8438-11.327C1064.8562,544.357,1070.1136,525.6744,1084.9111,517.2791z"/>
			</defs>
			<clipPath id="SVGID_10_">
				<use xlink:href="#SVGID_9_"  style="overflow:visible;"/>
			</clipPath>
			<path style="clip-path:url(#SVGID_10_);fill:none;stroke:#30343F;stroke-width:4;stroke-miterlimit:10;" d="M970.52,586.3743
				c30.7839,22.4991,59.4352,81.9783,10.5116,139.6279"/>
		</g>
	</g>
	<linearGradient id="SVGID_11_" gradientUnits="userSpaceOnUse" x1="1027.6987" y1="545.0069" x2="1496.214" y2="385.081">
		<stop  offset="0.1776" style="stop-color:#F2DED0"/>
		<stop  offset="0.8962" style="stop-color:#EBC8C3"/>
	</linearGradient>
	<path style="fill:url(#SVGID_11_);" d="M1538.5649,338.0831c-34.7233,38.0958-74.431,83.6183-202.2871,156.1566
		s-178.7217,76.1025-204.765,74.7818s-63.5782-16.8169,0.2239-72.56c63.8021-55.7431,142.3831-77.3309,219.5831-133.7769"/>
	<g style="opacity:0.6;filter:url(#SAND_light-soft);">
		<linearGradient id="SVGID_12_" gradientUnits="userSpaceOnUse" x1="1027.6987" y1="545.0069" x2="1496.214" y2="385.081">
			<stop  offset="0.1776" style="stop-color:#F2DED0"/>
			<stop  offset="0.8962" style="stop-color:#EBC8C3;stop-opacity:0"/>
		</linearGradient>
		<path style="fill:url(#SVGID_12_);" d="M1538.5649,338.0831c-34.7233,38.0958-74.431,83.6183-202.2871,156.1566
			s-178.7217,76.1025-204.765,74.7818s-63.5782-16.8169,0.2239-72.56c63.8021-55.7431,142.3831-77.3309,219.5831-133.7769"/>
	</g>
	
		<line style="fill:#FAE6E6;stroke:#DE928A;stroke-width:4;stroke-miterlimit:10;" x1="1204.3425" y1="487.825" x2="1224.9755" y2="514.0601"/>
	
		<line style="fill:#FAE6E6;stroke:#DE928A;stroke-width:4;stroke-miterlimit:10;" x1="1218.4476" y1="487.7942" x2="1230.3088" y2="502.8758"/>
	<path style="fill:#FAE6E6;stroke:#DE928A;stroke-width:4;stroke-miterlimit:10;" d="M1245.1989,425.3156
		c0,0,28.4813-12.6259,55.5823-31.5751"/>
	<path style="opacity:0.7;fill:#FFFFFF;" d="M1144.5117,503.1555l29.2052,43.9164l-32.2324,8.3243
		c-18.4089,3.9669-35.6407-14.4726-13.4479-35.7161L1144.5117,503.1555z"/>
	<path style="opacity:0.35;fill-rule:evenodd;clip-rule:evenodd;fill:#DE928A;" d="M1510.8293,367.8019
		c7.9888-8.1278,15.0682-15.817,21.7991-23.2002l-115.8345-204.1699l-26.4484,15.0053L1510.8293,367.8019z"/>
	
		<rect x="1459.8173" y="104.0596" transform="matrix(0.8698 -0.4935 0.4935 0.8698 75.5053 762.2175)" style="fill:#F9D36D;" width="44" height="268"/>
	
		<rect x="1485.994" y="97.1512" transform="matrix(0.8698 -0.4935 0.4935 0.8698 80.5001 767.3265)" style="opacity:0.5;fill:#F9D36D;" width="16" height="268"/>
	
		<line style="fill:#FAE6E6;stroke:#DE928A;stroke-width:4;stroke-miterlimit:10;" x1="1001.1161" y1="424.3579" x2="989.8538" y2="424.3579"/>
	
		<line style="fill:#FAE6E6;stroke:#DE928A;stroke-width:4;stroke-miterlimit:10;" x1="999.4972" y1="409.6659" x2="989.2202" y2="414.2728"/>
</g>
<g id="uomo_dx">
	<linearGradient id="SVGID_13_" gradientUnits="userSpaceOnUse" x1="1757.0135" y1="1177.6259" x2="1891.7678" y2="1227.0358">
		<stop  offset="0.1776" style="stop-color:#F2DED0"/>
		<stop  offset="0.8962" style="stop-color:#EBC8C3"/>
	</linearGradient>
	<polygon style="fill:url(#SVGID_13_);" points="1747.3435,1158.4468 1759.4702,1039.6426 1902.511,1063.1388 1905.3928,1172.6898 
		1895.7291,1188.5083 1884.5166,1381.826 1777.1553,1352.8473 	"/>
	<linearGradient id="SVGID_14_" gradientUnits="userSpaceOnUse" x1="1650.0649" y1="1467.6884" x2="1785.2136" y2="1517.2429">
		<stop  offset="0.1776" style="stop-color:#F2DED0"/>
		<stop  offset="0.8962" style="stop-color:#EBC8C3"/>
	</linearGradient>
	<path style="fill:url(#SVGID_14_);" d="M1990.0947,1530.7332c-20.0947-84.7133-70.0669-135.3978-115.0891-164.9462v-129.9736
		l-111.8479,3.0034l-28.6145,84.7786l0.0012,0.0005c-35.0419,2.3345-82.4023,17.9213-129.2014,49.7284
		c-95.3792,64.8246-171.7008,125.6565-219.0535,311.9998l619.9944,8.5051
		C2006.2839,1693.8291,2023.882,1673.1696,1990.0947,1530.7332z"/>
	
		<line style="fill:none;stroke:#B55E1D;stroke-width:3;stroke-miterlimit:10;" x1="1479.0336" y1="1696.891" x2="1506.5463" y2="1543.2728"/>
	<path style="fill:#F58937;" d="M1990.0947,1530.7332c-12.5388-52.8599-36.7118-92.4657-64.0557-121.9579
		c-97.8467,35.4862-220.6866,11.1141-248.1157-72.6606c-142.6887,53.2021-244.2811,162.8661-291.6338,349.2094l619.9944,8.5051
		C2006.2839,1693.8291,2023.882,1673.1696,1990.0947,1530.7332z"/>
	<circle style="opacity:0.5;fill:#EBC8C3;" cx="1836.1931" cy="1171.1384" r="17.3698"/>
	<path style="opacity:0.5;fill:#EBC8C3;" d="M1749.8271,1133.7047l-2.4836,24.7421l1.2927,8.4301
		c7.4205-1.9764,12.895-8.7233,12.895-16.7664C1761.5312,1142.5042,1756.6342,1136.056,1749.8271,1133.7047z"/>
	<linearGradient id="SVGID_15_" gradientUnits="userSpaceOnUse" x1="1770.8934" y1="995.0428" x2="1871.6655" y2="1242.494">
		<stop  offset="0.1704" style="stop-color:#FF7E6A"/>
		<stop  offset="0.9649" style="stop-color:#F15749"/>
	</linearGradient>
	<path style="fill:url(#SVGID_15_);" d="M1890.0156,1119.271c-10.7362,103.6953,0.2415,163.9659-29.0865,163.9659
		c-13.9198,0-11.7853-21.6467-20.2502-21.6467c-6.0464,0-15.0619,24.7915-24.0908,23.7416
		c-15.0131-1.7456-16.2217-24.3906-24.6646-25.7979c-8.3794-1.3965-20.0256,21.259-36.1483,18.8107
		c-4.2258-0.6417-8.97-4.661-15.6493-17.1036c-11.0546-20.5929-8.2952-64.537,7.2177-102.7942
		c13.448,18.9338,34.2947,20.7308,50.5865,21.8051c41.2665,2.7208,71.3088-10.5868,71.3088-35.9514v-52.0782
		c-0.2924-12.3835-2.7471-20.2552-10.438-23.0004c-22.7321-8.1141-30.6854,7.5291-50.6384,7.5291
		c-43.5339,0-72.8624-30.5419-72.8624-65.4597s28.7239-19.0461,41.8748-19.0461s29.1268-24.3534,63.5912-24.3534
		c29.0226,0,35.7206,26.1673,46.6041,37.0508c10.8834,10.8835,23.7195,8.9736,33.6667,22.6315
		c30.8125,42.3065,24.8059,132.0302-26.8715,187.8938l1.9553-39.4613l0.2249-25.6597L1890.0156,1119.271z"/>
	
		<line style="fill:#FAE6E6;stroke:#DE928A;stroke-width:4;stroke-miterlimit:10;" x1="1738.8989" y1="1310.691" x2="1729.9786" y2="1337.1268"/>
	
		<line style="fill:#FAE6E6;stroke:#DE928A;stroke-width:4;stroke-miterlimit:10;" x1="1887.6475" y1="1340.0209" x2="1883.9321" y2="1388.3383"/>
	<linearGradient id="SVGID_16_" gradientUnits="userSpaceOnUse" x1="1784.9764" y1="1099.7478" x2="1920.1251" y2="1149.3022">
		<stop  offset="0.1776" style="stop-color:#F2DED0"/>
		<stop  offset="0.8962" style="stop-color:#EBC8C3"/>
	</linearGradient>
	<path style="fill:url(#SVGID_16_);" d="M1890.0156,1119.271c22.7908-2.3263,34.0414,7.5939,32.4545,25.4646
		c-1.9248,21.6761-24.838,18.7559-34.8226,16.9819L1890.0156,1119.271z"/>
	<path style="fill:#FAE6E6;stroke:#DE928A;stroke-width:4;stroke-miterlimit:10;" d="M1906.7319,1150.2743
		c3.6516-3.799,2.9463-12.499,0.2563-15.4335"/>
	<path style="fill:#FAE6E6;stroke:#DE928A;stroke-width:4;stroke-miterlimit:10;" d="M1909.2281,1141.996
		c0,0-3.4885-1.9127-10.113-0.3417"/>
	
		<ellipse transform="matrix(0.194 -0.981 0.981 0.194 346.847 2637.7253)" style="fill:#30343F;" cx="1778.6537" cy="1107.7833" rx="9.9506" ry="5.2371"/>
	
		<ellipse transform="matrix(0.194 -0.981 0.981 0.194 365.5083 2672.4995)" style="fill:#30343F;" cx="1809.1467" cy="1113.8137" rx="9.9506" ry="5.2371"/>
	<path style="fill:none;stroke:#DE928A;stroke-width:4;stroke-miterlimit:10;" d="M1789.9863,1126.6108l-11.0856,21.3167
		c-0.5792,0.9524-0.0939,2.1946,0.9773,2.5023l10.4852,3.0111"/>
	<g>
		<g>
			<path style="fill:none;stroke:#FFFFFF;stroke-width:4;stroke-miterlimit:10;" d="M1812.5237,1194.5397
				c-9.7793,2.6558-16.5045,1.1686-23.1418-1.2351"/>
		</g>
	</g>
	<path style="fill:#FAE6E6;stroke:#DE928A;stroke-width:4;stroke-miterlimit:10;" d="M1812.5835,1338.1917
		c-5.7357,3.5492-13.2627,1.7767-16.8119-3.9589"/>
	<path style="fill:none;stroke:#FFFFFF;stroke-width:4;stroke-miterlimit:10;" d="M1886.453,1023.8603
		c13.7178,0,23.8204,7.332,23.8204,25.8365"/>
	<path style="fill:none;stroke:#FFFFFF;stroke-width:4;stroke-miterlimit:10;" d="M1759.4702,1039.6426
		c6.6871,9.356,23.0968,23.6708,47.5367,23.6708"/>
	<g>
		
			<line style="fill:none;stroke:#FF8C80;stroke-width:4;stroke-miterlimit:10;" x1="1756.4133" y1="1212.0264" x2="1756.4133" y2="1222.801"/>
		
			<line style="fill:none;stroke:#FF8C80;stroke-width:4;stroke-miterlimit:10;" x1="1744.599" y1="1228.9966" x2="1744.599" y2="1239.7712"/>
		
			<line style="fill:none;stroke:#FF8C80;stroke-width:4;stroke-miterlimit:10;" x1="1795.7716" y1="1217.5906" x2="1795.7716" y2="1228.3652"/>
		
			<line style="fill:none;stroke:#FF8C80;stroke-width:4;stroke-miterlimit:10;" x1="1772.7773" y1="1233.7972" x2="1772.7773" y2="1244.5719"/>
		
			<line style="fill:none;stroke:#FF8C80;stroke-width:4;stroke-miterlimit:10;" x1="1818.8232" y1="1256.412" x2="1818.8232" y2="1267.1865"/>
		
			<line style="fill:none;stroke:#FF8C80;stroke-width:4;stroke-miterlimit:10;" x1="1842.9796" y1="1223.6628" x2="1842.9796" y2="1234.4375"/>
		
			<line style="fill:none;stroke:#FF8C80;stroke-width:4;stroke-miterlimit:10;" x1="1868.8831" y1="1234.6503" x2="1868.8831" y2="1245.4248"/>
		
			<line style="fill:none;stroke:#FF8C80;stroke-width:4;stroke-miterlimit:10;" x1="1859.5542" y1="1259.5468" x2="1859.5542" y2="1270.3214"/>
		
			<line style="fill:none;stroke:#FF8C80;stroke-width:4;stroke-miterlimit:10;" x1="1815.9498" y1="1231.2776" x2="1815.9498" y2="1242.0521"/>
		
			<line style="fill:none;stroke:#FF8C80;stroke-width:4;stroke-miterlimit:10;" x1="1754.2877" y1="1252.6268" x2="1754.2877" y2="1263.4015"/>
	</g>
	<g>
		<defs>
			<path id="SVGID_17_" d="M1990.0947,1530.7332c-12.5388-52.8599-36.7118-92.4657-64.0557-121.9579
				c-97.8467,35.4862-220.6866,11.1141-248.1157-72.6606c-142.6887,53.2021-244.2811,162.8661-291.6338,349.2094l619.9944,8.5051
				C2006.2839,1693.8291,2023.882,1673.1696,1990.0947,1530.7332z"/>
		</defs>
		<clipPath id="SVGID_18_">
			<use xlink:href="#SVGID_17_"  style="overflow:visible;"/>
		</clipPath>
		<g style="clip-path:url(#SVGID_18_);">
			<g>
				<g style="opacity:0.4;">
					<polygon style="fill:#F8AC73;" points="1578.5793,1221.0457 1930.1025,1835.5784 1487.0566,1590.5319 					"/>
				</g>
				<g style="opacity:0.5;">
					<polygon style="fill:#F58937;" points="1996.7708,1055.3445 2091.8381,1651.2654 1604.7454,1539.2948 					"/>
				</g>
				<g style="opacity:0.5;">
					<polygon style="fill:#F7A15F;" points="2051.8,1289.027 1911.3051,1794.5718 1664.979,1634.3929 					"/>
				</g>
			</g>
		</g>
	</g>
	<path style="opacity:0.5;fill:#FF6B19;" d="M1568.3915,1687.8221c1.2772-21.7704,1.3997-44.1846,0.2439-67.0527
		c-3.6002-71.2662-18.999-136.9611-42.4929-191.3429c-64.0559,60.8781-111.6067,144.7423-139.8529,255.8976L1568.3915,1687.8221z"/>
</g>
<g id="donna">
	<linearGradient id="SVGID_19_" gradientUnits="userSpaceOnUse" x1="1379.369" y1="1320.6428" x2="1158.0631" y2="1249.6898">
		<stop  offset="0.3771" style="stop-color:#F2DED0"/>
		<stop  offset="0.7562" style="stop-color:#E6BDB8"/>
	</linearGradient>
	<path style="fill:url(#SVGID_19_);" d="M1393.6104,1332.8876c-13.7067-16.8057-31.0526-30.1926-51.0197-40.4644l18.3005-99.4135
		l-89.6294,11.2899l-45.1537,61.3447c-69.2285-2.0354-145.1356,14.6382-208.2296,44.2277l461.8074,164.6425
		C1465.0526,1428.5815,1432.118,1380.1017,1393.6104,1332.8876z"/>
	<linearGradient id="SVGID_20_" gradientUnits="userSpaceOnUse" x1="1158.6119" y1="991.2475" x2="1526.892" y2="1155.9598">
		<stop  offset="0.0604" style="stop-color:#F2E29D"/>
		<stop  offset="0.912" style="stop-color:#F5CD67"/>
	</linearGradient>
	<path style="fill:url(#SVGID_20_);" d="M1128.8074,1114.8398l369.2413,145.787c0,0,42.9711-66.4153,2.428-141.8718
		c-36.8247-68.536,5.2225-95.5251-31.569-124.0972c-35.2888-27.4052-83.1481,8.0075-109.2477-2.9179
		c-26.0996-10.9255-50.9854-67.3735-132.926-45.5226c-68.5844,18.2892-97.6544,121.4519-105.3091,154.597
		C1120.072,1106.6729,1123.2148,1112.6317,1128.8074,1114.8398z"/>
	<g style="filter:url(#SAND_light-hard);">
		<linearGradient id="SVGID_21_" gradientUnits="userSpaceOnUse" x1="1158.6119" y1="991.2475" x2="1526.892" y2="1155.9598">
			<stop  offset="0" style="stop-color:#F2E29D"/>
			<stop  offset="0.4485" style="stop-color:#F5CD67;stop-opacity:0"/>
		</linearGradient>
		<path style="fill:url(#SVGID_21_);" d="M1128.8074,1114.8398l369.2413,145.787c0,0,42.9711-66.4153,2.428-141.8718
			c-36.8247-68.536,5.2225-95.5251-31.569-124.0972c-35.2888-27.4052-83.1481,8.0075-109.2477-2.9179
			c-26.0996-10.9255-50.9854-67.3735-132.926-45.5226c-68.5844,18.2892-97.6544,121.4519-105.3091,154.597
			C1120.072,1106.6729,1123.2148,1112.6317,1128.8074,1114.8398z"/>
	</g>
	<linearGradient id="SVGID_22_" gradientUnits="userSpaceOnUse" x1="1385.8555" y1="1159.5858" x2="1215.7935" y2="1117.9149">
		<stop  offset="0.3326" style="stop-color:#F2DED0"/>
		<stop  offset="0.8962" style="stop-color:#E6BDB8"/>
	</linearGradient>
	<path style="fill:url(#SVGID_22_);" d="M1282.8635,1214.1218c-39.9814-13.9731-25.5863-84.1469-16.5763-107.7979l19.7091-50.9795
		l114.6908,38.0277l8.0692,49.7924l-18.0198,43.2156c0,0-27.5929-4.1041-29.8453,6.6296l-6.1873,33.6111"/>
	<linearGradient id="SVGID_23_" gradientUnits="userSpaceOnUse" x1="1145.9713" y1="1019.5105" x2="1514.2513" y2="1184.2229">
		<stop  offset="0.0604" style="stop-color:#F2E29D"/>
		<stop  offset="0.912" style="stop-color:#F5CD67"/>
	</linearGradient>
	<path style="fill:url(#SVGID_23_);" d="M1273.1105,1088.675c7.5808-19.6086,26.1606-28.9291,43.7388-23.1007
		c17.578,5.8282,15.2683,11.66,23.2065,17.0986c6.5341,4.4764,15.4436,1.2677,22.583,10.1389
		c6.5341,8.119-7.0391,14.8914,7.0736,34.3475c18.0541,24.8899-8.8212,65.8503-8.8212,65.8503l42.234,5.059l21.3984-78.2299
		l-15.7673-60.1753l-72.6423-12.6858l-36.6028-12.6858l-40.5446,17.4094l-2.2526,26.072L1273.1105,1088.675z"/>
	<path style="fill:#DE928A;" d="M1243.8435,1241.5497l54.8812-22.6302c0,0-17.879-2.5341-28.782-12.8276L1243.8435,1241.5497z"/>
	
		<ellipse transform="matrix(0.2986 -0.9544 0.9544 0.2986 -152.4617 2013.0835)" style="fill:#30343F;" cx="1293.387" cy="1110.2704" rx="7.0517" ry="5.0725"/>
	
		<ellipse transform="matrix(0.2986 -0.9544 0.9544 0.2986 -141.9088 2048.873)" style="fill:#30343F;" cx="1323.0132" cy="1120.9854" rx="7.006" ry="5.0397"/>
	<circle style="opacity:0.5;fill:#EBC8C3;" cx="1332.2227" cy="1156.6138" r="9.1357"/>
	<path style="opacity:0.5;fill:#EBC8C3;" d="M1261.6555,1121.3793c-1.349,5.3331-2.6017,11.3025-3.5656,17.5902
		c0.0591,0.0013,0.1168,0.0074,0.1763,0.0074c5.0455,0,9.1357-4.0902,9.1357-9.1357
		C1267.402,1125.9967,1265.0193,1122.725,1261.6555,1121.3793z"/>
	<path style="fill:none;stroke:#DE928A;stroke-width:4;stroke-miterlimit:10;" d="M1299.1359,1134.2922
		c-4.1296,5.6312-13.8589,16.6083-7.1329,21.2787c2.0648,1.4337,5.819,1.5906,8.0714,1.0428"/>
	<path style="fill:none;stroke:#DE928A;stroke-width:4;stroke-linejoin:round;stroke-miterlimit:10;" d="M1289.7603,1171.5779
		c8.6216,3.8289,16.703,3.8289,20.6282,1.8147c-4.2134,9.6049-13.7993,8.8352-20.6282,7.4497"/>
	<path style="fill:none;stroke:#F58937;stroke-width:4;stroke-miterlimit:10;" d="M1485.8013,1236.7991
		c3.0033-11.2623,15.392-41.2953-4.1295-101.3615"/>
	<path style="fill:none;stroke:#F58937;stroke-width:4;stroke-miterlimit:10;" d="M1189.2251,1000.6644
		c12.3887-15.7673,50.3053-45.4249,93.8533-34.1625"/>
	
		<line style="fill:none;stroke:#F58937;stroke-width:4;stroke-miterlimit:10;" x1="1150.62" y1="1100.9309" x2="1203.4935" y2="1121.8069"/>
	<path style="fill:none;stroke:#F58937;stroke-width:4;stroke-miterlimit:10;" d="M1388.5693,1007.0464
		c7.5083-3.942,27.7806-7.9417,43.9233-7.8837"/>
	<g style="opacity:0.5;filter:url(#SAND_light-soft);">
		<linearGradient id="SVGID_24_" gradientUnits="userSpaceOnUse" x1="1455.0114" y1="1405.0824" x2="1082.2263" y2="1263.1763">
			<stop  offset="0.1319" style="stop-color:#F2DED0"/>
			<stop  offset="0.4806" style="stop-color:#EBC8C3;stop-opacity:0"/>
		</linearGradient>
		<path style="fill:url(#SVGID_24_);" d="M1393.6104,1332.8876c-73.1455-89.6833-249.9172-82.0194-375.7318-23.0155
			l461.8074,164.6425C1465.0526,1428.5815,1432.118,1380.1017,1393.6104,1332.8876z"/>
	</g>
	
		<line style="fill:#FAE6E6;stroke:#DE928A;stroke-width:4;stroke-miterlimit:10;" x1="1233.3562" y1="1255.7974" x2="1221.5521" y2="1271.834"/>
	<g>
		<defs>
			<path id="SVGID_25_" d="M1393.6104,1332.8876c-73.1455-89.6833-249.9172-82.0194-375.7318-23.0155l461.8074,164.6425
				C1465.0526,1428.5815,1432.118,1380.1017,1393.6104,1332.8876z"/>
		</defs>
		<clipPath id="SVGID_26_">
			<use xlink:href="#SVGID_25_"  style="overflow:visible;"/>
		</clipPath>
		<g style="clip-path:url(#SVGID_26_);">
			<path style="fill:none;stroke:#FFFFFF;stroke-width:4;stroke-miterlimit:10;" d="M1132.4044,1202.4285
				c33.7057,130.4591,159.6821,166.1078,300.0883,125.7698"/>
			<circle style="fill:#FFFFFF;" cx="1258.09" cy="1345.5239" r="11.8255"/>
		</g>
	</g>
	<path style="fill:#FAE6E6;stroke:#DE928A;stroke-width:4;stroke-miterlimit:10;" d="M1357.9507,1301.0111
		c-7.8329-5.3453-17.2354-9.6594-29.1699-13.7059"/>
	
		<line style="fill:#FAE6E6;stroke:#DE928A;stroke-width:4;stroke-miterlimit:10;" x1="1369.7124" y1="1420.2345" x2="1360.9907" y2="1444.7302"/>
	
		<line style="fill:#FAE6E6;stroke:#DE928A;stroke-width:4;stroke-miterlimit:10;" x1="1122.6759" y1="1331.6809" x2="1111.6953" y2="1362.521"/>
	<path style="fill:#F9D36D;" d="M1017.8786,1309.8721c-42.7217,20.0354-78.5334,45.9867-100.6672,76.0612l-61.9971,319.9492
		h642.1809c0-31.0383,16.4077-124.2782-17.7091-231.3679L1017.8786,1309.8721z"/>
	<linearGradient id="SVGID_27_" gradientUnits="userSpaceOnUse" x1="947.6813" y1="1635.0385" x2="1408.876" y2="1445.8303">
		<stop  offset="0.088" style="stop-color:#EDDEA4"/>
		<stop  offset="0.9396" style="stop-color:#F9D36D"/>
	</linearGradient>
	<path style="fill:url(#SVGID_27_);" d="M1017.8786,1309.8721c-42.7217,20.0354-78.5334,45.9867-100.6672,76.0612l-61.9971,319.9492
		h642.1809c0-31.0383,16.4077-124.2782-17.7091-231.3679L1017.8786,1309.8721z"/>
	<g>
		<defs>
			<path id="SVGID_28_" d="M1017.8786,1309.8721c-42.7217,20.0354-78.5334,45.9867-100.6672,76.0612l-61.9971,319.9492h642.1809
				c0-31.0383,16.4077-124.2782-17.7091-231.3679L1017.8786,1309.8721z"/>
		</defs>
		<clipPath id="SVGID_29_">
			<use xlink:href="#SVGID_28_"  style="overflow:visible;"/>
		</clipPath>
		<path style="clip-path:url(#SVGID_29_);fill:#FFFFFF;filter:url(#SAND_dark-soft);" d="M1151.2086,1451.7867
			c9.6533-0.2974,19.2368-1.8395,28.7782-3.2435c0.8859-0.101,1.7703-0.2115,2.657-0.3055
			c2.2354-0.2372,4.4763-0.4349,6.7227-0.5325c1.9174-0.0835,3.8396-0.1133,5.7583-0.0553c1.0496,0.0317,2.095,0.1259,3.1418,0.1885
			c-1.0319-0.0907-0.889-0.2256,0.4314,0.0269c0.0879,0.0042,0.1755,0.0131,0.2635,0.0165
			c-0.0962-0.0037-0.1663-0.0098-0.2524-0.0144c0.0909,0.0176,0.1659,0.0295,0.2681,0.051c3.657,0.7634,7.2341,1.7341,10.7516,3
			c0.9899,0.3562,6.1223,2.6671,2.4296,0.9001c1.8314,0.8765,3.6892,1.6953,5.5145,2.5862
			c7.042,3.4371,13.8925,7.2755,21.0391,10.4973c17.2555,7.7788,36.4785,13.1302,55.3398,7.9739
			c17.9163-4.8979,30.3885-18.4093,36.9921-35.2886c12.3748-31.6316-4.5779-64.6139-26.9503-86.7682
			c-23.3586-23.131-52.5369-40.3041-83.5599-50.9012c-15.5414-5.3088-31.7416-8.3357-47.3274-13.4928
			c-2.0315-0.6722-4.0499-1.3829-6.0519-2.1385c-0.6991-0.2638-1.3933-0.541-2.0905-0.8098
			c-3.3481-1.6033-6.6582-3.2036-9.8457-5.1208c-1.3025-0.7834-2.5863-1.6007-3.8448-2.4529
			c-0.5989-0.4055-1.1775-0.8577-1.785-1.2499c-2.5243-2.2101-5.0078-4.3912-7.2604-6.9003
			c-0.0598-0.0667-0.4917-0.5255-0.8719-0.9485c-0.8772-1.2977-1.7769-2.5703-2.5712-3.9255
			c-0.1161-0.198-0.9065-1.6855-1.4746-2.7676c0.214,0.7513,0.2578,1.301-0.271-0.4694c-0.0126-0.0421-0.0276-0.0837-0.0404-0.1259
			c-0.1713-0.3291-0.2821-0.5464-0.2778-0.5481c0.0367-0.0139,0.0768,0.0098,0.1177,0.048
			c-0.2371-0.7389-0.4884-1.4741-0.7136-2.2162c-3.035-9.9998-14.1379-17.3552-24.6023-13.9688
			c-0.2825,0.0913-0.5616,0.1904-0.8394,0.2932c-25.2396-12.1594-54.8021-15.468-81.9445-8.1627
			c-30.6353,8.2454-54.0532,29.7551-65.7331,58.9991c-10.2961,25.7795-8.8609,58.0752,6.7009,81.5256
			c18.4756,27.8411,49.579,40.0151,79.2789,52.0469C1081.5103,1440.6683,1115.6838,1452.8815,1151.2086,1451.7867z
			 M1180.3438,1448.4905C1182.0067,1448.2463,1181.0846,1448.3854,1180.3438,1448.4905L1180.3438,1448.4905z M1141.2871,1266.6154
			c-0.2504-0.2841-0.4419-0.5173-0.4222-0.5465C1140.8768,1266.051,1141.0623,1266.3008,1141.2871,1266.6154z M1198.698,1447.8652
			c0.0037,0.0006,0.0073,0.0013,0.0111,0.0021c-0.1628-0.0088-0.3152-0.0178-0.4425-0.0289
			C1198.4104,1447.847,1198.5541,1447.8585,1198.698,1447.8652z M1137.0988,1259.516c-0.0509-0.1672-0.1067-0.3335-0.1602-0.5001
			c0.1626,0.152,0.3458,0.6539,0.4716,1.0953C1137.2943,1259.8907,1137.1885,1259.6884,1137.0988,1259.516z M1555.0063,1571.562
			c-8.9261,23.8282-25.2433,43.8969-48.0153,55.746c-19.9781,10.3953-42.5464,14.9807-64.9789,15.0876
			c-17.006,0.0809-34.9634-2.03-50.9231-8.165c-4.1027-1.5771-8.1584-2.5027-12.4247-3.3621
			c-0.2529-0.03-0.5059-0.0613-0.7587-0.085c-1.2684-0.1196-2.5389-0.2158-3.8107-0.2948c-2.6251-0.163-5.2551-0.2477-7.8849-0.2875
			c-11.0521-0.1672-22.0947,0.49-33.145,0.531c-23.7512,0.0878-52.1627-3.697-60.6017-29.8879
			c-4.4896-13.9338-0.9718-29.873,5.7057-42.4558c7.0925-13.3649,18.8008-23.7498,30.9659-32.3783
			c12.2275-8.6726,25.9829-15.0579,39.9656-20.3396c6.1478-2.3224,12.4269-4.12,18.7183-5.9968
			c3.5192-1.0499,7.0201-2.1632,10.4861-3.3782c1.494-0.5238,2.9819-1.0651,4.4611-1.6299
			c0.6318-0.2413,5.5447-1.9352,2.4016-0.9268c-3.0721,0.9857,0.337-0.1776,1.0339-0.4989
			c0.5526-0.2549,1.1027-0.5151,1.6511-0.7789c1.2557-0.6039,2.5013-1.2294,3.7324-1.8822c2.3945-1.27,4.7385-2.6367,7.0177-4.1036
			c1.2899-0.8302,2.5594-1.6923,3.8073-2.5844c0.3005-0.215,0.6489-0.5176,0.999-0.7947c1.8175-1.5774,3.7015-3.077,5.4706-4.7169
			c10.6084-9.8336,18.6721-21.8925,30.5804-30.3037c27.0127-19.08,65.7688-13.7754,88.1287,9.8688
			c5.42,5.9534,10.4865,12.3044,14.999,18.9734C1561.3326,1504.6202,1566.8422,1539.9662,1555.0063,1571.562z M1360.3137,1692.5748
			c-27.8138-16.7981-59.3535-21.8186-91.3572-19.6436c-2.6005,0.1768-5.2102,0.2401-7.8146,0.113
			c-1.0724-0.4082-3.558-0.5437-4.3101-0.7493c-1.4492-0.3965-2.8158-1.0032-4.2463-1.436
			c1.9318,0.5847,2.9919,0.9214,3.4688,1.0767c-0.7585-0.2629-2.708-0.9778-3.8643-1.6929
			c-0.2975-0.1838-0.5842-0.3848-0.8717-0.5842c-1.2325-1.2063-2.4395-2.4076-3.62-3.6689
			c-0.3978-0.5859-0.7958-1.1715-1.1714-1.7731c-1.2968-2.0775-2.3822-4.2458-3.4478-6.4441
			c-0.0173-0.0502-0.0317-0.0933-0.0503-0.1467c-0.4204-1.213-0.8737-2.4132-1.2709-3.6346
			c-1.0406-3.1995-1.8994-6.457-2.6251-9.7416c-0.5073-2.2963-0.5338-5.5551-1.1527-8.1334
			c0.1152,0.9099-0.316,0.8948-0.4818-0.5693c-0.0486-0.429-0.0963-0.8579-0.1458-1.2867
			c-0.0188-0.0394-0.0314-0.0868-0.0509-0.1252c0.0179,0.0353,0.0312,0.0673,0.0483,0.1021
			c-0.0535-0.4644-0.1085-0.9286-0.1578-1.3934c-0.2769-2.6152-0.4967-5.2363-0.6724-7.8604
			c-0.6466-9.6617-0.5282-19.2991-0.3737-28.9727c0.4799-30.0496-9.7699-63.3068-39.2682-76.6113
			c-26.9255-12.1443-57.7612-8.0142-84.8711,1.561c-14.745,5.2078-29.0326,11.8655-42.5601,19.7018
			c-0.0081,0.0046-0.0155,0.0099-0.0236,0.0145c-0.9491-5.2773-1.8351-10.5684-3.0082-15.8047
			c-2.7565-12.3052-9.1145-25.2704-22.4832-28.5518c-16.5339-4.0583-31.4743,8.0518-40.685,20.462
			c-7.9543,10.7173-12.3754,24.1884-14.5438,37.2557c-2.6039,15.6917-3.2336,31.4839-1.8234,47.3265
			c1.407,15.8054,4.0324,31.6731,8.8241,46.8265c3.8284,12.1071,8.7561,24.5034,16.3733,34.7664
			c9.6622,13.0183,21.2711,24.6648,32.4222,36.3833c17.0437,17.9104,34.395,35.5308,51.9349,52.9548
			c18.2758,18.155,36.751,36.1277,55.7253,53.5542c13.7009,12.5833,27.699,25.9365,43.3783,36.0657
			c9.5858,6.1926,22.6708,10.0168,34.0458,8.8821c15.3806-1.5343,26.2396-9.6884,37.0146-20.1316
			c1.8734-1.8158,3.749-3.6298,5.7024-5.3601c0.8215-0.7277,1.8992-1.4399,2.7416-2.2269c0.436-0.3092,0.8717-0.6191,1.3196-0.9095
			c1.1558-0.7496,2.34-1.457,3.5511-2.1135c0.3448-0.1869,0.6975-0.3619,1.0496-0.5381c2.3846-0.6222,8.3643-2.251,10.1774-2.7932
			c0.3757-0.0247,0.7516-0.051,1.1283-0.0591c1.3271-0.0284,2.6383,0.093,3.9604,0.157c0.3895,0.0623,0.7794,0.1232,1.1669,0.1941
			c2.3296,0.4268,4.6418,0.9459,6.9424,1.5071c7.9409,1.9368,15.7415,4.4069,23.5652,6.7598
			c14.9423,4.4937,36.422,12.4198,46.5485-4.7441c6.376-10.8069,1.4991-22.8096-4.127-32.6444
			c-2.9994-5.2432-6.2898-10.3029-9.714-15.2777c0.4152,0.0446,0.8293,0.0959,1.2448,0.1377
			c15.3555,1.5466,37.2526-0.025,45.9006-15.1145c5.1868-9.0502,5.0764-20.1479,1.5801-29.7888
			C1400.776,1724.2474,1381.4683,1705.3512,1360.3137,1692.5748z M1260.8336,1673.0314c-0.7095-0.0398-1.4156-0.1096-2.1243-0.157
			C1255.7203,1672.6749,1259.1948,1672.7111,1260.8336,1673.0314z M1290.4082,1836.7623c0.2091-0.0042,0.4181-0.0193,0.6271-0.0325
			C1289.7722,1836.8837,1287.3197,1836.8246,1290.4082,1836.7623z M1291.1816,1836.712c0.3087-0.0928,0.4879-0.1517,0.4911-0.1643
			C1291.6553,1836.6172,1291.4603,1836.671,1291.1816,1836.712z M1337.7856,1832.4037
			C1337.908,1833.4519,1337.925,1834.1074,1337.7856,1832.4037L1337.7856,1832.4037z M1356.3781,1811.4713
			c-0.7854-0.1516-1.568-0.3176-2.3495-0.489c0.4507-0.0288,1.7953,0.1501,4.774,0.9111
			C1358.0159,1811.6925,1357.1763,1811.6251,1356.3781,1811.4713z M1237.3527,1634.26c-0.0009-0.0077-0.0017-0.0155-0.0026-0.0232
			c0.3939,0.8018,0.5751,1.4452,0.6301,1.8793C1237.8181,1635.4408,1237.6171,1634.8107,1237.3527,1634.26z M1256.0543,1671.9357
			C1256.5106,1672.0844,1256.4314,1672.0663,1256.0543,1671.9357L1256.0543,1671.9357z"/>
		<g style="opacity:0.7;clip-path:url(#SVGID_29_);">
			<path style="fill:#FFFFFF;" d="M1151.2086,1451.7867c9.6533-0.2974,19.2368-1.8395,28.7782-3.2435
				c0.8859-0.101,1.7703-0.2115,2.657-0.3055c2.2354-0.2372,4.4763-0.4349,6.7227-0.5325c1.9174-0.0835,3.8396-0.1133,5.7583-0.0553
				c1.0496,0.0317,2.095,0.1259,3.1418,0.1885c-1.0319-0.0907-0.889-0.2256,0.4314,0.0269
				c0.0879,0.0042,0.1755,0.0131,0.2635,0.0165c-0.0962-0.0037-0.1663-0.0098-0.2524-0.0144
				c0.0909,0.0176,0.1659,0.0295,0.2681,0.051c3.657,0.7634,7.2341,1.7341,10.7516,3c0.9899,0.3562,6.1223,2.6671,2.4296,0.9001
				c1.8314,0.8765,3.6892,1.6953,5.5145,2.5862c7.042,3.4371,13.8925,7.2755,21.0391,10.4973
				c17.2555,7.7788,36.4785,13.1302,55.3398,7.9739c17.9163-4.8979,30.3885-18.4093,36.9921-35.2886
				c12.3748-31.6316-4.5779-64.6139-26.9503-86.7682c-23.3586-23.131-52.5369-40.3041-83.5599-50.9012
				c-15.5414-5.3088-31.7416-8.3357-47.3274-13.4928c-2.0315-0.6722-4.0499-1.3829-6.0519-2.1385
				c-0.6991-0.2638-1.3933-0.541-2.0905-0.8098c-3.3481-1.6033-6.6582-3.2036-9.8457-5.1208
				c-1.3025-0.7834-2.5863-1.6007-3.8448-2.4529c-0.5989-0.4055-1.1775-0.8577-1.785-1.2499
				c-2.5243-2.2101-5.0078-4.3912-7.2604-6.9003c-0.0598-0.0667-0.4917-0.5255-0.8719-0.9485
				c-0.8772-1.2977-1.7769-2.5703-2.5712-3.9255c-0.1161-0.198-0.9065-1.6855-1.4746-2.7676c0.214,0.7513,0.2578,1.301-0.271-0.4694
				c-0.0126-0.0421-0.0276-0.0837-0.0404-0.1259c-0.1713-0.3291-0.2821-0.5464-0.2778-0.5481
				c0.0367-0.0139,0.0768,0.0098,0.1177,0.048c-0.2371-0.7389-0.4884-1.4741-0.7136-2.2162
				c-3.035-9.9998-14.1379-17.3552-24.6023-13.9688c-0.2825,0.0913-0.5616,0.1904-0.8394,0.2932
				c-25.2396-12.1594-54.8021-15.468-81.9445-8.1627c-30.6353,8.2454-54.0532,29.7551-65.7331,58.9991
				c-10.2961,25.7795-8.8609,58.0752,6.7009,81.5256c18.4756,27.8411,49.579,40.0151,79.2789,52.0469
				C1081.5103,1440.6683,1115.6838,1452.8815,1151.2086,1451.7867z M1180.3438,1448.4905
				C1182.0067,1448.2463,1181.0846,1448.3854,1180.3438,1448.4905L1180.3438,1448.4905z M1141.2871,1266.6154
				c-0.2504-0.2841-0.4419-0.5173-0.4222-0.5465C1140.8768,1266.051,1141.0623,1266.3008,1141.2871,1266.6154z M1198.698,1447.8652
				c0.0037,0.0006,0.0073,0.0013,0.0111,0.0021c-0.1628-0.0088-0.3152-0.0178-0.4425-0.0289
				C1198.4104,1447.847,1198.5541,1447.8585,1198.698,1447.8652z M1137.0988,1259.516c-0.0509-0.1672-0.1067-0.3335-0.1602-0.5001
				c0.1626,0.152,0.3458,0.6539,0.4716,1.0953C1137.2943,1259.8907,1137.1885,1259.6884,1137.0988,1259.516z M1555.0063,1571.562
				c-8.9261,23.8282-25.2433,43.8969-48.0153,55.746c-19.9781,10.3953-42.5464,14.9807-64.9789,15.0876
				c-17.006,0.0809-34.9634-2.03-50.9231-8.165c-4.1027-1.5771-8.1584-2.5027-12.4247-3.3621
				c-0.2529-0.03-0.5059-0.0613-0.7587-0.085c-1.2684-0.1196-2.5389-0.2158-3.8107-0.2948
				c-2.6251-0.163-5.2551-0.2477-7.8849-0.2875c-11.0521-0.1672-22.0947,0.49-33.145,0.531
				c-23.7512,0.0878-52.1627-3.697-60.6017-29.8879c-4.4896-13.9338-0.9718-29.873,5.7057-42.4558
				c7.0925-13.3649,18.8008-23.7498,30.9659-32.3783c12.2275-8.6726,25.9829-15.0579,39.9656-20.3396
				c6.1478-2.3224,12.4269-4.12,18.7183-5.9968c3.5192-1.0499,7.0201-2.1632,10.4861-3.3782
				c1.494-0.5238,2.9819-1.0651,4.4611-1.6299c0.6318-0.2413,5.5447-1.9352,2.4016-0.9268
				c-3.0721,0.9857,0.337-0.1776,1.0339-0.4989c0.5526-0.2549,1.1027-0.5151,1.6511-0.7789
				c1.2557-0.6039,2.5013-1.2294,3.7324-1.8822c2.3945-1.27,4.7385-2.6367,7.0177-4.1036c1.2899-0.8302,2.5594-1.6923,3.8073-2.5844
				c0.3005-0.215,0.6489-0.5176,0.999-0.7947c1.8175-1.5774,3.7015-3.077,5.4706-4.7169
				c10.6084-9.8336,18.6721-21.8925,30.5804-30.3037c27.0127-19.08,65.7688-13.7754,88.1287,9.8688
				c5.42,5.9534,10.4865,12.3044,14.999,18.9734C1561.3326,1504.6202,1566.8422,1539.9662,1555.0063,1571.562z M1360.3137,1692.5748
				c-27.8138-16.7981-59.3535-21.8186-91.3572-19.6436c-2.6005,0.1768-5.2102,0.2401-7.8146,0.113
				c-1.0724-0.4082-3.558-0.5437-4.3101-0.7493c-1.4492-0.3965-2.8158-1.0032-4.2463-1.436
				c1.9318,0.5847,2.9919,0.9214,3.4688,1.0767c-0.7585-0.2629-2.708-0.9778-3.8643-1.6929
				c-0.2975-0.1838-0.5842-0.3848-0.8717-0.5842c-1.2325-1.2063-2.4395-2.4076-3.62-3.6689
				c-0.3978-0.5859-0.7958-1.1715-1.1714-1.7731c-1.2968-2.0775-2.3822-4.2458-3.4478-6.4441
				c-0.0173-0.0502-0.0317-0.0933-0.0503-0.1467c-0.4204-1.213-0.8737-2.4132-1.2709-3.6346
				c-1.0406-3.1995-1.8994-6.457-2.6251-9.7416c-0.5073-2.2963-0.5338-5.5551-1.1527-8.1334
				c0.1152,0.9099-0.316,0.8948-0.4818-0.5693c-0.0486-0.429-0.0963-0.8579-0.1458-1.2867
				c-0.0188-0.0394-0.0314-0.0868-0.0509-0.1252c0.0179,0.0353,0.0312,0.0673,0.0483,0.1021
				c-0.0535-0.4644-0.1085-0.9286-0.1578-1.3934c-0.2769-2.6152-0.4967-5.2363-0.6724-7.8604
				c-0.6466-9.6617-0.5282-19.2991-0.3737-28.9727c0.4799-30.0496-9.7699-63.3068-39.2682-76.6113
				c-26.9255-12.1443-57.7612-8.0142-84.8711,1.561c-14.745,5.2078-29.0326,11.8655-42.5601,19.7018
				c-0.0081,0.0046-0.0155,0.0099-0.0236,0.0145c-0.9491-5.2773-1.8351-10.5684-3.0082-15.8047
				c-2.7565-12.3052-9.1145-25.2704-22.4832-28.5518c-16.5339-4.0583-31.4743,8.0518-40.685,20.462
				c-7.9543,10.7173-12.3754,24.1884-14.5438,37.2557c-2.6039,15.6917-3.2336,31.4839-1.8234,47.3265
				c1.407,15.8054,4.0324,31.6731,8.8241,46.8265c3.8284,12.1071,8.7561,24.5034,16.3733,34.7664
				c9.6622,13.0183,21.2711,24.6648,32.4222,36.3833c17.0437,17.9104,34.395,35.5308,51.9349,52.9548
				c18.2758,18.155,36.751,36.1277,55.7253,53.5542c13.7009,12.5833,27.699,25.9365,43.3783,36.0657
				c9.5858,6.1926,22.6708,10.0168,34.0458,8.8821c15.3806-1.5343,26.2396-9.6884,37.0146-20.1316
				c1.8734-1.8158,3.749-3.6298,5.7024-5.3601c0.8215-0.7277,1.8992-1.4399,2.7416-2.2269c0.436-0.3092,0.8717-0.6191,1.3196-0.9095
				c1.1558-0.7496,2.34-1.457,3.5511-2.1135c0.3448-0.1869,0.6975-0.3619,1.0496-0.5381c2.3846-0.6222,8.3643-2.251,10.1774-2.7932
				c0.3757-0.0247,0.7516-0.051,1.1283-0.0591c1.3271-0.0284,2.6383,0.093,3.9604,0.157c0.3895,0.0623,0.7794,0.1232,1.1669,0.1941
				c2.3296,0.4268,4.6418,0.9459,6.9424,1.5071c7.9409,1.9368,15.7415,4.4069,23.5652,6.7598
				c14.9423,4.4937,36.422,12.4198,46.5485-4.7441c6.376-10.8069,1.4991-22.8096-4.127-32.6444
				c-2.9994-5.2432-6.2898-10.3029-9.714-15.2777c0.4152,0.0446,0.8293,0.0959,1.2448,0.1377
				c15.3555,1.5466,37.2526-0.025,45.9006-15.1145c5.1868-9.0502,5.0764-20.1479,1.5801-29.7888
				C1400.776,1724.2474,1381.4683,1705.3512,1360.3137,1692.5748z M1260.8336,1673.0314c-0.7095-0.0398-1.4156-0.1096-2.1243-0.157
				C1255.7203,1672.6749,1259.1948,1672.7111,1260.8336,1673.0314z M1290.4082,1836.7623c0.2091-0.0042,0.4181-0.0193,0.6271-0.0325
				C1289.7722,1836.8837,1287.3197,1836.8246,1290.4082,1836.7623z M1291.1816,1836.712c0.3087-0.0928,0.4879-0.1517,0.4911-0.1643
				C1291.6553,1836.6172,1291.4603,1836.671,1291.1816,1836.712z M1337.7856,1832.4037
				C1337.908,1833.4519,1337.925,1834.1074,1337.7856,1832.4037L1337.7856,1832.4037z M1356.3781,1811.4713
				c-0.7854-0.1516-1.568-0.3176-2.3495-0.489c0.4507-0.0288,1.7953,0.1501,4.774,0.9111
				C1358.0159,1811.6925,1357.1763,1811.6251,1356.3781,1811.4713z M1237.3527,1634.26c-0.0009-0.0077-0.0017-0.0155-0.0026-0.0232
				c0.3939,0.8018,0.5751,1.4452,0.6301,1.8793C1237.8181,1635.4408,1237.6171,1634.8107,1237.3527,1634.26z M1256.0543,1671.9357
				C1256.5106,1672.0844,1256.4314,1672.0663,1256.0543,1671.9357L1256.0543,1671.9357z"/>
		</g>
	</g>
	<g>
		<path style="opacity:0.902;fill:#FADC8A;" d="M1077.8363,1395.8927c2.3317,14.7025,4.4785,29.7749,6.3479,44.6978
			c1.3918,0.4525,2.7865,0.8956,4.1838,1.3291c-0.3832-3.0925-0.7677-6.1865-1.1742-9.2894
			c2.4146-36.6583,5.2933-65.208,17.3917-91.8458l-3.7965-1.3534c-10.0946,22.334-13.8477,45.8925-16.2153,74.2235
			c-4.4474-30.6533-9.8287-60.6329-15.2922-85.4562l-4.4467-1.5859c2.6205,11.7286,5.2286,24.6779,7.7305,38.3564
			c-17.7979-40.3152-39.936-51.6765-56.0302-54.458c-7.8504,3.718-15.4633,7.634-22.7968,11.7413
			c1.9998,3.4629,5.2318,7.4403,9.3134,11.618C1013.9883,1345.0677,1065.1365,1386.3633,1077.8363,1395.8927z"/>
		<path style="opacity:0.902;fill:#FADC8A;" d="M1114.8304,1364.842c-9.3704,19.2344-20.6815,53.5801-25.601,77.3463
			c5.6849,1.7449,11.4154,3.3179,17.1884,4.668c12.3354-18.0966,20.2253-36.324,27.2772-56.6736
			c5.6334-16.256,6.2952-29.007,5.2-37.1659l-13.9941-4.9893C1122.129,1351.3867,1118.8114,1356.6699,1114.8304,1364.842z"/>
		<path style="opacity:0.902;fill:#FADC8A;" d="M1069.4469,1540.6619c-0.0081,0.0046-0.0155,0.0099-0.0236,0.0145
			c-0.9491-5.2773-1.8351-10.5684-3.0082-15.8047c-2.7565-12.3052-9.1145-25.2704-22.4832-28.5518
			c-16.5339-4.0583-31.4743,8.0518-40.685,20.462c-7.9543,10.7173-12.3754,24.1884-14.5438,37.2557
			c-2.6039,15.6917-3.2336,31.4839-1.8234,47.3265c1.407,15.8054,4.0324,31.6731,8.8241,46.8265
			c3.8284,12.1071,8.7561,24.5034,16.3733,34.7664c5.9772,8.0533,12.7005,15.5804,19.5984,22.9257h53.3485
			c0.158-3.1777,0.2805-6.37,0.3873-9.5681l62.8384-7.2394l30.6907-111.7208v-50.8895h-81.058
			C1088.1202,1530.606,1078.6062,1535.356,1069.4469,1540.6619z"/>
		<path style="opacity:0.902;fill:#FADC8A;" d="M960.2646,1343.8145c-0.7596,0.5653-1.4969,1.1415-2.2463,1.7118
			c1.9512,10.7078,5.8311,20.9828,11.7884,29.96c18.4756,27.8411,49.579,40.0151,79.2789,52.0469
			c5.1863,2.101,10.4177,4.1775,15.6919,6.1804c-0.4728-5.0417-2.3534-10.3132-5.126-16.1198
			c-8.558-17.9219-10.155-19.6298-12.6649-24.6348c-1.9669-3.9227-5.8131-8.3292-9.736-8.3296
			c-1.0819-0.0001-2.1693,0.335-3.2251,1.1079c-4.8848,3.5762-2.1252,14.5978-6.3478,17.3428
			c-0.8843,0.575-1.9996,0.777-3.2577,0.777c-2.7834,0-6.2661-0.9884-9.4959-1.1128
			C997.9994,1380.7352,979.3318,1361.2734,960.2646,1343.8145z"/>
		<path style="opacity:0.902;fill:#FADC8A;" d="M1134.9153,1450.4368c-0.6305,0.2511-1.2357,0.5291-1.8533,0.7941
			c6.0082,0.532,12.057,0.7437,18.1466,0.5559c2.4666-0.0759,4.9282-0.2349,7.3861-0.4503
			c-3.1208-2.069-7.1984-3.3024-11.8745-3.3026C1143.0822,1448.0338,1139.0884,1448.775,1134.9153,1450.4368z"/>
	</g>
	<g>
		<path style="opacity:0.5;fill:#DE928A;" d="M1057.017,1293.7621c1.2423,5.4207,2.5914,11.0424,4.0665,16.9424
			c1.2463,4.9856,2.5001,10.3094,3.7512,15.9082l4.447,1.5856c-1.2032-5.4672-2.4103-10.6929-3.6124-15.6107
			c6.4204-8.3929,11.6346-14.76,16.8376-27.1802C1073.897,1287.9681,1065.389,1290.7565,1057.017,1293.7621z"/>
		<path style="opacity:0.5;fill:#DE928A;" d="M1180.5168,1275.1705c2.7072-3.3479,4.6697-6.2498,6.0474-8.735
			c-24.5077,1.6498-49.3744,5.3934-73.8011,10.9991c-3.723,15.8765-4.7649,31.8165,1.9349,37.7384
			c-5.6572,8.0371-10.2062,16.0658-13.9091,24.2579l3.7965,1.3535c3.6337-8.0007,8.0891-15.8312,13.6257-23.6545
			C1133.3176,1322.254,1158.4451,1302.4669,1180.5168,1275.1705z"/>
		<path style="opacity:0.5;fill:#DE928A;" d="M1134.8213,1342.8805c-2.1215-0.7072-5.2432-0.5227-9.9205,5.1469l13.9944,4.9893
			C1138.0745,1346.9022,1136.2687,1343.3629,1134.8213,1342.8805z"/>
	</g>
	<path style="opacity:0.902;fill:#EFC360;" d="M1012.0772,1682.9573c-7.6172-10.2629-12.5449-22.6594-16.3733-34.7664
		c-4.7917-15.1536-7.4171-31.0212-8.8241-46.8267c-1.4102-15.8425-0.7805-31.6348,1.8234-47.3264
		c2.1684-13.0674-11.3088,17.9753-3.3545,7.2581c9.2107-12.4102,40.4114-4.8091,56.9453-0.7507
		c13.3687,3.2812,14.2545-17.1855,17.0111-4.8804c1.173,5.2363,4.682-7.9053,5.6311-2.6279
		c-2.4222,14.4252,3.7462,7.5129,3.7542,7.5083c9.1594-5.3059,17.4551-4.8691,27.2174-9.01l-0.6061-25.0701
		c-0.1914-8.0745-0.5953-16.6877-1.1906-25.707c12.8374-8.3262,36.5483-3.876,59.5746-20.4768
		c14.8247-10.6869,13.6698-23.137,4.9089-28.9448c-2.4579,0.2156-4.9196,0.3744-7.3861,0.4504
		c-6.0896,0.1876-12.1384-0.0239-18.1466-0.556c-18.8167,8.0729-31.6826,22.515-39.6794,39.4657
		c-0.6165-7.8623-1.36-15.9668-2.2113-24.2188c5.7764-6.5857,10.798-13.0952,15.2466-19.6215
		c-5.7729-1.35-11.5034-2.923-17.1884-4.668c-0.1771,0.8556-0.3479,1.7006-0.5081,2.5275c-0.113-0.9294-0.2382-1.8654-0.3534-2.7963
		c-1.3973-0.4335-2.792-0.8766-4.1838-1.329c2.9701,23.7081,5.235,47.0359,6.3911,67.8804
		c-16.5055-37.0901-28.6466-47.4336-35.1454-52.4268c7.5546-7.6161,10.062-14.7106,9.3475-22.3306
		c-5.2742-2.0031-10.5056-4.0796-15.6919-6.1804c-29.6998-12.0317-60.8033-24.2058-79.2789-52.0469
		c-5.9573-8.9773-9.8372-19.2522-11.7884-29.9601c-5.6258,4.2808-10.9795,8.6925-15.9954,13.2423l-0.02,0.0178
		c-0.915,0.8301-1.8185,1.665-2.7119,2.5039l-0.1049,0.0967c-0.8708,0.8191-1.7301,1.6423-2.5798,2.4697l-0.1633,0.1572
		c-0.8174,0.7971-1.6229,1.5974-2.4207,2.4021l-0.2529,0.2522c-0.7689,0.7783-1.5253,1.5613-2.2758,2.3464
		c-0.1064,0.1116-0.216,0.2209-0.3217,0.332c-0.7125,0.749-1.4119,1.5032-2.1068,2.2578c-0.1379,0.1506-0.2802,0.2991-0.4177,0.4485
		c-0.6706,0.7344-1.3277,1.4727-1.9822,2.2119c-0.1525,0.1726-0.3105,0.3428-0.4623,0.5166
		c-0.6241,0.7097-1.234,1.4258-1.8423,2.1404c-0.1737,0.2053-0.3539,0.4082-0.5269,0.6135c-0.5757,0.6836-1.1371,1.373-1.699,2.0613
		c-0.1948,0.2395-0.3966,0.4768-0.5899,0.7158c-0.5626,0.6975-1.1098,1.3997-1.6575,2.1018
		c-0.1813,0.2324-0.3701,0.4639-0.5503,0.6982c-0.7221,0.9353-1.4304,1.8757-2.1259,2.821l-61.9968,319.9492h176.4612
		C1024.7777,1698.5376,1018.0544,1691.0105,1012.0772,1682.9573z M1052.4771,1458.8196
		c6.5914,5.0254,19.8988,15.6833,38.6251,61.031c0.0669,1.8215,0.1245,3.6204,0.171,5.3916
		c-4.2015-8.4883-11.2649-18.8572-23.8163-27.0693c-4.7745-13.3916-10.2765-26.0925-16.3634-38.1716
		C1051.5643,1459.6057,1052.0332,1459.2112,1052.4771,1458.8196z"/>
	<linearGradient id="SVGID_30_" gradientUnits="userSpaceOnUse" x1="1405.1216" y1="1135.8301" x2="1174.2427" y2="1208.2847">
		<stop  offset="0.2542" style="stop-color:#F2DED0"/>
		<stop  offset="0.8962" style="stop-color:#EBC8C3"/>
	</linearGradient>
	<path style="fill:url(#SVGID_30_);" d="M1390.8521,1153.5569c-4.0742,13.0209-16.8417,20.6149-28.5168,16.9617
		s-17.8368-17.1702-13.7626-30.191c4.0743-13.0209,16.8418-20.615,28.517-16.9617
		C1388.7646,1127.019,1394.9264,1140.536,1390.8521,1153.5569z"/>
	<circle style="fill:#FFFFFF;" cx="1365.9594" cy="1176.6206" r="12.3886"/>
	<path style="fill:#FAE6E6;stroke:#DE928A;stroke-width:4;stroke-miterlimit:10;" d="M1372.8997,1153.2576
		c3.2527-4.2295,4.7891-9.2145,3.678-13.9667"/>
	<path style="fill:#FAE6E6;stroke:#DE928A;stroke-width:4;stroke-miterlimit:10;" d="M1376.5255,1145.8568
		c-3.4526,0.8065-5.6459,0.4032-7.7059-1.8142"/>
	<path style="fill:#FAE6E6;stroke:#DE928A;stroke-width:4;stroke-miterlimit:10;" d="M1375.7144,1122.9905
		c-2.0929-0.3802-8.0211-0.9163-11.5211,0.6411"/>
</g>
<g id="uomo_sx">
	<linearGradient id="SVGID_31_" gradientUnits="userSpaceOnUse" x1="591.3091" y1="1134.5236" x2="724.7684" y2="952.636">
		<stop  offset="0.054" style="stop-color:#F58937"/>
		<stop  offset="0.8962" style="stop-color:#B55E1D"/>
	</linearGradient>
	<path style="fill:url(#SVGID_31_);" d="M790.4002,990.6542c-6.8095,5.528-18.7229,4.5183-26.1923,0.9184
		c-0.0008-0.0004-0.0016-0.0007-0.0024-0.0011c1.548-4.2681,2.3876-8.8107,2.3876-13.5251
		c0-24.7479-23.0073-44.8099-51.3881-44.8099c-17.0767,0-32.1991,7.2693-41.5436,18.4463
		c-17.0699-8.0085-37.9675-14.0752-59.0707,3.696c-17.1785,14.4661-14.962,41.3747-11.4738,54.0594
		c4.1296,15.0165,13.313,21.8931,7.515,32.0292c-5.798,10.1361-43.5547,20.5286-37.548,63.701
		c6.687,48.0627,34.538,64.9465,63.7865,66.4554c35.7761,1.8458,106.2755-94.9868,106.2755-94.9868l13.1329-38.9276
		C777.637,1032.62,791.5742,1010.3768,790.4002,990.6542z"/>
	<linearGradient id="SVGID_32_" gradientUnits="userSpaceOnUse" x1="436.4112" y1="1696.6176" x2="864.3819" y2="1469.1173">
		<stop  offset="0.1651" style="stop-color:#995397"/>
		<stop  offset="0.8189" style="stop-color:#7F287D"/>
	</linearGradient>
	<path style="fill:url(#SVGID_32_);" d="M401.394,1689.6871c0-46.1758,22.5247-233.6013,123.8863-336.4172
		c101.3615-102.8158,188.0747-86.5002,228.6265-87.7972c51.8069-1.657,90.3234,15.3462,156.7714,90.8042
		s121.3669,256.1249,121.3669,338.1278L401.394,1689.6871z"/>
	<circle style="fill:#FFFFFF;" cx="733.3476" cy="1437.4097" r="9.2429"/>
	<circle style="fill:#FFFFFF;" cx="740.5143" cy="1505.5968" r="9.2429"/>
	<circle style="fill:#FFFFFF;" cx="747.9022" cy="1573.7839" r="9.2429"/>
	<linearGradient id="SVGID_33_" gradientUnits="userSpaceOnUse" x1="612.0485" y1="1135.8561" x2="747.948" y2="1098.3148">
		<stop  offset="0.1776" style="stop-color:#F5E5DA"/>
		<stop  offset="0.8962" style="stop-color:#EBC8C3"/>
	</linearGradient>
	<circle style="fill:url(#SVGID_33_);" cx="629.5366" cy="1131.0251" r="23.7918"/>
	<linearGradient id="SVGID_34_" gradientUnits="userSpaceOnUse" x1="654.9531" y1="1181.3596" x2="745.3337" y2="1156.0193">
		<stop  offset="0.1776" style="stop-color:#F5E5DA"/>
		<stop  offset="0.8962" style="stop-color:#EBC8C3"/>
	</linearGradient>
	<path style="fill:url(#SVGID_34_);" d="M777.7164,1266.2535l-25.5605-60.8497c29.2822-1.8771,28.5314-94.7917,4.1295-168.9359
		L714.99,995.1725h-40.92l-26.6543,14.2657l-27.7806,43.9233c0,0-3.0033,43.5479,0,64.5709
		c3.0034,21.0232,13.5923,36.9449,13.5923,36.9449l15.1196,120.0895c-2.4105,0.6653,2.4435-0.7778,0,0
		c-0.005,0.3442-0.0251,0.6846-0.0251,1.0299c0,37.2085,29.1196,67.3719,65.0403,67.3719c35.9208,0,65.0403-30.1635,65.0403-67.3719
		"/>
	<path style="fill:#DE928A;" d="M752.1559,1205.4038c-9.3853,1.0898-21.3986,2.2524-33.7872,0l46.8116,31.4482L752.1559,1205.4038z"
		/>
	<linearGradient id="SVGID_35_" gradientUnits="userSpaceOnUse" x1="608.8541" y1="1147.3971" x2="742.3134" y2="965.5096">
		<stop  offset="0.054" style="stop-color:#F58937"/>
		<stop  offset="0.8962" style="stop-color:#B55E1D"/>
	</linearGradient>
	<path style="fill:url(#SVGID_35_);" d="M629.5366,1107.2333c2.1117,11.8256,4.7396,27.5929,7.3675,31.347
		c2.6279,3.754,11.6378-0.3755,11.6378-4.1296c0-3.754-17.4249-61.2562-14.6411-81.8053
		c2.7837-20.5492,36.415-43.3948,64.2851-50.01c1.506,10.3693,19.0475,44.6257,58.464,34.97l-7.0949-31.8449l-79.6146-30.8602
		l-42.7971,55.9365l-19.5215,30.0225l2.6279,43.9338l8.5674,4.9923C618.8172,1109.7854,623.6708,1107.421,629.5366,1107.2333z"/>
	<path style="fill:#FAE6E6;stroke:#DE928A;stroke-width:4;stroke-miterlimit:10;" d="M618.3003,1120.9359
		c-2.4193,5.2557-4.4841,13.0972-1.8562,19.1249"/>
	
		<line style="fill:#FAE6E6;stroke:#DE928A;stroke-width:4;stroke-miterlimit:10;" x1="615.3809" y1="1131.0251" x2="623.0974" y2="1132.795"/>
	<path style="fill:#FFFFFF;fill-opacity:0.4;stroke:#30343F;stroke-width:4;stroke-miterlimit:10;" d="M785.8369,1095.8778
		l-22.6007,4.4229c-10.4477,2.0447-20.5747-4.7675-22.6193-15.2151l-6.8207-34.8535l60.4351-11.827l6.8207,34.8535
		C803.0966,1083.7062,796.2845,1093.8333,785.8369,1095.8778z"/>
	<path style="fill:#FFFFFF;fill-opacity:0.4;stroke:#30343F;stroke-width:4;stroke-miterlimit:10;" d="M707.4415,1111.2196
		l-22.6007,4.4229c-10.4477,2.0447-20.5747-4.7675-22.6193-15.2151l-6.8207-34.8535l60.4351-11.827l6.8207,34.8535
		C724.7012,1099.048,717.8892,1109.175,707.4415,1111.2196z"/>
	<path style="fill:#30343F;" d="M623.2032,1108.0923l32.9637-41.5883l-3.1025-2.5254l-38.4738,48.5399
		C617.0931,1110.495,620.0138,1108.9713,623.2032,1108.0923z"/>
	
		<line style="fill:#FFFFFF;fill-opacity:0.4;stroke:#30343F;stroke-width:4;stroke-miterlimit:10;" x1="717.2334" y1="1060.8879" x2="735.2147" y2="1057.4806"/>
	
		<ellipse transform="matrix(0.9732 -0.23 0.23 0.9732 -230.9473 191.2617)" style="fill:#30343F;" cx="705.0416" cy="1086.3978" rx="5.0681" ry="7.5083"/>
	
		<ellipse transform="matrix(0.9732 -0.23 0.23 0.9732 -228.012 201.6461)" style="fill:#30343F;" cx="751.0582" cy="1078.9974" rx="5.0681" ry="7.5083"/>
	<polyline style="fill:none;stroke:#DE928A;stroke-width:4;stroke-miterlimit:10;" points="734.5115,1081.5175 756.6499,1118.527 
		739.9134,1130.4983 	"/>
	<g>
		<path style="fill:none;stroke:#DE928A;stroke-width:4;stroke-miterlimit:10;" d="M738.93,1147.6541
			c-7.0935,0.3785-15.1649,0.2997-22.8911-2.1069"/>
		<g>
			<path style="fill:none;stroke:#DE928A;stroke-width:4;stroke-miterlimit:10;" d="M701.1445,1136.7858
				c4.5258,4.3944,9.6293,7.1193,14.8947,8.7594c-0.8695,4.6995-5.2289,7.9999-10.0535,7.4614
				c-5.0484-0.5635-8.6841-5.1127-8.1207-10.1611C698.1404,1140.3782,699.3719,1138.2531,701.1445,1136.7858z"/>
		</g>
	</g>
	<path style="fill:none;stroke:#FFBA7B;stroke-width:4;stroke-miterlimit:10;" d="M605.7449,1063.9786
		c-11.2624,7.2252-21.9617,26.7365-15.2042,56.9573"/>
	<path style="fill:none;stroke:#F58937;stroke-width:4;stroke-miterlimit:10;" d="M700.8026,947.7282
		c4.3279-1.6435,9.0862-2.5524,14.0809-2.5524c19.9788,0,36.1748,14.5414,36.1748,32.479"/>
	<path style="fill:none;stroke:#DE928A;stroke-width:4;stroke-miterlimit:10;" d="M716.7195,1255.6661l7.2404,2.8535
		c2.2974,0.7601,6.2925,0.2671,7.68-2.0737l2.8269-5.1472"/>
	<g>
		<defs>
			<path id="SVGID_37_" d="M648.4955,1274.9192c-0.0516,0.0165-0.0883,0.0284-0.1486,0.0477l-0.0007-0.0046
				C648.3961,1274.9476,648.4456,1274.934,648.4955,1274.9192z M648.3218,1275.9968c0-0.3453,0.0201-0.6857,0.0251-1.0299
				c-0.084,0.0232-0.1396,0.0381-0.2066,0.0564c-36.3016,10.7299-78.155,32.9001-122.8601,78.2466
				c-101.3614,102.8159-123.8862,290.2415-123.8862,336.4172l333.0727,2.4917l-35.7263-350.5408
				C669.8642,1334.7632,648.3218,1307.9949,648.3218,1275.9968z"/>
		</defs>
		<clipPath id="SVGID_36_">
			<use xlink:href="#SVGID_37_"  style="overflow:visible;"/>
		</clipPath>
		<g style="clip-path:url(#SVGID_36_);">
			<g style="filter:url(#SAND_light-soft);">
				<linearGradient id="SVGID_38_" gradientUnits="userSpaceOnUse" x1="394.4651" y1="1437.4097" x2="553.2647" y2="1437.4097">
					<stop  offset="0" style="stop-color:#DE928A"/>
					<stop  offset="1" style="stop-color:#DE928A;stop-opacity:0"/>
				</linearGradient>
				<polygon style="fill:url(#SVGID_38_);" points="439.233,1358.4216 553.2647,1461.4725 521.1669,1516.3977 394.4651,1459.7831 
									"/>
			</g>
			<g style="filter:url(#SAND_light-soft);">
				<linearGradient id="SVGID_39_" gradientUnits="userSpaceOnUse" x1="448.2188" y1="1605.2014" x2="648.3462" y2="1605.2014">
					<stop  offset="0" style="stop-color:#DE928A"/>
					<stop  offset="1" style="stop-color:#DE928A;stop-opacity:0"/>
				</linearGradient>
				<polygon style="fill:url(#SVGID_39_);" points="448.2188,1574.4865 471.8698,1654.4022 648.3462,1588.5172 637.4269,1556.0006 
									"/>
			</g>
			<g style="filter:url(#SAND_light-soft);">
				<linearGradient id="SVGID_40_" gradientUnits="userSpaceOnUse" x1="633.1176" y1="1512.3318" x2="747.9022" y2="1512.3318">
					<stop  offset="0" style="stop-color:#DE928A"/>
					<stop  offset="1" style="stop-color:#DE928A;stop-opacity:0"/>
				</linearGradient>
				<polygon style="fill:url(#SVGID_40_);" points="644.0984,1441.6367 633.1176,1476.2686 747.9022,1583.0269 745.5807,1462.7537 
									"/>
			</g>
			<g style="filter:url(#SAND_light-soft);">
				<linearGradient id="SVGID_41_" gradientUnits="userSpaceOnUse" x1="580.7475" y1="1334.8483" x2="700.9055" y2="1334.8483">
					<stop  offset="0" style="stop-color:#DE928A"/>
					<stop  offset="1" style="stop-color:#DE928A;stop-opacity:0"/>
				</linearGradient>
				<polygon style="fill:url(#SVGID_41_);" points="605.7449,1404.4708 580.7475,1358.4216 659.3027,1265.2257 700.9055,1324.2263 
									"/>
			</g>
			<g style="filter:url(#SAND_light-soft);">
				<linearGradient id="SVGID_42_" gradientUnits="userSpaceOnUse" x1="633.4387" y1="1682.5791" x2="749.7572" y2="1682.5791">
					<stop  offset="0" style="stop-color:#DE928A"/>
					<stop  offset="1" style="stop-color:#DE928A;stop-opacity:0"/>
				</linearGradient>
				<polygon style="fill:url(#SVGID_42_);" points="656.9829,1728.6141 633.4387,1644.991 690.9635,1636.5441 749.7572,1709.1865 
									"/>
			</g>
		</g>
	</g>
	
		<line style="fill:none;stroke:#FFFFFF;stroke-width:4;stroke-miterlimit:10;" x1="700.9055" y1="1362.8812" x2="734.4668" y2="1692.1787"/>
	<g>
		<defs>
			<path id="SVGID_44_" d="M401.394,1689.6871c0-46.1758,22.5247-233.6013,123.8863-336.4172
				c101.3615-102.8158,188.0747-86.5002,228.6265-87.7972c51.8069-1.657,90.3234,15.3462,156.7714,90.8042
				s121.3669,256.1249,121.3669,338.1278L401.394,1689.6871z"/>
		</defs>
		<clipPath id="SVGID_43_">
			<use xlink:href="#SVGID_44_"  style="overflow:visible;"/>
		</clipPath>
		<polyline style="clip-path:url(#SVGID_43_);fill:none;stroke:#FFFFFF;stroke-width:4;stroke-miterlimit:10;" points="
			634.9008,1258.8505 656.167,1393.5206 721.9966,1348.4369 792.762,1382.5546 783.1889,1246.7 		"/>
	</g>
	<g>
		<defs>
			<path id="SVGID_58_" d="M401.394,1689.6871c0-46.1758,22.5247-233.6013,123.8863-336.4172
				c101.3615-102.8158,188.0747-86.5002,228.6265-87.7972c51.8069-1.657,90.3234,15.3462,156.7714,90.8042
				s121.3669,256.1249,121.3669,338.1278L401.394,1689.6871z"/>
		</defs>
		<clipPath id="SVGID_45_">
			<use xlink:href="#SVGID_58_"  style="overflow:visible;"/>
		</clipPath>
		<g style="clip-path:url(#SVGID_45_);filter:url(#SAND_light-soft);">
			<g>
				<linearGradient id="SVGID_46_" gradientUnits="userSpaceOnUse" x1="802.6036" y1="1362.521" x2="982.5328" y2="1362.521">
					<stop  offset="0" style="stop-color:#DE928A"/>
					<stop  offset="1" style="stop-color:#DE928A;stop-opacity:0"/>
				</linearGradient>
				<polygon style="fill:url(#SVGID_46_);" points="802.6036,1469.6349 857.7893,1500.0895 982.5328,1290.0774 874.4089,1224.9524 
									"/>
			</g>
			<g>
				<linearGradient id="SVGID_47_" gradientUnits="userSpaceOnUse" x1="902.6625" y1="1531.5219" x2="1076.011" y2="1531.5219">
					<stop  offset="0" style="stop-color:#DE928A"/>
					<stop  offset="1" style="stop-color:#DE928A;stop-opacity:0"/>
				</linearGradient>
				<polygon style="fill:url(#SVGID_47_);" points="908.8055,1501.092 902.6625,1558.4939 1069.7991,1596.9114 1076.011,1466.1323 
									"/>
			</g>
			<g>
				<linearGradient id="SVGID_48_" gradientUnits="userSpaceOnUse" x1="797.1219" y1="1644.5023" x2="918.0414" y2="1644.5023">
					<stop  offset="0" style="stop-color:#DE928A"/>
					<stop  offset="1" style="stop-color:#DE928A;stop-opacity:0"/>
				</linearGradient>
				<polygon style="fill:url(#SVGID_48_);" points="845.0151,1736.3597 918.0414,1708.5444 848.968,1552.6449 797.1219,1572.3928 
									"/>
			</g>
		</g>
	</g>
</g>
<g id="Layer_11">
</g>
<g id="tavolo">
	<linearGradient id="SVGID_50_" gradientUnits="userSpaceOnUse" x1="369.3754" y1="1705.8824" x2="2048.2717" y2="1705.8824">
		<stop  offset="0" style="stop-color:#F58937"/>
		<stop  offset="1" style="stop-color:#B55E1D"/>
	</linearGradient>
	<rect x="369.3754" y="1670.969" style="fill:url(#SVGID_50_);" width="1678.8964" height="69.8268"/>
	<g style="opacity:0.4;filter:url(#SAND_light-hard);">
		<linearGradient id="SVGID_52_" gradientUnits="userSpaceOnUse" x1="369.3754" y1="1705.8824" x2="2048.2717" y2="1705.8824">
			<stop  offset="0" style="stop-color:#FFFFFF"/>
			<stop  offset="0.3979" style="stop-color:#B55E1D;stop-opacity:0"/>
		</linearGradient>
		<rect x="369.3754" y="1670.969" style="fill:url(#SVGID_52_);" width="1678.8964" height="69.8268"/>
	</g>
</g>
<g id="vaso">
	<linearGradient id="SVGID_54_" gradientUnits="userSpaceOnUse" x1="1004.8796" y1="1705.8823" x2="1387.4532" y2="1705.8823">
		<stop  offset="0" style="stop-color:#B55E1D"/>
		<stop  offset="1" style="stop-color:#B55E1D;stop-opacity:0"/>
	</linearGradient>
	<ellipse style="fill:url(#SVGID_54_);" cx="1196.1665" cy="1705.8823" rx="191.2868" ry="8.505"/>
	<g style="filter:url(#SAND_dark-soft);">
		<linearGradient id="SVGID_55_" gradientUnits="userSpaceOnUse" x1="1004.8796" y1="1705.8823" x2="1387.4532" y2="1705.8823">
			<stop  offset="0" style="stop-color:#B55E1D"/>
			<stop  offset="1" style="stop-color:#B55E1D;stop-opacity:0"/>
		</linearGradient>
		<ellipse style="fill:url(#SVGID_55_);" cx="1196.1665" cy="1705.8823" rx="191.2868" ry="8.505"/>
	</g>
	<path style="fill:none;stroke:#009245;stroke-width:4;stroke-miterlimit:10;" d="M1077.8541,1545.485
		c0-63.0695-15.7673-167.8096-30.4084-226.374s-18.0199-91.2253-12.3887-152.0422"/>
	<linearGradient id="SVGID_56_" gradientUnits="userSpaceOnUse" x1="1132.6876" y1="1470.2313" x2="1084.5409" y2="1504.0184">
		<stop  offset="0.1381" style="stop-color:#4CB37D"/>
		<stop  offset="0.7405" style="stop-color:#009245"/>
	</linearGradient>
	<path style="fill:url(#SVGID_56_);" d="M1076.1648,1503.251c8.0713-19.0861,21.9615-35.4766,43.1725-43.9233
		c24.5941-9.7941,42.9847,12.3887,18.7706,29.8453c-24.2142,17.4568-49.1951,11.6241-61.4819,21.861"/>
	<linearGradient id="SVGID_57_" gradientUnits="userSpaceOnUse" x1="1026.0283" y1="1499.2902" x2="1061.0355" y2="1552.4492">
		<stop  offset="0.1381" style="stop-color:#4CB37D"/>
		<stop  offset="0.7405" style="stop-color:#009245"/>
	</linearGradient>
	<path style="fill:url(#SVGID_57_);" d="M1077.715,1538.5386c-4.929-11.6366-15.3467-29.281-40.4055-38.854
		c-19.3798-7.4036-45.988,10.8857-19.3337,19.8962s53.4963,22.3376,59.8784,29.6582"/>
	<linearGradient id="SVGID_59_" gradientUnits="userSpaceOnUse" x1="993.7956" y1="1644.5023" x2="1145.8378" y2="1644.5023">
		<stop  offset="0" style="stop-color:#F9B887"/>
		<stop  offset="1" style="stop-color:#F58937"/>
	</linearGradient>
	<polygon style="fill:url(#SVGID_59_);" points="1012.9417,1705.8823 993.7956,1583.1223 1145.8378,1583.1223 1126.4233,1705.8823 	
		"/>
	<g style="opacity:0.5;filter:url(#SAND_light-soft);">
		<linearGradient id="SVGID_60_" gradientUnits="userSpaceOnUse" x1="993.7956" y1="1644.5023" x2="1145.8378" y2="1644.5023">
			<stop  offset="0" style="stop-color:#FFFFFF"/>
			<stop  offset="1" style="stop-color:#F58937;stop-opacity:0"/>
		</linearGradient>
		<polygon style="fill:url(#SVGID_60_);" points="1012.9417,1705.8823 993.7956,1583.1223 1145.8378,1583.1223 1126.4233,1705.8823 
					"/>
	</g>
	<linearGradient id="SVGID_61_" gradientUnits="userSpaceOnUse" x1="975.7758" y1="1563.8234" x2="1161.6051" y2="1563.8234">
		<stop  offset="0" style="stop-color:#F9B887"/>
		<stop  offset="1" style="stop-color:#F58937"/>
	</linearGradient>
	<rect x="975.7758" y="1544.5244" style="fill:url(#SVGID_61_);" width="185.8294" height="38.5979"/>
	<g style="opacity:0.5;filter:url(#SAND_light-hard);">
		<linearGradient id="SVGID_62_" gradientUnits="userSpaceOnUse" x1="975.7758" y1="1563.8234" x2="1161.6051" y2="1563.8234">
			<stop  offset="0" style="stop-color:#FFFFFF;stop-opacity:0.9"/>
			<stop  offset="1" style="stop-color:#F58937;stop-opacity:0"/>
		</linearGradient>
		<rect x="975.7758" y="1544.5244" style="fill:url(#SVGID_62_);" width="185.8294" height="38.5979"/>
	</g>
	<path style="fill-rule:evenodd;clip-rule:evenodd;fill:none;stroke:#009245;stroke-width:4;stroke-miterlimit:10;" d="
		M1069.613,1441.4932c3.3607-51.0537,7.8656-84.0901,32.2675-117.8772"/>
	<linearGradient id="SVGID_63_" gradientUnits="userSpaceOnUse" x1="1102.4154" y1="1321.5609" x2="1148.3096" y2="1251.4525">
		<stop  offset="0.2613" style="stop-color:#E54033"/>
		<stop  offset="1" style="stop-color:#FF7059"/>
	</linearGradient>
	<path style="fill:url(#SVGID_63_);" d="M1106.7661,1257.519c-8.9777,20.0156-20.1871,61.6008-5.2206,68.0991
		c14.9667,6.4982,40.7859-13.5974,63.3933-41.5563c10.1337-12.5325,9.9178-18.8734,7.1013-20.124
		c-6.4539-2.8657-14.5514,4.1538-16.9156,2.7784c-4.4136-2.5676,0.8656-13.5085-5.4042-16.5605
		c-6.2697-3.052-10.2554,9.6615-18.3699,5.6042c-6.1943-3.0972,1.9905-12.1134-5.1042-17.049
		C1119.1514,1233.7756,1108.8534,1252.8654,1106.7661,1257.519z"/>
	<path style="fill:none;stroke:#E54033;stroke-width:4;stroke-miterlimit:10;" d="M1112.9573,1264.3247
		c0.4788,4.5088,0.1644,8.7299,3.53,10.4453c3.3655,1.7156,12.7286-7.5037,16.0887-5.0842
		c3.3601,2.4193,1.3019,13.6661,7.7515,17.0948c6.4495,3.4288,17.2161-5.2163,17.2161-5.2163"/>
	<polyline style="fill:none;stroke:#E54033;stroke-width:4;stroke-linejoin:round;stroke-miterlimit:10;" points="
		1111.0781,1299.4017 1109.1072,1312.3535 1118.1172,1303.9067 	"/>
	<path style="fill:none;stroke:#009245;stroke-width:4;stroke-miterlimit:10;" d="M1035.9017,1464.3958
		c5.3496,4.505,20.1525,11.83,41.611,63.9163"/>
	<linearGradient id="SVGID_64_" gradientUnits="userSpaceOnUse" x1="1029.5396" y1="1469.375" x2="992.9368" y2="1417.0049">
		<stop  offset="0.2613" style="stop-color:#E54033"/>
		<stop  offset="1" style="stop-color:#FF7059"/>
	</linearGradient>
	<path style="fill:url(#SVGID_64_);" d="M973.192,1458.7313c8.6868,8.6868,31.9447,31.8586,55.7473,15.1833
		c23.8024-16.6753,23.692-29.5084,15.1343-47.4298c-8.5577-17.9213-10.1553-19.6294-12.6648-24.6345
		c-2.5096-5.0051-8.0773-10.7972-12.9617-7.2216c-4.8844,3.5758-2.1246,14.5977-6.3475,17.3428
		c-4.2228,2.7452-13.7096-3.0192-18.8825,1.3448c-5.1729,4.3641,2.9559,14.8162-3.5823,20.4684
		c-6.5382,5.6521-14.4286-0.6326-20.094,6.0542S969.571,1455.1104,973.192,1458.7313z"/>
	<path style="fill:none;stroke:#E54033;stroke-width:4;stroke-miterlimit:10;" d="M982.7274,1454.9408
		c5.6904,0.2056,16.4835,2.9305,21.9636-1.2224c5.4801-4.1531,0.278-12.5557,4.8026-17.6398s11.3922,3.0118,14.7231-0.1022
		c3.3309-3.1141,4.8872-16.8917,3.9103-23.015"/>
	<polyline style="fill:none;stroke:#E54033;stroke-width:4;stroke-linejoin:round;stroke-miterlimit:10;" points="
		1021.9089,1462.7153 1030.0223,1461.7964 1031.5316,1455.1082 	"/>
	<linearGradient id="SVGID_65_" gradientUnits="userSpaceOnUse" x1="1076.6434" y1="1383.9752" x2="1114.7588" y2="1441.8541">
		<stop  offset="0.1381" style="stop-color:#4CB37D"/>
		<stop  offset="0.7405" style="stop-color:#009245"/>
	</linearGradient>
	<path style="fill:url(#SVGID_65_);" d="M1071.9652,1460.4839c3.3549-23.1179,16.5881-64.7887,27.2875-86.7504
		c10.6992-21.9617,16.6119-23.0879,19.9907-21.9617c3.3787,1.1262,8.7283,18.8645-1.1262,47.302
		c-9.8546,28.4376-21.329,52.7303-44.3109,78.313"/>
	<linearGradient id="SVGID_66_" gradientUnits="userSpaceOnUse" x1="996.3491" y1="1318.3163" x2="1051.7461" y2="1402.4376">
		<stop  offset="0.1381" style="stop-color:#4CB37D"/>
		<stop  offset="0.7405" style="stop-color:#009245"/>
	</linearGradient>
	<path style="fill:url(#SVGID_66_);" d="M1064.5555,1406.449c-6.4106-4.278-65.2566-51.58-77.0821-63.687
		s-16.5312-22.5248-4.7461-23.651s51.0109-6.009,77.8553,63.4436"/>
	<linearGradient id="SVGID_68_" gradientUnits="userSpaceOnUse" x1="1037.0834" y1="1225.2185" x2="1081.1737" y2="1292.1705">
		<stop  offset="0.1381" style="stop-color:#4CB37D"/>
		<stop  offset="0.7405" style="stop-color:#009245"/>
	</linearGradient>
	<path style="fill:url(#SVGID_68_);" d="M1044.7778,1279.8402c0.7936-15.05-0.7109-45.4788,12.5225-71.6638
		c13.2333-26.1851,30.1312,4.7468,24.4956,32.0979c-12.1829,59.1274-20.1924,65.9299-33.3296,83.3417l-3.7714-15.8276
		C1044.5558,1303.3154,1044.5177,1284.7726,1044.7778,1279.8402z"/>
	<linearGradient id="SVGID_70_" gradientUnits="userSpaceOnUse" x1="967.7209" y1="1170.9814" x2="1036.14" y2="1274.8771">
		<stop  offset="0.1381" style="stop-color:#4CB37D"/>
		<stop  offset="0.7405" style="stop-color:#009245"/>
	</linearGradient>
	<path style="fill:url(#SVGID_70_);" d="M1036.6484,1260.9391c-3.686-13.2317-18.485-68.53-42.9807-89.0839
		c-24.4957-20.5538-54.341-7.0389-38.2921,23.0879c16.049,30.127,70.2311,62.8051,84.8109,92.6417
		C1040.1865,1287.5848,1037.2677,1279.2367,1036.6484,1260.9391z"/>
	<linearGradient id="SVGID_71_" gradientUnits="userSpaceOnUse" x1="1033.6715" y1="1167.2197" x2="1046.0602" y2="1087.8199">
		<stop  offset="0.2613" style="stop-color:#E54033"/>
		<stop  offset="1" style="stop-color:#FF7059"/>
	</linearGradient>
	<path style="fill:url(#SVGID_71_);" d="M1006.9011,1099.776c1.1716-6.1409,4.2234-15.7673,10.4177-14.6411
		c6.1943,1.1262,6.8107,16.6708,12.4825,16.9523c5.6718,0.2816,10.7399-15.4857,17.7788-14.3595s8.0312,16.2748,11.973,16.8348
		c3.9419,0.5599,12.6698-13.5149,20.272-11.5439c5.4304,1.4078-2.5341,26.7482-8.7284,41.6708
		c-6.1943,14.9227-14.0945,36.2368-36.3295,35.5752C1012.5322,1169.6028,998.7358,1142.573,1006.9011,1099.776z"/>
	<path style="fill:none;stroke:#E54033;stroke-width:4;stroke-miterlimit:10;" d="M1013.377,1112.1646
		c1.4078,5.9128,5.0681,17.7383,11.5439,17.4568c6.4758-0.2816,12.4507-9.2839,19.2081-8.7233s8.1031,8.4515,12.608,8.7281
		c4.505,0.2766,14.078-10.1411,14.078-10.1411"/>
	
		<line style="fill:none;stroke:#005B18;stroke-width:4;stroke-miterlimit:10;" x1="1051.3881" y1="1382.5546" x2="1021.9089" y2="1353.2699"/>
	
		<line style="fill:none;stroke:#005B18;stroke-width:4;stroke-miterlimit:10;" x1="1078.957" y1="1456.0078" x2="1101.8805" y2="1400.9427"/>
	
		<line style="fill:none;stroke:#005B18;stroke-width:4;stroke-miterlimit:10;" x1="1052.8459" y1="1299.4017" x2="1064.429" y2="1240.3726"/>
	
		<line style="fill:none;stroke:#005B18;stroke-width:4;stroke-miterlimit:10;" x1="1026.7202" y1="1255.6661" x2="990.3829" y2="1200.8558"/>
	
		<line style="fill:none;stroke:#005B18;stroke-width:4;stroke-miterlimit:10;" x1="1085.7467" y1="1497.9606" x2="1118.1172" y2="1479.7993"/>
	
		<line style="fill:none;stroke:#005B18;stroke-width:4;stroke-miterlimit:10;" x1="1069.613" y1="1534.9734" x2="1043.7289" y2="1516.9536"/>
	<polyline style="fill:none;stroke:#E54033;stroke-width:4;stroke-linejoin:round;stroke-miterlimit:10;" points="
		1029.8013,1150.589 1034.3062,1160.1713 1040.1865,1150.589 	"/>
	<polygon style="fill:#ED7F35;" points="996.079,1597.7634 1142.3459,1605.2014 1145.8378,1583.1223 993.7956,1583.1223 	"/>
</g>
<g id="gocce">
	<g>
		<path style="fill:#9FDAF5;" d="M1027.9199,1021.0375c-3.776,7.1738-5.076,15.6218-3.6316,23.599
			c0.166,0.9167,0.4194,1.9113,1.1737,2.4581c0.9774,0.7086,2.3641,0.3553,3.4139-0.2406c3.0524-1.7327,4.8406-5.1566,5.4381-8.6151
			s0.1666-7.0023-0.2654-10.4855c-0.2476-1.9963-0.5424-4.1079-1.8099-5.67s-2.446-3.6423-3.8682-2.2194"/>
	</g>
	<g>
		<path style="fill:#9FDAF5;" d="M1065.934,998.8365c-3.3917,6.8776-4.3269,14.9359-2.6003,22.4075
			c0.2186,0.9462,0.589,2.0115,1.4963,2.3575c1.2655,0.4826,2.4952-0.7639,3.1892-1.9269
			c3.418-5.7275,4.0795-12.8054,2.8817-19.3668c-0.2307-1.2642-0.5818-2.61-1.5688-3.4329
			c-0.9872-0.8228-2.7937-0.7283-3.2765,0.4626"/>
		<g>
			<path style="fill:#9FDAF5;" d="M1064.6388,998.0795c-3.1827,6.8869-4.4875,14.433-3.0809,21.9539
				c0.6868,3.6722,3.2985,7.2896,6.9025,3.522c4.5594-4.7665,5.021-13.8875,4.1472-19.9963
				c-0.4779-3.3411-3.726-9.9342-7.6127-5.2822c-1.2299,1.4719,0.8815,3.6052,2.1212,2.1213
				c2.2472-2.6896,2.835,6.5656,2.7246,5.2247c0.1367,1.6609,0.1556,3.3585,0.0242,5.0206
				c-0.1825,2.3061-1.2759,10.4675-4.1129,10.2379c-2.3226-0.188-1.8359-7.2378-1.6877-9.4278
				c0.2811-4.1518,1.4257-8.0962,3.1649-11.8599C1068.0337,997.8527,1065.4487,996.3269,1064.6388,998.0795L1064.6388,998.0795z"/>
		</g>
	</g>
	<g>
		<path style="fill:#9FDAF5;" d="M1047.8212,954.121c-5.0808,5.5627-7.6132,13.3664-6.7666,20.8526
			c0.2072,1.8323,0.6477,3.7285,1.8595,5.1184c1.2117,1.3899,3.3846,2.0825,4.9642,1.131c1.5095-0.9093,1.9526-2.8628,2.1954-4.6083
			c0.9214-6.6241,0.9752-13.3685,0.1598-20.0065c-0.0844-0.6866-0.2032-1.4251-0.6932-1.9134s-1.4801-0.5047-1.7582,0.1288"/>
		<g>
			<path style="fill:#9FDAF5;" d="M1046.7605,953.0603c-4.85,5.6631-7.7203,12.767-7.3359,20.3051
				c0.2207,4.3281,2.9298,12.1576,8.8525,9.304c5.3373-2.5716,4.1281-14.1711,4.0012-18.7885
				c-0.0697-2.5368,0.3485-13.7509-5.2533-10.3525c-1.6484,1-0.1425,3.5954,1.5142,2.5904
				c-0.14,0.085,0.7761,10.2455,0.7531,11.4097c-0.036,1.8204-0.1305,3.6496-0.302,5.4625
				c-0.0819,1.0674-0.2124,2.1287-0.3915,3.1839c0.0747,2.5009-1.646,3.178-5.1621,2.0315
				c-2.2576-2.4357-0.9481-9.6477-0.2277-12.4327c1.0344-3.9984,2.9983-7.4691,5.6729-10.5921
				C1050.1313,953.7225,1048.0188,951.5909,1046.7605,953.0603L1046.7605,953.0603z"/>
		</g>
	</g>
	<g>
		<path style="fill:#9FDAF5;" d="M1068.9207,910.1976c-2.2893,3.8713-4.0764,8.156-4.304,12.6479
			c-0.2275,4.4918,1.285,9.2198,4.6914,12.1566c1.2733,1.0978,3.132,1.9337,4.5938,1.1031c1.1453-0.6508,1.5803-2.067,1.8152-3.3632
			c1.4353-7.9217-1.1206-16.4645-6.671-22.2961"/>
		<g>
			<path style="fill:#9FDAF5;" d="M1067.6255,909.4405c-3.1378,5.5407-5.5383,11.8478-4.097,18.2992
				c0.8976,4.0173,4.3514,10.6865,9.4174,10.1711c5.1412-0.523,4.8613-8.3381,4.5464-11.9251
				c-0.5536-6.3065-3.1932-11.9119-7.3855-16.6005c-1.2896-1.4422-3.4053,0.6853-2.1213,2.1213
				c2.552,2.8541,4.4576,6.0177,5.5693,9.7024c0.98,3.2477,2.5754,10.3204-0.8621,12.1923
				c-1.2341,1.5624-2.3639,1.395-3.3894-0.5023c-0.8983-0.9717-1.5615-2.074-1.9897-3.3069
				c-0.8425-1.9295-1.2078-3.8726-1.2024-5.9949c0.0117-4.5715,1.8976-8.745,4.1047-12.6424
				C1071.1686,909.2723,1068.5779,907.7587,1067.6255,909.4405L1067.6255,909.4405z"/>
		</g>
	</g>
	<g>
		<path style="fill:#9FDAF5;" d="M1026.5427,884.6636c-3.7665,5.7863-5.5519,12.689-6.0822,19.5729
			c-0.1287,1.6704-0.1796,3.3972,0.3964,4.9705c0.5761,1.5732,1.9166,2.9716,3.5828,3.1462
			c1.3732,0.1439,2.7311-0.5646,3.6703-1.5766c0.9393-1.012,1.5225-2.2985,2.0244-3.5848
			c2.2147-5.676,3.1473-11.8732,2.4949-17.9309c-0.1465-1.3601-0.3846-2.749-1.0856-3.9237
			c-0.7008-1.1748-1.9562-2.1036-3.3236-2.0654c-1.3674,0.0381-2.684,1.2974-2.4822,2.6504"/>
		<g>
			<path style="fill:#9FDAF5;" d="M1025.2474,883.9065c-4.0257,6.5662-7.5601,16.2333-6.2243,24.0825
				c0.977,5.7413,7.1408,7.8116,10.7974,2.9979c4.4443-5.8505,5.7799-17.1854,3.8972-24.1485
				c-1.2755-4.7172-8.2034-7.577-9.4263-1.3152c-0.3683,1.886,2.5226,2.6935,2.8928,0.7975c2.8062,0.1108,4.123,1.234,3.9506,3.3694
				c0.1433,1.0671,0.2094,2.1393,0.1981,3.2166c0.0189,2.2921-0.1995,4.618-0.6222,6.867c-0.2815,1.498-0.6653,2.976-1.1238,4.4288
				c-0.3544,1.1954-0.7833,2.3648-1.287,3.5082c-0.5424,1.9775-1.7218,1.8812-3.5382-0.2888
				c-3.4058-1.7764-2.9859-1.7398-2.6422-4.9062c0.2337-2.1531,0.6237-4.3119,1.1564-6.413
				c0.9662-3.811,2.5103-7.3358,4.5619-10.6821C1028.8499,883.7703,1026.2561,882.2615,1025.2474,883.9065L1025.2474,883.9065z"/>
		</g>
	</g>
	<g>
		<path style="fill:#9FDAF5;" d="M1059.0746,852.915c-1.983,4.264-3.9882,8.5984-4.7145,13.2445
			c-0.2593,1.6591-0.3048,3.5118,0.7191,4.843c0.9587,1.2465,2.6947,1.7238,4.2452,1.4613
			c1.5504-0.2625,2.9286-1.1627,4.0747-2.2394c3.7802-3.5513,5.306-9.3179,3.7769-14.274c-0.5112-1.6571-1.3992-3.2877-2.8721-4.203
			s-3.6169-0.8895-4.7689,0.4067"/>
		<g>
			<path style="fill:#9FDAF5;" d="M1057.7794,852.1579c-2.2458,4.843-6.9725,13.0256-4.5762,18.5167
				c2.3984,5.4959,9.0215,3.1565,12.0885-0.247c3.6493-4.0498,4.9833-10.2128,3.1539-15.3687
				c-1.5431-4.3488-5.9312-7.1487-9.9713-3.9655c-1.5155,1.194,0.6204,3.3039,2.1213,2.1213
				c4.1633-3.2803,5.7582,5.2003,5.6475,7.4526c-0.1447,2.9443-1.4244,5.9683-3.4888,8.0676
				c-0.5778,0.6398-1.2438,1.1796-1.998,1.6193c-1.6791-0.9751-3.3582-1.9501-5.0372-2.9252
				c-0.3234-0.8477,0.7529-3.9867,1.0513-4.9745c0.9163-3.0338,2.2693-5.9139,3.5994-8.7823
				C1061.1768,851.9318,1058.5917,850.4062,1057.7794,852.1579L1057.7794,852.1579z"/>
		</g>
	</g>
</g>
<g id="Sketch" style="opacity:0.4;">
</g>
<g id="Layer_2">
</g>
</svg>
