<?xml version="1.0" encoding="utf-8"?>
<!-- Generator: Adobe Illustrator 16.0.0, SVG Export Plug-In . SVG Version: 6.00 Build 0)  -->
<!DOCTYPE svg PUBLIC "-//W3C//DTD SVG 1.1//EN" "http://www.w3.org/Graphics/SVG/1.1/DTD/svg11.dtd">
<svg version="1.1" id="Layer_1" xmlns="http://www.w3.org/2000/svg" xmlns:xlink="http://www.w3.org/1999/xlink" x="0px" y="0px"
	 width="222.896px" height="76.029px" viewBox="0 0 222.896 76.029" enable-background="new 0 0 222.896 76.029"
	 xml:space="preserve">
<path fill="#A664E2" d="M38.015,0H7.401C3.314,0,0,3.313,0,7.401v61.227c0,4.087,3.313,7.401,7.4,7.401h30.613
	c20.995,0,38.015-17.021,38.015-38.015l0,0C76.029,17.02,59.01,0,38.015,0z M38.015,56.629c-10.28,0-18.614-8.334-18.614-18.613
	c0-10.28,8.333-18.615,18.614-18.615S56.63,27.734,56.63,38.015C56.63,48.296,48.295,56.629,38.015,56.629z"/>
<g>
	<path fill="#2D373A" d="M91.916,58.277c0-5.539,4.289-10.256,10.994-10.256c2.585,0,4.517,0.768,6.192,1.988
		c0.823,0.568,0.88,1.363,0.255,2.131l-0.908,1.079c-0.625,0.768-1.308,0.768-2.159,0.198c-1.052-0.625-2.271-0.88-3.38-0.88
		c-3.553,0-5.769,2.557-5.769,5.738c0,3.181,2.216,5.738,5.769,5.738c1.107,0,2.301-0.257,3.38-0.882
		c0.853-0.566,1.534-0.566,2.159,0.199l0.908,1.08c0.625,0.768,0.625,1.505-0.112,2.045c-1.733,1.25-3.693,2.073-6.335,2.073
		C96.205,68.532,91.916,63.817,91.916,58.277z"/>
	<path fill="#2D373A" d="M113.031,66.602l1.562-16.818c0.085-0.938,0.625-1.448,1.591-1.448h2.357c0.853,0,1.421,0.368,1.762,1.192
		l4.518,11.193l4.546-11.193c0.341-0.824,0.881-1.192,1.762-1.192h2.356c0.938,0,1.507,0.512,1.562,1.448l1.562,16.818
		c0.113,1.051-0.426,1.619-1.448,1.619h-2.132c-0.965,0-1.532-0.513-1.59-1.449l-0.768-9.204l-3.637,9.231
		c-0.312,0.854-0.881,1.223-1.762,1.223h-0.881c-0.881,0-1.449-0.369-1.762-1.223l-3.636-9.231l-0.769,9.204
		c-0.085,0.938-0.653,1.449-1.619,1.449h-2.102C113.485,68.221,112.945,67.652,113.031,66.602z"/>
	<path fill="#2D373A" d="M140.209,64.129c-0.369-0.965,0.143-1.646,1.107-1.874l1.421-0.341c0.881-0.199,1.363,0.17,1.874,0.994
		c0.626,0.966,1.733,1.562,3.269,1.562c1.646,0,2.756-0.652,2.756-1.817c0-0.738-0.483-1.448-1.961-1.933l-2.414-0.881
		c-1.677-0.54-5.512-2.072-5.568-5.71c0-3.722,3.183-6.107,7.302-6.107c3.097,0,5.256,1.308,6.448,3.552
		c0.512,0.937,0.058,1.676-0.908,1.96l-1.335,0.369c-0.882,0.256-1.394-0.085-1.988-0.824c-0.427-0.624-1.137-0.994-2.131-0.994
		c-1.193,0-2.273,0.568-2.273,1.648c0,0.625,0.37,1.277,1.875,1.816l2.387,0.854c4.147,1.42,5.598,3.409,5.653,6.052
		c0,4.062-3.551,6.078-7.841,6.078C144.073,68.532,141.317,66.885,140.209,64.129z"/>
</g>
<g>
	<path fill="#2D373A" d="M92.424,37.916v-27.73c0-1.642,0.89-2.529,2.529-2.529h11.711c9.744,0,16.677,7.354,16.677,16.395
		c0,9.09-6.933,16.396-16.677,16.396H94.953C93.313,40.445,92.424,39.555,92.424,37.916z M105.587,33.091
		c5.668,0,9.135-3.7,9.135-9.041s-3.467-9.088-9.135-9.041h-4.544v18.082H105.587z"/>
	<path fill="#2D373A" d="M126.36,37.541l10.729-27.919c0.515-1.312,1.499-1.967,2.951-1.967h3.652c1.452,0,2.391,0.654,2.904,1.967
		l10.962,27.919c0.655,1.733-0.094,2.904-1.968,2.904h-3.794c-1.406,0-2.39-0.656-2.905-1.968l-1.452-3.842h-11.241l-1.405,3.796
		c-0.468,1.356-1.405,2.014-2.857,2.014h-3.605C126.455,40.445,125.658,39.274,126.36,37.541z M145.848,27.891l-3.98-11.241
		l-4.169,11.241H145.848z"/>
	<path fill="#2D373A" d="M184.741,10.185v2.294c0,1.641-0.892,2.529-2.529,2.529h-6.886v22.907c0,1.64-0.892,2.529-2.53,2.529
		h-3.373c-1.64,0-2.529-0.891-2.529-2.529V15.009h-6.699c-1.639,0-2.528-0.89-2.528-2.529v-2.294c0-1.642,0.891-2.529,2.528-2.529
		h22.019C183.851,7.655,184.741,8.544,184.741,10.185z"/>
	<path fill="#2D373A" d="M187.812,24.05c0-9.182,6.887-16.91,17.521-16.91c10.68,0,17.564,7.729,17.564,16.91
		s-6.886,16.91-17.564,16.91C194.697,40.96,187.812,33.23,187.812,24.05z M214.231,24.05c0-5.198-3.466-9.462-8.898-9.462
		c-5.389,0-8.901,4.264-8.901,9.462c0,5.2,3.514,9.464,8.901,9.464C210.766,33.513,214.231,29.25,214.231,24.05z"/>
</g>
</svg>
