<?xml version="1.0" encoding="UTF-8" standalone="no"?>
<svg width="138px" height="138px" viewBox="0 0 138 138" version="1.1" xmlns="http://www.w3.org/2000/svg" xmlns:xlink="http://www.w3.org/1999/xlink">
    <!-- Generator: sketchtool 3.8.3 (29802) - http://www.bohemiancoding.com/sketch -->
    <title>C10D7E41-DADB-4194-8096-3097D807A927</title>
    <desc>Created with sketchtool.</desc>
    <defs></defs>
    <g id="Page-1" stroke="none" stroke-width="1" fill="none" fill-rule="evenodd">
        <g id="dato-home" transform="translate(-579.000000, -1968.000000)" fill="#FF654C">
            <path d="M678.846089,2041.32773 L638.572982,2068.44639 C637.684929,2069.04577 636.71125,2069.34913 635.681304,2069.34913 C633.163929,2069.34913 630.448393,2067.35039 630.448393,2064.12111 L630.448393,2009.88134 C630.448393,2006.6545 633.163929,2004.65577 635.681304,2004.65577 C636.71125,2004.65577 637.684929,2004.95913 638.572982,2005.5585 L678.846089,2032.67716 C680.309054,2033.66307 681.145732,2035.23857 681.145732,2037 C681.145732,2038.76632 680.309054,2040.34182 678.846089,2041.32773 M681.57875,2028.62098 L641.305643,2001.50232 C639.620054,2000.36473 637.675143,1999.76291 635.681304,1999.76291 C630.098554,1999.76291 625.555536,2004.30104 625.555536,2009.88134 L625.555536,2064.12111 C625.555536,2069.70386 630.098554,2074.24198 635.681304,2074.24198 C637.675143,2074.24198 639.620054,2073.64016 641.305643,2072.50257 L681.57875,2045.38391 C684.372571,2043.50505 686.038589,2040.36873 686.038589,2037 C686.038589,2033.63371 684.372571,2030.49984 681.57875,2028.62098 M647.815589,2100.60714 C612.567446,2100.60714 583.892857,2072.07445 583.892857,2037 C583.892857,2001.928 612.567446,1973.39286 647.815589,1973.39286 C683.066179,1973.39286 711.740768,2001.928 711.740768,2037 C711.740768,2072.07445 683.066179,2100.60714 647.815589,2100.60714 M647.815589,1968.5 C609.871482,1968.5 579,1999.22959 579,2037 C579,2074.77286 609.871482,2105.5 647.815589,2105.5 C685.762143,2105.5 716.633625,2074.77286 716.633625,2037 C716.633625,1999.22959 685.762143,1968.5 647.815589,1968.5" id="play"></path>
        </g>
    </g>
</svg>