<?xml version="1.0" encoding="UTF-8" standalone="no"?>
<svg width="145px" height="50px" viewBox="0 0 145 50" version="1.1" xmlns="http://www.w3.org/2000/svg" xmlns:xlink="http://www.w3.org/1999/xlink">
    <!-- Generator: sketchtool 3.8.3 (29802) - http://www.bohemiancoding.com/sketch -->
    <title>0F238986-B97E-45A8-96E2-A7CAEB7C6657</title>
    <desc>Created with sketchtool.</desc>
    <defs></defs>
    <g id="Page-1" stroke="none" stroke-width="1" fill="none" fill-rule="evenodd">
        <g id="dato-pricing" transform="translate(-30.000000, -20.000000)">
            <g id="Page-1" transform="translate(30.000000, 20.000000)">
                <path d="M24.7179484,36.7721429 C18.0329933,36.7721429 12.6140247,31.3604545 12.6140247,24.6844805 C12.6140247,18.0091558 18.0329933,12.5974675 24.7179484,12.5974675 C31.4029036,12.5974675 36.8218722,18.0091558 36.8218722,24.6844805 C36.8218722,31.3604545 31.4029036,36.7721429 24.7179484,36.7721429 M24.7179484,6.49350649e-05 L4.81263453,6.49350649e-05 C2.15451794,6.49350649e-05 0.000325112107,2.15201299 0.000325112107,4.80590909 L0.000325112107,44.5637013 C0.000325112107,47.2175974 2.15451794,49.3695455 4.81263453,49.3695455 L24.7179484,49.3695455 C38.3694058,49.3695455 49.436222,38.3175974 49.436222,24.6844805 C49.436222,11.052013 38.3694058,6.49350649e-05 24.7179484,6.49350649e-05" id="Fill-1" fill="#2D3639"></path>
                <path d="M59.7654888,37.8425974 C59.7654888,34.2451948 62.5549507,31.1828571 66.9140538,31.1828571 C68.5955336,31.1828571 69.8511166,31.6809091 70.9408924,32.4744156 C71.4766771,32.8432468 71.5137399,33.3594805 71.1073498,33.8581818 L70.516296,34.5588312 C70.1099058,35.0568831 69.6664529,35.0568831 69.1124619,34.6880519 C68.4290762,34.2822078 67.6345022,34.115974 66.9140538,34.115974 C64.6051076,34.115974 63.1642108,35.7763636 63.1642108,37.8425974 C63.1642108,39.9081818 64.6051076,41.5692208 66.9140538,41.5692208 C67.6345022,41.5692208 68.41087,41.402987 69.1124619,40.9971429 C69.6664529,40.6283117 70.1099058,40.6283117 70.516296,41.1263636 L71.1073498,41.8276623 C71.5137399,42.3257143 71.5137399,42.8049351 71.0332242,43.1555844 C69.9063857,43.9672727 68.6319462,44.5016883 66.9140538,44.5016883 C62.5549507,44.5016883 59.7654888,41.44 59.7654888,37.8425974" id="Fill-4" fill="#FFFFFF"></path>
                <path d="M73.4951682,43.2476623 L74.5114686,32.3268831 C74.5667377,31.7177922 74.9178587,31.385974 75.5459753,31.385974 L77.0785538,31.385974 C77.6331951,31.385974 78.0025224,31.6255844 78.2242489,32.1606494 L81.1613117,39.4288312 L84.1165807,32.1606494 C84.3383072,31.6255844 84.6894283,31.385974 85.2622758,31.385974 L86.7948543,31.385974 C87.4047646,31.385974 87.7740919,31.7177922 87.8111547,32.3268831 L88.8274552,43.2476623 C88.9009305,43.9301299 88.5498094,44.298961 87.88463,44.298961 L86.4996525,44.298961 C85.8715359,44.298961 85.5022085,43.9671429 85.4651457,43.3580519 L84.9664238,37.3814286 L82.6022085,43.3768831 C82.3986883,43.9301299 82.029361,44.1697403 81.4565135,44.1697403 L80.8836659,44.1697403 C80.3114686,44.1697403 79.9421413,43.9301299 79.7386211,43.3768831 L77.3744058,37.3814286 L76.8756839,43.3580519 C76.8204148,43.9671429 76.4504372,44.298961 75.8229709,44.298961 L74.4555493,44.298961 C73.79037,44.298961 73.4398991,43.9301299 73.4951682,43.2476623" id="Fill-6" fill="#FFFFFF"></path>
                <path d="M91.167287,41.6424026 C90.9273543,41.0157792 91.2596188,40.5729221 91.8877354,40.4255195 L92.811704,40.2040909 C93.3839013,40.0748701 93.6979596,40.3144805 94.0302242,40.8495455 C94.4372646,41.4768182 95.1570628,41.8638312 96.155157,41.8638312 C97.2260762,41.8638312 97.9465247,41.4398052 97.9465247,40.6833117 C97.9465247,40.2040909 97.6324664,39.7430519 96.6720852,39.4294156 L95.1017937,38.8573377 C94.0120179,38.5066883 91.5184081,37.5105844 91.4813453,35.1495455 C91.4813453,32.7326623 93.5503587,31.1826623 96.2286323,31.1826623 C98.2423767,31.1826623 99.6462108,32.032013 100.421928,33.4891558 C100.754193,34.0975974 100.458991,34.5774675 99.8308744,34.7618831 L98.9628251,35.0014935 C98.3899776,35.1677273 98.0570628,34.9462987 97.6695291,34.4664286 C97.3925336,34.0612338 96.9308744,33.820974 96.2839013,33.820974 C95.5081839,33.820974 94.8065919,34.1898052 94.8065919,34.8911039 C94.8065919,35.2969481 95.0465247,35.720974 96.0257623,36.0716234 L97.5771973,36.6248701 C100.274327,37.5469481 101.216502,38.8385065 101.252915,40.5547403 C101.252915,43.1924026 98.9439686,44.5014935 96.155157,44.5014935 C93.6797534,44.5014935 91.8877354,43.432013 91.167287,41.6424026" id="Fill-8" fill="#FFFFFF"></path>
                <path d="M68.6548341,21.4874675 C72.3403049,21.4874675 74.5946323,19.0842208 74.5946323,15.6173377 C74.5946323,12.1485065 72.3403049,9.71603896 68.6548341,9.74590909 L65.7002152,9.74590909 L65.7002152,21.4874675 L68.6548341,21.4874675 Z M60.0959327,24.6205844 L60.0959327,6.61344156 C60.0959327,5.54850649 60.6746323,4.97058442 61.741,4.97058442 L69.3557758,4.97058442 C75.6909103,4.97058442 80.1989148,9.74590909 80.1989148,15.6173377 C80.1989148,21.5186364 75.6909103,26.2634416 69.3557758,26.2634416 L61.741,26.2634416 C60.6746323,26.2634416 60.0959327,25.6848701 60.0959327,24.6205844 L60.0959327,24.6205844 Z" id="Fill-10" fill="#FFFFFF"></path>
                <path d="M94.8336413,18.1111039 L92.2444484,10.8111039 L89.5336637,18.1111039 L94.8336413,18.1111039 Z M82.162722,24.3773377 L89.1383274,6.24811688 C89.4731928,5.39616883 90.1130135,4.97084416 91.057139,4.97084416 L93.4324081,4.97084416 C94.3765336,4.97084416 94.9864439,5.39616883 95.3213094,6.24811688 L102.449067,24.3773377 C102.874964,25.5033117 102.387946,26.2630519 101.169426,26.2630519 L98.7024753,26.2630519 C97.7882601,26.2630519 97.1484395,25.8370779 96.813574,24.9857792 L95.8694484,22.4916234 L88.5589776,22.4916234 L87.6454126,24.9559091 C87.3411076,25.8370779 86.7318475,26.2630519 85.7870717,26.2630519 L83.4423632,26.2630519 C82.223843,26.2630519 81.7056143,25.5033117 82.162722,24.3773377 L82.162722,24.3773377 Z" id="Fill-12" fill="#FFFFFF"></path>
                <path d="M120.123007,6.61344156 L120.123007,8.10305195 C120.123007,9.16863636 119.544307,9.74590909 118.477939,9.74590909 L114.001146,9.74590909 L114.001146,24.6205844 C114.001146,25.6848701 113.421796,26.2634416 112.356078,26.2634416 L110.162872,26.2634416 C109.096504,26.2634416 108.517805,25.6848701 108.517805,24.6205844 L108.517805,9.74590909 L104.161953,9.74590909 C103.096235,9.74590909 102.517536,9.16863636 102.517536,8.10305195 L102.517536,6.61344156 C102.517536,5.54785714 103.096235,4.97058442 104.161953,4.97058442 L118.477939,4.97058442 C119.544307,4.97058442 120.123007,5.54785714 120.123007,6.61344156" id="Fill-14" fill="#FFFFFF"></path>
                <path d="M139.298509,15.6170779 C139.298509,12.2404545 137.044832,9.47227273 133.511513,9.47227273 C130.008105,9.47227273 127.723217,12.2404545 127.723217,15.6170779 C127.723217,18.9930519 130.008105,21.7612338 133.511513,21.7612338 C137.044832,21.7612338 139.298509,18.9930519 139.298509,15.6170779 M122.119585,15.6170779 C122.119585,9.65474026 126.596379,4.63590909 133.511513,4.63590909 C140.455908,4.63590909 144.933352,9.65474026 144.933352,15.6170779 C144.933352,21.5787662 140.455908,26.5975974 133.511513,26.5975974 C126.596379,26.5975974 122.119585,21.5787662 122.119585,15.6170779" id="Fill-16" fill="#FFFFFF"></path>
            </g>
        </g>
    </g>
</svg>