<?xml version="1.0" standalone="no"?>
<!DOCTYPE svg PUBLIC "-//W3C//DTD SVG 1.1//EN" "http://www.w3.org/Graphics/SVG/1.1/DTD/svg11.dtd" >
<svg xmlns="http://www.w3.org/2000/svg">
<metadata></metadata>
<defs>
<font id="filson_softblack" horiz-adv-x="1366" >
<font-face units-per-em="2048" ascent="1638" descent="-410" />
<missing-glyph horiz-adv-x="475" />
<glyph unicode="&#xfb01;" horiz-adv-x="1519" d="M49 858v123q0 29 16.5 46t47.5 17h73v56q0 191 152.5 297t396.5 106q278 0 408 -90q89 -58 37 -143l-19 -31q-44 -76 -108 -53q-23 6 -57 15t-50.5 13t-42 8.5t-51 6.5t-57.5 2q-114 0 -183 -34.5t-69 -102.5v-50h751q111 0 111 -110v-823q0 -54 -28.5 -82.5t-82.5 -28.5 h-147q-54 0 -82.5 28.5t-28.5 82.5v684h-487v-684q0 -54 -28.5 -82.5t-82.5 -28.5h-139q-54 0 -83.5 28.5t-29.5 82.5v682h-73q-31 0 -47.5 17t-16.5 48z" />
<glyph unicode="&#xfb02;" horiz-adv-x="1443" d="M49 852v135q0 57 57 57h80v56q0 93 29 164t78 116t122 73t152.5 39t177.5 11q268 0 488 -49q96 -20 96 -123v-1220q0 -111 -110 -111h-148q-110 0 -110 111v1108q-76 20 -220 20q-198 0 -198 -139v-56h166q27 0 42 -15t15 -42v-135q0 -27 -15 -42t-42 -15h-160v-684 q0 -54 -28.5 -82.5t-82.5 -28.5h-139q-54 0 -83.5 28.5t-29.5 82.5v684h-80q-57 0 -57 57z" />
<glyph unicode="&#xfb03;" horiz-adv-x="2363" d="M49 852v135q0 57 57 57h80v56q0 92 29.5 164t76 116t111 72.5t128 39.5t133.5 11q137 0 237 -47q49 -20 61.5 -59t-12.5 -86l-14 -23q-42 -83 -123 -59q-41 14 -92 14q-96 0 -137 -36.5t-41 -112.5v-50h489v56q0 191 152 297t397 106q279 0 406 -90q89 -56 38 -143 l-20 -31q-45 -76 -107 -53q-22 5 -69 17.5t-64 16t-52 7.5t-75 4q-114 0 -183 -34.5t-69 -102.5v-50h752q111 0 111 -110v-823q0 -54 -28.5 -82.5t-82.5 -28.5h-147q-54 0 -82.5 28.5t-28.5 82.5v684h-485v-684q0 -54 -28.5 -82.5t-82.5 -28.5h-141q-54 0 -82.5 28.5 t-28.5 82.5v682h-483v-682q0 -54 -28.5 -82.5t-82.5 -28.5h-139q-54 0 -83.5 28.5t-29.5 82.5v684h-80q-57 0 -57 57z" />
<glyph unicode="&#xfb04;" horiz-adv-x="2289" d="M49 852v135q0 57 57 57h80v56q0 92 29.5 164t76 116t111 72.5t128 39.5t133.5 11q132 0 237 -43q49 -21 61 -60.5t-12 -84.5l-14 -25q-39 -83 -123 -61q-41 14 -92 14q-96 0 -137 -36.5t-41 -112.5v-50h487v56q0 93 29 164t78 116t121.5 73t152.5 39t178 11 q266 0 486 -49q96 -20 96 -123v-1220q0 -54 -28.5 -82.5t-82.5 -28.5h-147q-54 0 -82.5 28.5t-28.5 82.5v1108q-76 20 -217 20q-201 0 -201 -139v-56h166q58 0 58 -57v-135q0 -57 -58 -57h-157v-684q0 -54 -28.5 -82.5t-82.5 -28.5h-141q-54 0 -82.5 28.5t-28.5 82.5v684 h-481v-684q0 -54 -28.5 -82.5t-82.5 -28.5h-139q-54 0 -83.5 28.5t-29.5 82.5v684h-80q-57 0 -57 57z" />
<glyph horiz-adv-x="0" />
<glyph horiz-adv-x="682" />
<glyph unicode=" "  horiz-adv-x="475" />
<glyph unicode="&#x09;" horiz-adv-x="475" />
<glyph unicode="&#xa0;" horiz-adv-x="475" />
<glyph unicode="!" horiz-adv-x="638" d="M98 1305v45q0 40 22.5 62t63.5 22h273q40 0 62 -22t22 -62v-45l-86 -730q-9 -79 -90 -79h-91q-78 0 -90 79zM100 168q0 84 61 139t154 55t155 -55t62 -139q0 -82 -62.5 -136.5t-154.5 -54.5t-153.5 54.5t-61.5 136.5z" />
<glyph unicode="&#x22;" horiz-adv-x="1046" d="M100 1360q-6 84 80 84h170q84 0 78 -84l-41 -475q-9 -80 -86 -80h-72q-80 0 -86 80zM618 1360q-6 84 80 84h170q84 0 78 -84l-41 -475q-9 -80 -86 -80h-71q-80 0 -86 80z" />
<glyph unicode="#" horiz-adv-x="1589" d="M82 401l20 82q14 70 93 70h170l92 354h-154q-43 0 -62.5 25t-9.5 67l21 78q18 72 92 72h174l53 213q18 72 91 72h71q44 0 63.5 -25t8.5 -68l-49 -192h278l51 213q18 72 91 72h73q44 0 63.5 -25t8.5 -68l-49 -192h164q43 0 62 -24.5t9 -67.5l-20 -78q-21 -72 -92 -72h-183 l-92 -354h166q43 0 62.5 -24t9.5 -66l-21 -82q-18 -70 -92 -70h-178l-61 -239q-21 -72 -93 -72h-73q-43 0 -62.5 25t-9.5 67l57 219h-278l-58 -239q-18 -72 -92 -72h-71q-43 0 -62.5 25t-9.5 67l51 219h-151q-43 0 -62 24.5t-10 65.5zM604 553h277l90 354h-277z" />
<glyph unicode="$" horiz-adv-x="1263" d="M74 356q-7 25 5 43.5t38 24.5l198 47q49 9 70 -43q56 -130 211 -145v288l-76 31q-45 14 -86 31t-101 53t-102.5 77t-73.5 105.5t-32 137.5q0 184 132 301t339 131v121q0 40 41 40h35q41 0 41 -40v-123q148 -13 252 -90.5t159 -208.5q22 -56 -34 -72l-195 -55 q-49 -14 -72 34q-40 76 -110 95v-265l78 -26q212 -72 304 -176.5t97 -251.5q0 -96 -37 -174.5t-103 -130.5t-152 -82.5t-187 -38.5v-117q0 -41 -41 -41h-35q-41 0 -41 41v113q-205 11 -341.5 106t-180.5 260zM492 1036q0 -34 19 -61t73 -51l12 -6v225q-46 -9 -75 -37.5 t-29 -69.5zM713 289q54 12 84 42t30 75q0 75 -102 118l-12 4v-239z" />
<glyph unicode="%" horiz-adv-x="2168" d="M61 1059q0 168 121.5 282.5t300.5 114.5q181 0 301.5 -114.5t120.5 -282.5q0 -167 -121 -281t-301 -114q-179 0 -300.5 114.5t-121.5 280.5zM326 1061q0 -69 46.5 -118.5t110.5 -49.5q67 0 113.5 49.5t46.5 118.5q0 71 -46.5 119.5t-113.5 48.5q-65 0 -111 -49t-46 -119z M603 22q-13 22 5 56l727 1311q22 45 78 45h82q37 0 50 -22t-5 -56l-725 -1311q-23 -45 -78 -45h-84q-37 0 -50 22zM1266 373q0 168 121.5 282.5t300.5 114.5q181 0 301 -114.5t120 -282.5q0 -167 -120.5 -281.5t-300.5 -114.5q-179 0 -300.5 115t-121.5 281zM1530 375 q0 -69 46.5 -118.5t111.5 -49.5q67 0 113 49t46 119q0 71 -46 119.5t-113 48.5q-65 0 -111.5 -49t-46.5 -119z" />
<glyph unicode="&#x26;" horiz-adv-x="1628" d="M61 403q0 147 103.5 260.5t263.5 167.5q-76 49 -125 125.5t-49 153.5q0 116 62 195.5t161.5 115t227.5 35.5q185 0 294 -96.5t109 -226.5q0 -104 -82 -202.5t-203 -146.5l164 -174l131 144q33 30 80 30h203q42 0 52 -23t-19 -54l-275 -293l45 -54q71 -77 133 -77 q52 0 105 32q61 39 90 -18l63 -117q27 -53 -14 -88q-129 -115 -276 -115q-140 0 -269 99l-35 33q-156 -132 -407 -132q-147 0 -267 50t-193 148.5t-73 227.5zM412 420q0 -67 54 -112.5t142 -45.5q114 0 191 80l-236 268q-69 -33 -110 -85.5t-41 -104.5zM567 1090 q0 -41 22 -76t66 -74q74 34 111 70.5t37 83.5q0 44 -34.5 79t-84.5 35q-57 0 -87 -34.5t-30 -83.5z" />
<glyph unicode="'" horiz-adv-x="528" d="M100 1360q-6 84 80 84h170q84 0 78 -84l-41 -475q-9 -80 -86 -80h-72q-80 0 -86 80z" />
<glyph unicode="(" horiz-adv-x="737" d="M70 535q0 152 25.5 296t63 251t90 207.5t96.5 164t93 121.5q47 53 111 16l96 -55q68 -38 29 -109q-61 -107 -114.5 -235.5t-97.5 -311.5t-44 -348q0 -234 79 -478t177 -414q39 -71 -29 -109l-96 -55q-64 -37 -111 16q-49 56 -93.5 120t-96.5 164.5t-89.5 208.5t-63 253 t-25.5 297z" />
<glyph unicode=")" horiz-adv-x="737" d="M63 -360q98 170 177 414t79 478q0 165 -44 348t-97.5 311.5t-114.5 235.5q-39 71 29 109l96 55q64 37 111 -16q49 -58 93 -121t97 -164t90.5 -208t63 -251t25.5 -296t-25.5 -297t-63 -253t-90 -208.5t-97 -164t-93.5 -120.5q-47 -53 -111 -16l-96 55q-68 38 -29 109z" />
<glyph unicode="*" horiz-adv-x="944" d="M90 1176l25 73q10 33 35 44t57 -3l170 -67l-12 184q-3 35 16 54.5t55 19.5h76q36 0 54.5 -20t15.5 -56l-15 -178l174 65q32 13 57.5 1.5t35.5 -46.5l20 -71q18 -71 -51 -89l-172 -47l117 -147q44 -59 -15 -100l-57 -41q-59 -43 -98 20l-101 150l-108 -156 q-41 -63 -101 -16l-57 43q-55 46 -10 100l114 141l-176 51q-35 10 -47.5 34t-1.5 57z" />
<glyph unicode="+" horiz-adv-x="1183" d="M68 539v198q0 56 57 56h303v290q0 58 57 58h217q26 0 41 -15t15 -43v-290h301q57 0 57 -56v-198q0 -58 -57 -58h-301v-288q0 -28 -15 -43t-41 -15h-217q-57 0 -57 58v288h-303q-57 0 -57 58z" />
<glyph unicode="," horiz-adv-x="587" d="M82 203q-2 83 53.5 140.5t153.5 57.5q47 0 84.5 -16t60 -40t38 -55t21 -58.5t5.5 -53.5q0 -151 -93 -293.5t-225 -210.5q-49 -24 -84 27l-8 14q-28 47 21 84q62 42 107 109t48 125h-31q-68 6 -109.5 57.5t-41.5 112.5z" />
<glyph unicode="-" horiz-adv-x="976" d="M113 520v207q0 57 55 57h641q55 0 55 -57v-207q0 -57 -55 -57h-641q-55 0 -55 57z" />
<glyph unicode="." horiz-adv-x="587" d="M78 168q0 84 61 139t154 55t155 -55t62 -139q0 -82 -62.5 -136.5t-154.5 -54.5t-153.5 54.5t-61.5 136.5z" />
<glyph unicode="/" horiz-adv-x="1155" d="M82.5 -46.5q-14.5 23.5 5.5 60.5l719 1450q26 54 86 54h123q41 0 55.5 -24.5t-4.5 -59.5l-723 -1452q-27 -52 -86 -52h-119q-42 0 -56.5 23.5z" />
<glyph unicode="0" horiz-adv-x="1460" d="M80 717q0 154 45 288.5t127 234.5t204.5 158t270.5 58q195 0 345.5 -99.5t229 -266.5t78.5 -373q0 -153 -46 -288t-129.5 -235t-207 -158.5t-270.5 -58.5q-196 0 -345 100.5t-225.5 267.5t-76.5 372zM440 717q0 -192 78 -317.5t209 -125.5q132 0 212.5 126t80.5 317 q0 193 -80 317.5t-213 124.5q-131 0 -209 -124.5t-78 -317.5z" />
<glyph unicode="1" horiz-adv-x="890" d="M43 1096q-34 100 63 143l379 166q38 18 73 23.5t97 5.5q107 0 107 -111v-1212q0 -54 -28.5 -82.5t-82.5 -28.5h-147q-54 0 -82.5 28.5t-28.5 82.5v927l-186 -77q-51 -21 -87.5 -4t-53.5 69z" />
<glyph unicode="2" horiz-adv-x="1298" d="M86 1094q13 59 39 111t71 98.5t104.5 80t142.5 53t182 19.5q240 0 390 -128t150 -343q0 -256 -270 -479l-260 -215l2 -8q106 12 287 12h192q54 0 82.5 -28.5t28.5 -82.5v-73q0 -54 -28.5 -82.5t-82.5 -28.5h-895q-104 0 -119 100l-4 33q-11 83 52 143l473 424 q94 81 141 148.5t47 146.5q0 75 -55.5 119.5t-139.5 44.5q-129 0 -172 -88q-18 -29 -25 -39.5t-22.5 -26.5t-32 -21t-40.5 -5h-136q-57 0 -85.5 30.5t-16.5 84.5z" />
<glyph unicode="3" horiz-adv-x="1294" d="M72 164q-5 38 24 76l56 73q55 73 139 27q133 -66 262 -66q142 0 218.5 65t76.5 159q0 93 -67.5 146.5t-170.5 53.5q-53 0 -108 -14q-88 -22 -133 45l-21 29q-52 83 25 139l293 242h-443q-48 0 -74 25.5t-26 74.5v94q0 47 26.5 74t73.5 27h836q47 0 73.5 -27t26.5 -74v-35 q0 -72 -57 -120l-336 -281q40 0 80 -6q159 -23 263.5 -128.5t104.5 -275.5q0 -109 -41 -201t-118.5 -161.5t-198 -108.5t-272.5 -39q-280 0 -467 123q-40 26 -45 64z" />
<glyph unicode="4" horiz-adv-x="1419" d="M39 453v75q0 78 53 134l658 714q55 58 133 58h106q53 0 81 -28t28 -81v-711h168q108 0 108 -108v-53q0 -109 -108 -109h-168v-235q0 -53 -28 -81t-81 -28h-151q-109 0 -109 109v235h-582q-52 0 -80 28t-28 81zM385 614h348v375z" />
<glyph unicode="5" horiz-adv-x="1296" d="M96 165q-4 42 29 83l41 57q58 78 153 31q129 -62 279 -62q111 0 189.5 62.5t78.5 163.5q0 93 -67.5 145.5t-165.5 52.5q-104 0 -199 -53q-44 -24 -74 -29.5t-77 7.5l-66 26q-90 34 -84 129l33 549q6 107 113 107h743q54 0 82.5 -28.5t28.5 -82.5v-74q0 -110 -111 -110 h-533l-18 -273q49 40 127 62t166 22q206 0 335.5 -126.5t129.5 -321.5q0 -237 -162.5 -381t-448.5 -144q-289 0 -473 117q-45 29 -49 71z" />
<glyph unicode="6" horiz-adv-x="1376" d="M82 694q0 126 25.5 238t80 209t134 166.5t194 109t254.5 39.5q238 0 408 -113q45 -29 48 -71.5t-34 -81.5l-41 -47q-31 -37 -69 -42.5t-83 17.5q-88 43 -202 43q-171 0 -267 -98.5t-96 -280.5q57 78 159.5 125t205.5 47q136 0 249 -55.5t182.5 -165t69.5 -252.5 q0 -221 -158.5 -362.5t-420.5 -141.5q-201 0 -346 90t-219 250.5t-74 376.5zM455 479q0 -88 65.5 -148.5t177.5 -60.5q102 0 171 59.5t69 149.5q0 94 -71.5 152.5t-170.5 58.5q-107 0 -174 -61.5t-67 -149.5z" />
<glyph unicode="7" horiz-adv-x="1175" d="M53 1239v94q0 47 27 74t74 27h899q47 0 73.5 -27t26.5 -74v-47q0 -66 -29 -125l-551 -1089q-38 -72 -118 -72h-201q-60 0 -80 33t8 86l549 1020h-577q-48 0 -74.5 25.5t-26.5 74.5z" />
<glyph unicode="8" horiz-adv-x="1396" d="M76 424q0 87 43 162t102 119t123 63q-34 12 -69 35.5t-66.5 58t-51.5 85t-20 106.5q0 179 155 291t406 112q253 0 407.5 -112.5t154.5 -290.5q0 -56 -20 -106.5t-52.5 -85t-66.5 -58t-68 -35.5q43 -13 87 -40.5t86 -69.5t68.5 -103.5t26.5 -130.5q0 -134 -80.5 -236.5 t-221.5 -156.5t-321 -54t-320.5 54t-221 156.5t-80.5 236.5zM461 457q0 -75 66 -129t171 -54t171.5 54t66.5 129q0 72 -63.5 125t-172.5 53q-112 0 -175.5 -51.5t-63.5 -126.5zM504 1016q0 -61 52 -108.5t144 -47.5q85 0 139 47.5t54 106.5q0 60 -56 105.5t-139 45.5 q-84 0 -139 -45t-55 -104z" />
<glyph unicode="9" horiz-adv-x="1372" d="M76 952q0 221 158 362.5t419 141.5q202 0 347.5 -90t219.5 -250.5t74 -376.5q0 -126 -25.5 -238t-80 -209t-134 -166.5t-194 -109t-254.5 -39.5q-238 0 -407 113q-46 29 -49.5 72t32.5 82l41 47q33 37 71 42t83 -18q88 -43 203 -43q171 0 265.5 98.5t94.5 280.5 q-56 -78 -158.5 -125t-206.5 -47q-135 0 -247.5 55.5t-182 165t-69.5 252.5zM438 954q0 -94 70.5 -152.5t169.5 -58.5q107 0 174.5 62t67.5 149q0 88 -65 148.5t-177 60.5q-102 0 -171 -59.5t-69 -149.5z" />
<glyph unicode=":" horiz-adv-x="638" d="M104 168q0 85 60.5 139.5t154.5 54.5q92 0 155 -55t63 -139q0 -81 -63.5 -136t-154.5 -55q-93 0 -154 54.5t-61 136.5zM104 891q0 85 60.5 140.5t154.5 55.5q92 0 155 -56t63 -140q0 -81 -63 -135t-155 -54q-94 0 -154.5 53.5t-60.5 135.5z" />
<glyph unicode=";" horiz-adv-x="630" d="M96 891q0 85 60.5 140.5t154.5 55.5q91 0 154 -56t63 -140q0 -81 -63 -135t-154 -54q-94 0 -154.5 53.5t-60.5 135.5zM106 203q0 83 54.5 140.5t152.5 57.5q47 0 85 -16t61 -40t38.5 -55t21 -58.5t5.5 -53.5q0 -151 -92.5 -293.5t-224.5 -210.5q-53 -24 -84 27l-8 14 q-29 48 18 84q63 43 109 109.5t47 124.5h-31q-67 6 -109.5 57.5t-42.5 112.5z" />
<glyph unicode="&#x3c;" horiz-adv-x="1241" d="M63 543v143q0 52 50 72l942 375q33 13 53 -1.5t20 -50.5v-188q0 -54 -53 -74l-590 -205l590 -206q53 -17 53 -72v-189q0 -36 -20 -50t-53 -1l-942 373q-50 23 -50 74z" />
<glyph unicode="=" horiz-adv-x="1286" d="M119 276v179q0 57 57 57h934q57 0 57 -57v-179q0 -27 -15 -42t-42 -15h-934q-27 0 -42 15t-15 42zM119 842v178q0 55 57 55h934q57 0 57 -55v-178q0 -58 -57 -58h-934q-57 0 -57 58z" />
<glyph unicode="&#x3e;" horiz-adv-x="1241" d="M113 147v189q0 55 53 72l590 206l-590 205q-53 20 -53 74v188q0 36 21 50.5t54 1.5l938 -375q52 -20 52 -72v-143q0 -52 -52 -74l-938 -373q-33 -13 -54 1t-21 50z" />
<glyph unicode="?" horiz-adv-x="1114" d="M63 1057q0 69 31 138t89 128t153.5 96t212.5 37q224 0 362 -108.5t138 -286.5q0 -59 -17 -112t-43.5 -95t-71.5 -86t-89 -77.5t-107 -76.5q-11 -7 -24 -17.5t-29 -30.5t-17 -36v-10q0 -13 -9 -18.5t-34 -5.5h-192q-56 0 -56 39v14q0 40 3.5 65t16 57.5t42 62.5t76.5 61 q106 70 151 117.5t45 111.5t-41.5 97.5t-107.5 33.5q-62 0 -104 -34t-42 -93v-20q0 -54 -51 -54h-217q-55 0 -61 50q-7 40 -7 53zM287 168q0 85 60.5 139.5t154.5 54.5q92 0 154.5 -55t62.5 -139q0 -81 -63 -136t-154 -55q-93 0 -154 54.5t-61 136.5z" />
<glyph unicode="@" horiz-adv-x="2082" d="M74 494q0 209 73.5 392t202 313.5t309.5 206t388 75.5q211 0 389.5 -67.5t303 -187t194 -289t69.5 -368.5q0 -311 -118 -481t-310 -170q-122 0 -209.5 46.5t-116.5 141.5l-8 27q-51 -85 -145 -127.5t-185 -42.5q-199 0 -329.5 144t-130.5 364q0 223 130.5 368.5 t331.5 145.5q96 0 174 -42.5t123 -121.5v72q0 34 19 53t53 19h191q34 0 52.5 -19t18.5 -53v-705q0 -106 72 -106q116 2 184 125.5t68 361.5q0 170 -60 315.5t-166.5 249t-260 162t-334.5 58.5q-179 0 -335.5 -66t-267 -180t-174 -273.5t-63.5 -340.5t58.5 -339t163 -272 t255.5 -179.5t328 -65.5q216 0 374 61q39 15 56 -18l20 -39q20 -42 -16 -54q-196 -80 -434 -80q-207 0 -383 75t-297.5 206t-189.5 313t-68 392zM788 471q0 -104 59 -175t154 -71q96 0 154.5 69.5t58.5 176.5q0 108 -58 178t-155 70q-96 0 -154.5 -70.5t-58.5 -177.5z" />
<glyph unicode="A" horiz-adv-x="1458" d="M49 127l469 1221q35 86 129 86h160q92 0 127 -86l479 -1221q11 -28 11 -50q0 -24 -12 -42q-24 -35 -85 -35h-166q-92 0 -127 86l-63 168h-492l-61 -166q-30 -88 -125 -88h-158q-61 0 -85 35q-12 18 -12 41t11 51zM545 549h356l-174 491z" />
<glyph unicode="B" horiz-adv-x="1382" d="M143 111v1212q0 54 28.5 82.5t82.5 28.5h485q150 0 266.5 -48t184 -140.5t67.5 -215.5q0 -88 -50 -164t-160 -116q128 -22 201 -123t73 -211q0 -189 -143 -302.5t-379 -113.5h-545q-54 0 -82.5 28.5t-28.5 82.5zM520 303h260q84 0 129 42t45 104q0 64 -58 110.5 t-169 46.5h-207v-303zM520 838h150q112 0 168.5 43t56.5 108q0 69 -51.5 109.5t-138.5 40.5h-185v-301z" />
<glyph unicode="C" horiz-adv-x="1417" d="M61 717q0 149 56.5 283.5t158 235.5t251.5 160.5t327 59.5q249 0 446 -143q44 -29 48 -71q1 -5 1 -10q0 -37 -30 -73l-66 -78q-34 -42 -78 -42q-36 0 -77 28q-106 63 -244 63q-188 0 -302 -118.5t-114 -294.5t114 -295t302 -119q133 0 244 64q41 28 76 28q44 0 79 -43 l66 -78q34 -42 34 -77q0 -39 -42 -70q-208 -150 -457 -150q-177 0 -327 59.5t-251.5 160.5t-158 236t-56.5 284z" />
<glyph unicode="D" horiz-adv-x="1560" d="M143 111v1212q0 54 28.5 82.5t82.5 28.5h512q208 0 376 -96.5t260.5 -260.5t92.5 -360q0 -147 -54.5 -279t-149.5 -228.5t-231.5 -153t-293.5 -56.5h-512q-54 0 -82.5 28.5t-28.5 82.5zM520 322h199q184 0 291.5 109t107.5 286t-108 287q-107 109 -288 108h-3h-199v-790z " />
<glyph unicode="E" horiz-adv-x="1241" d="M143 111v1212q0 54 28.5 82.5t82.5 28.5h774q54 0 82.5 -28.5t28.5 -82.5v-100q0 -54 -28.5 -82.5t-82.5 -28.5h-508v-256h426q54 0 83.5 -28.5t29.5 -82.5v-67q0 -54 -29.5 -82.5t-83.5 -28.5h-426v-245h508q54 0 82.5 -28.5t28.5 -82.5v-100q0 -54 -28.5 -82.5 t-82.5 -28.5h-774q-54 0 -82.5 28.5t-28.5 82.5z" />
<glyph unicode="F" horiz-adv-x="1210" d="M143 111v1212q0 54 28.5 82.5t82.5 28.5h782q54 0 83.5 -28.5t29.5 -82.5v-100q0 -54 -29.5 -82.5t-83.5 -28.5h-516v-256h436q54 0 82.5 -28.5t28.5 -82.5v-67q0 -54 -28.5 -82.5t-82.5 -28.5h-436v-456q0 -54 -28.5 -82.5t-81.5 -28.5h-156q-54 0 -82.5 28.5 t-28.5 82.5z" />
<glyph unicode="G" horiz-adv-x="1501" d="M61 717q0 149 58 284.5t159.5 235.5t250 159.5t319.5 59.5q238 0 420 -108q46 -29 52 -70v-12q0 -36 -30 -72l-65 -80q-37 -44 -89 -44q-30 0 -65 15q-92 45 -223 45q-179 0 -294.5 -118.5t-115.5 -294.5q0 -175 113.5 -294.5t302.5 -119.5q126 0 211 39v190h-211 q-54 0 -82.5 28.5t-28.5 82.5v53q0 54 28.5 82.5t82.5 28.5h457q110 0 110 -111v-411q0 -88 -63 -135q-229 -173 -506 -173q-174 0 -323.5 59.5t-251 160t-159 235.5t-57.5 285z" />
<glyph unicode="H" horiz-adv-x="1517" d="M143 111v1212q0 54 28.5 82.5t82.5 28.5h156q53 0 81.5 -28.5t28.5 -82.5v-483h479v483q0 54 28.5 82.5t82.5 28.5h154q110 0 110 -111v-1212q0 -111 -110 -111h-154q-54 0 -82.5 28.5t-28.5 82.5v421h-479v-421q0 -54 -28.5 -82.5t-81.5 -28.5h-156q-54 0 -82.5 28.5 t-28.5 82.5z" />
<glyph unicode="I" horiz-adv-x="661" d="M143 111v1212q0 54 28.5 82.5t82.5 28.5h156q53 0 81.5 -28.5t28.5 -82.5v-1212q0 -54 -28.5 -82.5t-81.5 -28.5h-156q-54 0 -82.5 28.5t-28.5 82.5z" />
<glyph unicode="J" horiz-adv-x="1320" d="M35 477q0 101 45 197q36 74 129 74h119q94 0 94 -64q0 -19 -8 -43q-21 -64 -21 -113q0 -93 49.5 -159t153.5 -66q109 0 166 80.5t57 241.5v698q0 54 28.5 82.5t82.5 28.5h155q54 0 82.5 -28.5t28.5 -82.5v-698q0 -324 -153.5 -486t-438.5 -162q-126 0 -226.5 31.5 t-163.5 82t-104.5 118t-58 133.5t-16.5 135z" />
<glyph unicode="K" horiz-adv-x="1404" d="M141 111v1212q0 54 28.5 82.5t82.5 28.5h156q53 0 81.5 -28.5t28.5 -82.5v-524l336 559q44 76 133 76h184q68 0 84 -32q5 -9 5 -22q0 -29 -27 -71l-363 -570l162 -309q48 -94 89 -128q35 -28 76 -29q7 0 15 1q35 6 54 13q38 11 59.5 -6.5t44.5 -65.5l23 -55 q13 -29 13 -55q0 -19 -6 -35q-16 -42 -71 -62q-77 -31 -182 -31q-142 0 -257.5 72.5t-184.5 226.5l-187 392v-557q0 -54 -28.5 -82.5t-81.5 -28.5h-156q-54 0 -82.5 28.5t-28.5 82.5z" />
<glyph unicode="L" horiz-adv-x="1200" d="M143 111v1212q0 54 28.5 82.5t82.5 28.5h156q53 0 81.5 -28.5t28.5 -82.5v-1001h535q110 0 110 -111v-100q0 -111 -110 -111h-801q-54 0 -82.5 28.5t-28.5 82.5z" />
<glyph unicode="M" horiz-adv-x="1888" d="M94 117l113 1212q9 105 115 105h170q90 0 126 -86l326 -807l328 807q36 86 127 86h170q51 0 80 -27t32 -78l113 -1212q1 -10 1 -20q0 -43 -22 -67q-27 -30 -83 -30h-154q-53 0 -82.5 26.5t-32.5 77.5l-55 664l-262 -666q-33 -88 -127 -88h-64q-94 0 -127 88l-262 666 l-55 -664q-9 -104 -117 -104h-151q-55 0 -83 30q-24 26 -25 73q0 7 1 14z" />
<glyph unicode="N" horiz-adv-x="1505" d="M143 111v1212q0 54 28.5 82.5t82.5 28.5h96q83 0 135 -70l500 -694v653q0 54 28.5 82.5t82.5 28.5h155q54 0 82.5 -28.5t28.5 -82.5v-1212q0 -54 -28.5 -82.5t-82.5 -28.5h-94q-84 0 -133 70l-504 704v-663q0 -54 -28.5 -82.5t-81.5 -28.5h-156q-54 0 -82.5 28.5 t-28.5 82.5z" />
<glyph unicode="O" horiz-adv-x="1658" d="M63 717q0 150 55 284.5t153 235.5t243 160t315 59q171 0 316.5 -59t243.5 -160t153 -235.5t55 -284.5t-55 -285t-153 -235.5t-243.5 -160t-316.5 -59.5q-170 0 -315 59.5t-243 160t-153 235.5t-55 285zM440 717q0 -175 108 -294.5t281 -119.5q174 0 282 119.5t108 294.5 t-108 294t-282 119q-173 0 -281 -119.5t-108 -293.5z" />
<glyph unicode="P" horiz-adv-x="1347" d="M143 111v1212q0 54 28.5 82.5t82.5 28.5h557q116 0 211 -40t155.5 -108.5t93 -157.5t32.5 -190q0 -135 -56 -241t-169 -170t-267 -64h-291v-352q0 -54 -28.5 -82.5t-81.5 -28.5h-156q-54 0 -82.5 28.5t-28.5 82.5zM520 762h246q69 0 113.5 51.5t44.5 122.5 q0 74 -44.5 125t-113.5 51h-246v-350z" />
<glyph unicode="Q" horiz-adv-x="1658" d="M63 717q0 150 55 284.5t153 235.5t243 160t315 59t315 -59t243 -160t153 -235.5t55 -284.5q0 -172 -68.5 -321.5t-200.5 -255t-306 -142.5q42 -150 211 -150q45 0 110 21q29 9 53 9q19 0 34 -6q36 -12 59 -58l24 -54q11 -24 11 -47q0 -25 -12 -49q-24 -47 -93 -72 q-92 -32 -200 -32q-228 0 -365 109.5t-184 297.5l-4 27q-272 49 -436.5 251.5t-164.5 471.5zM440 717q0 -175 107.5 -294.5t281.5 -119.5t282 119.5t108 294.5t-108 294t-282 119t-281.5 -119t-107.5 -294z" />
<glyph unicode="R" horiz-adv-x="1452" d="M141 111v1212q0 54 28.5 82.5t82.5 28.5h561q154 0 268 -67t170 -176.5t56 -244.5q0 -160 -81 -272.5t-227 -153.5q14 -108 66.5 -178t126.5 -70q43 0 90 15q27 8 46 8q16 1 26 -5q22 -12 45 -61l24 -49q17 -35 17 -64q0 -52 -56 -81q-119 -58 -262 -58q-75 0 -138.5 21 t-107.5 55t-80 81t-58 93.5t-38 100t-23 92.5t-11 78h-148v-387q0 -54 -28.5 -82.5t-81.5 -28.5h-156q-54 0 -82.5 28.5t-28.5 82.5zM518 762h252q69 0 113.5 51.5t44.5 122.5q0 74 -44.5 125t-113.5 51h-252v-350z" />
<glyph unicode="S" horiz-adv-x="1255" d="M74 295q-9 24 -9 44q0 24 12 43q23 36 77 48l102 25q16 4 31 4q25 1 45 -11q30 -18 59 -65q73 -113 236 -113q91 0 144.5 34.5t53.5 96.5q0 93 -141 140l-174 63q-46 15 -88.5 32.5t-102.5 54t-103 78.5t-74.5 107.5t-32.5 139.5q0 131 69.5 232t189 154.5t267.5 53.5 q165 0 282 -66t183 -190q15 -29 15 -54q0 -18 -8 -34q-19 -38 -73 -53l-96 -27q-21 -6 -39 -6q-21 0 -37 8q-32 15 -67 58q-49 71 -154 71q-68 0 -116 -31.5t-48 -87.5q0 -83 135 -131l172 -61q216 -74 310.5 -180.5t97.5 -255.5q0 -142 -78 -243t-203.5 -148.5 t-283.5 -47.5q-204 0 -348.5 84t-204.5 234z" />
<glyph unicode="T" horiz-adv-x="1263" d="M41 1223v100q0 54 28.5 82.5t82.5 28.5h962q54 0 82.5 -28.5t28.5 -82.5v-100q0 -54 -28.5 -82.5t-82.5 -28.5h-301v-1001q0 -54 -28.5 -82.5t-82.5 -28.5h-147q-54 0 -82.5 28.5t-28.5 82.5v1001h-292q-54 0 -82.5 28.5t-28.5 82.5z" />
<glyph unicode="U" horiz-adv-x="1464" d="M125 549v774q0 54 28.5 82.5t82.5 28.5h155q54 0 82.5 -28.5t28.5 -82.5v-774q0 -117 65 -181.5t164 -64.5q98 0 165 65t67 181v774q0 111 110 111h154q110 0 110 -111v-774q0 -135 -48.5 -245t-132 -180.5t-192.5 -108.5t-233 -38q-125 0 -234 38t-192.5 108.5 t-131.5 180.5t-48 245z" />
<glyph unicode="V" horiz-adv-x="1398" d="M68 1307q-9 26 -9 47q0 26 13 45q24 35 84 35h170q98 0 125 -95l249 -837l250 837q27 95 125 95h170q60 0 85 -35q13 -19 13 -43q0 -22 -10 -49l-434 -1219q-34 -88 -125 -88h-149q-91 0 -125 88z" />
<glyph unicode="W" horiz-adv-x="2025" d="M72 1309q-8 25 -8 45q0 26 14 46q24 34 84 34h157q99 0 123 -95l205 -708l205 663q27 92 123 92h80q96 0 123 -92l202 -663l203 708q27 95 125 95h156q60 0 84 -34q14 -20 15 -48q0 -19 -7 -43l-383 -1217q-30 -92 -125 -92h-100q-95 0 -125 92l-209 696l-211 -696 q-27 -92 -123 -92h-100q-95 0 -125 92z" />
<glyph unicode="X" horiz-adv-x="1466" d="M33 38q-7 13 -7 27q0 29 27 66l453 627l-410 545q-27 36 -27 66q1 15 7 27q20 38 86 38h190q82 0 131 -66l250 -334l250 334q49 66 131 66h189q67 0 87 -38q7 -13 7 -28q0 -29 -27 -65l-412 -545l455 -627q25 -36 25 -65q0 -15 -6 -28q-20 -38 -86 -38h-193 q-83 0 -131 68l-289 399l-289 -399q-51 -68 -131 -68h-192q-68 0 -88 38z" />
<glyph unicode="Y" horiz-adv-x="1533" d="M65 1394q21 40 89 40h198q85 0 133 -74l283 -461l285 461q45 74 133 74h196q68 0 88 -40q7 -13 7 -28q0 -30 -27 -68l-494 -712v-475q0 -111 -110 -111h-156q-110 0 -110 111v469l-498 718q-24 37 -24 66q0 16 7 30z" />
<glyph unicode="Z" horiz-adv-x="1386" d="M45 111v43q0 78 51 135l676 823h-553q-110 0 -110 111v100q0 111 110 111h950q53 0 82 -28.5t29 -82.5v-45q0 -78 -51 -137l-680 -819h674q110 0 110 -111v-100q0 -111 -110 -111h-1067q-54 0 -82.5 28.5t-28.5 82.5z" />
<glyph unicode="[" horiz-adv-x="884" d="M125 -430v1905q0 38 21 58.5t59 20.5h551q38 0 59 -20.5t21 -58.5v-113q0 -38 -21 -59t-59 -21h-285v-1520h285q38 0 59 -20.5t21 -58.5v-113q0 -38 -21 -59t-59 -21h-551q-38 0 -59 21t-21 59z" />
<glyph unicode="\" horiz-adv-x="1155" d="M83 1493.5q15 24.5 56 24.5h121q60 0 86 -54l721 -1450q19 -37 4.5 -60.5t-55.5 -23.5h-121q-59 0 -86 52l-721 1452q-20 35 -5 59.5z" />
<glyph unicode="]" horiz-adv-x="884" d="M49 -317q0 38 21 58.5t59 20.5h285v1520h-285q-38 0 -59 21t-21 59v113q0 38 21 58.5t59 20.5h551q38 0 59 -20.5t21 -58.5v-1905q0 -38 -21 -59t-59 -21h-551q-38 0 -59 21t-21 59v113z" />
<glyph unicode="^" horiz-adv-x="1196" d="M104.5 641.5q-12.5 20.5 4.5 54.5l333 666q23 47 74 47h166q50 0 76 -47l329 -666q17 -34 4 -54.5t-51 -20.5h-184q-54 0 -74 49l-184 415l-184 -415q-22 -49 -76 -49h-184q-37 0 -49.5 20.5z" />
<glyph unicode="_" horiz-adv-x="1486" d="M0 -215q0 82 82 82h1323q82 0 82 -82v-90q0 -82 -82 -82h-1323q-82 0 -82 82v90z" />
<glyph unicode="`" horiz-adv-x="1050" d="M313 1513q9 21 45 21h236q47 0 65 -41l123 -240q14 -29 2.5 -47t-43.5 -18h-131q-43 0 -67 31l-215 245q-24 28 -15 49z" />
<glyph unicode="a" d="M55 532q0 238 144 396.5t362 158.5q106 0 190 -42t134 -123v32q0 111 110 111h148q110 0 110 -111v-843q0 -111 -110 -111h-148q-110 0 -110 111v30q-51 -79 -135 -121.5t-189 -42.5q-218 0 -362 158.5t-144 396.5zM424 532q0 -116 62.5 -192t168.5 -76q105 0 169.5 76 t64.5 192t-64.5 192.5t-169.5 76.5q-106 0 -168.5 -76.5t-62.5 -192.5z" />
<glyph unicode="b" d="M113 111v1259q0 111 110 111h148q110 0 110 -111v-448q50 81 134 123t188 42q219 0 363.5 -158.5t144.5 -396.5t-144.5 -396.5t-363.5 -158.5q-103 0 -187 42.5t-135 121.5v-30q0 -111 -110 -111h-148q-110 0 -110 111zM475 532q0 -116 65 -192t171 -76q105 0 168 76.5 t63 191.5t-63 192t-168 77q-106 0 -171 -76.5t-65 -192.5z" />
<glyph unicode="c" horiz-adv-x="1136" d="M53 528q0 154 76.5 281t219 202.5t323.5 75.5q187 0 346 -90q45 -29 49 -71v-9q0 -38 -31 -75l-43 -51q-29 -40 -67 -45q-6 -1 -13 -1q-33 0 -73 21q-65 31 -146 31q-119 0 -195.5 -75t-76.5 -190q0 -117 76.5 -190.5t195.5 -73.5q81 0 146 31q40 21 73 21q7 0 13 -1 q38 -5 69 -45l41 -51q29 -35 29 -72q0 -7 -1 -15q-7 -45 -58 -73q-147 -86 -334 -86q-179 0 -321.5 74t-220 199.5t-77.5 277.5z" />
<glyph unicode="d" horiz-adv-x="1368" d="M55 532q0 238 144.5 396.5t363.5 158.5q104 0 188 -42t134 -123v448q0 111 110 111h148q110 0 110 -111v-1259q0 -111 -110 -111h-148q-110 0 -110 111v30q-51 -79 -135 -121.5t-187 -42.5q-219 0 -363.5 158.5t-144.5 396.5zM424 532q0 -115 63 -191.5t168 -76.5 t169.5 76t66.5 192q-2 116 -66.5 192.5t-169.5 76.5t-168 -77t-63 -192z" />
<glyph unicode="e" horiz-adv-x="1265" d="M53 528q0 111 40.5 212t114 178t186.5 123t249 46q120 0 224 -36t181 -102q78 -65 124 -167q48 -106 47 -230q-1 -44 -29 -65q-30 -22 -84 -22h-707q0 -77 83 -141t220 -64q113 0 211 53q38 19 70 19q49 0 84 -45l29 -37q29 -34 29 -72q0 -6 -1 -12q-5 -45 -51 -76 q-167 -113 -399 -113q-142 0 -260.5 43t-196.5 118t-121 175.5t-43 214.5zM406 649h475q-11 86 -79 129t-157 43q-88 0 -156.5 -43.5t-82.5 -128.5z" />
<glyph unicode="f" horiz-adv-x="843" d="M49 852v135q0 57 57 57h80v62q0 92 26 163.5t66.5 114.5t96.5 70.5t110.5 38t114.5 10.5q70 0 132.5 -15.5t117 -48t87 -90.5t32.5 -135q0 -20 -2 -30q-6 -49 -56 -49h-170q-21 0 -32 11.5t-11 27.5v10q0 25 -21.5 42t-53.5 17q-38 0 -59 -24t-21 -66v-109h166 q27 0 42 -15t15 -42v-135q0 -27 -15 -42t-42 -15h-160v-684q0 -54 -28.5 -82.5t-82.5 -28.5h-139q-54 0 -83.5 28.5t-29.5 82.5v684h-80q-57 0 -57 57z" />
<glyph unicode="g" horiz-adv-x="1351" d="M55 532q0 151 64 278t180 202t258 75q106 0 189.5 -42t132.5 -123v47q0 96 110 96h139q54 0 82.5 -28.5t28.5 -82.5v-845q0 -156 -47 -272.5t-131.5 -184.5t-191 -100.5t-236.5 -32.5q-234 0 -418 88q-48 21 -59 63q-3 12 -3 24q0 30 19 62l31 56q34 59 87 59 q27 0 60 -16q123 -60 244 -60q133 0 212 73t79 220v53q-49 -79 -135.5 -121.5t-192.5 -42.5q-142 0 -258 75t-180 202t-64 278zM416 532q0 -116 64.5 -194t170.5 -78q104 0 169 78t65 194t-65 194.5t-169 78.5q-106 0 -170.5 -78.5t-64.5 -194.5z" />
<glyph unicode="h" horiz-adv-x="1271" d="M115 111v1259q0 111 110 111h148q110 0 110 -111v-457q88 174 310 174q89 0 157 -29t109 -74.5t67 -109t35.5 -125.5t9.5 -131v-507q0 -111 -110 -111h-148q-110 0 -110 111v477q0 207 -146 207q-81 0 -127.5 -62.5t-46.5 -169.5v-452q0 -111 -110 -111h-148 q-110 0 -110 111z" />
<glyph unicode="i" horiz-adv-x="600" d="M88 1337q0 77 55 126.5t156 49.5q102 0 157.5 -49.5t55.5 -126.5t-57 -126.5t-156 -49.5q-97 0 -154 49.5t-57 126.5zM115 111v843q0 111 110 111h148q110 0 110 -111v-843q0 -111 -110 -111h-148q-110 0 -110 111z" />
<glyph unicode="j" horiz-adv-x="671" d="M-229 -195q0 21 2 31q6 49 55 49h170q21 0 32 -11.5t11 -27.5v-10q0 -25 19 -42t51 -17q38 0 57.5 24t19.5 66l2 1087q0 54 28.5 82.5t82.5 28.5h141q53 0 82 -28.5t29 -82.5v-1040q0 -92 -26 -163.5t-66.5 -114.5t-96.5 -70.5t-110.5 -38t-114.5 -10.5 q-70 0 -132.5 15.5t-117 47.5t-86.5 90t-32 135zM164 1337q0 77 55 126.5t156 49.5q102 0 157.5 -49.5t55.5 -126.5t-57 -126.5t-156 -49.5q-97 0 -154 49.5t-57 126.5z" />
<glyph unicode="k" horiz-adv-x="1277" d="M113 111v1259q0 111 110 111h148q110 0 110 -111v-735l236 358q48 72 131 72h166q68 0 88 -39q6 -13 7 -27q0 -30 -28 -69l-268 -359l121 -200q32 -54 65 -74.5t74 -20.5q22 0 49 9q16 4 31 4q47 0 66 -41l49 -103q9 -20 9 -38q0 -43 -52 -70q-109 -60 -234 -60 q-134 0 -228.5 65t-160.5 202l-121 241v-374q0 -111 -110 -111h-148q-110 0 -110 111z" />
<glyph unicode="l" horiz-adv-x="600" d="M115 111v1259q0 111 110 111h148q110 0 110 -111v-1259q0 -111 -110 -111h-148q-110 0 -110 111z" />
<glyph unicode="m" horiz-adv-x="1859" d="M115 111v843q0 111 110 111h148q110 0 110 -111v-41q27 81 100 127.5t167 46.5q202 0 294 -167q38 52 78.5 87t84.5 51.5t83 22.5t88 6q82 0 149 -29t109.5 -75.5t71.5 -109t41 -126.5t12 -131v-505q0 -111 -110 -111h-148q-110 0 -110 111v485q0 92 -31 145.5t-94 53.5 q-66 0 -105.5 -57t-40.5 -160v-467q0 -111 -110 -111h-148q-110 0 -110 111v485q0 92 -31 145.5t-94 53.5q-67 0 -106.5 -59.5t-39.5 -164.5v-460q0 -111 -110 -111h-148q-110 0 -110 111z" />
<glyph unicode="n" horiz-adv-x="1273" d="M115 111v843q0 111 110 111h148q110 0 110 -111v-41q88 174 310 174q89 0 157 -29t109 -74.5t67 -109t35.5 -125.5t9.5 -131v-507q0 -111 -110 -111h-148q-110 0 -110 111v477q0 207 -146 207q-81 0 -127.5 -62.5t-46.5 -169.5v-452q0 -111 -110 -111h-148 q-110 0 -110 111z" />
<glyph unicode="o" horiz-adv-x="1308" d="M51 532q0 114 45.5 216t124 176.5t191 118.5t241.5 44t242 -43.5t191.5 -118.5t123.5 -177t45 -216t-45 -216t-123.5 -177t-191.5 -118.5t-242 -43.5t-241.5 44t-191 118.5t-124 176.5t-45.5 216zM397 532q0 -113 73 -188.5t183 -75.5q111 0 184.5 75t73.5 189 t-73.5 188.5t-184.5 74.5q-110 0 -183 -75t-73 -188z" />
<glyph unicode="p" d="M115 -348v1302q0 111 110 111h148q110 0 110 -111v-30q49 79 133 121t189 42q218 0 362 -158.5t144 -396.5t-144 -396.5t-362 -158.5q-105 0 -189 42.5t-133 121.5v-489q0 -111 -110 -111h-148q-110 0 -110 111zM477 532q0 -116 65 -192t171 -76q105 0 167 76t62 192 t-62 192.5t-167 76.5q-106 0 -171 -76.5t-65 -192.5z" />
<glyph unicode="q" d="M55 532q0 238 144 396.5t362 158.5q105 0 189 -42t135 -121v30q0 111 110 111h148q110 0 110 -111v-1302q0 -111 -110 -111h-148q-110 0 -110 111v489q-51 -79 -135 -121.5t-189 -42.5q-218 0 -362 158.5t-144 396.5zM424 532q0 -116 62.5 -192t168.5 -76q105 0 169.5 76 t64.5 192t-64.5 192.5t-169.5 76.5q-106 0 -168.5 -76.5t-62.5 -192.5z" />
<glyph unicode="r" horiz-adv-x="858" d="M115 111v843q0 111 110 111h135q53 0 82 -28.5t29 -82.5v-118q10 59 34.5 105.5t54 73t65 43.5t63.5 23t53 6q27 0 31 -2q64 0 64 -84v-184q0 -45 -22 -66t-58 -16q-18 2 -49 2q-110 0 -167 -73t-57 -215v-338q0 -111 -110 -111h-148q-110 0 -110 111z" />
<glyph unicode="s" horiz-adv-x="997" d="M72 282q22 36 78 50l71 16q17 4 31 4q20 0 34 -8q24 -12 62 -49q6 -7 10 -10q52 -49 142 -49q55 0 86.5 19t31.5 54q0 24 -19 40.5t-67 33.5l-124 45q-126 44 -190 89q-126 90 -126 228q0 152 117 247t297 95q234 0 346 -155q21 -32 21 -60q-1 -16 -7 -30 q-18 -40 -75 -56l-66 -18q-21 -6 -39 -6q-16 0 -30 5q-28 10 -64 40q-34 31 -88 31q-40 0 -64 -20.5t-24 -49.5q0 -26 21 -42.5t63 -29.5l127 -49q314 -110 317 -332q0 -110 -62.5 -188.5t-160.5 -114t-221 -35.5q-154 0 -264.5 55.5t-163.5 164.5q-12 25 -12 47q1 20 12 38 z" />
<glyph unicode="t" horiz-adv-x="968" d="M37 852v156q0 57 57 57h129l37 201q9 69 84 69h129q78 0 78 -75v-195h215q57 0 57 -57v-156q0 -57 -57 -57h-215v-441q0 -45 18.5 -66.5t48.5 -21.5q35 0 54.5 26t19.5 64q0 23 -2 35q-1 6 -1 12q0 48 48 48h137q53 0 64 -43q9 -27 14 -82q0 -94 -31.5 -164t-86 -109 t-118.5 -57.5t-138 -18.5q-59 0 -111.5 10.5t-104.5 37.5t-89 69t-60 110t-23 156v435h-96q-57 0 -57 57z" />
<glyph unicode="u" horiz-adv-x="1271" d="M100 446v508q0 54 28.5 82.5t82.5 28.5h147q54 0 82.5 -28.5t28.5 -82.5v-477q0 -94 35 -151.5t112 -57.5q81 0 128 63.5t47 170.5v452q0 111 110 111h148q110 0 110 -111v-843q0 -111 -110 -111h-148q-110 0 -110 111v39q-42 -82 -121.5 -127.5t-190.5 -45.5 q-89 0 -157 29t-109 74.5t-67.5 109t-36 125.5t-9.5 131z" />
<glyph unicode="v" horiz-adv-x="1280" d="M60 1029q23 36 85 36h164q97 0 127 -90l201 -576l207 576q31 90 125 90h164q62 0 86 -36q12 -17 12 -39q0 -24 -14 -54l-367 -852q-40 -84 -129 -84h-160q-92 0 -129 84l-369 852q-14 30 -14 55q0 21 11 38z" />
<glyph unicode="w" horiz-adv-x="1693" d="M63 938q-10 26 -10 48q-1 25 13 44q26 35 88 35h170q100 0 120 -94l131 -473l136 446q26 92 123 92h26q97 0 123 -92l133 -446l131 473q23 94 123 94h170q60 0 85 -35q14 -19 14 -46q0 -21 -9 -46l-301 -850q-29 -88 -125 -88h-98q-101 0 -127 92l-133 443l-133 -443 q-26 -92 -125 -92h-99q-94 0 -124 88z" />
<glyph unicode="x" horiz-adv-x="1304" d="M54 41q-5 12 -5 25q0 32 31 71l348 412l-305 381q-30 39 -30 70q0 14 6 26q19 40 89 39h162q84 0 135 -66l166 -206l168 206q51 66 135 66h164q72 1 90 -39q5 -12 5 -25q0 -31 -31 -71l-305 -381l346 -412q31 -38 31 -70q0 -14 -6 -26q-19 -41 -89 -41h-145 q-81 0 -135 63l-228 265l-225 -265q-54 -63 -135 -63h-148q-71 0 -89 41z" />
<glyph unicode="y" horiz-adv-x="1247" d="M60 1029q24 36 87 36h166q97 0 127 -90l187 -512l194 514q34 88 127 88h156q62 0 86 -36q11 -17 11 -40q0 -24 -13 -53l-578 -1311q-36 -84 -129 -84h-127q-63 0 -86 36q-12 18 -12 41t12 52l181 418l-386 848q-14 30 -14 54q0 22 11 39z" />
<glyph unicode="z" horiz-adv-x="1218" d="M63 111v16q0 78 54 135l483 520h-405q-54 0 -82.5 28.5t-28.5 82.5v61q0 54 28.5 82.5t82.5 28.5h821q110 0 110 -111v-20q0 -79 -53 -135l-479 -516h455q110 0 110 -111v-61q-3 -111 -112 -111h-873q-54 0 -82.5 28.5t-28.5 82.5z" />
<glyph unicode="{" horiz-adv-x="833" d="M63 481v74q0 51 39 57l43 9q67 10 95.5 38.5t9.5 90.5q-16 53 -55 157t-56.5 173.5t-17.5 144.5q0 86 32.5 152.5t88.5 105.5t127 58.5t153 19.5q45 0 205 -13q53 -6 53 -61v-107q0 -28 -16 -42t-45 -11q-97 10 -141 10q-140 0 -140 -141q0 -51 19.5 -119.5t43 -125 t43 -124t19.5 -116.5q0 -81 -42 -130t-148 -63v-4q53 -6 92.5 -27.5t59.5 -50t29 -56.5t9 -54q0 -61 -31.5 -151t-62.5 -181t-31 -154q0 -141 140 -141q63 0 141 10q29 3 45 -11t16 -42v-107q0 -55 -65 -61q-144 -12 -193 -12q-82 0 -153 20t-127 59t-88.5 105t-32.5 152 q0 75 17.5 144.5t56.5 173.5t55 157q19 61 -10 90t-95 39l-28 6q-54 6 -54 59z" />
<glyph unicode="|" horiz-adv-x="534" d="M125 -434v1929q0 55 55 55h172q58 0 58 -55v-1929q0 -55 -58 -55h-172q-55 0 -55 55z" />
<glyph unicode="}" horiz-adv-x="833" d="M51 -344q0 28 16.5 42t47.5 11q76 -10 139 -10q44 0 73.5 12.5t42.5 35t18 44t5 49.5q0 77 -61.5 245t-61.5 241q0 26 9.5 54t29.5 56.5t59 50t91 27.5v4q-104 14 -146.5 63.5t-42.5 129.5q0 49 19 116.5t42.5 124t42.5 125t19 119.5q0 141 -139 141q-44 0 -139 -10 q-31 -3 -47.5 11t-16.5 42v107q0 55 55 61q160 13 205 13q82 0 152.5 -19.5t127 -59t88.5 -105.5t32 -152q0 -75 -17.5 -144.5t-56.5 -173.5t-55 -157q-18 -62 10 -90.5t94 -38.5l45 -9q37 -6 37 -57v-74q0 -53 -51 -59l-29 -6q-67 -10 -96 -39t-10 -90q16 -53 55 -157 t56.5 -173.5t17.5 -144.5q0 -86 -32 -152t-88.5 -105t-127 -59t-152.5 -20q-48 0 -192 12q-68 6 -68 61v107z" />
<glyph unicode="~" horiz-adv-x="1181" d="M106 618q-26 49 0 89q43 69 115.5 115t151.5 46q58 0 114.5 -22.5t94.5 -49t88 -49t96 -22.5q72 0 131 49q56 38 88 -14l86 -146q29 -50 0 -86q-44 -64 -118 -101.5t-154 -37.5q-58 0 -113.5 22.5t-92.5 49t-87.5 49t-99.5 22.5q-76 0 -132 -59q-51 -51 -84 4z" />
<glyph unicode="&#xa1;" horiz-adv-x="620" d="M90 -240l86 729q4 38 28 59t62 21h90q77 0 90 -80l86 -729v-45q0 -40 -22.5 -62t-63.5 -22h-272q-41 0 -62.5 22t-21.5 62v45zM92 897q0 82 61 136t154 54q91 0 154 -54.5t63 -135.5q0 -84 -62.5 -139.5t-154.5 -55.5q-94 0 -154.5 55t-60.5 140z" />
<glyph unicode="&#xa2;" horiz-adv-x="1200" d="M70 528q0 114 44.5 216t123 176.5t192.5 119.5t246 47h24l25 121q6 52 59 52h31q28 0 41.5 -16.5t9.5 -45.5l-24 -129q133 -30 239 -104q43 -34 9 -80l-109 -133q-31 -40 -80 -13q-45 31 -110 47l-95 -518q106 -7 205 56q49 30 82 -11l107 -135q34 -44 -9 -78 q-168 -126 -438 -120l-22 -130q-9 -51 -64 -51h-25q-28 0 -41.5 16.5t-9.5 45.5l25 139q-198 49 -317 194t-119 334zM438 532q0 -74 32.5 -132.5t90.5 -92.5l88 484q-95 -20 -153 -91t-58 -168z" />
<glyph unicode="&#xa3;" horiz-adv-x="1308" d="M72 57v168q0 55 37 58l30 6q240 44 240 192q0 45 -12 82h-207q-47 0 -47 49v56q0 49 47 49h133q-76 195 -76 315q0 122 66.5 219t182 151t257.5 54q112 0 201 -34.5t144.5 -92.5t87 -126t40.5 -144q1 -28 -14 -44t-41 -16h-223q-45 0 -58 56q-21 86 -147 86 q-68 0 -110 -34.5t-42 -96.5q0 -38 22 -121t58 -172h297q49 0 49 -49v-56q0 -49 -49 -49h-246q24 -70 13 -123q-11 -93 -89 -139v-10q136 4 226 4h336q55 0 55 -55v-183q0 -57 -55 -57h-1051q-55 0 -55 57z" />
<glyph unicode="&#xa4;" horiz-adv-x="1150" d="M117 305q-40 43 0 80l102 102q-41 74 -41 187q0 88 41 172l-94 98q-37 40 0 80l94 96q41 44 80 -2l88 -94q73 45 191 45q115 0 188 -45l88 94q38 44 80 2l94 -96q37 -40 0 -80l-94 -98q41 -84 41 -172q0 -113 -41 -187l102 -102q40 -37 0 -80l-88 -92q-39 -43 -80 -2 l-106 106q-78 -41 -184 -41q-109 0 -187 41l-106 -106q-41 -41 -80 2zM416 672q0 -70 46 -118t116 -48q68 0 113.5 48t45.5 118q0 71 -45.5 119.5t-113.5 48.5q-70 0 -116 -48.5t-46 -119.5z" />
<glyph unicode="&#xa5;" horiz-adv-x="1599" d="M96.5 1412q12.5 22 50.5 22h273q55 0 78 -43l303 -492l305 492q23 43 78 43h268q38 0 50.5 -22t-7.5 -56l-459 -701h236q41 0 41 -41v-75q0 -41 -41 -41h-283v-140h283q41 0 41 -41v-77q0 -41 -41 -41h-283v-136q0 -29 -17 -46t-48 -17h-248q-29 0 -46.5 17t-17.5 46v136 h-284q-41 0 -41 41v77q0 41 41 41h284v140h-284q-41 0 -41 41v75q0 41 41 41h231l-455 701q-20 34 -7.5 56z" />
<glyph unicode="&#xa6;" horiz-adv-x="559" d="M137 287q0 57 56 57h172q57 0 57 -57v-721q0 -55 -57 -55h-172q-26 0 -41 14.5t-15 40.5v721zM137 774v721q0 57 56 57h172q57 0 57 -57v-721q0 -57 -57 -57h-172q-56 0 -56 57z" />
<glyph unicode="&#xa7;" horiz-adv-x="1226" d="M94 -41l56 102q28 63 88 19q186 -123 385 -123q101 0 146.5 31.5t45.5 81.5q0 29 -22.5 50.5t-49 32.5t-73.5 25l-185 49q-101 26 -175 69t-113 93.5t-56.5 98.5t-17.5 96q0 69 40.5 137t110.5 115q-149 90 -149 258q0 107 68 191t178.5 127.5t240.5 43.5 q102 0 215 -23.5t209 -70.5q57 -28 25 -88l-60 -111q-26 -53 -88 -28q-158 63 -290 63q-177 0 -177 -96q0 -78 119 -107l180 -41q192 -49 291 -134.5t99 -221.5q0 -69 -36 -145t-102 -127q142 -102 142 -242q0 -161 -140 -271t-381 -110q-153 0 -283 46t-224 122 q-41 38 -17 88zM424 598q0 -35 24.5 -67t77.5 -44l215 -59q42 17 69.5 55.5t29.5 77.5q0 84 -101 113l-209 49q-106 -41 -106 -125z" />
<glyph unicode="&#xa8;" horiz-adv-x="1394" d="M250 1358q0 71 53.5 118.5t132.5 47.5q76 0 131.5 -48t55.5 -118q0 -68 -55.5 -115t-131.5 -47q-79 0 -132.5 46.5t-53.5 115.5zM774 1358q0 71 52 118.5t130 47.5q79 0 134 -48t55 -118q0 -69 -55 -115.5t-134 -46.5q-78 0 -130 46.5t-52 115.5z" />
<glyph unicode="&#xa9;" horiz-adv-x="1601" d="M78 717q0 201 95 371t261.5 269t366.5 99t366.5 -99t261.5 -269t95 -371t-95 -371t-261.5 -269.5t-366.5 -99.5t-366.5 99.5t-261.5 269.5t-95 371zM207 717q0 -124 46.5 -237.5t125 -196.5t189 -132t233.5 -49t233.5 49t189 132t125 196.5t46.5 237.5q0 166 -78 307 t-215 224t-301 83t-301 -83t-215 -224t-78 -307zM403 717q0 163 114.5 276t299.5 113q116 0 227 -72q51 -33 21 -88l-21 -35q-28 -51 -88 -20q-67 31 -139 31q-100 0 -155.5 -59t-55.5 -146t55.5 -146t155.5 -59q80 0 139 33q60 28 88 -23l23 -35q31 -57 -20 -86 q-110 -73 -230 -73q-185 0 -299.5 113t-114.5 276z" />
<glyph unicode="&#xaa;" horiz-adv-x="915" d="M68 1083q0 155 82 257t229 102q57 0 119 -29t96 -82v41q0 58 57 58h111q57 0 57 -58v-581q0 -56 -57 -56h-111q-57 0 -57 56v43q-33 -51 -97 -81t-120 -30q-146 0 -227.5 102t-81.5 258zM113 485v41q0 58 55 58h590q55 0 55 -58v-41q0 -57 -55 -57h-590q-55 0 -55 57z M299 1083q0 -66 40.5 -112.5t104.5 -46.5q65 0 107 42t45 113q0 72 -43 117t-109 45q-65 0 -105 -46t-40 -112z" />
<glyph unicode="&#xab;" horiz-adv-x="1343" d="M66 623q0 30 26 63l359 412q35 44 77 2l117 -109q38 -38 4 -80l-250 -290l248 -287q36 -43 -4 -80l-115 -113q-40 -43 -77 4l-359 410q-26 29 -26 68zM653 623q0 29 27 63l356 412q38 44 80 2l117 -109q38 -38 4 -80l-250 -290l248 -287q36 -43 -4 -80l-115 -113 q-40 -43 -80 4l-356 410q-27 30 -27 68z" />
<glyph unicode="&#xac;" horiz-adv-x="1271" d="M94 731v207q0 26 15 40.5t41 14.5h940q57 0 57 -55l-2 -514q0 -57 -58 -57h-198q-55 0 -55 57v250h-684q-56 0 -56 57z" />
<glyph unicode="&#xad;" horiz-adv-x="1050" d="M117 514v209q0 55 57 55h703q55 0 55 -55v-209q0 -57 -55 -57h-703q-57 0 -57 57z" />
<glyph unicode="&#xae;" horiz-adv-x="1601" d="M78 717q0 201 95 371t261.5 269t366.5 99t366.5 -99t261.5 -269t95 -371t-95 -371t-261.5 -269.5t-366.5 -99.5t-366.5 99.5t-261.5 269.5t-95 371zM207 717q0 -124 46.5 -237.5t125 -196.5t189 -132t233.5 -49t233.5 49t189 132t125 196.5t46.5 237.5q0 166 -78 307 t-215 224t-301 83t-301 -83t-215 -224t-78 -307zM532 418v610q0 30 17 47t47 17h266q115 0 181.5 -74t66.5 -182q0 -76 -37.5 -136t-103.5 -86l116 -184q22 -32 9.5 -54t-50.5 -22h-73q-55 0 -76 43l-115 195h-51v-174q0 -64 -63 -64h-70q-64 0 -64 64zM729 750h113 q31 0 49 26t18 60q0 39 -18 66.5t-49 27.5h-113v-180z" />
<glyph unicode="&#xaf;" horiz-adv-x="1169" d="M250 1311v108q0 58 57 58h555q58 0 58 -58v-108q0 -58 -58 -58h-555q-57 0 -57 58z" />
<glyph unicode="&#xb0;" horiz-adv-x="837" d="M66 1128q0 150 99.5 251.5t254.5 101.5q154 0 254 -102t100 -251q0 -146 -100 -246t-254 -100q-155 0 -254.5 99.5t-99.5 246.5zM266 1130q0 -64 44.5 -112.5t109.5 -48.5q64 0 107.5 48t43.5 113q0 66 -43 115t-108 49t-109.5 -49t-44.5 -115z" />
<glyph unicode="&#xb1;" horiz-adv-x="1286" d="M119 164v147q0 58 57 58h934q57 0 57 -58v-147q0 -58 -57 -58h-934q-57 0 -57 58zM119 768v145q0 58 57 58h309v194q0 26 15 41t43 15h205q26 0 40.5 -15t14.5 -41v-194h307q57 0 57 -58v-145q0 -55 -57 -55h-307v-197q0 -57 -55 -57h-205q-58 0 -58 57v197h-309 q-57 0 -57 55z" />
<glyph unicode="&#xb2;" horiz-adv-x="681" d="M49 1051q-3 27 17 47l268 239q80 76 80 127q0 34 -22.5 55t-59.5 21q-36 0 -57.5 -20.5t-28.5 -51.5q-5 -19 -14 -27.5t-27 -8.5h-113q-19 0 -29.5 10t-9.5 28q11 101 83 167.5t200 66.5q122 0 198 -66.5t76 -167.5q0 -143 -149 -260l-105 -80h238q39 0 39 -36v-86 q0 -37 -39 -37h-498q-35 0 -41 35z" />
<glyph unicode="&#xb3;" horiz-adv-x="661" d="M47 1083l49 66q19 27 58 10q65 -41 147 -41q49 0 82 31.5t33 69.5q0 41 -31 68.5t-74 27.5q-26 0 -55 -10q-36 -9 -53 14l-29 35q-22 31 6 53l154 125h-221q-39 0 -39 39v84q0 37 39 37h436q39 0 39 -37v-45q0 -29 -21 -47l-155 -140q87 -7 143.5 -65.5t56.5 -138.5 q0 -109 -85.5 -186t-227.5 -77q-147 0 -246 74q-29 23 -6 53z" />
<glyph unicode="&#xb4;" horiz-adv-x="1050" d="M297.5 1206q-11.5 18 3.5 47l121 240q21 41 67 41h236q36 0 45.5 -20.5t-14.5 -49.5l-215 -245q-24 -31 -70 -31h-129q-33 0 -44.5 18z" />
<glyph unicode="&#xb5;" horiz-adv-x="1292" d="M117 -242v1196q0 111 110 111h146q110 0 110 -111v-487q0 -87 36.5 -143t111.5 -56q81 0 127.5 63.5t46.5 170.5v452q0 111 110 111h148q54 0 82.5 -28.5t28.5 -82.5v-843q0 -54 -28.5 -82.5t-82.5 -28.5h-148q-110 0 -110 111v39q-70 -140 -252 -152q-49 -4 -111 6v-246 q0 -110 -110 -110h-105q-110 0 -110 110z" />
<glyph unicode="&#xb6;" horiz-adv-x="1396" d="M61 1085q0 147 99 248t243 101h338v-50q-35 -26 -54 -62t-19 -99v-1446q0 -29 -17.5 -46.5t-48.5 -17.5h-65q-29 0 -46.5 17.5t-17.5 46.5v964h-70q-145 0 -243.5 99.5t-98.5 244.5zM807 -223v1423q0 124 76.5 190t189.5 66q129 0 197.5 -65t68.5 -168q0 -23 -6 -56 q-11 -55 -71 -55h-58q-34 0 -49 12.5t-10 34.5q6 25 6 41q0 35 -22.5 54.5t-53.5 19.5q-34 0 -56 -21t-22 -61v-1415q0 -29 -17.5 -46.5t-47.5 -17.5h-62q-30 0 -46.5 17t-16.5 47z" />
<glyph unicode="&#xb7;" horiz-adv-x="614" d="M92 575q0 85 61 141t154 56q91 0 154 -56.5t63 -140.5q0 -81 -62.5 -134.5t-154.5 -53.5q-94 0 -154.5 53t-60.5 135z" />
<glyph unicode="&#xb8;" horiz-adv-x="1105" d="M258 -289q-23 48 25 78l57 33q42 25 80 -19q52 -57 117 -57q45 0 78.5 30.5t33.5 82.5q0 37 -21.5 76t-62.5 67l-39 21v22q0 12 11 21.5t26 9.5q49 0 82 -13q117 -44 170 -115t53 -153q0 -65 -30 -116t-77 -80t-98.5 -43.5t-101.5 -14.5q-92 0 -173.5 44t-129.5 126z" />
<glyph unicode="&#xb9;" horiz-adv-x="481" d="M20 1530q-12 34 21 51l235 102q21 9 48 9h45q39 0 39 -37v-647q0 -39 -39 -39h-119q-37 0 -37 39v473l-117 -47q-37 -16 -49 20z" />
<glyph unicode="&#xba;" horiz-adv-x="901" d="M70 1083q0 148 114 255.5t267 107.5q152 0 266 -108t114 -255q0 -150 -113.5 -257t-266.5 -107q-154 0 -267.5 106.5t-113.5 257.5zM90 485v41q0 58 57 58h607q57 0 57 -58v-41q0 -57 -57 -57h-607q-57 0 -57 57zM303 1083q0 -67 42 -112t106 -45q62 0 104.5 45.5 t42.5 111.5q0 65 -42.5 111.5t-104.5 46.5q-64 0 -106 -46t-42 -112z" />
<glyph unicode="&#xbb;" horiz-adv-x="1343" d="M106 911q-33 42 5 80l116 109q42 42 80 -2l359 -412q24 -31 24 -63q0 -41 -24 -68l-359 -410q-40 -47 -80 -4l-114 113q-38 38 -2 80l245 287zM694 911q-34 42 4 80l117 109q42 42 80 -2l356 -412q27 -31 27 -63q0 -41 -27 -68l-356 -410q-40 -47 -80 -4l-115 113 q-38 38 -2 80l246 287z" />
<glyph unicode="&#xbc;" horiz-adv-x="1763" d="M70 1272q-12 33 20 49l236 102q19 11 47 11h45q39 0 39 -39v-645q0 -39 -39 -39h-119q-37 0 -37 39v473l-117 -49q-37 -13 -49 22zM248 -62q-10 18 8 44l1053 1491q22 32 61 32h55q31 0 41 -17.5t-8 -43.5l-1055 -1491q-23 -33 -61 -33h-53q-31 0 -41 18zM1020 217v41 q0 28 16 49l326 393q20 23 47 23h104q39 0 39 -39v-367h105q39 0 39 -36v-64q0 -37 -39 -37h-105v-141q0 -39 -39 -39h-116q-39 0 -39 39v141h-301q-37 0 -37 37zM1217 317h155v183z" />
<glyph unicode="&#xbd;" horiz-adv-x="1792" d="M70 1272q-12 33 20 49l236 102q19 11 47 11h45q39 0 39 -39v-645q0 -39 -39 -39h-119q-37 0 -37 39v473l-117 -49q-37 -13 -49 22zM248 -62q-10 18 8 44l1053 1491q22 32 61 32h55q31 0 41 -17.5t-8 -43.5l-1055 -1491q-23 -33 -61 -33h-53q-31 0 -41 18zM1130 80 q-3 27 19 49l266 238q80 72 80 129q0 33 -22 54t-58 21q-68 0 -88 -73q-9 -37 -39 -37h-112q-42 0 -39 39q12 101 82 168t198 67q122 0 198.5 -66.5t76.5 -168.5q0 -139 -148 -260l-104 -78h237q39 0 39 -39v-84q0 -39 -39 -39h-497q-37 0 -43 37z" />
<glyph unicode="&#xbe;" horiz-adv-x="1830" d="M86 825l49 66q19 27 55 8q68 -39 148 -39q50 0 83.5 30.5t33.5 67.5q0 41 -31.5 70t-73.5 29q-26 0 -57 -10q-33 -9 -53 14l-27 35q-24 29 6 53l154 125h-223q-37 0 -37 39v82q0 39 37 39h438q39 0 39 -39v-43q0 -29 -21 -47l-157 -140q89 -9 145.5 -66.5t56.5 -137.5 q0 -109 -85.5 -186t-227.5 -77q-147 0 -246 72q-32 26 -6 55zM319.5 -62q-9.5 18 8.5 44l1052 1491q22 32 62 32h53q31 0 41 -17.5t-8 -43.5l-1055 -1491q-23 -33 -61 -33h-52q-31 0 -40.5 18zM1094 217v41q0 28 16 49l326 393q20 23 47 23h104q39 0 39 -39v-367h105 q38 0 38 -36v-64q0 -37 -38 -37h-105v-141q0 -39 -39 -39h-117q-38 0 -38 39v141h-299q-39 0 -39 37zM1290 317h156v183z" />
<glyph unicode="&#xbf;" horiz-adv-x="1097" d="M57 4q0 58 17 111t44 95t72 86.5t88.5 78t106.5 76.5q68 45 70 84v10q0 24 43 24h192q55 0 55 -39v-16q0 -40 -3.5 -64.5t-16 -57t-41.5 -62t-76 -60.5q-105 -69 -150.5 -117.5t-45.5 -111.5q0 -64 41.5 -97.5t107.5 -33.5q62 0 104 34t42 93v20q0 52 51 52h217 q55 0 61 -48q6 -34 6 -53q0 -69 -31 -138t-88.5 -128t-153 -96t-212.5 -37q-224 0 -362 108.5t-138 286.5zM387 897q0 81 63 135.5t154 54.5q93 0 154 -54t61 -136q0 -85 -60.5 -140t-154.5 -55q-92 0 -154.5 55.5t-62.5 139.5z" />
<glyph unicode="&#xc0;" horiz-adv-x="1458" d="M49 127l469 1221q35 86 129 86h160q92 0 127 -86l479 -1221q22 -57 -1.5 -92t-84.5 -35h-166q-92 0 -127 86l-63 168h-492l-61 -166q-30 -88 -125 -88h-158q-62 0 -85.5 35t-0.5 92zM420.5 1824.5q9.5 20.5 46.5 20.5h217q46 0 66 -41l96 -190q15 -29 3 -47.5t-44 -18.5 h-129q-42 0 -70 31l-170 197q-25 28 -15.5 48.5zM545 549h356l-174 491z" />
<glyph unicode="&#xc1;" horiz-adv-x="1458" d="M49 127l469 1221q35 86 129 86h160q92 0 127 -86l479 -1221q22 -57 -1.5 -92t-84.5 -35h-166q-92 0 -127 86l-63 168h-492l-61 -166q-30 -88 -125 -88h-158q-62 0 -85.5 35t-0.5 92zM545 549h356l-174 491zM622.5 1566.5q-11.5 18.5 2.5 47.5l96 190q20 41 67 41h216 q37 0 46 -20.5t-14 -48.5l-172 -197q-28 -31 -69 -31h-129q-32 0 -43.5 18.5z" />
<glyph unicode="&#xc2;" horiz-adv-x="1458" d="M49 127l469 1221q35 86 129 86h160q92 0 127 -86l479 -1221q22 -57 -1.5 -92t-84.5 -35h-166q-92 0 -127 86l-63 168h-492l-61 -166q-30 -88 -125 -88h-158q-62 0 -85.5 35t-0.5 92zM394.5 1568q-10.5 20 8.5 48l134 194q27 35 69 35h246q46 0 68 -35l137 -194 q20 -29 8.5 -48.5t-45.5 -19.5h-92q-39 0 -70 27l-127 123l-129 -123q-31 -27 -70 -27h-92q-35 0 -45.5 20zM545 549h356l-174 491z" />
<glyph unicode="&#xc3;" horiz-adv-x="1458" d="M49 127l469 1221q35 86 129 86h160q92 0 127 -86l479 -1221q22 -57 -1.5 -92t-84.5 -35h-166q-92 0 -127 86l-63 168h-492l-61 -166q-30 -88 -125 -88h-158q-62 0 -85.5 35t-0.5 92zM334 1606q-10 19 0 47q35 99 85.5 149.5t143.5 50.5q57 0 117 -24t107.5 -48t74.5 -24 q75 0 107 58q22 43 73 28l52 -16q54 -19 36 -74q-37 -100 -87 -150.5t-144 -50.5q-57 0 -117 24t-107.5 48.5t-74.5 24.5q-72 0 -104 -58q-27 -46 -74 -28l-53 16q-25 8 -35 27zM545 549h356l-174 491z" />
<glyph unicode="&#xc4;" horiz-adv-x="1458" d="M49 127l469 1221q35 86 129 86h160q92 0 127 -86l479 -1221q22 -57 -1.5 -92t-84.5 -35h-166q-92 0 -127 86l-63 168h-492l-61 -166q-30 -88 -125 -88h-158q-62 0 -85.5 35t-0.5 92zM293 1698q0 70 48.5 113.5t129.5 43.5q76 0 127 -44.5t51 -112.5q0 -69 -51 -112.5 t-127 -43.5q-81 0 -129.5 42.5t-48.5 113.5zM545 549h356l-174 491zM815 1698q0 69 49 113t127 44t129 -44t51 -113q0 -70 -50.5 -113t-129.5 -43q-78 0 -127 43t-49 113z" />
<glyph unicode="&#xc5;" horiz-adv-x="1458" d="M49 127l469 1221q35 86 129 86h160q92 0 127 -86l479 -1221q22 -57 -1.5 -92t-84.5 -35h-166q-92 0 -127 86l-63 168h-492l-61 -166q-30 -88 -125 -88h-158q-62 0 -85.5 35t-0.5 92zM459 1753q0 110 76.5 171t193.5 61q119 0 197 -61t78 -171t-78 -170.5t-197 -60.5 q-118 0 -194 60.5t-76 170.5zM545 549h356l-174 491zM616 1753q0 -44 31.5 -72t81.5 -28t81.5 28t31.5 72q0 42 -31.5 68t-81.5 26t-81.5 -26t-31.5 -68z" />
<glyph unicode="&#xc6;" horiz-adv-x="1964" d="M38.5 37q-22.5 37 8.5 94l645 1223q44 80 131 80h942q54 0 82.5 -28.5t28.5 -82.5v-100q0 -54 -28.5 -82.5t-82.5 -28.5h-452v-260h379q53 0 81.5 -28.5t28.5 -82.5v-69q0 -54 -28.5 -82.5t-81.5 -28.5h-379v-239h452q54 0 82.5 -28.5t28.5 -82.5v-100q0 -54 -28.5 -82.5 t-82.5 -28.5h-716q-54 0 -82.5 28.5t-28.5 82.5v215h-401l-125 -246q-42 -80 -131 -80h-154q-66 0 -88.5 37zM690 631h248v483h-25z" />
<glyph unicode="&#xc7;" horiz-adv-x="1417" d="M61 717q0 149 56.5 283.5t158 235.5t251.5 160.5t327 59.5q249 0 446 -143q44 -30 48.5 -71.5t-29.5 -82.5l-66 -78q-62 -76 -155 -14q-106 63 -244 63q-188 0 -302 -118.5t-114 -294.5t114 -295t302 -119q133 0 244 64q92 62 155 -15l66 -78q72 -88 -8 -147 q-182 -131 -396 -147q78 -81 78 -185q0 -65 -30 -116t-77 -80t-98.5 -43.5t-101.5 -14.5q-91 0 -172 42.5t-129 121.5q-30 53 23 84l57 33q43 25 78 -19q52 -57 116 -57q46 0 79.5 31t33.5 82q0 74 -63 131q-196 29 -344.5 134.5t-226 260t-77.5 332.5z" />
<glyph unicode="&#xc8;" horiz-adv-x="1241" d="M143 111v1212q0 54 28.5 82.5t82.5 28.5h774q54 0 82.5 -28.5t28.5 -82.5v-100q0 -54 -28.5 -82.5t-82.5 -28.5h-508v-256h426q54 0 83.5 -28.5t29.5 -82.5v-67q0 -54 -29.5 -82.5t-83.5 -28.5h-426v-245h508q54 0 82.5 -28.5t28.5 -82.5v-100q0 -54 -28.5 -82.5 t-82.5 -28.5h-774q-54 0 -82.5 28.5t-28.5 82.5zM317 1824.5q9 20.5 45 20.5h218q47 0 67 -41l96 -190q14 -29 2.5 -47.5t-43.5 -18.5h-131q-39 0 -67 31l-172 197q-24 28 -15 48.5z" />
<glyph unicode="&#xc9;" horiz-adv-x="1241" d="M143 111v1212q0 54 28.5 82.5t82.5 28.5h774q54 0 82.5 -28.5t28.5 -82.5v-100q0 -54 -28.5 -82.5t-82.5 -28.5h-508v-256h426q54 0 83.5 -28.5t29.5 -82.5v-67q0 -54 -29.5 -82.5t-83.5 -28.5h-426v-245h508q54 0 82.5 -28.5t28.5 -82.5v-100q0 -54 -28.5 -82.5 t-82.5 -28.5h-774q-54 0 -82.5 28.5t-28.5 82.5zM503 1566.5q-12 18.5 3 47.5l96 190q20 41 66 41h217q37 0 46 -20.5t-16 -48.5l-170 -197q-28 -31 -69 -31h-129q-32 0 -44 18.5z" />
<glyph unicode="&#xca;" horiz-adv-x="1241" d="M143 111v1212q0 54 28.5 82.5t82.5 28.5h774q54 0 82.5 -28.5t28.5 -82.5v-100q0 -54 -28.5 -82.5t-82.5 -28.5h-508v-256h426q54 0 83.5 -28.5t29.5 -82.5v-67q0 -54 -29.5 -82.5t-83.5 -28.5h-426v-245h508q54 0 82.5 -28.5t28.5 -82.5v-100q0 -54 -28.5 -82.5 t-82.5 -28.5h-774q-54 0 -82.5 28.5t-28.5 82.5zM303.5 1568q-10.5 20 9.5 48l133 194q24 35 68 35h248q42 0 67 -35l136 -194q20 -29 8.5 -48.5t-45.5 -19.5h-90q-43 0 -70 27l-129 123l-129 -123q-27 -27 -70 -27h-92q-34 0 -44.5 20z" />
<glyph unicode="&#xcb;" horiz-adv-x="1241" d="M143 111v1212q0 54 28.5 82.5t82.5 28.5h774q54 0 82.5 -28.5t28.5 -82.5v-100q0 -54 -28.5 -82.5t-82.5 -28.5h-508v-256h426q54 0 83.5 -28.5t29.5 -82.5v-67q0 -54 -29.5 -82.5t-83.5 -28.5h-426v-245h508q54 0 82.5 -28.5t28.5 -82.5v-100q0 -54 -28.5 -82.5 t-82.5 -28.5h-774q-54 0 -82.5 28.5t-28.5 82.5zM215 1698q0 70 48.5 113.5t129.5 43.5q76 0 126 -44t50 -113q0 -70 -50 -113t-126 -43q-81 0 -129.5 42.5t-48.5 113.5zM737 1698q0 69 48 113t126 44q80 0 131.5 -44t51.5 -113q0 -70 -51.5 -113t-131.5 -43q-78 0 -126 43 t-48 113z" />
<glyph unicode="&#xcc;" horiz-adv-x="661" d="M16 1824.5q9 20.5 45 20.5h218q47 0 67 -41l96 -190q14 -29 2.5 -47.5t-43.5 -18.5h-131q-39 0 -67 31l-172 197q-24 28 -15 48.5zM143 111v1212q0 54 28.5 82.5t82.5 28.5h156q53 0 81.5 -28.5t28.5 -82.5v-1212q0 -54 -28.5 -82.5t-81.5 -28.5h-156q-54 0 -82.5 28.5 t-28.5 82.5z" />
<glyph unicode="&#xcd;" horiz-adv-x="661" d="M143 111v1212q0 54 28.5 82.5t82.5 28.5h156q53 0 81.5 -28.5t28.5 -82.5v-1212q0 -54 -28.5 -82.5t-81.5 -28.5h-156q-54 0 -82.5 28.5t-28.5 82.5zM196 1566.5q-12 18.5 3 47.5l96 190q20 41 65 41h218q37 0 46 -20.5t-16 -48.5l-170 -197q-28 -31 -69 -31h-129 q-32 0 -44 18.5z" />
<glyph unicode="&#xce;" horiz-adv-x="661" d="M-1.5 1568q-10.5 20 9.5 48l133 194q24 35 68 35h248q42 0 67 -35l135 -194q20 -29 9 -48.5t-45 -19.5h-91q-42 0 -69 27l-129 123l-129 -123q-27 -27 -70 -27h-92q-34 0 -44.5 20zM143 111v1212q0 54 28.5 82.5t82.5 28.5h156q53 0 81.5 -28.5t28.5 -82.5v-1212 q0 -54 -28.5 -82.5t-81.5 -28.5h-156q-54 0 -82.5 28.5t-28.5 82.5z" />
<glyph unicode="&#xcf;" horiz-adv-x="661" d="M-123 1698q0 70 48.5 113.5t129.5 43.5q76 0 126 -44t50 -113q0 -70 -50 -113t-126 -43q-81 0 -129.5 42.5t-48.5 113.5zM143 111v1212q0 54 28.5 82.5t82.5 28.5h156q53 0 81.5 -28.5t28.5 -82.5v-1212q0 -54 -28.5 -82.5t-81.5 -28.5h-156q-54 0 -82.5 28.5t-28.5 82.5 zM399 1698q0 69 48 113t126 44q80 0 131.5 -44t51.5 -113q0 -70 -51.5 -113t-131.5 -43q-78 0 -126 43t-48 113z" />
<glyph unicode="&#xd0;" horiz-adv-x="1607" d="M20 680v55q0 51 27 78t78 27h68v483q0 111 110 111h510q157 0 294 -56.5t232.5 -153.5t150 -228.5t54.5 -278.5t-54.5 -279t-150 -228.5t-232.5 -153t-294 -56.5h-510q-110 0 -110 111v467h-68q-51 0 -78 26t-27 76zM567 322h201q184 0 291.5 109t107.5 286t-108 286.5 t-291 108.5h-201v-272h191q102 0 102 -105v-55q0 -102 -102 -102h-191v-256z" />
<glyph unicode="&#xd1;" horiz-adv-x="1505" d="M143 111v1212q0 54 28.5 82.5t82.5 28.5h96q83 0 135 -70l500 -694v653q0 54 28.5 82.5t82.5 28.5h155q54 0 82.5 -28.5t28.5 -82.5v-1212q0 -54 -28.5 -82.5t-82.5 -28.5h-94q-84 0 -133 70l-504 704v-663q0 -54 -28.5 -82.5t-81.5 -28.5h-156q-54 0 -82.5 28.5 t-28.5 82.5zM352 1606q-10 19 0 47q35 98 85.5 149t144.5 51q57 0 117 -24t107.5 -48t74.5 -24q74 0 106 58q23 44 74 28l51 -16q55 -19 37 -74q-37 -100 -87 -150.5t-144 -50.5q-57 0 -117.5 24t-108 48.5t-74.5 24.5q-72 0 -104 -58q-27 -46 -74 -28l-53 16q-25 8 -35 27z " />
<glyph unicode="&#xd2;" horiz-adv-x="1658" d="M63 717q0 150 55 284.5t153 235.5t243 160t315 59q171 0 316.5 -59t243.5 -160t153 -235.5t55 -284.5t-55 -285t-153 -235.5t-243.5 -160t-316.5 -59.5q-170 0 -315 59.5t-243 160t-153 235.5t-55 285zM440 717q0 -175 108 -294.5t281 -119.5q174 0 282 119.5t108 294.5 t-108 294t-282 119q-173 0 -281 -119.5t-108 -293.5zM472.5 1824.5q9.5 20.5 45.5 20.5h217q48 0 68 -41l96 -190q14 -29 2.5 -47.5t-43.5 -18.5h-131q-40 0 -68 31l-172 197q-24 28 -14.5 48.5z" />
<glyph unicode="&#xd3;" horiz-adv-x="1658" d="M63 717q0 150 55 284.5t153 235.5t243 160t315 59q171 0 316.5 -59t243.5 -160t153 -235.5t55 -284.5t-55 -285t-153 -235.5t-243.5 -160t-316.5 -59.5q-170 0 -315 59.5t-243 160t-153 235.5t-55 285zM440 717q0 -175 108 -294.5t281 -119.5q174 0 282 119.5t108 294.5 t-108 294t-282 119q-173 0 -281 -119.5t-108 -293.5zM710 1566.5q-12 18.5 3 47.5l96 190q20 41 65 41h218q37 0 46 -20.5t-16 -48.5l-170 -197q-28 -31 -69 -31h-129q-32 0 -44 18.5z" />
<glyph unicode="&#xd4;" horiz-adv-x="1658" d="M63 717q0 150 55 284.5t153 235.5t243 160t315 59q171 0 316.5 -59t243.5 -160t153 -235.5t55 -284.5t-55 -285t-153 -235.5t-243.5 -160t-316.5 -59.5q-170 0 -315 59.5t-243 160t-153 235.5t-55 285zM440 717q0 -175 108 -294.5t281 -119.5q174 0 282 119.5t108 294.5 t-108 294t-282 119q-173 0 -281 -119.5t-108 -293.5zM494.5 1568q-10.5 20 9.5 48l133 194q24 35 68 35h247q43 0 68 -35l135 -194q20 -29 8.5 -48.5t-45.5 -19.5h-90q-43 0 -70 27l-129 123l-129 -123q-27 -27 -69 -27h-92q-34 0 -44.5 20z" />
<glyph unicode="&#xd5;" horiz-adv-x="1658" d="M63 717q0 150 55 284.5t153 235.5t243 160t315 59q171 0 316.5 -59t243.5 -160t153 -235.5t55 -284.5t-55 -285t-153 -235.5t-243.5 -160t-316.5 -59.5q-170 0 -315 59.5t-243 160t-153 235.5t-55 285zM434 1606q-10 19 0 47q35 98 85.5 149t144.5 51q57 0 117 -24 t107.5 -48t74.5 -24q74 0 106 58q23 44 74 28l51 -16q55 -19 37 -74q-37 -100 -87.5 -150.5t-144.5 -50.5q-57 0 -117 24t-107.5 48.5t-74.5 24.5q-72 0 -104 -58q-27 -46 -74 -28l-53 16q-25 8 -35 27zM440 717q0 -175 108 -294.5t281 -119.5q174 0 282 119.5t108 294.5 t-108 294t-282 119q-173 0 -281 -119.5t-108 -293.5z" />
<glyph unicode="&#xd6;" horiz-adv-x="1658" d="M63 717q0 150 55 284.5t153 235.5t243 160t315 59q171 0 316.5 -59t243.5 -160t153 -235.5t55 -284.5t-55 -285t-153 -235.5t-243.5 -160t-316.5 -59.5q-170 0 -315 59.5t-243 160t-153 235.5t-55 285zM393 1698q0 70 48.5 113.5t129.5 43.5q76 0 126.5 -44.5 t50.5 -112.5q0 -69 -50.5 -112.5t-126.5 -43.5q-81 0 -129.5 42.5t-48.5 113.5zM440 717q0 -175 108 -294.5t281 -119.5q174 0 282 119.5t108 294.5t-108 294t-282 119q-173 0 -281 -119.5t-108 -293.5zM915 1698q0 69 48.5 113t126.5 44q80 0 131 -44t51 -113 q0 -70 -51 -113t-131 -43q-78 0 -126.5 43t-48.5 113z" />
<glyph unicode="&#xd7;" horiz-adv-x="1169" d="M115 293q-40 40 0 80l258 254l-252 254q-38 42 0 80l145 145q39 42 78 0l254 -254l254 256q40 43 80 0l123 -123q40 -43 0 -80l-256 -256l252 -252q42 -39 0 -78l-146 -145q-39 -39 -78 0l-256 252l-254 -258q-38 -41 -79 0z" />
<glyph unicode="&#xd8;" horiz-adv-x="1658" d="M63 717q0 150 55 284.5t153 235.5t243 160t315 59q190 0 347 -74l61 93q31 49 78 14l57 -39q47 -30 14 -78l-55 -84q126 -103 196 -252t70 -319q0 -150 -55 -285t-153 -235.5t-243.5 -160t-316.5 -59.5q-187 0 -335 68l-70 -102q-30 -46 -78 -15l-57 39q-45 33 -15 80 l62 92q-130 103 -201.5 254t-71.5 324zM440 717q0 -163 97 -281l446 664q-71 30 -154 30q-173 0 -281 -119.5t-108 -293.5zM684 328q67 -25 145 -25q174 0 282 119.5t108 294.5q0 153 -89 270z" />
<glyph unicode="&#xd9;" horiz-adv-x="1464" d="M125 549v774q0 54 28.5 82.5t82.5 28.5h155q54 0 82.5 -28.5t28.5 -82.5v-774q0 -117 65 -181.5t164 -64.5q98 0 165 65t67 181v774q0 111 110 111h154q110 0 110 -111v-774q0 -135 -48.5 -245t-132 -180.5t-192.5 -108.5t-233 -38q-125 0 -234 38t-192.5 108.5 t-131.5 180.5t-48 245zM415.5 1824.5q9.5 20.5 45.5 20.5h217q47 0 67 -41l97 -190q14 -29 2.5 -47.5t-43.5 -18.5h-131q-40 0 -68 31l-172 197q-24 28 -14.5 48.5z" />
<glyph unicode="&#xda;" horiz-adv-x="1464" d="M125 549v774q0 54 28.5 82.5t82.5 28.5h155q54 0 82.5 -28.5t28.5 -82.5v-774q0 -117 65 -181.5t164 -64.5q98 0 165 65t67 181v774q0 111 110 111h154q110 0 110 -111v-774q0 -135 -48.5 -245t-132 -180.5t-192.5 -108.5t-233 -38q-125 0 -234 38t-192.5 108.5 t-131.5 180.5t-48 245zM609 1566.5q-12 18.5 3 47.5l97 190q20 41 65 41h217q37 0 46.5 -20.5t-15.5 -48.5l-170 -197q-28 -31 -70 -31h-129q-32 0 -44 18.5z" />
<glyph unicode="&#xdb;" horiz-adv-x="1464" d="M125 549v774q0 54 28.5 82.5t82.5 28.5h155q54 0 82.5 -28.5t28.5 -82.5v-774q0 -117 65 -181.5t164 -64.5q98 0 165 65t67 181v774q0 111 110 111h154q110 0 110 -111v-774q0 -135 -48.5 -245t-132 -180.5t-192.5 -108.5t-233 -38q-125 0 -234 38t-192.5 108.5 t-131.5 180.5t-48 245zM396 1568q-10 20 10 48l133 194q24 35 67 35h248q43 0 68 -35l135 -194q20 -29 8.5 -48.5t-45.5 -19.5h-90q-43 0 -70 27l-129 123l-129 -123q-27 -27 -70 -27h-92q-34 0 -44 20z" />
<glyph unicode="&#xdc;" horiz-adv-x="1464" d="M125 549v774q0 54 28.5 82.5t82.5 28.5h155q54 0 82.5 -28.5t28.5 -82.5v-774q0 -117 65 -181.5t164 -64.5q98 0 165 65t67 181v774q0 111 110 111h154q110 0 110 -111v-774q0 -135 -48.5 -245t-132 -180.5t-192.5 -108.5t-233 -38q-125 0 -234 38t-192.5 108.5 t-131.5 180.5t-48 245zM295 1698q0 70 48.5 113.5t129.5 43.5q76 0 126 -44t50 -113q0 -70 -50 -113t-126 -43q-81 0 -129.5 42.5t-48.5 113.5zM817 1698q0 69 48 113t126 44q80 0 131.5 -44t51.5 -113q0 -70 -51.5 -113t-131.5 -43q-78 0 -126 43t-48 113z" />
<glyph unicode="&#xdd;" horiz-adv-x="1533" d="M65 1394.5q21 39.5 89 39.5h198q85 0 133 -74l283 -461l285 461q45 74 133 74h196q68 0 88 -39.5t-20 -96.5l-494 -712v-475q0 -111 -110 -111h-156q-110 0 -110 111v469l-498 718q-38 57 -17 96.5zM646 1566.5q-12 18.5 3 47.5l96 190q20 41 66 41h217q37 0 46.5 -20.5 t-15.5 -48.5l-170 -197q-28 -31 -70 -31h-129q-32 0 -44 18.5z" />
<glyph unicode="&#xde;" horiz-adv-x="1300" d="M143 111v1212q0 54 28.5 82.5t82.5 28.5h156q53 0 81.5 -28.5t28.5 -82.5v-184h342q169 0 283.5 -126t114.5 -296q0 -110 -49 -205.5t-143 -155t-214 -59.5h-334v-186q0 -54 -28.5 -82.5t-81.5 -28.5h-156q-54 0 -82.5 28.5t-28.5 82.5zM520 594h244q55 0 87 37t32 86 q0 52 -29 88.5t-90 36.5h-244v-248z" />
<glyph unicode="&#xdf;" horiz-adv-x="1304" d="M113 102v924q0 230 143 352.5t379 122.5q229 0 369.5 -110.5t140.5 -284.5q0 -224 -217 -291q142 -17 234.5 -127.5t92.5 -238.5q0 -97 -36 -182.5t-101 -150t-162.5 -102t-214.5 -37.5h-36q-96 0 -111 97l-10 90q-7 52 11 81t58 29h35q88 0 143.5 58.5t55.5 148.5 q0 84 -58.5 140t-160.5 69q-62 6 -70 60l-6 36q-8 58 51 76q141 49 141 185q0 45 -13.5 78t-36.5 49.5t-47 24t-50 7.5q-156 0 -156 -198v-906q0 -50 -26.5 -76t-75.5 -26h-164q-49 0 -75.5 26t-26.5 76z" />
<glyph unicode="&#xe0;" d="M55 532q0 238 144 396.5t362 158.5q106 0 190 -42t134 -123v32q0 111 110 111h148q110 0 110 -111v-843q0 -111 -110 -111h-148q-110 0 -110 111v30q-51 -79 -135 -121.5t-189 -42.5q-218 0 -362 158.5t-144 396.5zM388.5 1513q9.5 21 45.5 21h236q47 0 65 -41l123 -240 q14 -29 2.5 -47t-43.5 -18h-131q-44 0 -68 31l-215 245q-24 28 -14.5 49zM424 532q0 -116 62.5 -192t168.5 -76q105 0 169.5 76t64.5 192t-64.5 192.5t-169.5 76.5q-106 0 -168.5 -76.5t-62.5 -192.5z" />
<glyph unicode="&#xe1;" d="M55 532q0 238 144 396.5t362 158.5q106 0 190 -42t134 -123v32q0 111 110 111h148q110 0 110 -111v-843q0 -111 -110 -111h-148q-110 0 -110 111v30q-51 -79 -135 -121.5t-189 -42.5q-218 0 -362 158.5t-144 396.5zM424 532q0 -116 62.5 -192t168.5 -76q105 0 169.5 76 t64.5 192t-64.5 192.5t-169.5 76.5q-106 0 -168.5 -76.5t-62.5 -192.5zM528.5 1206q-11.5 18 3.5 47l121 240q21 41 68 41h235q36 0 45.5 -20.5t-14.5 -49.5l-215 -245q-24 -31 -70 -31h-129q-33 0 -44.5 18z" />
<glyph unicode="&#xe2;" d="M55 532q0 238 144 396.5t362 158.5q106 0 190 -42t134 -123v32q0 111 110 111h148q110 0 110 -111v-843q0 -111 -110 -111h-148q-110 0 -110 111v30q-51 -79 -135 -121.5t-189 -42.5q-218 0 -362 158.5t-144 396.5zM309 1207.5q-11 19.5 6 47.5l142 240q20 39 65 39h260 q46 0 66 -39l145 -240q15 -28 3 -47.5t-44 -19.5h-106q-46 0 -70 33l-123 153l-123 -153q-21 -33 -69 -33h-107q-34 0 -45 19.5zM424 532q0 -116 62.5 -192t168.5 -76q105 0 169.5 76t64.5 192t-64.5 192.5t-169.5 76.5q-106 0 -168.5 -76.5t-62.5 -192.5z" />
<glyph unicode="&#xe3;" d="M55 532q0 238 144 396.5t362 158.5q106 0 190 -42t134 -123v32q0 111 110 111h148q110 0 110 -111v-843q0 -111 -110 -111h-148q-110 0 -110 111v30q-51 -79 -135 -121.5t-189 -42.5q-218 0 -362 158.5t-144 396.5zM254 1303q37 109 87.5 165t145.5 56q44 0 92 -16.5 t81 -36t68 -36t58 -16.5q74 0 105 64q27 46 76 28l51 -18q53 -17 37 -72q-35 -108 -86.5 -164.5t-145.5 -56.5q-45 0 -93 16.5t-81.5 36t-68.5 36t-58 16.5q-71 0 -104 -64q-24 -47 -74 -29l-53 19q-52 18 -37 72zM424 532q0 -116 62.5 -192t168.5 -76q105 0 169.5 76 t64.5 192t-64.5 192.5t-169.5 76.5q-106 0 -168.5 -76.5t-62.5 -192.5z" />
<glyph unicode="&#xe4;" d="M55 532q0 238 144 396.5t362 158.5q106 0 190 -42t134 -123v32q0 111 110 111h148q110 0 110 -111v-843q0 -111 -110 -111h-148q-110 0 -110 111v30q-51 -79 -135 -121.5t-189 -42.5q-218 0 -362 158.5t-144 396.5zM207 1358q0 71 53.5 118.5t132.5 47.5q76 0 131.5 -48 t55.5 -118q0 -68 -55.5 -115t-131.5 -47q-79 0 -132.5 46.5t-53.5 115.5zM424 532q0 -116 62.5 -192t168.5 -76q105 0 169.5 76t64.5 192t-64.5 192.5t-169.5 76.5q-106 0 -168.5 -76.5t-62.5 -192.5zM731 1358q0 71 52 118.5t130 47.5q79 0 134 -48t55 -118 q0 -69 -55 -115.5t-134 -46.5q-78 0 -130 46.5t-52 115.5z" />
<glyph unicode="&#xe5;" d="M55 532q0 238 144 396.5t362 158.5q106 0 190 -42t134 -123v32q0 111 110 111h148q110 0 110 -111v-843q0 -111 -110 -111h-148q-110 0 -110 111v30q-51 -79 -135 -121.5t-189 -42.5q-218 0 -362 158.5t-144 396.5zM381 1427q0 111 78 176.5t194 65.5q118 0 195.5 -65.5 t77.5 -176.5q0 -110 -77.5 -174.5t-195.5 -64.5q-116 0 -194 65t-78 174zM424 532q0 -116 62.5 -192t168.5 -76q105 0 169.5 76t64.5 192t-64.5 192.5t-169.5 76.5q-106 0 -168.5 -76.5t-62.5 -192.5zM541 1427q0 -45 31.5 -74.5t80.5 -29.5t81 29.5t32 74.5 q0 44 -31.5 72.5t-81.5 28.5q-49 0 -80.5 -28.5t-31.5 -72.5z" />
<glyph unicode="&#xe6;" horiz-adv-x="1994" d="M45 328q0 108 63 186t163 114t223 36q177 0 311 -72v37q0 80 -63 132t-173 52q-117 0 -231 -47q-51 -22 -87.5 -12t-60.5 57l-14 31q-50 98 39 151q166 94 408 94q239 0 370 -145q155 145 398 145q151 0 276.5 -62.5t201.5 -180.5t79 -269q3 -110 -113 -110h-684 q-2 -77 80 -141t215 -64q107 0 201 51q101 50 155 -26l27 -35q32 -39 28 -82t-47 -74q-159 -117 -393 -117q-155 0 -276 52t-199 147q-44 -58 -105 -99.5t-127.5 -62t-125 -29t-117.5 -8.5q-179 0 -300.5 96.5t-121.5 254.5zM418 352q0 -49 45 -87t127 -38q66 0 138 32 t114 83q-21 61 -23 90q-46 24 -114 34.5t-115 10.5q-77 0 -124.5 -32.5t-47.5 -92.5zM1155 649h465q-13 86 -77.5 129t-149.5 43q-87 0 -155.5 -43.5t-82.5 -128.5z" />
<glyph unicode="&#xe7;" horiz-adv-x="1136" d="M53 528q0 154 76.5 281t219 202.5t323.5 75.5q187 0 346 -90q45 -29 49 -71t-31 -84l-43 -51q-30 -40 -67.5 -45t-85.5 20q-65 31 -146 31q-119 0 -195.5 -75t-76.5 -190q0 -117 76.5 -190.5t195.5 -73.5q81 0 146 31q48 25 86.5 20t68.5 -45l41 -51q35 -42 28 -87 t-58 -73q-105 -62 -248 -79q82 -82 82 -189q0 -52 -20 -96t-52 -72.5t-73.5 -48.5t-82.5 -28.5t-80 -8.5q-94 0 -175.5 44t-127.5 126q-26 48 23 78l59 33q40 25 78 -19q52 -57 117 -57q45 0 78.5 30.5t33.5 82.5q0 71 -59 127q-228 33 -367 184.5t-139 357.5z" />
<glyph unicode="&#xe8;" horiz-adv-x="1265" d="M53 528q0 111 40.5 212t114 178t186.5 123t249 46q120 0 224 -36t181.5 -102t123 -167.5t47.5 -226.5q1 -46 -28.5 -68t-84.5 -22h-707q0 -77 83 -141t220 -64q113 0 211 53q96 49 154 -26l29 -37q33 -39 28 -84t-51 -76q-167 -113 -399 -113q-142 0 -260.5 43 t-196.5 118t-121 175.5t-43 214.5zM276.5 1513q9.5 21 45.5 21h235q48 0 66 -41l122 -240q14 -29 3 -47t-43 -18h-132q-43 0 -67 31l-215 245q-24 28 -14.5 49zM406 649h475q-11 86 -79 129t-157 43q-88 0 -156.5 -43.5t-82.5 -128.5z" />
<glyph unicode="&#xe9;" horiz-adv-x="1265" d="M53 528q0 111 40.5 212t114 178t186.5 123t249 46q120 0 224 -36t181.5 -102t123 -167.5t47.5 -226.5q1 -46 -28.5 -68t-84.5 -22h-707q0 -77 83 -141t220 -64q113 0 211 53q96 49 154 -26l29 -37q33 -39 28 -84t-51 -76q-167 -113 -399 -113q-142 0 -260.5 43 t-196.5 118t-121 175.5t-43 214.5zM406 649h475q-11 86 -79 129t-157 43q-88 0 -156.5 -43.5t-82.5 -128.5zM522.5 1206q-11.5 18 3.5 47l121 240q21 41 68 41h235q36 0 45.5 -20.5t-14.5 -49.5l-215 -245q-24 -31 -70 -31h-129q-33 0 -44.5 18z" />
<glyph unicode="&#xea;" horiz-adv-x="1265" d="M53 528q0 111 40.5 212t114 178t186.5 123t249 46q120 0 224 -36t181.5 -102t123 -167.5t47.5 -226.5q1 -46 -28.5 -68t-84.5 -22h-707q0 -77 83 -141t220 -64q113 0 211 53q96 49 154 -26l29 -37q33 -39 28 -84t-51 -76q-167 -113 -399 -113q-142 0 -260.5 43 t-196.5 118t-121 175.5t-43 214.5zM291 1207.5q-11 19.5 6 47.5l141 240q20 39 66 39h260q45 0 65 -39l146 -240q15 -28 3 -47.5t-44 -19.5h-107q-45 0 -69 33l-123 153l-123 -153q-21 -33 -70 -33h-106q-34 0 -45 19.5zM406 649h475q-11 86 -79 129t-157 43 q-88 0 -156.5 -43.5t-82.5 -128.5z" />
<glyph unicode="&#xeb;" horiz-adv-x="1265" d="M53 528q0 111 40.5 212t114 178t186.5 123t249 46q120 0 224 -36t181.5 -102t123 -167.5t47.5 -226.5q1 -46 -28.5 -68t-84.5 -22h-707q0 -77 83 -141t220 -64q113 0 211 53q96 49 154 -26l29 -37q33 -39 28 -84t-51 -76q-167 -113 -399 -113q-142 0 -260.5 43 t-196.5 118t-121 175.5t-43 214.5zM188 1358q0 71 54 118.5t133 47.5q76 0 131 -48t55 -118q0 -68 -55 -115t-131 -47q-80 0 -133.5 46.5t-53.5 115.5zM406 649h475q-11 86 -79 129t-157 43q-88 0 -156.5 -43.5t-82.5 -128.5zM713 1358q0 71 52 118.5t130 47.5t133 -48 t55 -118q0 -69 -55 -115.5t-133 -46.5t-130 46.5t-52 115.5z" />
<glyph unicode="&#xec;" horiz-adv-x="600" d="M-18.5 1513q9.5 21 45.5 21h235q48 0 66 -41l123 -240q14 -29 2.5 -47t-43.5 -18h-131q-43 0 -70 31l-213 245q-24 28 -14.5 49zM115 111v843q0 111 110 111h148q110 0 110 -111v-843q0 -111 -110 -111h-148q-110 0 -110 111z" />
<glyph unicode="&#xed;" horiz-adv-x="600" d="M115 111v843q0 111 110 111h148q110 0 110 -111v-843q0 -111 -110 -111h-148q-110 0 -110 111zM146.5 1206q-11.5 18 3.5 47l122 240q18 41 66 41h235q36 0 45.5 -20.5t-14.5 -49.5l-215 -245q-24 -31 -70 -31h-129q-32 0 -43.5 18z" />
<glyph unicode="&#xee;" horiz-adv-x="600" d="M-45 1207.5q-11 19.5 4 47.5l141 240q23 39 66 39h260q45 0 68 -39l143 -240q17 -28 5 -47.5t-46 -19.5h-104q-49 0 -70 33l-123 153l-125 -153q-21 -33 -68 -33h-108q-32 0 -43 19.5zM115 111v843q0 111 110 111h148q110 0 110 -111v-843q0 -111 -110 -111h-148 q-110 0 -110 111z" />
<glyph unicode="&#xef;" horiz-adv-x="600" d="M-147 1358q0 71 52.5 118.5t133.5 47.5q76 0 130 -48t54 -118q0 -68 -54 -115t-130 -47q-81 0 -133.5 46t-52.5 116zM115 111v843q0 111 110 111h148q110 0 110 -111v-843q0 -111 -110 -111h-148q-110 0 -110 111zM375 1358q0 71 52 118.5t130 47.5q80 0 134 -48t54 -118 q0 -69 -54 -115.5t-134 -46.5q-78 0 -130 46.5t-52 115.5z" />
<glyph unicode="&#xf0;" horiz-adv-x="1206" d="M51 465q0 89 32.5 165t83.5 126.5t115 87t126 53t118 16.5q107 0 164 -41q-60 121 -182 218l-168 -76q-56 -24 -84 28l-16 37q-24 53 34 80l111 47q-13 13 -63 58q-44 38 -41 80.5t53 74.5l82 56q82 55 155 -9q92 -83 129 -120l164 75q54 22 84 -24l21 -41 q13 -25 4 -46.5t-37 -33.5l-119 -51q334 -382 334 -719q0 -121 -45.5 -222.5t-121.5 -167.5t-174 -102.5t-204 -36.5q-153 0 -279 59.5t-201 172t-75 256.5zM412 483q0 -95 50 -152t140 -57q94 0 142.5 57t48.5 154q0 94 -48.5 150.5t-140.5 56.5q-93 0 -142.5 -57 t-49.5 -152z" />
<glyph unicode="&#xf1;" horiz-adv-x="1273" d="M115 111v843q0 111 110 111h148q110 0 110 -111v-41q88 174 310 174q89 0 157 -29t109 -74.5t67 -109t35.5 -125.5t9.5 -131v-507q0 -111 -110 -111h-148q-110 0 -110 111v477q0 207 -146 207q-81 0 -127.5 -62.5t-46.5 -169.5v-452q0 -111 -110 -111h-148 q-110 0 -110 111zM242 1303q37 109 87.5 165t145.5 56q44 0 92 -16.5t81 -36t68 -36t58 -16.5q74 0 105 64q26 46 75 28l52 -18q52 -17 36 -72q-35 -108 -86 -164.5t-145 -56.5q-45 0 -93 16.5t-81.5 36t-68.5 36t-58 16.5q-71 0 -104 -64q-24 -47 -74 -29l-53 19 q-52 18 -37 72z" />
<glyph unicode="&#xf2;" horiz-adv-x="1308" d="M51 532q0 114 45.5 216t124 176.5t191 118.5t241.5 44t242 -43.5t191.5 -118.5t123.5 -177t45 -216t-45 -216t-123.5 -177t-191.5 -118.5t-242 -43.5t-241.5 44t-191 118.5t-124 176.5t-45.5 216zM257.5 1513q9.5 21 45.5 21h236q47 0 65 -41l123 -240q14 -29 2.5 -47 t-43.5 -18h-131q-44 0 -68 31l-215 245q-24 28 -14.5 49zM397 532q0 -113 73 -188.5t183 -75.5q111 0 184.5 75t73.5 189t-73.5 188.5t-184.5 74.5q-110 0 -183 -75t-73 -188z" />
<glyph unicode="&#xf3;" horiz-adv-x="1308" d="M51 532q0 114 45.5 216t124 176.5t191 118.5t241.5 44t242 -43.5t191.5 -118.5t123.5 -177t45 -216t-45 -216t-123.5 -177t-191.5 -118.5t-242 -43.5t-241.5 44t-191 118.5t-124 176.5t-45.5 216zM397 532q0 -113 73 -188.5t183 -75.5q111 0 184.5 75t73.5 189 t-73.5 188.5t-184.5 74.5q-110 0 -183 -75t-73 -188zM541.5 1206q-11.5 18 3.5 47l121 240q21 41 67 41h236q36 0 45 -20.5t-15 -49.5l-215 -245q-24 -31 -69 -31h-129q-33 0 -44.5 18z" />
<glyph unicode="&#xf4;" horiz-adv-x="1308" d="M51 532q0 114 45.5 216t124 176.5t191 118.5t241.5 44t242 -43.5t191.5 -118.5t123.5 -177t45 -216t-45 -216t-123.5 -177t-191.5 -118.5t-242 -43.5t-241.5 44t-191 118.5t-124 176.5t-45.5 216zM309 1207.5q-11 19.5 6 47.5l142 240q20 39 65 39h260q46 0 66 -39 l145 -240q15 -28 3 -47.5t-44 -19.5h-106q-46 0 -70 33l-123 153l-123 -153q-21 -33 -69 -33h-107q-34 0 -45 19.5zM397 532q0 -113 73 -188.5t183 -75.5q111 0 184.5 75t73.5 189t-73.5 188.5t-184.5 74.5q-110 0 -183 -75t-73 -188z" />
<glyph unicode="&#xf5;" horiz-adv-x="1308" d="M51 532q0 114 45.5 216t124 176.5t191 118.5t241.5 44t242 -43.5t191.5 -118.5t123.5 -177t45 -216t-45 -216t-123.5 -177t-191.5 -118.5t-242 -43.5t-241.5 44t-191 118.5t-124 176.5t-45.5 216zM252 1303q37 109 87.5 165t145.5 56q44 0 92 -16.5t81 -36t68 -36 t58 -16.5q74 0 105 64q27 46 76 28l51 -18q53 -17 37 -72q-35 -108 -86.5 -164.5t-145.5 -56.5q-45 0 -93 16.5t-81.5 36t-68.5 36t-58 16.5q-71 0 -104 -64q-24 -47 -74 -29l-53 19q-52 18 -37 72zM397 532q0 -113 73 -188.5t183 -75.5q111 0 184.5 75t73.5 189 t-73.5 188.5t-184.5 74.5q-110 0 -183 -75t-73 -188z" />
<glyph unicode="&#xf6;" horiz-adv-x="1308" d="M51 532q0 114 45.5 216t124 176.5t191 118.5t241.5 44t242 -43.5t191.5 -118.5t123.5 -177t45 -216t-45 -216t-123.5 -177t-191.5 -118.5t-242 -43.5t-241.5 44t-191 118.5t-124 176.5t-45.5 216zM205 1358q0 71 53.5 118.5t132.5 47.5q76 0 131.5 -48t55.5 -118 q0 -68 -55.5 -115t-131.5 -47q-79 0 -132.5 46.5t-53.5 115.5zM397 532q0 -113 73 -188.5t183 -75.5q111 0 184.5 75t73.5 189t-73.5 188.5t-184.5 74.5q-110 0 -183 -75t-73 -188zM729 1358q0 71 52 118.5t130 47.5q79 0 134 -48t55 -118q0 -69 -55 -115.5t-134 -46.5 q-78 0 -130 46.5t-52 115.5z" />
<glyph unicode="&#xf7;" horiz-adv-x="1230" d="M78 520v207q0 57 57 57h961q57 0 57 -57v-207q0 -57 -57 -57h-961q-57 0 -57 57zM399 201q0 81 59.5 126.5t155.5 45.5q94 0 155.5 -45.5t61.5 -126.5q0 -79 -61.5 -123.5t-155.5 -44.5q-96 0 -155.5 44t-59.5 124zM399 1044q0 81 59.5 127t155.5 46q94 0 155.5 -46 t61.5 -127q0 -80 -61 -123.5t-156 -43.5q-97 0 -156 43t-59 124z" />
<glyph unicode="&#xf8;" horiz-adv-x="1308" d="M53 532q0 114 45 216t123.5 177t191.5 118.5t242 43.5q173 0 308 -75l81 90q39 45 80 4l37 -35q38 -38 4 -80l-69 -76q77 -76 119 -175t42 -208q0 -114 -45.5 -216t-124 -176.5t-191 -118.5t-241.5 -44q-178 0 -319 80l-72 -80q-39 -45 -80 -4l-39 35q-38 41 -4 80l62 68 q-150 160 -150 376zM397 532q0 -64 29 -124l326 366q-44 21 -97 21q-110 0 -184 -75.5t-74 -187.5zM547 293q55 -25 108 -25q109 0 182.5 75t73.5 189q0 75 -34 136z" />
<glyph unicode="&#xf9;" horiz-adv-x="1271" d="M100 446v508q0 54 28.5 82.5t82.5 28.5h147q54 0 82.5 -28.5t28.5 -82.5v-477q0 -94 35 -151.5t112 -57.5q81 0 128 63.5t47 170.5v452q0 111 110 111h148q110 0 110 -111v-843q0 -111 -110 -111h-148q-110 0 -110 111v39q-42 -82 -121.5 -127.5t-190.5 -45.5 q-89 0 -157 29t-109 74.5t-67.5 109t-36 125.5t-9.5 131zM282.5 1513q9.5 21 45.5 21h235q48 0 66 -41l123 -240q14 -29 2.5 -47t-43.5 -18h-131q-44 0 -68 31l-215 245q-24 28 -14.5 49z" />
<glyph unicode="&#xfa;" horiz-adv-x="1271" d="M100 446v508q0 54 28.5 82.5t82.5 28.5h147q54 0 82.5 -28.5t28.5 -82.5v-477q0 -94 35 -151.5t112 -57.5q81 0 128 63.5t47 170.5v452q0 111 110 111h148q110 0 110 -111v-843q0 -111 -110 -111h-148q-110 0 -110 111v39q-42 -82 -121.5 -127.5t-190.5 -45.5 q-89 0 -157 29t-109 74.5t-67.5 109t-36 125.5t-9.5 131zM483.5 1206q-11.5 18 3.5 47l121 240q21 41 68 41h235q36 0 45.5 -20.5t-14.5 -49.5l-215 -245q-24 -31 -70 -31h-129q-33 0 -44.5 18z" />
<glyph unicode="&#xfb;" horiz-adv-x="1271" d="M100 446v508q0 54 28.5 82.5t82.5 28.5h147q54 0 82.5 -28.5t28.5 -82.5v-477q0 -94 35 -151.5t112 -57.5q81 0 128 63.5t47 170.5v452q0 111 110 111h148q110 0 110 -111v-843q0 -111 -110 -111h-148q-110 0 -110 111v39q-42 -82 -121.5 -127.5t-190.5 -45.5 q-89 0 -157 29t-109 74.5t-67.5 109t-36 125.5t-9.5 131zM285 1207.5q-11 19.5 6 47.5l141 240q20 39 66 39h260q45 0 65 -39l146 -240q15 -28 3 -47.5t-44 -19.5h-107q-45 0 -69 33l-123 153l-123 -153q-21 -33 -70 -33h-106q-34 0 -45 19.5z" />
<glyph unicode="&#xfc;" horiz-adv-x="1271" d="M100 446v508q0 54 28.5 82.5t82.5 28.5h147q54 0 82.5 -28.5t28.5 -82.5v-477q0 -94 35 -151.5t112 -57.5q81 0 128 63.5t47 170.5v452q0 111 110 111h148q110 0 110 -111v-843q0 -111 -110 -111h-148q-110 0 -110 111v39q-42 -82 -121.5 -127.5t-190.5 -45.5 q-89 0 -157 29t-109 74.5t-67.5 109t-36 125.5t-9.5 131zM188 1358q0 71 54 118.5t133 47.5q76 0 131 -48t55 -118q0 -68 -55 -115t-131 -47q-80 0 -133.5 46.5t-53.5 115.5zM713 1358q0 71 52 118.5t130 47.5t133 -48t55 -118q0 -69 -55 -115.5t-133 -46.5t-130 46.5 t-52 115.5z" />
<glyph unicode="&#xfd;" horiz-adv-x="1247" d="M60.5 1029q23.5 36 86.5 36h166q97 0 127 -90l187 -512l194 514q34 88 127 88h156q62 0 85.5 -36t-1.5 -93l-578 -1311q-36 -84 -129 -84h-127q-63 0 -86.5 36t0.5 93l181 418l-386 848q-26 57 -2.5 93zM506.5 1206q-11.5 18 3.5 47l121 240q21 41 67 41h236 q36 0 45.5 -20.5t-14.5 -49.5l-215 -245q-24 -31 -70 -31h-129q-33 0 -44.5 18z" />
<glyph unicode="&#xfe;" d="M115 -348v1718q0 111 110 111h148q110 0 110 -111v-448q49 81 132.5 123t189.5 42q218 0 362 -158.5t144 -396.5t-144 -396.5t-362 -158.5q-105 0 -189 42.5t-133 121.5v-489q0 -111 -110 -111h-148q-110 0 -110 111zM477 532q0 -116 65 -192t171 -76q105 0 167 76 t62 192t-62 192.5t-167 76.5q-106 0 -171 -76.5t-65 -192.5z" />
<glyph unicode="&#xff;" horiz-adv-x="1247" d="M60.5 1029q23.5 36 86.5 36h166q97 0 127 -90l187 -512l194 514q34 88 127 88h156q62 0 85.5 -36t-1.5 -93l-578 -1311q-36 -84 -129 -84h-127q-63 0 -86.5 36t0.5 93l181 418l-386 848q-26 57 -2.5 93zM176 1358q0 71 53.5 118.5t132.5 47.5q76 0 131.5 -48t55.5 -118 q0 -68 -55.5 -115t-131.5 -47q-79 0 -132.5 46.5t-53.5 115.5zM700 1358q0 71 52.5 118.5t130.5 47.5t133 -48t55 -118q0 -69 -55 -115.5t-133 -46.5t-130.5 46.5t-52.5 115.5z" />
<glyph unicode="&#x152;" horiz-adv-x="1896" d="M66 735q0 203 96.5 363t265.5 248t379 88h895q110 0 110 -111v-100q0 -111 -110 -111h-477v-254h395q111 0 111 -110v-68q0 -54 -28.5 -82.5t-82.5 -28.5h-395v-274h477q110 0 110 -111v-73q0 -111 -110 -111h-895q-156 0 -294 58t-236 156.5t-154.5 234t-56.5 286.5z M442 735q0 -119 47.5 -220t132 -160.5t185.5 -59.5h55v844h-55q-157 0 -261 -112.5t-104 -291.5z" />
<glyph unicode="&#x153;" horiz-adv-x="2039" d="M53 532q0 114 44 216t121.5 177t188.5 118.5t240 43.5q243 0 400 -141q148 141 385 141q118 0 220 -41t176 -113.5t117.5 -178t45.5 -230.5q1 -29 -17 -44t-49 -15h-725q-2 -78 76.5 -141.5t212.5 -63.5q127 0 242 72q55 34 90 -10l80 -109q40 -49 -7 -90 q-172 -146 -434 -146q-259 0 -413 144q-160 -144 -400 -144q-129 0 -240 43.5t-188.5 118.5t-121.5 177t-44 216zM399 532q0 -114 75 -189t198 -75q63 0 120 27.5t91 73.5q-27 86 -27 163q0 68 29 164q-35 46 -92.5 72.5t-120.5 26.5q-123 0 -198 -74.5t-75 -188.5z M1202 649h463q-13 86 -79.5 129t-151.5 43q-86 0 -152 -43.5t-80 -128.5z" />
<glyph unicode="&#x178;" horiz-adv-x="1533" d="M65 1394.5q21 39.5 89 39.5h198q85 0 133 -74l283 -461l285 461q45 74 133 74h196q68 0 88 -39.5t-20 -96.5l-494 -712v-475q0 -111 -110 -111h-156q-110 0 -110 111v469l-498 718q-38 57 -17 96.5zM328 1698q0 70 48.5 113.5t129.5 43.5q76 0 126 -44t50 -113 q0 -70 -50 -113t-126 -43q-81 0 -129.5 42.5t-48.5 113.5zM850 1698q0 69 48 113t126 44q80 0 131 -44t51 -113q0 -70 -51 -113t-131 -43q-78 0 -126 43t-48 113z" />
<glyph unicode="&#x2c6;" horiz-adv-x="1263" d="M287 1207.5q-11 19.5 6 47.5l141 240q20 39 66 39h260q45 0 65 -39l146 -240q15 -28 3 -47.5t-44 -19.5h-107q-45 0 -69 33l-123 153l-123 -153q-21 -33 -70 -33h-106q-34 0 -45 19.5z" />
<glyph unicode="&#x2dc;" horiz-adv-x="1300" d="M250 1303q37 109 87.5 165t145.5 56q44 0 92 -16.5t81 -36t68 -36t58 -16.5q74 0 105 64q27 46 76 28l51 -18q53 -17 37 -72q-35 -108 -86.5 -164.5t-145.5 -56.5q-45 0 -93 16.5t-81.5 36t-68.5 36t-58 16.5q-71 0 -104 -64q-24 -47 -74 -29l-53 19q-52 18 -37 72z" />
<glyph unicode="&#x2000;" horiz-adv-x="992" />
<glyph unicode="&#x2001;" horiz-adv-x="1985" />
<glyph unicode="&#x2002;" horiz-adv-x="992" />
<glyph unicode="&#x2003;" horiz-adv-x="1985" />
<glyph unicode="&#x2004;" horiz-adv-x="661" />
<glyph unicode="&#x2005;" horiz-adv-x="496" />
<glyph unicode="&#x2006;" horiz-adv-x="330" />
<glyph unicode="&#x2007;" horiz-adv-x="330" />
<glyph unicode="&#x2008;" horiz-adv-x="248" />
<glyph unicode="&#x2009;" horiz-adv-x="397" />
<glyph unicode="&#x200a;" horiz-adv-x="110" />
<glyph unicode="&#x2010;" horiz-adv-x="976" d="M113 520v207q0 57 55 57h641q55 0 55 -57v-207q0 -57 -55 -57h-641q-55 0 -55 57z" />
<glyph unicode="&#x2011;" horiz-adv-x="976" d="M113 520v207q0 57 55 57h641q55 0 55 -57v-207q0 -57 -55 -57h-641q-55 0 -55 57z" />
<glyph unicode="&#x2012;" horiz-adv-x="976" d="M113 520v207q0 57 55 57h641q55 0 55 -57v-207q0 -57 -55 -57h-641q-55 0 -55 57z" />
<glyph unicode="&#x2013;" horiz-adv-x="1210" d="M111 526v209q0 58 57 58h876q26 0 41 -15t15 -43v-209q0 -26 -15 -40.5t-41 -14.5h-876q-57 0 -57 55z" />
<glyph unicode="&#x2014;" horiz-adv-x="1628" d="M111 526v209q0 58 57 58h1294q26 0 41 -15t15 -43v-209q0 -26 -15 -40.5t-41 -14.5h-1294q-57 0 -57 55z" />
<glyph unicode="&#x2018;" horiz-adv-x="555" d="M68 983q0 137 73 265.5t187 201.5q49 34 86 -16l12 -19q34 -45 -10 -86q-52 -43 -86 -100.5t-37 -108.5q4 0 11 0.5t12.5 0.5t9.5 -1q67 -6 104 -53t39 -109q0 -81 -54 -132.5t-147 -51.5q-44 0 -79.5 14.5t-57.5 36.5t-36.5 51t-20.5 55.5t-6 51.5z" />
<glyph unicode="&#x2019;" horiz-adv-x="548" d="M88 1296q0 81 53.5 133t145.5 52q44 0 79.5 -14.5t57.5 -36.5t36.5 -51t20.5 -55.5t6 -51.5q0 -136 -72.5 -264t-185.5 -203q-50 -35 -88 16l-12 19q-34 46 12 86q52 43 86 101t35 108q-3 0 -10 -0.5t-13 -0.5t-10 1q-67 7 -104 53.5t-37 107.5z" />
<glyph unicode="&#x201a;" horiz-adv-x="575" d="M82 242q0 81 54 132.5t147 51.5q44 0 79.5 -14.5t57.5 -36.5t36.5 -51t20.5 -55.5t6 -51.5q0 -137 -72.5 -264.5t-187.5 -202.5q-48 -34 -86 17l-12 18q-34 45 10 86q52 43 86 100.5t37 108.5h-33q-67 7 -104 54t-39 108z" />
<glyph unicode="&#x201c;" horiz-adv-x="1099" d="M68 983q0 137 73 265.5t187 201.5q49 34 86 -16l12 -19q34 -45 -10 -86q-52 -43 -86 -100.5t-37 -108.5q4 0 11 0.5t12.5 0.5t9.5 -1q67 -6 104 -53t39 -109q0 -81 -54 -132.5t-147 -51.5q-44 0 -79.5 14.5t-57.5 36.5t-36.5 51t-20.5 55.5t-6 51.5zM612 983 q0 136 73.5 264.5t186.5 202.5q49 34 86 -16l13 -19q34 -45 -10 -86q-53 -43 -86.5 -100.5t-34.5 -108.5h30q67 -6 104.5 -53t39.5 -109q0 -81 -54 -132.5t-147 -51.5q-55 0 -96 21t-62.5 54.5t-32 67.5t-10.5 66z" />
<glyph unicode="&#x201d;" horiz-adv-x="1093" d="M88 1296q0 81 53.5 133t145.5 52q44 0 79.5 -14.5t57.5 -36.5t36.5 -51t20.5 -55.5t6 -51.5q0 -136 -72.5 -264t-185.5 -203q-50 -35 -88 16l-12 19q-34 46 12 86q52 43 86 101t35 108q-3 0 -10 -0.5t-13 -0.5t-10 1q-67 7 -104 53.5t-37 107.5zM633 1296q0 81 53 133 t145 52q55 0 96 -21t62.5 -54.5t32 -67.5t10.5 -66q0 -136 -72.5 -264t-185.5 -203q-25 -17 -48 -12.5t-38 28.5l-14 19q-34 46 12 86q52 43 86 101t35 108q-3 0 -10 -0.5t-13 -0.5t-10 1q-67 7 -104 53.5t-37 107.5z" />
<glyph unicode="&#x201e;" horiz-adv-x="1120" d="M82 242q0 81 54 132.5t147 51.5q44 0 79.5 -14.5t57.5 -36.5t36.5 -51t20.5 -55.5t6 -51.5q0 -137 -72.5 -264.5t-187.5 -202.5q-48 -34 -86 17l-12 18q-34 45 10 86q52 43 86 100.5t37 108.5h-33q-67 7 -104 54t-39 108zM629 242q-2 81 51.5 132.5t146.5 51.5 q55 0 96 -21t62.5 -54.5t32 -67.5t10.5 -66q0 -137 -72.5 -264.5t-187.5 -202.5q-48 -34 -86 17l-12 18q-34 45 10 86q52 43 86 100.5t37 108.5h-33q-67 7 -104 54t-37 108z" />
<glyph unicode="&#x2022;" horiz-adv-x="851" d="M123 530q0 124 89 212.5t214 88.5t214 -88.5t89 -212.5q0 -126 -89 -214.5t-214 -88.5t-214 88.5t-89 214.5z" />
<glyph unicode="&#x2026;" horiz-adv-x="1798" d="M78 168q0 84 61 139t154 55t155 -55t62 -139q0 -82 -62.5 -136.5t-154.5 -54.5t-153.5 54.5t-61.5 136.5zM684 168q0 85 60.5 139.5t154.5 54.5q92 0 154.5 -55t62.5 -139q0 -81 -63 -136t-154 -55q-93 0 -154 54.5t-61 136.5zM1288 168q0 85 60.5 139.5t154.5 54.5 q92 0 154.5 -55t62.5 -139q0 -81 -63 -136t-154 -55q-93 0 -154 54.5t-61 136.5z" />
<glyph unicode="&#x202f;" horiz-adv-x="397" />
<glyph unicode="&#x2039;" horiz-adv-x="755" d="M66 623q0 30 26 63l359 412q35 44 77 2l117 -109q38 -38 4 -80l-250 -290l248 -287q36 -43 -4 -80l-115 -113q-40 -43 -77 4l-359 410q-26 29 -26 68z" />
<glyph unicode="&#x203a;" horiz-adv-x="755" d="M106 911q-33 42 5 80l116 109q42 42 80 -2l359 -412q24 -31 24 -63q0 -41 -24 -68l-359 -410q-40 -47 -80 -4l-114 113q-38 38 -2 80l245 287z" />
<glyph unicode="&#x205f;" horiz-adv-x="496" />
<glyph unicode="&#x20ac;" horiz-adv-x="1495" d="M72 559v33q0 57 55 57h170q0 15 -2 49.5t-2 51.5h-166q-55 0 -55 55v35q0 55 55 55h174q43 251 230 406t483 155q203 0 370 -92q45 -23 23 -76l-86 -182q-21 -47 -76 -25q-103 45 -215 45q-130 0 -223.5 -59.5t-132.5 -171.5h497q31 0 43.5 -17.5t-0.5 -48.5l-16 -38 q-16 -41 -65 -41h-482q0 -39 4 -101h408q31 0 42.5 -18t-1.5 -47l-14 -39q-17 -43 -68 -43h-324q24 -60 68.5 -105t122 -73.5t178.5 -28.5q105 0 211 29q29 9 46 -3.5t17 -41.5v-189q0 -48 -43 -65q-115 -48 -262 -48q-291 0 -484.5 146t-240.5 379h-184q-55 0 -55 57z" />
<glyph unicode="&#x2122;" horiz-adv-x="1818" d="M66 1333v99q0 38 38 38h629q39 0 39 -38v-99q0 -39 -39 -39h-217v-551q0 -38 -37 -38h-119q-36 0 -36 38v551h-220q-38 0 -38 39zM793 745l65 689q3 36 41 36h107q35 0 43 -30l196 -465l195 465q10 30 45 30h110q38 0 41 -36l62 -689q3 -40 -37 -40h-113q-38 0 -41 36 l-30 349l-148 -334q-12 -29 -43 -29h-78q-33 0 -45 29l-145 334l-33 -349q-3 -36 -41 -36h-115q-39 0 -36 40z" />
<glyph unicode="&#x25fc;" horiz-adv-x="1064" d="M0 0v1065h1065v-1065h-1065z" />
</font>
</defs>
</svg>
