<?xml version="1.0" encoding="utf-8"?>
<!-- Generator: Adobe Illustrator 16.0.0, SVG Export Plug-In . SVG Version: 6.00 Build 0)  -->
<!DOCTYPE svg PUBLIC "-//W3C//DTD SVG 1.1//EN" "http://www.w3.org/Graphics/SVG/1.1/DTD/svg11.dtd">
<svg version="1.1" id="Layer_1" xmlns="http://www.w3.org/2000/svg" xmlns:xlink="http://www.w3.org/1999/xlink" x="0px" y="0px"
	 width="328.307px" height="390px" viewBox="0 0 328.307 390" enable-background="new 0 0 328.307 390" xml:space="preserve">
<g>
	<path fill="#2E373A" d="M25.397,1.142h277.512c14.026,0,25.397,11.371,25.397,25.397v338.063c0,14.027-11.371,25.397-25.397,25.397
		H25.397C11.371,390,0,378.63,0,364.603V26.539C0,12.513,11.371,1.142,25.397,1.142z"/>
	<g>
		<path fill="#EEEB6E" d="M290.995,108.837H37.311c-5.386,0-9.752-4.367-9.752-9.753l0,0c0-5.386,4.366-9.752,9.752-9.752h253.685
			c5.387,0,9.753,4.366,9.753,9.752l0,0C300.748,104.47,296.382,108.837,290.995,108.837z"/>
		<path fill="#F26650" d="M290.995,138.093H71.543c-5.386,0-9.752-4.366-9.752-9.752l0,0c0-5.386,4.366-9.752,9.752-9.752h219.452
			c5.387,0,9.753,4.366,9.753,9.752l0,0C300.748,133.727,296.382,138.093,290.995,138.093z"/>
		<path fill="#7ECCBA" d="M290.995,167.35h-185.22c-5.386,0-9.752-4.366-9.752-9.753l0,0c0-5.386,4.366-9.752,9.752-9.752h185.22
			c5.387,0,9.753,4.366,9.753,9.752l0,0C300.748,162.983,296.382,167.35,290.995,167.35z"/>
		<path fill="#9069AD" d="M290.995,196.606H140.008c-5.386,0-9.752-4.367-9.752-9.753l0,0c0-5.386,4.366-9.752,9.752-9.752h150.987
			c5.387,0,9.753,4.366,9.753,9.752l0,0C300.748,192.239,296.382,196.606,290.995,196.606z"/>
		<path fill="#F3F3F4" d="M290.995,225.862H174.24c-5.386,0-9.752-4.366-9.752-9.752l0,0c0-5.387,4.366-9.752,9.752-9.752h116.755
			c5.387,0,9.753,4.365,9.753,9.752l0,0C300.748,221.496,296.382,225.862,290.995,225.862z"/>
		<path fill="#9069AD" d="M290.995,255.119H140.008c-5.386,0-9.752-4.366-9.752-9.753l0,0c0-5.386,4.366-9.752,9.752-9.752h150.987
			c5.387,0,9.753,4.366,9.753,9.752l0,0C300.748,250.753,296.382,255.119,290.995,255.119z"/>
		<path fill="#7ECCBA" d="M290.995,284.375h-185.22c-5.386,0-9.752-4.366-9.752-9.752l0,0c0-5.386,4.366-9.752,9.752-9.752h185.22
			c5.387,0,9.753,4.366,9.753,9.752l0,0C300.748,280.009,296.382,284.375,290.995,284.375z"/>
		<path fill="#F26650" d="M290.995,313.632H71.543c-5.386,0-9.752-4.366-9.752-9.752l0,0c0-5.387,4.366-9.752,9.752-9.752h219.452
			c5.387,0,9.753,4.365,9.753,9.752l0,0C300.748,309.266,296.382,313.632,290.995,313.632z"/>
		<path fill="#EEEB6E" d="M290.995,342.888H37.311c-5.386,0-9.752-4.365-9.752-9.752l0,0c0-5.386,4.366-9.752,9.752-9.752h253.685
			c5.387,0,9.753,4.366,9.753,9.752l0,0C300.748,338.522,296.382,342.888,290.995,342.888z"/>
	</g>
	<path opacity="0.11" fill="#FFFFFF" d="M302.909,1.142c14.026,0,25.397,11.371,25.397,25.397v338.063
		c0,14.027-11.371,25.397-25.397,25.397H25.397C11.371,390,0,378.63,0,364.603"/>
	<path fill="#E4E6E4" d="M21.321,0h285.664c11.775,0,21.321,9.546,21.321,21.321v19.105H0V21.321C0,9.546,9.546,0,21.321,0z"/>
	<g>
		<circle fill="#F05051" cx="28.772" cy="24.67" r="5.092"/>
		<circle fill="#FEDD2F" cx="47.643" cy="24.67" r="5.092"/>
		<circle fill="#7ECCBA" cx="66.514" cy="24.67" r="5.092"/>
	</g>
</g>
</svg>
