<?xml version="1.0" encoding="utf-8"?>
<!-- Generator: Adobe Illustrator 16.0.0, SVG Export Plug-In . SVG Version: 6.00 Build 0)  -->
<!DOCTYPE svg PUBLIC "-//W3C//DTD SVG 1.1//EN" "http://www.w3.org/Graphics/SVG/1.1/DTD/svg11.dtd">
<svg version="1.1" id="Layer_1" xmlns="http://www.w3.org/2000/svg" xmlns:xlink="http://www.w3.org/1999/xlink" x="0px" y="0px"
	 width="271.889px" height="349.597px" viewBox="0 0 271.889 349.597" enable-background="new 0 0 271.889 349.597"
	 xml:space="preserve">
<g>
	<g>
		<path fill="#B7E1D8" d="M29.556,25.264l3.353,0.517l-2.143-2.671l15.012-2.313c0.754-0.116,0.754-1.201,0-1.317l-15.011-2.312
			l2.143-2.671l-3.354,0.517l5.495-14.098c0.277-0.711-0.664-1.255-1.141-0.66l-9.491,11.831l-1.248-3.203l-1.248,3.202
			l-9.489-11.83c-0.478-0.595-1.418-0.052-1.142,0.659l5.495,14.099l-3.354-0.518l2.143,2.672L0.564,19.479
			c-0.753,0.116-0.753,1.201,0,1.317l15.011,2.313l-2.142,2.67l3.353-0.516l-5.495,14.098c-0.276,0.711,0.664,1.254,1.142,0.659
			l9.49-11.831l1.248,3.203l1.248-3.202l9.49,11.83c0.477,0.595,1.418,0.052,1.141-0.659L29.556,25.264z"/>
	</g>
	<g>
		<path fill="#B7E1D8" d="M261.743,97.68l2.025,0.312l-1.295-1.614l9.073-1.397c0.456-0.07,0.456-0.727,0-0.797l-9.072-1.398
			l1.294-1.613l-2.025,0.312l3.32-8.521c0.168-0.43-0.4-0.758-0.689-0.398l-5.735,7.15l-0.755-1.936l-0.754,1.936l-5.736-7.15
			c-0.288-0.359-0.856-0.031-0.689,0.398l3.321,8.521l-2.026-0.312l1.295,1.613l-9.073,1.398c-0.456,0.07-0.456,0.727,0,0.797
			l9.072,1.397l-1.294,1.614l2.025-0.312l-3.32,8.521c-0.168,0.43,0.4,0.758,0.689,0.398l5.736-7.15l0.754,1.936l0.755-1.936
			l5.735,7.15c0.288,0.359,0.856,0.031,0.689-0.398L261.743,97.68z"/>
	</g>
	<g>
		<path fill="#B7E1D8" d="M27.029,292.859l2.027,0.312l-1.295-1.614l9.072-1.398c0.456-0.07,0.456-0.726,0-0.796l-9.072-1.397
			l1.295-1.614l-2.026,0.312l3.32-8.521c0.168-0.43-0.4-0.758-0.689-0.398l-5.735,7.15l-0.755-1.936l-0.754,1.936l-5.736-7.15
			c-0.288-0.36-0.856-0.031-0.689,0.398l3.321,8.521l-2.026-0.312l1.295,1.615l-9.073,1.397c-0.456,0.07-0.456,0.726,0,0.796
			l9.072,1.398l-1.294,1.614l2.025-0.312l-3.32,8.521c-0.168,0.43,0.4,0.759,0.689,0.398l5.736-7.15l0.754,1.937l0.755-1.936
			l5.735,7.15c0.288,0.359,0.856,0.03,0.689-0.398L27.029,292.859z"/>
	</g>
	<g>
		<path fill="#FEDD2F" d="M185.985,6.359L59.246,133.098c-8.083,8.083-2.358,21.904,9.073,21.904h31.703L55.2,228.509
			c-5.215,8.55,0.94,19.512,10.955,19.512h35.542l-28.528,84.566c-4.382,12.987,11.918,22.876,21.412,12.989l101.775-105.972
			c7.832-8.155,2.053-21.72-9.255-21.72h-18.437l58.689-80.031c6.216-8.476,0.163-20.42-10.348-20.42h-31.601l22.175-99.203
			C210.384,5.695,195.068-2.724,185.985,6.359z"/>
	</g>
	<g opacity="0.31">
		<path fill="#FFFFFF" d="M217.007,117.434h-27.405c18.976,3.872,31.255,15.533,29.647,31.473l8.105-11.053
			C233.57,129.378,227.518,117.434,217.007,117.434z"/>
	</g>
	<g opacity="0.31">
		<path fill="#FFFFFF" d="M188.29,248.004l8.066-8.399c7.832-8.155,2.053-21.72-9.255-21.72H170.87
			c0.023,0.01,0.039,0.024,0.065,0.031C182.213,221.133,194.388,233.509,188.29,248.004z"/>
	</g>
	<g opacity="0.2">
		<path fill="#808082" d="M70.607,205.604c-0.816,0.518-1.642,1.086-2.474,1.694L55.2,228.509
			c-5.215,8.55,0.94,19.512,10.955,19.512h20.876C72.154,242.761,57.186,225.144,70.607,205.604z"/>
	</g>
	<g opacity="0.2">
		<path fill="#808082" d="M88.918,153.633c-11.739-3.348-24.374-15.876-19.416-30.791l-10.256,10.256
			c-8.083,8.083-2.358,21.904,9.073,21.904h20.65C89.4,154.364,89.499,153.799,88.918,153.633z"/>
	</g>
	<g>
		<path fill="#FFE36E" d="M150.385,205.506c-0.933,0-1.877-0.261-2.718-0.807c-2.316-1.504-2.975-4.601-1.472-6.917l6.818-10.504
			c1.505-2.314,4.602-2.975,6.917-1.472c2.316,1.504,2.975,4.601,1.472,6.917l-6.818,10.504
			C153.626,204.703,152.021,205.506,150.385,205.506z"/>
	</g>
	<g>
		<path fill="#FFE36E" d="M167.915,178.501c-0.933,0-1.876-0.261-2.718-0.807c-2.315-1.504-2.975-4.601-1.472-6.917l17.275-26.614
			c1.504-2.314,4.599-2.975,6.917-1.472c2.315,1.504,2.975,4.601,1.472,6.917l-17.275,26.614
			C171.156,177.698,169.552,178.501,167.915,178.501z"/>
	</g>
	<g>
		<path fill="#FFE36E" d="M112.169,310.468c-1.153,0-2.312-0.396-3.255-1.206c-2.095-1.798-2.336-4.955-0.537-7.051l8.155-9.502
			c1.799-2.095,4.957-2.334,7.051-0.537c2.095,1.798,2.336,4.955,0.537,7.051l-8.155,9.502
			C114.977,309.876,113.576,310.468,112.169,310.468z"/>
	</g>
	<g>
		<path fill="#FFE36E" d="M133.138,286.038c-1.153,0-2.312-0.396-3.255-1.206c-2.095-1.798-2.336-4.955-0.537-7.051l7.627-8.887
			c1.799-2.095,4.957-2.334,7.051-0.537c2.095,1.798,2.336,4.955,0.537,7.051l-7.627,8.887
			C135.945,285.446,134.545,286.038,133.138,286.038z"/>
	</g>
	<g>
		<path fill="#F5F5F6" d="M18.269,255.583c-2.762,0-5-2.238-5-5v-97.74c0-2.762,2.238-5,5-5s5,2.238,5,5v97.74
			C23.269,253.345,21.03,255.583,18.269,255.583z"/>
	</g>
	<g>
		<path fill="#F5F5F6" d="M18.269,138.17c-2.762,0-5-2.238-5-5v-26.417c0-2.762,2.238-5,5-5s5,2.238,5,5v26.417
			C23.269,135.932,21.03,138.17,18.269,138.17z"/>
	</g>
	<g>
		<path fill="#F5F5F6" d="M82.936,45.275c-2.762,0-5-2.238-5-5V27.978c0-2.762,2.238-5,5-5s5,2.238,5,5v12.297
			C87.936,43.037,85.697,45.275,82.936,45.275z"/>
	</g>
	<g>
		<path fill="#F5F5F6" d="M82.936,84.286c-2.762,0-5-2.238-5-5V58.243c0-2.762,2.238-5,5-5s5,2.238,5,5v21.043
			C87.936,82.047,85.697,84.286,82.936,84.286z"/>
	</g>
	<g>
		<path fill="#F5F5F6" d="M238.936,260.081c-2.762,0-5-2.238-5-5v-14.12c0-2.762,2.238-5,5-5s5,2.238,5,5v14.12
			C243.936,257.842,241.697,260.081,238.936,260.081z"/>
	</g>
	<g>
		<path fill="#F5F5F6" d="M238.936,226.389c-2.762,0-5-2.238-5-5V183.25c0-2.762,2.238-5,5-5s5,2.238,5,5v38.139
			C243.936,224.151,241.697,226.389,238.936,226.389z"/>
	</g>
</g>
</svg>
