<?xml version="1.0" encoding="utf-8"?>
<!-- Generator: Adobe Illustrator 16.0.0, SVG Export Plug-In . SVG Version: 6.00 Build 0)  -->
<!DOCTYPE svg PUBLIC "-//W3C//DTD SVG 1.1//EN" "http://www.w3.org/Graphics/SVG/1.1/DTD/svg11.dtd">
<svg version="1.1" id="Layer_1" xmlns="http://www.w3.org/2000/svg" xmlns:xlink="http://www.w3.org/1999/xlink" x="0px" y="0px"
	 width="227.153px" height="390px" viewBox="0 0 227.153 390" enable-background="new 0 0 227.153 390" xml:space="preserve">
<g>
	<path fill="#9069AD" d="M113.576,8.558C50.95,8.558,0,59.509,0,122.135c0,60.155,33.342,95.47,58.421,116.8l15.602,12.161
		l4.363-4.567c9.019-9.438,20.53-19.351,34.265-29.512l40.078,32.979l4.373-3.176c26.162-19.001,70.052-60.466,70.052-124.685
		C227.153,59.509,176.202,8.558,113.576,8.558z M64.721,122.135c0-26.939,21.917-48.856,48.855-48.856
		c26.939,0,48.855,21.917,48.855,48.856c0,29.773-25.725,59.479-49.389,77.303L99.82,189.183
		C75.221,168.103,64.721,148.042,64.721,122.135z"/>
	<path fill="#FEDD2F" d="M181.389,268.263c-4.412-9.135-10.313-17.775-17.938-26.243c2.323-1.825,4.601-3.693,6.814-5.592
		l5.784-4.959l-46.687-45.806l-4.881,4.385c-4.941,4.439-10.188,8.615-15.655,12.458c-16.36,11.769-30.001,23.332-40.546,34.367
		c-29.812,31.2-32.309,55.343-32.309,75.523c0,42.791,34.812,77.604,77.604,77.604s77.604-34.812,77.604-77.604
		C191.181,296.563,187.886,281.714,181.389,268.263z M126.46,312.397c0,7.104-5.78,12.883-12.884,12.883
		c-7.104,0-12.883-5.778-12.883-12.883c0-4.499-0.001-13.389,13.206-28.776C123.07,293.117,126.46,301.185,126.46,312.397z"/>
	<ellipse opacity="0.2" fill="#2E373A" cx="62.41" cy="59.012" rx="26.006" ry="6.284"/>
	<ellipse opacity="0.2" fill="#2E373A" cx="34.484" cy="108.172" rx="26.006" ry="6.284"/>
	<ellipse opacity="0.2" fill="#2E373A" cx="35.643" cy="159.87" rx="26.006" ry="6.284"/>
	<ellipse opacity="0.2" fill="#2E373A" cx="163.971" cy="59.012" rx="26.006" ry="6.284"/>
	<ellipse opacity="0.2" fill="#2E373A" cx="191.896" cy="108.172" rx="26.006" ry="6.284"/>
	<ellipse opacity="0.2" fill="#2E373A" cx="190.738" cy="159.87" rx="26.006" ry="6.284"/>
	<ellipse opacity="0.2" fill="#2E373A" cx="63.042" cy="211.056" rx="26.006" ry="6.284"/>
	<ellipse opacity="0.2" fill="#2E373A" cx="113.577" cy="46.569" rx="26.006" ry="6.284"/>
	<line opacity="0.2" fill="#2E373A" x1="109.901" y1="205.847" x2="106.726" y2="203.382"/>
	<path opacity="0.2" fill="#2E373A" d="M109.901,196.989l3.142,2.449c-26.955,19.392-34.165,25.617-50,42.582
		c0,0-6.7-4.858-10.576-8.298C91.92,215.346,109.901,196.989,109.901,196.989z"/>
	<path fill="#F26650" d="M100.426,30.893h26.302l-0.495-2.313c-0.771-3.605-1.055-7.298-0.843-10.979l0.565-9.844l-24.757-0.385
		l0.577,10.234c0.207,3.677-0.079,7.365-0.852,10.965L100.426,30.893z"/>
	<path fill="#7ECCBA" d="M130.98,46.818c2.473-0.822,3.981-3.372,3.421-5.917c-2.108-9.56-10.631-16.712-20.825-16.712
		c-10.193,0-18.716,7.152-20.824,16.712c-0.561,2.545,0.948,5.095,3.421,5.917l0,0C107.471,50.577,119.682,50.577,130.98,46.818
		L130.98,46.818z"/>
	<path opacity="0.2" fill="#9F9EA0" d="M113.576,32.844c-4.377,0-8.163-2.502-10.029-6.149c2.99-1.597,6.403-2.506,10.029-2.506
		c3.627,0,7.039,0.909,10.029,2.506C121.74,30.342,117.954,32.844,113.576,32.844z"/>
	<path fill="#FAC1B4" d="M124.844,17.354c0,6.403-5.342,11.559-11.812,11.254c-6.061-0.285-10.723-5.505-10.723-11.572v-4.383
		c0-1.677,1.358-3.036,3.035-3.036h16.464c1.677,0,3.035,1.359,3.035,3.036V17.354z"/>
	<path fill="#B8E1D6" d="M103.96,45.568l1.763,0.767l1.763-0.767c0.891-0.387,1.467-1.266,1.467-2.236v-5.326h-6.459v5.326
		C102.493,44.302,103.069,45.181,103.96,45.568z"/>
	<rect x="102.493" y="38.005" fill="#D3ECE4" width="6.459" height="1.994"/>
	<circle fill="#FAC1B4" cx="124.844" cy="18.535" r="1.848"/>
	<circle fill="#FAC1B4" cx="102.309" cy="18.535" r="1.847"/>
	<path opacity="0.2" fill="#494D50" d="M101.198,9.341c0-2.13,1.013-4.08,2.622-5.052l0,0c5.833-3.519,13.402-3.558,19.279-0.099
		l0.19,0.112c1.634,0.962,2.665,2.927,2.665,3.598v10.13l-17.095-5.34l-7.662,5.34V9.341z"/>
	<path fill="#F26650" d="M101.198,7.718c0-2.13,1.013-4.08,2.622-5.051l0,0c5.833-3.52,13.402-3.559,19.279-0.1l0.19,0.112
		c1.634,0.962,2.665,2.927,2.665,5.077v10.129l-17.095-6.818l-7.662,6.818V7.718z"/>
	<path fill="#FFE472" d="M79.813,58.97c2.472-0.822,3.981-3.372,3.421-5.916c-2.108-9.561-10.631-16.713-20.825-16.713
		c-10.193,0-18.716,7.152-20.824,16.713c-0.561,2.544,0.948,5.094,3.421,5.916l0,0C56.304,62.729,68.516,62.729,79.813,58.97
		L79.813,58.97z"/>
	<path opacity="0.2" fill="#494D50" d="M62.409,44.997c-4.378,0-8.163-2.502-10.028-6.149c2.989-1.597,6.402-2.506,10.028-2.506
		c3.627,0,7.04,0.909,10.029,2.506C70.573,42.495,66.787,44.997,62.409,44.997z"/>
	<path fill="#FDDDCD" d="M73.677,29.506c0,6.403-5.342,11.56-11.812,11.255c-6.061-0.285-10.723-5.506-10.723-11.573v-4.383
		c0-1.677,1.358-3.036,3.035-3.036h16.464c1.677,0,3.035,1.359,3.035,3.036V29.506z"/>
	<path fill="#FFE36E" d="M52.793,57.721l1.763,0.767l1.763-0.767c0.891-0.388,1.467-1.267,1.467-2.237v-5.325h-6.459v5.325
		C51.326,56.455,51.902,57.333,52.793,57.721z"/>
	<rect x="51.326" y="50.159" fill="#FFE88B" width="6.459" height="1.994"/>
	<circle fill="#FDDDCD" cx="73.677" cy="29.506" r="1.848"/>
	<circle fill="#FDDDCD" cx="51.142" cy="29.506" r="1.847"/>
	<path opacity="0.2" fill="#88888A" d="M51.37,19.718c2.239-2.006,5.366-2.383,7.939-1.219c2.434-2.557,6.193-3.66,9.781-2.514
		c5.002,1.599,7.346,6.535,5.747,11.536c-1.156,3.62-10.546,2.001-15.271-1.294c-2.844,3.059-7.196,4.717-8.77,2.96
		C48.088,26.163,48.344,22.427,51.37,19.718z"/>
	<path fill="#B69ECB" d="M57.14,20.993c-1.599,5.001,16.515,10.791,18.112,5.789c1.6-5.002-1.159-10.353-6.161-11.951
		S58.738,15.991,57.14,20.993z"/>
	<path fill="#B69ECB" d="M50.798,28.948c2.709,3.026,13.667-6.787,10.957-9.812c-2.71-3.026-7.359-3.282-10.385-0.572
		C48.344,21.273,48.088,25.922,50.798,28.948z"/>
	<path fill="#FBBDA2" d="M51.888,107.581c2.473-0.823,3.981-3.372,3.421-5.917C53.2,92.103,44.678,84.952,34.484,84.952
		c-10.194,0-18.717,7.151-20.825,16.712c-0.561,2.545,0.948,5.094,3.421,5.917l0,0C28.378,111.339,40.59,111.339,51.888,107.581
		L51.888,107.581z"/>
	<path opacity="0.2" fill="#494D50" d="M34.484,93.607c-4.379,0-8.164-2.502-10.029-6.149c2.989-1.597,6.402-2.506,10.029-2.506
		c3.626,0,7.039,0.909,10.029,2.506C42.647,91.105,38.861,93.607,34.484,93.607z"/>
	<path fill="#FFECA6" d="M45.751,78.116c0,6.403-5.341,11.56-11.812,11.255c-6.061-0.285-10.723-5.506-10.723-11.572v-4.383
		c0-1.678,1.358-3.036,3.035-3.036h16.464c1.677,0,3.035,1.358,3.035,3.036V78.116z"/>
	<path opacity="0.1" fill="#494D50" d="M33.939,88.21c6.471,0.305,11.812-5.442,11.812-11.846v1.751
		c0,6.403-5.341,11.56-11.812,11.255c-6.061-0.285-10.723-5.506-10.723-11.572v-1.752C23.217,82.113,27.879,87.925,33.939,88.21z"/>
	<path fill="#FCCAB3" d="M24.867,106.331l1.763,0.767l1.763-0.767c0.891-0.387,1.467-1.266,1.467-2.237v-5.325H23.4v5.325
		C23.4,105.065,23.977,105.944,24.867,106.331z"/>
	<rect x="23.4" y="98.768" fill="#FDD3C0" width="6.459" height="1.994"/>
	<path fill="#FFECA6" d="M43.524,78.116c0,1.021,0.827,1.848,1.848,1.848s1.848-0.827,1.848-1.848c0-0.289,0-1.182,0-1.182
		s-1.117-0.666-1.848-0.666C44.352,76.268,43.524,77.095,43.524,78.116z"/>
	<path fill="#FFECA6" d="M25.443,78.116c0,1.021-0.827,1.848-1.848,1.848s-1.848-0.827-1.848-1.848c0-0.289,0-1.182,0-1.182
		s1.117-0.666,1.848-0.666C24.616,76.268,25.443,77.095,25.443,78.116z"/>
	<path opacity="0.2" fill="#494D50" d="M26.447,64.786L26.447,64.786c4.973-2.873,11.101-2.873,16.073,0l0,0
		c2.908,1.681,4.699,4.784,4.699,8.143v4.738H36.338l-1.854-1.956l-1.842,1.956H21.748v-4.738
		C21.748,69.57,23.539,66.466,26.447,64.786z"/>
	<path fill="#2E373A" d="M26.447,64.052L26.447,64.052c4.973-2.873,11.101-2.873,16.073,0l0,0c2.908,1.681,4.699,4.785,4.699,8.144
		v4.738H36.338l-1.854-2.009l-1.842,2.009H21.748v-4.738C21.748,68.837,23.539,65.733,26.447,64.052z"/>
	<path fill="#FEDD2F" d="M80.446,210.962c2.473-0.822,3.981-3.372,3.421-5.917c-2.108-9.56-10.631-16.712-20.824-16.712
		s-18.717,7.152-20.825,16.712c-0.561,2.545,0.948,5.095,3.421,5.917l0,0C56.938,214.721,69.148,214.721,80.446,210.962
		L80.446,210.962z"/>
	<path opacity="0.2" fill="#494D50" d="M63.043,196.989c-4.378,0-8.164-2.502-10.029-6.149c2.989-1.597,6.402-2.506,10.029-2.506
		c3.626,0,7.039,0.909,10.029,2.506C71.207,194.487,67.421,196.989,63.043,196.989z"/>
	<path fill="#FDDDCD" d="M74.311,181.498c0,6.404-5.342,11.561-11.812,11.255c-6.061-0.285-10.723-5.505-10.723-11.572v-4.383
		c0-1.677,1.359-3.036,3.035-3.036h16.464c1.677,0,3.036,1.359,3.036,3.036V181.498z"/>
	<path fill="#FFE36E" d="M53.426,209.712l1.763,0.767l1.763-0.767c0.891-0.387,1.467-1.266,1.467-2.236v-5.326h-6.459v5.326
		C51.959,208.447,52.535,209.326,53.426,209.712z"/>
	<rect x="51.959" y="202.15" fill="#FFE88B" width="6.459" height="1.994"/>
	<path opacity="0.2" fill="#88888A" d="M52.42,185.653c-1.668,0-3.021-1.353-3.021-3.021c0-1.013,0.503-1.903,1.268-2.452
		c-1.851-2.818-1.363-6.051,1.337-8.47c2.239-2.005,5.366-2.382,7.94-1.218c2.433-2.557,6.192-3.661,9.78-2.514
		c5.002,1.599,7.347,6.535,5.747,11.536c-0.198,0.622-0.645,1.086-1.264,1.417c-0.115,0.724-0.519,1.35-1.09,1.761
		c0.042-0.003,0.081-0.013,0.123-0.013c1.43,0,2.587,1.158,2.587,2.586c0,0.965-0.534,1.797-1.317,2.242
		c0.031,0.163,0.051,0.331,0.051,0.504c0,1.516-1.229,2.744-2.744,2.744c-1.517,0-2.746-1.229-2.746-2.744
		c0-1.109,0.662-2.061,1.609-2.493c-0.009-0.084-0.025-0.166-0.025-0.253c0-0.857,0.422-1.612,1.066-2.083
		c-0.057,0.003-0.108,0.017-0.165,0.017c-1.155,0-2.132-0.732-2.513-1.756c-3.051-0.383-6.513-1.599-8.842-3.224
		c-1.454,1.563-3.301,2.758-4.971,3.32c0.133,0.339,0.212,0.706,0.212,1.092c0,0.432-0.094,0.84-0.257,1.212
		c0.554,0.306,0.934,0.889,0.934,1.566c0,0.59-0.287,1.108-0.726,1.436c0.258,0.329,0.417,0.738,0.417,1.188
		c0,0.013-0.003,0.024-0.003,0.038c0.586,0.429,0.972,1.116,0.972,1.898c0,1.303-1.056,2.358-2.358,2.358
		c-1.302,0-2.357-1.056-2.357-2.358c0-0.318,0.064-0.622,0.18-0.899c-0.191-0.301-0.306-0.655-0.306-1.037
		c0-0.683,0.355-1.281,0.891-1.626c-0.15-0.225-0.244-0.486-0.28-0.768C52.505,185.642,52.464,185.653,52.42,185.653z"/>
	<g>
		<circle fill="#F8B5C1" cx="74.311" cy="181.498" r="1.848"/>
		<circle fill="#F8B5C1" cx="51.775" cy="181.498" r="1.848"/>
		<path fill="#F06389" d="M57.773,172.984c-1.599,5.002,16.514,10.791,18.112,5.79c1.599-5.002-1.16-10.353-6.162-11.951
			C64.723,165.224,59.372,167.983,57.773,172.984z"/>
		<path fill="#F06389" d="M51.431,180.94c2.71,3.025,13.667-6.787,10.957-9.813c-2.709-3.025-7.358-3.281-10.385-0.572
			C48.978,173.264,48.721,177.914,51.431,180.94z"/>
		<circle fill="#F06389" cx="59.782" cy="170.787" r="3.261"/>
		<circle fill="#F06389" cx="76.125" cy="176.91" r="1.814"/>
		<circle fill="#F06389" cx="49.893" cy="176.579" r="1.475"/>
		<circle fill="#F06389" cx="51.013" cy="182.631" r="3.021"/>
		<circle fill="#F06389" cx="52.466" cy="188.034" r="1.937"/>
		<circle fill="#F06389" cx="49.555" cy="187.853" r="1.937"/>
		<circle fill="#F06389" cx="50.903" cy="186.708" r="1.789"/>
		<circle fill="#F06389" cx="50.271" cy="190.173" r="1.492"/>
		<circle fill="#F06389" cx="48.892" cy="182.631" r="2.01"/>
		<circle fill="#F06389" cx="48.781" cy="185.41" r="1.669"/>
		<circle fill="#F06389" cx="53.013" cy="189.97" r="2.358"/>
		<circle fill="#F06389" cx="72.963" cy="180.511" r="2.688"/>
		<circle fill="#F06389" cx="76.289" cy="181.035" r="2.97"/>
		<circle fill="#F06389" cx="74.648" cy="185.265" r="2.587"/>
		<circle fill="#F06389" cx="77.097" cy="184.853" r="1.81"/>
		<circle fill="#F06389" cx="73.224" cy="188.011" r="2.745"/>
		<circle fill="#F06389" cx="76.015" cy="188.128" r="1.924"/>
		<circle fill="#F06389" cx="73.804" cy="190.175" r="2.165"/>
		<circle fill="#F06389" cx="52.915" cy="185.41" r="1.797"/>
		<circle fill="#F06389" cx="49.114" cy="178.894" r="2.003"/>
	</g>
	<path fill="#7ECCBA" d="M209.32,160.353c2.473-0.823,3.981-3.373,3.421-5.917c-2.108-9.56-10.631-16.712-20.824-16.712
		c-10.194,0-18.717,7.152-20.825,16.712c-0.561,2.544,0.948,5.094,3.421,5.917l0,0C185.811,164.111,198.022,164.111,209.32,160.353
		L209.32,160.353z"/>
	<path opacity="0.2" fill="#494D50" d="M191.917,146.378c-4.378,0-8.164-2.502-10.029-6.148c2.989-1.598,6.402-2.506,10.029-2.506
		c3.626,0,7.039,0.908,10.028,2.506C200.08,143.876,196.295,146.378,191.917,146.378z"/>
	<path fill="#FAC1B4" d="M203.184,130.888c0,6.403-5.342,11.56-11.812,11.255c-6.061-0.286-10.723-5.506-10.723-11.573v-4.383
		c0-1.676,1.358-3.035,3.035-3.035h16.464c1.677,0,3.035,1.359,3.035,3.035V130.888z"/>
	<path fill="#B8E1D6" d="M182.3,159.103l1.763,0.767l1.763-0.767c0.891-0.387,1.467-1.266,1.467-2.237v-5.325h-6.459v5.325
		C180.833,157.837,181.409,158.716,182.3,159.103z"/>
	<rect x="180.833" y="151.541" fill="#D3ECE4" width="6.459" height="1.994"/>
	<circle fill="#FAC1B4" cx="204.592" cy="129.041" r="1.848"/>
	<circle fill="#FAC1B4" cx="179.241" cy="129.041" r="1.848"/>
	<path fill="#F05067" d="M190.104,115.403h3.626c5.998,0,10.86,4.862,10.86,10.86v2.777l0,0c-7.913-4.257-17.434-4.257-25.347,0l0,0
		v-2.777C179.243,120.265,184.105,115.403,190.104,115.403z"/>
	<path fill="#F05067" d="M194.405,123.176h1.195c1.257,0,2.275,1.02,2.275,2.276v3.99l0,0c-1.917,0-3.471-1.554-3.471-3.471V123.176
		z"/>
	<path fill="#F05067" d="M197.762,124.497h1.195c1.257,0,2.276,1.019,2.276,2.276v3.99l0,0c-1.917,0-3.472-1.554-3.472-3.471
		V124.497z"/>
	<path fill="#F05067" d="M201.118,125.908h1.195c1.257,0,2.276,1.019,2.276,2.275v3.99l0,0c-1.918,0-3.472-1.554-3.472-3.471
		V125.908z"/>
	<path fill="#F05067" d="M189.428,123.176h-1.195c-1.257,0-2.275,1.02-2.275,2.276v3.99l0,0c1.917,0,3.471-1.554,3.471-3.471
		V123.176z"/>
	<path fill="#F05067" d="M191.049,121.945h1.195c1.257,0,2.275,1.02,2.275,2.276v3.99l0,0c-1.917,0-3.471-1.554-3.471-3.472V121.945
		z"/>
	<path fill="#F05067" d="M192.784,121.945h-1.195c-1.257,0-2.275,1.02-2.275,2.276v3.99l0,0c1.917,0,3.471-1.554,3.471-3.472
		V121.945z"/>
	<path fill="#F05067" d="M186.071,124.497h-1.195c-1.257,0-2.275,1.019-2.275,2.276v3.99l0,0c1.917,0,3.471-1.554,3.471-3.471
		V124.497z"/>
	<path fill="#F05067" d="M182.715,125.908h-1.195c-1.257,0-2.276,1.019-2.276,2.275v3.99l0,0c1.917,0,3.472-1.554,3.472-3.471
		V125.908z"/>
	<path fill="none" d="M113.576,326.402c8.767,0,15.898-7.131,15.898-15.896c0-12.688-4.992-21.152-15.9-31.031
		c-15.305,15.89-15.896,25.459-15.896,31.031C97.679,319.271,104.811,326.402,113.576,326.402z"/>
	<path opacity="0.2" fill="#616365" d="M167.34,246.402c0,0-32.797,27.601-45.054,48.246c-1.003-3.623-8.387-11.027-8.387-11.027
		c11.548-13.267,49.552-41.601,49.552-41.601L167.34,246.402z"/>
	<rect x="151.816" y="27.935" fill="#EEEB6E" width="25.196" height="10.498"/>
	<path fill="#B1B0B1" d="M181.818,58.97c2.473-0.822,3.981-3.372,3.421-5.916c-2.108-9.561-10.631-16.713-20.825-16.713
		c-10.193,0-18.716,7.152-20.824,16.713c-0.561,2.544,0.948,5.094,3.421,5.916l0,0C158.309,62.729,170.521,62.729,181.818,58.97
		L181.818,58.97z"/>
	<path opacity="0.2" fill="#494D50" d="M164.414,44.997c-4.377,0-8.163-2.502-10.028-6.149c2.989-1.597,6.402-2.506,10.028-2.506
		c3.627,0,7.04,0.909,10.029,2.506C172.578,42.495,168.793,44.997,164.414,44.997z"/>
	<path fill="#FDDDCD" d="M175.682,29.506c0,6.403-5.342,11.56-11.812,11.255c-6.061-0.285-10.723-5.506-10.723-11.573v-4.383
		c0-1.677,1.358-3.036,3.035-3.036h16.464c1.677,0,3.035,1.359,3.035,3.036V29.506z"/>
	<path fill="#C4C3C4" d="M154.798,57.721l1.763,0.767l1.763-0.767c0.891-0.388,1.467-1.267,1.467-2.237v-5.325h-6.459v5.325
		C153.331,56.455,153.907,57.333,154.798,57.721z"/>
	<rect x="153.331" y="50.159" fill="#A3A2A4" width="6.459" height="1.994"/>
	<circle fill="#FDDDCD" cx="175.682" cy="29.506" r="1.848"/>
	<circle fill="#FDDDCD" cx="153.147" cy="29.506" r="1.848"/>
	<path opacity="0.2" fill="#494D50" d="M160.835,16.687h7.159c5.138,0,9.303,4.164,9.303,9.302v5.76l-21.34-7.642l-4.425,9.555
		v-5.14v-2.533C151.532,20.851,155.697,16.687,160.835,16.687z"/>
	<path fill="#EEEB6E" d="M160.835,15.067h7.159c5.138,0,9.303,4.165,9.303,9.302v7.38l-21.34-9.261l-4.425,11.174v-6.76v-2.533
		C151.532,19.232,155.697,15.067,160.835,15.067z"/>
	<path fill="#9BD6C7" d="M53.046,160.353c2.473-0.823,3.982-3.373,3.421-5.917c-2.107-9.56-10.631-16.712-20.824-16.712
		s-18.717,7.152-20.824,16.712c-0.562,2.544,0.948,5.094,3.42,5.917l0,0C29.537,164.111,41.748,164.111,53.046,160.353
		L53.046,160.353z"/>
	<path opacity="0.2" fill="#494D50" d="M35.643,146.378c-4.378,0-8.164-2.502-10.029-6.148c2.99-1.598,6.402-2.506,10.029-2.506
		c3.626,0,7.039,0.908,10.029,2.506C43.807,143.876,40.021,146.378,35.643,146.378z"/>
	<path fill="#FBD1CE" d="M46.91,130.888c0,6.403-5.342,11.56-11.812,11.255c-6.061-0.286-10.723-5.506-10.723-11.573v-4.383
		c0-1.676,1.359-3.035,3.036-3.035h16.463c1.677,0,3.036,1.359,3.036,3.035V130.888z"/>
	<path fill="#B8E1D6" d="M26.025,159.103l1.763,0.767l1.764-0.767c0.891-0.387,1.467-1.266,1.467-2.237v-5.325h-6.46v5.325
		C24.559,157.837,25.135,158.716,26.025,159.103z"/>
	<rect x="24.559" y="151.541" fill="#D3ECE4" width="6.46" height="1.994"/>
	<circle fill="#FBD1CE" cx="46.91" cy="130.888" r="1.848"/>
	<circle fill="#FBD1CE" cx="24.375" cy="130.888" r="1.848"/>
	<path fill="#F8AEAC" d="M43.771,120.722h1.916c2.016,0,3.649,1.635,3.649,3.649v6.398l0,0c-3.073,0-5.565-2.491-5.565-5.565
		V120.722z"/>
	<path fill="#F8AEAC" d="M45.756,127.113H43.84c-2.015,0-3.649-1.635-3.649-3.65v-6.397l0,0c3.074,0,5.565,2.491,5.565,5.565
		V127.113z"/>
	<path fill="#F8AEAC" d="M32.442,117.187L32.442,117.187c-5.476,0-9.915,4.439-9.915,9.916v4.669h0.965
		c4.943,0,8.95-4.007,8.95-8.95V117.187z"/>
	<path fill="#F8AEAC" d="M24.984,129.068v-0.938c0-0.985-0.799-1.785-1.785-1.785H20.07l0,0c0,1.504,1.219,2.723,2.722,2.723H24.984
		z"/>
	<path fill="#F8AEAC" d="M25.613,126.515v-0.937c0-0.986-0.799-1.785-1.785-1.785h-3.13l0,0c0,1.503,1.219,2.722,2.723,2.722H25.613
		z"/>
	<path fill="#F8AEAC" d="M35.938,114.841L35.938,114.841c2.941,0,5.325,2.384,5.325,5.324l0,0c0,4.343-3.521,7.863-7.863,7.863
		h-2.786v-7.863C30.614,117.225,32.998,114.841,35.938,114.841z"/>
	<path fill="#F26650" d="M208.452,107.581c2.473-0.823,3.982-3.372,3.421-5.917c-2.107-9.561-10.631-16.712-20.824-16.712
		s-18.717,7.151-20.824,16.712c-0.562,2.545,0.948,5.094,3.421,5.917l0,0C184.943,111.339,197.154,111.339,208.452,107.581
		L208.452,107.581z"/>
	<path opacity="0.2" fill="#494D50" d="M191.049,93.607c-4.378,0-8.164-2.502-10.029-6.149c2.99-1.597,6.402-2.506,10.029-2.506
		s7.039,0.909,10.029,2.506C199.213,91.105,195.427,93.607,191.049,93.607z"/>
	<path fill="#FDDDCD" d="M202.316,78.116c0,6.403-5.342,11.56-11.812,11.255c-6.061-0.285-10.723-5.506-10.723-11.572v-4.383
		c0-1.678,1.359-3.036,3.036-3.036h16.463c1.677,0,3.036,1.358,3.036,3.036V78.116z"/>
	<path fill="#F47960" d="M181.432,106.331l1.764,0.767l1.763-0.767c0.891-0.387,1.467-1.266,1.467-2.237v-5.325h-6.46v5.325
		C179.965,105.065,180.541,105.944,181.432,106.331z"/>
	<rect x="179.965" y="98.768" fill="#F79980" width="6.46" height="1.994"/>
	<circle fill="#FDDDCD" cx="202.316" cy="78.116" r="1.848"/>
	<circle fill="#FDDDCD" cx="179.781" cy="78.116" r="1.848"/>
	<path opacity="0.2" fill="#88888A" d="M180.009,68.328c2.239-2.006,5.367-2.382,7.94-1.218c2.434-2.558,6.193-3.661,9.781-2.515
		c5.001,1.599,7.346,6.535,5.747,11.537c-1.157,3.619-10.546,2-15.271-1.295c-2.845,3.059-7.196,4.718-8.771,2.961
		C176.728,74.772,176.983,71.038,180.009,68.328z"/>
	<path fill="#FEDD2F" d="M185.779,69.602c-1.599,5.002,16.514,10.791,18.112,5.79c1.599-5.002-1.16-10.353-6.161-11.951
		C192.729,61.841,187.378,64.601,185.779,69.602z"/>
	<path fill="#FEDD2F" d="M179.437,77.558c2.71,3.025,13.667-6.787,10.958-9.813c-2.71-3.025-7.359-3.282-10.386-0.572
		C176.983,69.882,176.728,74.532,179.437,77.558z"/>
	<path fill="#FEDD2F" d="M178.771,236.173l-58.245-56.895c-7.032-6.869-3.499-18.81,6.14-20.745l70.802-14.222
		c8.447-1.697,15.955,5.637,14.457,14.121l-12.558,71.115C197.657,239.231,185.805,243.042,178.771,236.173z"/>
</g>
</svg>
