<?xml version="1.0" encoding="utf-8"?>
<!-- Generator: Adobe Illustrator 16.0.0, SVG Export Plug-In . SVG Version: 6.00 Build 0)  -->
<!DOCTYPE svg PUBLIC "-//W3C//DTD SVG 1.1//EN" "http://www.w3.org/Graphics/SVG/1.1/DTD/svg11.dtd">
<svg version="1.1" id="Layer_1" xmlns="http://www.w3.org/2000/svg" xmlns:xlink="http://www.w3.org/1999/xlink" x="0px" y="0px"
	 width="249.552px" height="390px" viewBox="0 0 249.552 390" enable-background="new 0 0 249.552 390" xml:space="preserve">
<g>
	<g>
		<path fill="#A5A5A6" d="M215.006,246.699c-7.936,0-14.37-6.434-14.37-14.37v-131c0-40.025-32.562-72.588-72.589-72.588
			c-40.025,0-72.588,32.562-72.588,72.588v13.846c0,7.938-6.435,14.371-14.371,14.371s-14.37-6.434-14.37-14.371v-13.846
			C26.718,45.456,72.175,0,128.047,0c55.873,0,101.33,45.456,101.33,101.329v131C229.377,240.266,222.943,246.699,215.006,246.699z"
			/>
	</g>
	<g>
		<g>
			<path fill="#7C7C7F" d="M215.006,246.699c-7.937,0-14.37-6.434-14.37-14.37V93.987c0,0,6.473,47.141,16.149,70.873
				c5.525,13.552,12.591,25.799,12.591,25.799v41.67C229.376,240.266,222.942,246.699,215.006,246.699z"/>
		</g>
	</g>
	<g>
		<circle fill="#85CEBD" cx="128.047" cy="268.495" r="121.505"/>
	</g>
	<g opacity="0.2">
		<circle fill="#616365" cx="128.047" cy="268.495" r="121.505"/>
	</g>
	<g>
		<circle fill="#7ECCBA" cx="131.363" cy="262.111" r="115.121"/>
	</g>
	<g opacity="0.2">
		<circle fill="#616365" cx="128.047" cy="275.13" r="94.264"/>
	</g>
	<g>
		<path fill="#FEDD2F" d="M52.409,126.708l5.945,0.916l-3.799-4.736l26.619-4.102c1.336-0.205,1.336-2.131,0-2.336l-26.618-4.102
			l3.799-4.735l-5.945,0.916l9.743-24.999c0.491-1.26-1.177-2.224-2.022-1.169L43.302,103.34l-2.213-5.681l-2.214,5.68
			L22.049,82.361c-0.847-1.056-2.515-0.092-2.023,1.168l9.742,24.999l-5.945-0.916l3.799,4.736L1.002,116.45
			c-1.336,0.205-1.336,2.131,0,2.336l26.618,4.102l-3.799,4.735l5.945-0.916l-9.743,24.999c-0.491,1.26,1.177,2.224,2.023,1.169
			l16.828-20.979l2.214,5.681l2.213-5.68l16.827,20.978c0.846,1.056,2.514,0.092,2.023-1.169L52.409,126.708z"/>
	</g>
	<g>
		<circle fill="#A1D8CA" cx="128.047" cy="268.495" r="94.264"/>
	</g>
	<g>
		<path fill="#646668" d="M148.598,273.718c6.632-5.754,10.832-14.238,10.832-23.707c0-17.333-14.05-31.384-31.383-31.384
			c-17.332,0-31.383,14.051-31.383,31.384c0,9.469,4.2,17.953,10.832,23.707l-9.04,31.044c-1.41,4.843,2.222,9.683,7.265,9.683
			h44.652c5.043,0,8.676-4.84,7.266-9.683L148.598,273.718z"/>
	</g>
	<g>
		<path fill="#545759" d="M115.59,304.762l9.04-31.044c-6.632-5.754-10.832-14.238-10.832-23.707
			c0-14.361,9.649-26.461,22.816-30.189c-2.725-0.772-5.596-1.194-8.567-1.194c-17.332,0-31.383,14.051-31.383,31.384
			c0,9.469,4.2,17.953,10.832,23.707l-9.04,31.044c-1.41,4.843,2.222,9.683,7.265,9.683h17.135
			C117.812,314.444,114.18,309.604,115.59,304.762z"/>
	</g>
</g>
</svg>
