<?xml version="1.0" encoding="utf-8"?>
<!-- Generator: Adobe Illustrator 16.0.0, SVG Export Plug-In . SVG Version: 6.00 Build 0)  -->
<!DOCTYPE svg PUBLIC "-//W3C//DTD SVG 1.1//EN" "http://www.w3.org/Graphics/SVG/1.1/DTD/svg11.dtd">
<svg version="1.1" id="Layer_1" xmlns="http://www.w3.org/2000/svg" xmlns:xlink="http://www.w3.org/1999/xlink" x="0px" y="0px"
	 width="349.239px" height="390px" viewBox="0 0 349.239 390" enable-background="new 0 0 349.239 390" xml:space="preserve">
<g>
	<g>
		<ellipse fill="#9069AD" cx="105.851" cy="284.655" rx="105.851" ry="105.345"/>
	</g>
	<g>
		<ellipse fill="#FDDDCD" cx="105.852" cy="282.329" rx="64.136" ry="63.83"/>
	</g>
	<g>
		<path fill="#FDDDCD" d="M340.22,278.46l-54.191,41.44l6.158-229.166c0-15.755,12.773-28.526,28.527-28.526l0,0
			c15.754,0,28.525,12.771,28.525,28.526v169.473C349.239,267.364,345.905,274.112,340.22,278.46z"/>
	</g>
	<g opacity="0.2">
		<path fill="#88888A" d="M290.997,143.902l34.615-27.948l23.627-30.515c0-22.782-22.486-38.749-43.994-31.239l-9.631,12.922
			L290.997,143.902z"/>
	</g>
	<g>
		<path fill="#FDDDCD" d="M268.233,53.958l37.012-12.923c21.508-7.51,43.994,8.457,43.994,31.239v38.629l-62.318,11.717
			c-18.961,5.16-38.516-6.027-43.676-24.987v-0.001C238.085,78.672,249.272,59.118,268.233,53.958z"/>
	</g>
	<g>
		<path fill="#FDDDCD" d="M89.892,263.418L89.892,263.418c-47.931,0-86.787-38.856-86.787-86.786V62.208h173.573v114.424
			C176.679,224.562,137.823,263.418,89.892,263.418z"/>
	</g>
	<g>
		<path fill="#FFFFFF" d="M89.892,230.36L89.892,230.36c-24.779,0-44.867-20.088-44.867-44.867v-1.85
			c0-4.962,4.022-8.984,8.984-8.984h71.766c4.962,0,8.984,4.022,8.984,8.984v1.85C134.759,210.272,114.671,230.36,89.892,230.36z"/>
	</g>
	<g opacity="0.2">
		<path fill="#88888A" d="M187.587,265.538c0,33.383-35.889,60.445-80.16,60.445s-58.672-27.062-58.672-60.445
			c0-33.382,27.281-54.455,63.927-57.449C156.797,204.483,187.587,232.156,187.587,265.538z"/>
	</g>
	<g opacity="0.2">
		<path fill="#88888A" d="M205.733,279.823c0,35.168-40.531,63.677-90.529,63.677s-66.262-28.509-66.262-63.677
			s30.811-57.368,72.196-60.522C170.961,215.503,205.733,244.655,205.733,279.823z"/>
	</g>
	<g>
		<ellipse fill="#FDDDCD" cx="127.338" cy="275.71" rx="82.313" ry="63.83"/>
	</g>
	<g opacity="0.2">
		<path fill="#88888A" d="M288.368,232.831c11.135,4.845,30.441,2.271,30.441,2.271s1.361,17.569-7.539,29.489"/>
	</g>
	<g opacity="0.2">
		<path fill="#88888A" d="M144.869,77.876H3.105l0,0c0-38.621,31.309-69.93,69.93-69.93h159.891H214.8
			C214.8,46.567,183.491,77.876,144.869,77.876z"/>
	</g>
	<g>
		<path fill="#7ECCBA" d="M14.689,151.876L14.689,151.876c-6.397,0-11.584-5.186-11.584-11.583V69.931h23.167v70.362
			C26.273,146.69,21.087,151.876,14.689,151.876z"/>
	</g>
	<g>
		<path fill="#7ECCBA" d="M162.997,69.931H3.105l0,0C3.105,31.31,34.415,0,73.036,0h159.891l0,0
			C232.927,38.622,201.618,69.931,162.997,69.931z"/>
	</g>
	<g>
		<path fill="#F3F2A9" d="M65.995,194.044l1.955,0.301l-1.249-1.558l8.754-1.349c0.439-0.068,0.439-0.701,0-0.769l-8.754-1.349
			l1.25-1.558l-1.956,0.302l3.205-8.223c0.161-0.414-0.388-0.73-0.666-0.384L63,186.358l-0.728-1.868l-0.729,1.868l-5.534-6.899
			c-0.278-0.348-0.826-0.03-0.665,0.384l3.204,8.222l-1.955-0.301l1.249,1.558l-8.754,1.349c-0.439,0.067-0.439,0.7,0,0.769
			l8.754,1.349l-1.25,1.558l1.956-0.301l-3.205,8.221c-0.161,0.415,0.388,0.731,0.666,0.385l5.534-6.899l0.729,1.868L63,195.75
			l5.534,6.899c0.278,0.348,0.827,0.03,0.665-0.385L65.995,194.044z"/>
	</g>
	<g opacity="0.2">
		<g>
			<path fill="#88888A" d="M122.757,145.417c-0.637,0-1.282-0.138-1.895-0.43c-2.2-1.049-3.135-3.683-2.086-5.883
				c4.625-9.705,10.849-11.154,14.147-11.154s9.523,1.448,14.149,11.154c1.048,2.2,0.114,4.833-2.086,5.883
				c-2.2,1.048-4.834,0.114-5.883-2.086c-1.8-3.778-4.168-6.126-6.181-6.126c-2.011,0-4.379,2.348-6.18,6.126
				C125.989,144.488,124.406,145.417,122.757,145.417z"/>
		</g>
		<g>
			<path fill="#88888A" d="M57.027,145.417c-1.649,0-3.231-0.929-3.987-2.516c-1.801-3.778-4.169-6.126-6.18-6.126
				c-2.013,0-4.381,2.348-6.181,6.126c-1.05,2.202-3.681,3.136-5.883,2.086c-2.2-1.05-3.134-3.683-2.086-5.883
				c4.626-9.705,10.851-11.154,14.149-11.154l0,0c3.299,0,9.522,1.449,14.147,11.154c1.049,2.2,0.114,4.834-2.086,5.883
				C58.309,145.279,57.663,145.417,57.027,145.417z"/>
		</g>
	</g>
	<g opacity="0.2">
		<path fill="#88888A" d="M105.767,150.933l-10.073,8.344c-3.521,2.917-7.9,2.917-11.423,0l-10.073-8.344l13.867-42.312
			c0.66-2.487,3.176-2.487,3.835,0L105.767,150.933z"/>
	</g>
	<g>
		<ellipse fill="#FDDDCD" cx="239.529" cy="275.71" rx="73.777" ry="57.211"/>
	</g>
	<g>
		<g>
			<g>
				<path fill="#A383A8" d="M146.281,277.366h-39.808c-0.913,0-1.654-0.742-1.654-1.655s0.741-1.655,1.654-1.655h39.808
					c0.913,0,1.654,0.742,1.654,1.655S147.194,277.366,146.281,277.366z"/>
			</g>
			<g>
				<path fill="#A383A8" d="M136.363,300.376c-0.438,0-0.877-0.174-1.203-0.518c-0.628-0.664-0.599-1.712,0.065-2.34
					c6.062-5.734,9.4-13.479,9.4-21.808c0-8.329-3.339-16.074-9.4-21.81c-0.664-0.628-0.693-1.675-0.065-2.34
					c0.629-0.664,1.677-0.692,2.341-0.064c6.729,6.366,10.435,14.966,10.435,24.214c0,9.247-3.706,17.847-10.435,24.212
					C137.18,300.226,136.771,300.376,136.363,300.376z"/>
			</g>
			<g>
				<path fill="#A383A8" d="M136.363,260.649c-0.914,0-1.655-0.741-1.655-1.655v-7.949h7.95c0.913,0,1.654,0.741,1.654,1.654
					c0,0.914-0.741,1.655-1.654,1.655h-4.641v4.64C138.017,259.908,137.276,260.649,136.363,260.649z"/>
			</g>
			<g>
				<path fill="#A383A8" d="M142.658,300.376h-7.95v-7.95c0-0.913,0.741-1.654,1.655-1.654c0.913,0,1.654,0.741,1.654,1.654v4.641
					h4.641c0.913,0,1.654,0.741,1.654,1.654C144.312,299.635,143.571,300.376,142.658,300.376z"/>
			</g>
			<g>
				<path fill="#A383A8" d="M100.95,282.888c-3.957,0-7.178-3.22-7.178-7.177c0-3.958,3.221-7.179,7.178-7.179
					c3.958,0,7.179,3.221,7.179,7.179C108.128,279.668,104.908,282.888,100.95,282.888z M100.95,271.842
					c-2.133,0-3.868,1.735-3.868,3.869c0,2.133,1.735,3.868,3.868,3.868s3.869-1.735,3.869-3.868
					C104.819,273.577,103.083,271.842,100.95,271.842z"/>
			</g>
			<g>
				<path fill="#A383A8" d="M118.634,282.888c-0.913,0-1.654-0.74-1.654-1.654v-11.046c0-0.914,0.741-1.655,1.654-1.655
					c0.914,0,1.655,0.741,1.655,1.655v11.046C120.29,282.147,119.548,282.888,118.634,282.888z"/>
			</g>
		</g>
		<g>
			<path fill="#A383A8" d="M154.542,300.737c-0.913,0-1.654-0.742-1.654-1.655c0-2.596,1.174-3.95,2.117-5.04
				c0.788-0.91,1.31-1.512,1.31-2.873c0-1.359-0.521-1.961-1.309-2.87c-0.944-1.089-2.118-2.443-2.118-5.038
				c0-2.593,1.174-3.947,2.118-5.034c0.788-0.909,1.309-1.51,1.309-2.867c0-1.358-0.521-1.96-1.309-2.869
				c-0.944-1.088-2.118-2.442-2.118-5.036s1.174-3.947,2.118-5.035c0.788-0.91,1.309-1.51,1.309-2.869
				c0-1.357-0.521-1.958-1.309-2.867c-0.944-1.088-2.118-2.442-2.118-5.036c0-0.913,0.741-1.654,1.654-1.654
				c0.914,0,1.655,0.741,1.655,1.654c0,1.358,0.521,1.959,1.309,2.868c0.944,1.088,2.118,2.442,2.118,5.035
				c0,2.594-1.174,3.948-2.118,5.036c-0.788,0.909-1.309,1.51-1.309,2.868s0.521,1.959,1.309,2.869
				c0.944,1.088,2.118,2.442,2.118,5.036c0,2.593-1.174,3.948-2.118,5.036c-0.788,0.908-1.309,1.508-1.309,2.865
				c0,1.359,0.521,1.961,1.309,2.87c0.944,1.089,2.118,2.443,2.118,5.038c0,2.596-1.174,3.951-2.118,5.041
				c-0.788,0.91-1.309,1.512-1.309,2.872C156.198,299.995,155.457,300.737,154.542,300.737z"/>
		</g>
		<g>
			<path fill="#A383A8" d="M165.693,292.823c-0.914,0-1.655-0.741-1.655-1.654c0-1.359-0.521-1.961-1.309-2.87
				c-0.944-1.089-2.118-2.443-2.118-5.038c0-2.593,1.174-3.947,2.118-5.035c0.788-0.908,1.309-1.509,1.309-2.866
				c0-1.358-0.521-1.96-1.309-2.869c-0.944-1.088-2.118-2.442-2.118-5.036s1.174-3.947,2.118-5.035
				c0.788-0.91,1.309-1.51,1.309-2.869c0-0.913,0.741-1.654,1.655-1.654c0.913,0,1.654,0.741,1.654,1.654
				c0,2.594-1.174,3.948-2.118,5.036c-0.788,0.909-1.309,1.51-1.309,2.868s0.521,1.959,1.309,2.869
				c0.944,1.088,2.118,2.442,2.118,5.036c0,2.593-1.174,3.948-2.118,5.036c-0.788,0.908-1.309,1.508-1.309,2.865
				c0,1.359,0.521,1.961,1.309,2.87c0.944,1.089,2.118,2.443,2.118,5.038C167.347,292.082,166.606,292.823,165.693,292.823z"/>
		</g>
		<g>
			<path fill="#A383A8" d="M169.988,284.916c-0.913,0-1.654-0.741-1.654-1.655c0-2.593,1.174-3.947,2.118-5.035
				c0.788-0.908,1.309-1.509,1.309-2.866c0-1.358-0.521-1.96-1.309-2.869c-0.944-1.088-2.118-2.442-2.118-5.036
				c0-0.914,0.741-1.655,1.654-1.655c0.914,0,1.655,0.741,1.655,1.655c0,1.358,0.521,1.959,1.309,2.869
				c0.944,1.088,2.118,2.442,2.118,5.036c0,2.593-1.173,3.948-2.118,5.036c-0.788,0.908-1.309,1.508-1.309,2.865
				C171.643,284.175,170.902,284.916,169.988,284.916z"/>
		</g>
	</g>
	<g>
		<path fill="#FAB5A0" d="M104.926,150.954H74.858c-1.667,0-2.824-1.663-2.244-3.227L87.648,107.2c0.772-2.081,3.716-2.081,4.488,0
			l15.034,40.527C107.75,149.291,106.593,150.954,104.926,150.954z"/>
	</g>
	<g>
		<g>
			<path fill="#9069AD" d="M122.757,138.841c-0.637,0-1.282-0.139-1.895-0.43c-2.2-1.049-3.135-3.683-2.086-5.883
				c4.625-9.705,10.849-11.154,14.147-11.154s9.523,1.448,14.149,11.154c1.048,2.2,0.114,4.833-2.086,5.883
				c-2.2,1.048-4.834,0.114-5.883-2.086c-1.8-3.778-4.168-6.126-6.181-6.126c-2.011,0-4.379,2.348-6.18,6.126
				C125.989,137.912,124.406,138.841,122.757,138.841z"/>
		</g>
		<g>
			<path fill="#9069AD" d="M57.027,138.841c-1.649,0-3.231-0.929-3.987-2.516c-1.801-3.778-4.169-6.126-6.18-6.126
				c-2.013,0-4.381,2.348-6.181,6.126c-1.05,2.202-3.681,3.135-5.883,2.086c-2.2-1.05-3.134-3.683-2.086-5.883
				c4.626-9.705,10.851-11.154,14.149-11.154l0,0c3.299,0,9.522,1.449,14.147,11.154c1.049,2.2,0.114,4.834-2.086,5.883
				C58.309,138.702,57.663,138.841,57.027,138.841z"/>
		</g>
	</g>
</g>
</svg>
