<?xml version="1.0" encoding="utf-8"?>
<!-- Generator: Adobe Illustrator 16.0.0, SVG Export Plug-In . SVG Version: 6.00 Build 0)  -->
<!DOCTYPE svg PUBLIC "-//W3C//DTD SVG 1.1//EN" "http://www.w3.org/Graphics/SVG/1.1/DTD/svg11.dtd">
<svg version="1.1" id="Layer_1" xmlns="http://www.w3.org/2000/svg" xmlns:xlink="http://www.w3.org/1999/xlink" x="0px" y="0px"
	 width="383.713px" height="390.001px" viewBox="0 0 383.713 390.001" enable-background="new 0 0 383.713 390.001"
	 xml:space="preserve">
<g>
	<path fill="#F5F5F6" d="M158.07,368.399c0,0,63.723,25.014,135.858,21.207c40.86-2.156,7.76-27.94-65.782-34.953
		C154.604,347.642,158.07,368.399,158.07,368.399z"/>
	<path fill="#FFE370" d="M161.951,61.959c0,3.774-8.059,6.708-8.764,10.275c-0.727,3.675,5.582,9.462,4.18,12.843
		c-1.426,3.441-9.993,3.063-12.041,6.121c-2.062,3.082,1.549,10.853-1.063,13.465c-2.612,2.613-10.383-0.999-13.465,1.064
		c-3.058,2.047-2.681,10.613-6.121,12.04c-3.381,1.402-9.168-4.907-12.843-4.181c-3.566,0.706-6.501,8.765-10.274,8.765
		c-3.774,0-6.708-8.059-10.274-8.765c-3.676-0.727-9.463,5.583-12.844,4.181c-3.44-1.427-3.063-9.994-6.121-12.041
		c-3.082-2.063-10.853,1.549-13.465-1.063c-2.613-2.613,0.999-10.384-1.063-13.465c-2.048-3.059-10.614-2.682-12.041-6.121
		c-1.402-3.382,4.907-9.168,4.181-12.844c-0.706-3.566-8.765-6.5-8.765-10.274c0-3.773,8.059-6.708,8.765-10.274
		c0.727-3.675-5.582-9.462-4.181-12.844c1.427-3.439,9.994-3.062,12.041-6.121c2.063-3.081-1.548-10.852,1.064-13.465
		c2.612-2.612,10.383,1,13.464-1.063c3.059-2.047,2.682-10.614,6.121-12.04c3.382-1.402,9.168,4.907,12.844,4.18
		c3.566-0.705,6.5-8.764,10.274-8.764c3.773,0,6.708,8.059,10.274,8.764c3.676,0.728,9.463-5.582,12.844-4.18
		c3.44,1.426,3.063,9.994,6.121,12.041c3.082,2.062,10.853-1.549,13.465,1.063s-0.999,10.384,1.063,13.465
		c2.047,3.058,10.614,2.681,12.041,6.121c1.401,3.382-4.907,9.168-4.181,12.843C153.893,55.251,161.951,58.186,161.951,61.959z"/>
	<path fill="#DBEFEB" d="M203.581,98.607c-5.481,0-10.643,1.357-15.178,3.745c-10.514-20.524-31.862-34.581-56.507-34.581
		c-23.991,0-44.867,13.313-55.658,32.953c-8.237-8.948-20.044-14.56-33.165-14.56c-19.48,0-36.074,12.358-42.37,29.662
		c-2.725,7.488,2.805,15.413,10.773,15.413h56.951h19.72h82.801h24.416h26.008c8.97,0,14.583-9.907,9.772-17.478
		C225.355,104.652,215.174,98.607,203.581,98.607z"/>
	<path fill="#D1EBE5" d="M357.373,186.018c-4.923,0-9.559,1.22-13.632,3.364c-9.443-18.435-28.618-31.061-50.753-31.061
		c-21.548,0-40.298,11.959-49.989,29.598c-7.398-8.037-18.003-13.076-29.788-13.076c-17.496,0-32.4,11.099-38.056,26.641
		c-2.447,6.726,2.52,13.844,9.677,13.844h51.151h17.712h74.368h21.93h23.358c8.057,0,13.098-8.898,8.777-15.698
		C376.93,191.446,367.785,186.018,357.373,186.018z"/>
	<path fill="#D1EBE5" d="M161.18,320.696c-4.203,0-8.161,1.041-11.639,2.871c-8.062-15.738-24.434-26.518-43.332-26.518
		c-18.396,0-34.405,10.21-42.68,25.27c-6.316-6.861-15.371-11.164-25.433-11.164c-14.938,0-27.663,9.477-32.491,22.745
		c-2.089,5.742,2.151,11.819,8.262,11.819h43.672h15.122h63.494h18.724h19.943c6.878,0,11.182-7.597,7.493-13.402
		C177.876,325.331,170.069,320.696,161.18,320.696z"/>
	<path fill="#F26650" d="M197.678,0C121.953,0,60.566,84.257,60.566,188.192c0,103.935,61.387,188.191,137.111,188.191
		s137.111-84.257,137.111-188.191C334.789,84.257,273.402,0,197.678,0z M197.678,326.005c-34.817,0-63.042-61.701-63.042-137.812
		c0-76.113,28.225-137.814,63.042-137.814c34.816,0,63.041,61.701,63.041,137.814C260.719,264.304,232.494,326.005,197.678,326.005z
		"/>
	<path opacity="0.2" fill="#5C5E61" d="M200.933,0.057c68.135,2.37,122.838,78.923,122.838,173.013
		c0,95.583-56.454,173.068-126.093,173.068c-69.64,0-126.094-77.485-126.094-173.068c0-94.09,54.703-170.643,122.838-173.013
		C120.201,2.431,60.566,85.75,60.566,188.192c0,103.936,61.387,188.191,137.111,188.191s137.111-84.256,137.111-188.191
		C334.789,85.75,275.153,2.431,200.933,0.057z"/>
</g>
</svg>
